<svg width="297" height="422" viewBox="0 0 297 422" fill="none" xmlns="http://www.w3.org/2000/svg">
<g clip-path="url(#clip0)">
<path d="M297 382.655H0V383.874H297V382.655Z" fill="#3F3D56"/>
<path d="M190.869 117.318C190.869 117.318 178.246 119.422 171.761 118.242C165.275 117.061 152.406 123.762 152.406 123.762L118.399 136.372C118.399 136.372 87.6392 161.614 83.3137 144.026C80.8913 134.177 112.592 126.26 112.592 126.26L168.313 99.5274L188.588 92.5088L190.869 117.318Z" fill="#FFB9B9"/>
<path d="M193.297 190.873L184.408 199.407L185.994 236.59C185.994 236.59 187.82 285.354 187.211 287.183C186.602 289.012 175.647 363.378 175.647 363.378C175.647 363.378 188.428 369.473 199.992 365.816C199.992 365.816 211.555 310.956 211.555 295.107L224.945 239.638L245.637 303.031C245.637 303.031 246.854 345.7 249.289 359.72C251.723 373.74 251.723 375.569 251.723 375.569C251.723 375.569 271.199 381.055 276.068 375.569C276.068 375.569 273.633 303.641 271.807 296.326L267.547 209.16L193.297 190.873Z" fill="#2F2E41"/>
<path d="M180.517 363.377C180.517 363.377 179.299 361.549 175.648 366.425C171.996 371.302 160.433 380.445 160.433 380.445C160.433 380.445 128.785 402.999 152.521 404.218C176.256 405.437 180.517 393.246 180.517 393.246C180.517 393.246 200.601 389.588 201.209 385.321C201.818 381.055 198.775 363.987 198.775 363.987L180.517 363.377Z" fill="#2F2E41"/>
<path d="M252.94 374.35C252.94 374.35 248.68 388.979 249.897 395.075C251.115 401.17 247.463 423.724 264.504 421.895C281.545 420.066 276.068 400.561 276.068 400.561L270.59 375.569L252.94 374.35Z" fill="#2F2E41"/>
<path d="M228.9 55.2464C239.993 55.2464 248.984 46.2404 248.984 35.131C248.984 24.0216 239.993 15.0156 228.9 15.0156C217.808 15.0156 208.816 24.0216 208.816 35.131C208.816 46.2404 217.808 55.2464 228.9 55.2464Z" fill="#FFB9B9"/>
<path d="M217.033 45.7983C217.033 45.7983 223.119 67.1328 218.25 75.057C213.382 82.9812 251.115 76.2761 253.55 68.9614C253.55 68.9614 241.377 55.5512 243.203 42.7505L217.033 45.7983Z" fill="#FFB9B9"/>
<path d="M226.771 74.4478C226.771 74.4478 243.431 75.5759 251.533 66.478L273.209 75.7562C275.578 76.7699 277.532 78.5587 278.753 80.8299C279.974 83.1011 280.389 85.7201 279.93 88.2583L268.765 150.033C268.765 150.033 273.873 189.044 271.199 215.255C268.783 238.936 181.125 215.255 184.168 195.14C184.494 192.985 184.795 190.781 185.072 188.563C187.632 168.75 191.332 149.102 196.154 129.716C197.772 123.094 193.297 85.4198 193.297 85.4198L220.087 67.6421C220.087 67.6421 221.293 74.4478 226.771 74.4478Z" fill="#F2B23D"/>
<path d="M208.71 83.8435L203.617 78.6006L166.314 99.6396C166.314 99.6396 177.242 118.757 181.545 118.816C183.194 118.839 202.765 119.798 207.534 113.459C215.209 103.259 208.71 83.8435 208.71 83.8435Z" fill="#F2B23D"/>
<path d="M223.966 21.9689C226.947 21.502 229.952 21.2037 232.966 21.0753C235.15 20.9824 237.425 20.9972 239.398 21.9385C242.374 23.3578 244.041 26.5662 245.133 29.6809C246.224 32.7956 246.998 36.1242 249.023 38.7287C252.392 35.2065 253.065 29.9701 253.567 25.1184C253.92 21.7059 254.233 18.0672 252.657 15.0208C251.687 13.1444 250.086 11.6822 248.464 10.3304C240.723 3.87727 230.891 -1.20045 220.924 0.248949L220.691 1.79018C218.99 1.73897 217.288 1.8461 215.606 2.1102L215.963 5.93395L210.668 6.27031L210.465 10.2554L205.111 10.4413C205.214 11.9727 205.879 13.4117 206.979 14.481C206.155 15.077 205.22 15.5002 204.229 15.7251C205.121 19.1868 205.988 22.6564 206.91 26.1103C207.59 28.6546 207.469 30.9025 210.193 29.6609C212.268 28.7154 213.672 25.7091 215.769 24.4669C218.24 23.0036 221.165 22.4079 223.966 21.9689Z" fill="#2F2E41"/>
<path d="M289.903 110.784L290.198 132.267L284.02 193.837C284.02 193.837 287.353 226.389 277.28 227.452C259.294 229.351 272.551 191.802 272.551 191.802L272.843 155.483C272.843 155.483 274.765 141.084 271.453 135.376C268.142 129.667 265.831 117.062 265.831 117.062L289.903 110.784Z" fill="#FFB9B9"/>
<path d="M273.024 77.4951C275.49 77.4944 277.888 78.2964 279.859 79.7802C281.829 81.2639 283.265 83.349 283.949 85.7211C287.835 99.2102 294.894 124.593 293.108 125.041C290.674 125.65 262.069 127.479 262.069 127.479L273.024 77.4951Z" fill="#F2B23D"/>
<path d="M50.8952 180.914L51.0419 180.949C53.6995 181.592 56.0868 183.058 57.8635 185.139C59.6403 187.22 60.7159 189.81 60.937 192.539C61.1582 195.268 60.5136 197.997 59.0951 200.338C57.6766 202.679 55.5566 204.511 53.0373 205.575C52.046 205.996 51.0055 206.29 49.9405 206.45C48.0501 206.739 46.1194 206.606 44.2861 206.061C42.4529 205.516 40.7624 204.573 39.3354 203.298C37.9084 202.023 36.7801 200.448 36.031 198.686C35.282 196.924 34.9307 195.018 35.0023 193.104C35.0738 191.19 35.5665 189.315 36.445 187.614C37.3235 185.913 38.5662 184.427 40.0844 183.263C41.6026 182.098 43.3588 181.284 45.2276 180.878C47.0964 180.472 49.0316 180.484 50.8952 180.914V180.914Z" fill="#F2B23D"/>
<path d="M50.8951 180.914C52.1531 189.078 52.8687 197.316 53.0373 205.575C52.0459 205.996 51.0054 206.29 49.9405 206.45C50.0178 197.776 49.2623 189.115 47.6846 180.585C48.7642 180.561 49.8428 180.671 50.8951 180.914Z" fill="#E6E6E6"/>
<path d="M102.588 183.629L58.0361 185.44L59.291 200.211L103.569 193.522C104.355 193.414 105.067 193.001 105.553 192.373C106.04 191.745 106.261 190.951 106.17 190.161L106.11 189.639L107.858 189.567C108.073 189.558 108.283 189.504 108.475 189.409C108.668 189.313 108.838 189.178 108.975 189.013C109.112 188.847 109.213 188.655 109.271 188.448C109.33 188.241 109.344 188.024 109.313 187.811L109.302 187.737C109.246 187.344 109.039 186.988 108.725 186.744C108.412 186.5 108.016 186.387 107.621 186.429L105.764 186.627L105.729 186.321C105.641 185.558 105.269 184.857 104.686 184.358C104.104 183.858 103.354 183.598 102.588 183.629Z" fill="#3F3D56"/>
<path d="M77.9104 192.325C77.8644 192.517 77.7572 192.688 77.605 192.813C77.4529 192.939 77.2642 193.011 77.0675 193.019L73.8675 193.152C73.6494 193.16 73.4357 193.09 73.2652 192.953C73.0947 192.817 72.9788 192.623 72.9387 192.409L72.6145 190.638C72.592 190.515 72.595 190.389 72.6235 190.267C72.652 190.145 72.7052 190.031 72.7798 189.931C72.8545 189.831 72.9489 189.747 73.0573 189.685C73.1657 189.624 73.2856 189.585 73.4097 189.572L76.6474 189.226C76.8806 189.2 77.1146 189.267 77.2999 189.411C77.4852 189.555 77.6071 189.766 77.64 189.998L77.6399 189.998L77.9266 191.982C77.9429 192.097 77.9374 192.213 77.9104 192.325ZM73.2118 190.403C73.2019 190.444 73.2008 190.487 73.2085 190.528L73.5329 192.3C73.5462 192.371 73.5848 192.436 73.6416 192.481C73.6984 192.527 73.7697 192.55 73.8424 192.547L77.0423 192.415C77.0846 192.413 77.126 192.402 77.1638 192.383C77.2017 192.365 77.2352 192.338 77.2622 192.306C77.2892 192.273 77.3091 192.235 77.3205 192.194C77.332 192.154 77.3348 192.111 77.3287 192.069L77.0421 190.085C77.0312 190.008 76.9906 189.937 76.9289 189.889C76.8671 189.841 76.7892 189.819 76.7115 189.828L73.4736 190.173C73.4322 190.177 73.3921 190.19 73.356 190.211C73.3199 190.231 73.2885 190.259 73.2638 190.293C73.2392 190.326 73.2215 190.363 73.2118 190.403Z" fill="#E6E6E6"/>
</g>
<defs>
<clipPath id="clip0">
<rect width="297" height="422" fill="white"/>
</clipPath>
</defs>
</svg>
