<svg width="610" height="418" viewBox="0 0 610 418" fill="none" xmlns="http://www.w3.org/2000/svg">
<g clip-path="url(#clip0)">
<path d="M577.145 340.105C574.512 340.105 571.985 341.385 569.63 343.712C563.226 320.617 553.311 305.776 542.173 305.776C531.034 305.776 521.12 320.617 514.715 343.712C512.36 341.385 509.834 340.105 507.201 340.105C494.546 340.105 484.288 369.307 484.288 405.329H600.057C600.057 369.307 589.799 340.105 577.145 340.105Z" fill="#D0CDE1"/>
<path d="M234.66 303.196C231.937 303.252 229.304 304.179 227.146 305.841C220.741 288.905 210.827 278.021 199.688 278.021C188.55 278.021 178.635 288.905 172.231 305.841C170.073 304.179 167.439 303.252 164.716 303.196C152.062 303.196 141.804 324.611 141.804 351.027H257.573C257.573 324.611 247.315 303.196 234.66 303.196Z" fill="#D0CDE1"/>
<path d="M610 418H1.01758C1.56628 368.489 137.686 328.402 305.509 328.402C473.332 328.402 609.451 368.489 610 418Z" fill="#3F3D56"/>
<path d="M77.8895 223.33C120.907 223.33 155.779 188.436 155.779 145.391C155.779 102.346 120.907 67.4507 77.8895 67.4507C34.8723 67.4507 0 102.346 0 145.391C0 188.436 34.8723 223.33 77.8895 223.33Z" fill="#D0CDE1"/>
<path d="M80.4019 368.525H76.0049V154.461C76.0049 148.437 76.7432 142.436 78.2034 136.591C79.6635 142.436 80.4019 148.437 80.4019 154.461L80.4019 368.525Z" fill="#3F3D56"/>
<path d="M78.4508 211.674L76.1348 207.934L108.668 187.761C110.925 186.362 113.537 185.641 116.192 185.684C115.049 188.083 113.241 190.102 110.984 191.501L78.4508 211.674Z" fill="#3F3D56"/>
<path d="M76.9183 191.344L79.2343 187.604L56.8457 173.721C55.0702 172.62 52.9462 172.227 50.8945 172.619C51.4568 174.632 52.7542 176.36 54.5297 177.461L76.9183 191.344Z" fill="#3F3D56"/>
<path d="M76.9183 276.826L79.2343 273.086L56.8457 259.204C55.0702 258.103 52.9462 257.71 50.8945 258.102C51.4568 260.115 52.7542 261.843 54.5297 262.944L76.9183 276.826Z" fill="#3F3D56"/>
<path d="M490.92 221.306C532.213 221.306 565.688 187.81 565.688 146.49C565.688 105.171 532.213 71.6743 490.92 71.6743C449.627 71.6743 416.152 105.171 416.152 146.49C416.152 187.81 449.627 221.306 490.92 221.306Z" fill="#D0CDE1"/>
<path d="M488.509 360.681H492.73V155.197C492.73 149.415 492.021 143.654 490.619 138.043C489.218 143.654 488.509 149.415 488.509 155.197V360.681Z" fill="#3F3D56"/>
<path d="M490.381 210.117L492.605 206.527L461.375 187.162C459.209 185.819 456.702 185.127 454.153 185.169C455.25 187.471 456.985 189.409 459.152 190.753L490.381 210.117Z" fill="#3F3D56"/>
<path d="M491.853 190.602L489.63 187.012L511.121 173.685C512.825 172.629 514.864 172.251 516.834 172.628C516.294 174.56 515.049 176.219 513.344 177.276L491.853 190.602Z" fill="#3F3D56"/>
<path d="M491.853 272.658L489.63 269.068L511.121 255.742C512.825 254.685 514.864 254.307 516.834 254.684C516.294 256.616 515.049 258.275 513.344 259.332L491.853 272.658Z" fill="#3F3D56"/>
<path d="M89.4089 410.489C88.7349 410.491 88.0686 410.632 87.4521 410.905C85.7842 408.245 83.2023 406.536 80.3017 406.536C77.401 406.536 74.8191 408.245 73.1512 410.905C72.5347 410.632 71.8684 410.491 71.1944 410.489C67.899 410.489 65.2275 413.852 65.2275 418H95.3758C95.3758 413.852 92.7043 410.489 89.4089 410.489Z" fill="#D0CDE1"/>
<path d="M276.328 405.351C275.617 405.366 274.93 405.611 274.371 406.05C272.703 401.571 270.121 398.693 267.221 398.693C264.32 398.693 261.738 401.571 260.07 406.05C259.511 405.611 258.824 405.366 258.113 405.351C254.818 405.351 252.146 411.014 252.146 418H282.295C282.295 411.014 279.623 405.351 276.328 405.351Z" fill="#D0CDE1"/>
<path d="M536.206 405.351C535.495 405.366 534.808 405.611 534.249 406.05C532.581 401.571 529.999 398.693 527.099 398.693C524.198 398.693 521.616 401.571 519.948 406.05C519.389 405.611 518.702 405.366 517.991 405.351C514.696 405.351 512.024 411.014 512.024 418H542.173C542.173 411.014 539.501 405.351 536.206 405.351Z" fill="#F2B23D"/>
<path d="M374.659 290.859L373.702 295.411L372.504 299.964L368.674 354.112L381.843 355.071L387.829 295.89L386.871 292.776L374.659 290.859Z" fill="#2F2E41"/>
<path d="M363.406 346.685L357.899 355.07C357.899 355.07 342.575 367.529 353.589 368.248C364.604 368.967 368.674 360.821 368.674 360.821C368.674 360.821 372.505 359.623 372.984 358.425C373.463 357.227 372.026 346.685 372.026 346.685H363.406Z" fill="#2F2E41"/>
<path d="M369.632 353.153C369.632 353.153 364.125 367.05 364.843 369.446C365.561 371.842 366.759 371.842 366.519 373.998C366.28 376.155 365.561 381.186 374.66 381.426C383.759 381.665 379.449 369.446 379.449 369.446L378.252 353.153H369.632Z" fill="#2F2E41"/>
<path d="M352.87 250.367C352.87 250.367 349.518 256.117 349.997 259.711C350.476 263.305 357.42 301.88 357.42 301.88L362.927 348.841L375.138 347.883L370.35 304.516L371.547 270.014L373.702 295.411L387.829 295.89L396.209 259.711C396.209 259.711 389.984 249.648 388.786 248.929C387.589 248.211 352.87 250.367 352.87 250.367Z" fill="#2F2E41"/>
<path d="M369.512 177.65C375.198 177.65 379.808 173.037 379.808 167.347C379.808 161.657 375.198 157.044 369.512 157.044C363.825 157.044 359.216 161.657 359.216 167.347C359.216 173.037 363.825 177.65 369.512 177.65Z" fill="#FFB8B8"/>
<path d="M366.519 173.936L367.955 187.593L383.758 185.197L375.139 169.144L366.519 173.936Z" fill="#FFB8B8"/>
<path d="M382.561 181.124C382.561 181.124 374.421 187.114 366.519 183.76L354.547 214.188V252.284C354.547 252.284 372.505 257.555 382.561 251.326C382.561 251.326 389.745 249.888 390.942 250.128C392.139 250.367 386.632 185.197 386.632 185.197L382.561 181.124Z" fill="#D0CDE1"/>
<path d="M375.139 182.561L380.646 190.468C381.717 192.444 382.056 194.735 381.604 196.937C380.885 200.771 380.167 250.846 386.871 252.763C393.576 254.68 397.886 254.44 397.886 254.44C397.886 254.44 391.9 225.689 394.055 220.657L400.759 190.468L383.04 180.405C383.04 180.405 381.932 175.853 380.092 178.368C378.725 180.071 377.043 181.494 375.139 182.561Z" fill="#575A89"/>
<path d="M359.096 227.126L367.275 181.124L359.096 185.437C359.096 185.437 349.758 189.27 347.842 193.823C345.927 198.375 338.265 220.178 338.265 220.178C338.265 220.178 340.18 233.356 347.363 227.845C354.547 222.335 352.871 219.699 352.871 219.699C352.871 219.699 346.645 245.096 347.603 245.815C348.561 246.534 349.039 253.242 349.039 253.242L356.462 251.805L359.096 227.126Z" fill="#575A89"/>
<path d="M349.758 201.49L352.871 196.937C352.871 196.937 359.91 182.801 365.01 187.593C370.11 192.385 355.504 203.406 355.504 203.406L349.758 201.49Z" fill="#FFB8B8"/>
<path d="M391.899 251.086L389.983 253.545L394.772 259.711L396.927 255.398L391.899 251.086Z" fill="#FFB8B8"/>
<path d="M365.384 158.813C364.329 158.823 363.404 159.478 362.536 160.08C361.669 160.681 360.685 161.282 359.636 161.163C359.146 161.076 358.685 160.872 358.289 160.57C357.894 160.268 357.576 159.876 357.363 159.426C356.945 158.523 356.675 157.559 356.564 156.57L357.759 156.992L356.791 155.891L367.077 152.764C370.188 151.818 373.706 150.906 376.557 152.473C378.03 153.382 379.222 154.682 380 156.229C381.621 159.194 382.448 162.528 382.4 165.906C382.352 169.285 381.431 172.594 379.727 175.512C378.15 175.377 377.121 173.724 376.866 172.161C376.61 170.597 376.859 168.978 376.543 167.426C376.227 165.873 375.044 164.283 373.461 164.332L372.628 166.11C373.161 164.972 369.995 162.194 369.239 161.678C368.577 161.299 367.958 160.848 367.395 160.332C366.741 159.648 366.576 158.801 365.384 158.813Z" fill="#2F2E41"/>
<path d="M350.716 198.854L356.462 202.448L350.716 226.408C350.716 226.408 341.617 237.669 338.265 226.408C335.459 216.982 346.074 204.03 349.608 200.06C350.296 199.287 350.716 198.854 350.716 198.854Z" fill="#575A89"/>
<path d="M395.252 189.989H400.759C400.759 189.989 405.548 199.333 406.027 204.365C406.506 209.396 406.506 229.282 406.506 229.282L397.168 257.076L389.984 251.804L395.97 235.272C395.97 235.272 395.252 231.678 395.97 230.001C396.689 228.324 393.815 219.699 393.337 219.219C392.858 218.74 395.252 189.989 395.252 189.989Z" fill="#575A89"/>
<path d="M265.147 78.6055L329.939 78.6055V72.8282L265.147 72.8282V78.6055Z" fill="#3F3D56"/>
<path d="M265.147 99.8882L329.939 99.8882V94.1109L265.147 94.1109V99.8882Z" fill="#3F3D56"/>
<path d="M265.147 118.954L329.939 118.954V113.176L265.147 113.176V118.954Z" fill="#3F3D56"/>
<path d="M159.958 131.371L191.737 98.9694H227.663V97.7627H191.234L191.057 97.9419L159.1 130.523L159.958 131.371Z" fill="#3F3D56"/>
<path d="M244.764 84.5844C248.68 84.5844 251.854 81.4082 251.854 77.4902C251.854 73.5722 248.68 70.396 244.764 70.396C240.849 70.396 237.675 73.5722 237.675 77.4902C237.675 81.4082 240.849 84.5844 244.764 84.5844Z" fill="#F2B23D"/>
<path d="M244.764 105.867C248.68 105.867 251.854 102.691 251.854 98.7729C251.854 94.8549 248.68 91.6787 244.764 91.6787C240.849 91.6787 237.675 94.8549 237.675 98.7729C237.675 102.691 240.849 105.867 244.764 105.867Z" fill="#F2B23D"/>
<path d="M244.764 124.933C248.68 124.933 251.854 121.756 251.854 117.838C251.854 113.92 248.68 110.744 244.764 110.744C240.849 110.744 237.675 113.92 237.675 117.838C237.675 121.756 240.849 124.933 244.764 124.933Z" fill="#F2B23D"/>
<path d="M240.777 75.7168C240.777 74.226 241.219 72.7687 242.047 71.5291C242.875 70.2896 244.051 69.3235 245.427 68.753C246.804 68.1825 248.318 68.0332 249.78 68.324C251.241 68.6149 252.583 69.3328 253.637 70.3869C254.69 71.4411 255.407 72.7841 255.698 74.2463C255.989 75.7084 255.84 77.224 255.269 78.6013C254.699 79.9786 253.734 81.1558 252.495 81.9841C251.256 82.8123 249.8 83.2544 248.31 83.2544C246.313 83.2522 244.398 82.4573 242.986 81.0442C241.574 79.6311 240.78 77.7152 240.777 75.7168ZM241.664 75.7168C241.664 77.0322 242.053 78.3181 242.784 79.4118C243.514 80.5055 244.552 81.358 245.767 81.8614C246.981 82.3647 248.317 82.4965 249.607 82.2398C250.896 81.9832 252.08 81.3498 253.01 80.4196C253.939 79.4895 254.572 78.3044 254.829 77.0143C255.085 75.7242 254.954 74.3869 254.451 73.1716C253.948 71.9564 253.096 70.9176 252.003 70.1868C250.91 69.456 249.625 69.066 248.31 69.066C246.548 69.068 244.859 69.7693 243.612 71.0162C242.366 72.263 241.666 73.9535 241.664 75.7168Z" fill="#3F3D56"/>
<path d="M240.777 96.999C240.777 95.5082 241.219 94.0509 242.047 92.8114C242.875 91.5718 244.051 90.6057 245.427 90.0352C246.804 89.4647 248.318 89.3154 249.78 89.6063C251.241 89.8971 252.583 90.615 253.637 91.6691C254.69 92.7233 255.407 94.0664 255.698 95.5285C255.989 96.9907 255.84 98.5062 255.269 99.8836C254.699 101.261 253.734 102.438 252.495 103.266C251.256 104.095 249.8 104.537 248.31 104.537C246.313 104.534 244.398 103.74 242.986 102.326C241.574 100.913 240.78 98.9974 240.777 96.999ZM241.664 96.999C241.664 98.3144 242.053 99.6003 242.784 100.694C243.514 101.788 244.552 102.64 245.767 103.144C246.981 103.647 248.317 103.779 249.607 103.522C250.896 103.265 252.08 102.632 253.01 101.702C253.939 100.772 254.572 99.5867 254.829 98.2966C255.085 97.0064 254.954 95.6692 254.451 94.4539C253.948 93.2386 253.096 92.1999 252.003 91.4691C250.91 90.7383 249.625 90.3482 248.31 90.3482C246.548 90.3502 244.859 91.0516 243.612 92.2984C242.366 93.5452 241.666 95.2357 241.664 96.999Z" fill="#3F3D56"/>
<path d="M240.777 116.065C240.777 114.574 241.219 113.117 242.047 111.877C242.875 110.638 244.051 109.672 245.427 109.101C246.804 108.531 248.318 108.381 249.78 108.672C251.241 108.963 252.583 109.681 253.637 110.735C254.69 111.789 255.407 113.132 255.698 114.594C255.989 116.057 255.84 117.572 255.269 118.949C254.699 120.327 253.734 121.504 252.495 122.332C251.256 123.16 249.8 123.603 248.31 123.603C246.313 123.6 244.398 122.805 242.986 121.392C241.574 119.979 240.78 118.063 240.777 116.065ZM241.664 116.065C241.664 117.38 242.053 118.666 242.784 119.76C243.514 120.854 244.552 121.706 245.767 122.21C246.981 122.713 248.317 122.845 249.607 122.588C250.896 122.331 252.08 121.698 253.01 120.768C253.939 119.838 254.572 118.653 254.829 117.362C255.085 116.072 254.954 114.735 254.451 113.52C253.948 112.305 253.096 111.266 252.003 110.535C250.91 109.804 249.625 109.414 248.31 109.414C246.548 109.416 244.859 110.117 243.612 111.364C242.366 112.611 241.666 114.302 241.664 116.065Z" fill="#3F3D56"/>
<path d="M388.152 4.64893H323.36V10.4262H388.152V4.64893Z" fill="#3F3D56"/>
<path d="M388.152 25.9316H323.36V31.7089H388.152V25.9316Z" fill="#3F3D56"/>
<path d="M388.152 44.9971H323.36V50.7743H388.152V44.9971Z" fill="#3F3D56"/>
<path d="M487.312 69.2257L461.562 30.7902H425.636V29.5835H462.065L462.242 29.7627L488.17 68.3774L487.312 69.2257Z" fill="#3F3D56"/>
<path d="M408.535 16.4052C412.45 16.4052 415.625 13.229 415.625 9.31101C415.625 5.39298 412.45 2.2168 408.535 2.2168C404.619 2.2168 401.445 5.39298 401.445 9.31101C401.445 13.229 404.619 16.4052 408.535 16.4052Z" fill="#F2B23D"/>
<path d="M408.535 37.6879C412.45 37.6879 415.625 34.5117 415.625 30.5937C415.625 26.6757 412.45 23.4995 408.535 23.4995C404.619 23.4995 401.445 26.6757 401.445 30.5937C401.445 34.5117 404.619 37.6879 408.535 37.6879Z" fill="#F2B23D"/>
<path d="M408.535 56.7534C412.45 56.7534 415.625 53.5772 415.625 49.6591C415.625 45.7411 412.45 42.5649 408.535 42.5649C404.619 42.5649 401.445 45.7411 401.445 49.6591C401.445 53.5772 404.619 56.7534 408.535 56.7534Z" fill="#F2B23D"/>
<path d="M404.99 15.0752C403.5 15.0752 402.044 14.6331 400.805 13.8049C399.566 12.9766 398.601 11.7994 398.03 10.4221C397.46 9.0448 397.311 7.52924 397.602 6.06709C397.892 4.60494 398.61 3.26187 399.663 2.20771C400.717 1.15356 402.059 0.435676 403.52 0.144836C404.981 -0.146004 406.496 0.00326678 407.872 0.57377C409.249 1.14427 410.425 2.11039 411.253 3.34994C412.081 4.58949 412.523 6.0468 412.523 7.5376C412.52 9.53601 411.726 11.4519 410.314 12.865C408.902 14.2781 406.987 15.073 404.99 15.0752ZM404.99 0.886776C403.675 0.886776 402.39 1.27684 401.297 2.00764C400.204 2.73845 399.352 3.77716 398.849 4.99244C398.346 6.20772 398.215 7.54498 398.471 8.83511C398.727 10.1252 399.36 11.3103 400.29 12.2404C401.22 13.1706 402.404 13.804 403.693 14.0606C404.982 14.3173 406.319 14.1855 407.533 13.6822C408.748 13.1788 409.786 12.3263 410.516 11.2326C411.247 10.1389 411.636 8.85301 411.636 7.5376C411.634 5.7743 410.933 4.0838 409.687 2.83696C408.441 1.59012 406.752 0.888773 404.99 0.886776Z" fill="#3F3D56"/>
<path d="M404.99 36.3579C403.5 36.3579 402.044 35.9158 400.805 35.0876C399.566 34.2594 398.601 33.0821 398.03 31.7048C397.46 30.3275 397.311 28.8119 397.602 27.3498C397.892 25.8876 398.61 24.5446 399.663 23.4904C400.717 22.4363 402.059 21.7184 403.52 21.4275C404.981 21.1367 406.496 21.286 407.872 21.8565C409.249 22.427 410.425 23.3931 411.253 24.6326C412.081 25.8722 412.523 27.3295 412.523 28.8203C412.52 30.8187 411.726 32.7346 410.314 34.1477C408.902 35.5608 406.987 36.3557 404.99 36.3579ZM404.99 22.1695C403.675 22.1695 402.39 22.5596 401.297 23.2904C400.204 24.0212 399.352 25.0599 398.849 26.2752C398.346 27.4904 398.215 28.8277 398.471 30.1178C398.727 31.408 399.36 32.593 400.29 33.5232C401.22 34.4533 402.404 35.0867 403.693 35.3433C404.982 35.6 406.319 35.4683 407.533 34.9649C408.748 34.4615 409.786 33.609 410.516 32.5153C411.247 31.4216 411.636 30.1357 411.636 28.8203C411.634 27.057 410.933 25.3665 409.687 24.1197C408.441 22.8728 406.752 22.1715 404.99 22.1695Z" fill="#3F3D56"/>
<path d="M404.99 55.4238C403.5 55.4238 402.044 54.9818 400.805 54.1535C399.566 53.3253 398.601 52.1481 398.03 50.7708C397.46 49.3934 397.311 47.8779 397.602 46.4157C397.892 44.9536 398.61 43.6105 399.663 42.5563C400.717 41.5022 402.059 40.7843 403.52 40.4935C404.981 40.2026 406.496 40.3519 407.872 40.9224C409.249 41.4929 410.425 42.459 411.253 43.6986C412.081 44.9381 412.523 46.3954 412.523 47.8862C412.52 49.8846 411.726 51.8006 410.314 53.2137C408.902 54.6267 406.987 55.4216 404.99 55.4238ZM404.99 41.2354C403.675 41.2354 402.39 41.6255 401.297 42.3563C400.204 43.0871 399.352 44.1258 398.849 45.3411C398.346 46.5563 398.215 47.8936 398.471 49.1837C398.727 50.4739 399.36 51.6589 400.29 52.5891C401.22 53.5192 402.404 54.1526 403.693 54.4093C404.982 54.6659 406.319 54.5342 407.533 54.0308C408.748 53.5274 409.786 52.675 410.516 51.5812C411.247 50.4875 411.636 49.2016 411.636 47.8862C411.634 46.1229 410.933 44.4324 409.687 43.1856C408.441 41.9388 406.752 41.2374 404.99 41.2354Z" fill="#3F3D56"/>
<path d="M274.001 231.605H319.253V227.57H274.001V231.605Z" fill="#3F3D56"/>
<path d="M274.001 246.469H319.253V242.434H274.001V246.469Z" fill="#3F3D56"/>
<path d="M274.001 259.785H319.253V255.75H274.001V259.785Z" fill="#3F3D56"/>
<path d="M200.534 268.458L222.73 245.828H247.822V244.985H222.378L222.255 245.11L199.936 267.865L200.534 268.458Z" fill="#3F3D56"/>
<path d="M259.765 235.781C262.5 235.781 264.717 233.563 264.717 230.826C264.717 228.09 262.5 225.872 259.765 225.872C257.03 225.872 254.813 228.09 254.813 230.826C254.813 233.563 257.03 235.781 259.765 235.781Z" fill="#F2B23D"/>
<path d="M259.765 250.645C262.5 250.645 264.717 248.427 264.717 245.691C264.717 242.954 262.5 240.736 259.765 240.736C257.03 240.736 254.813 242.954 254.813 245.691C254.813 248.427 257.03 250.645 259.765 250.645Z" fill="#F2B23D"/>
<path d="M259.765 263.961C262.5 263.961 264.717 261.742 264.717 259.006C264.717 256.27 262.5 254.051 259.765 254.051C257.03 254.051 254.813 256.27 254.813 259.006C254.813 261.742 257.03 263.961 259.765 263.961Z" fill="#F2B23D"/>
<path d="M256.979 229.588C256.979 228.546 257.288 227.529 257.866 226.663C258.444 225.797 259.266 225.122 260.227 224.724C261.188 224.326 262.246 224.221 263.267 224.424C264.287 224.628 265.225 225.129 265.961 225.865C266.696 226.601 267.197 227.539 267.4 228.561C267.603 229.582 267.499 230.64 267.101 231.602C266.703 232.564 266.028 233.386 265.163 233.965C264.298 234.543 263.281 234.852 262.24 234.852C260.846 234.851 259.508 234.295 258.522 233.308C257.536 232.322 256.981 230.983 256.979 229.588ZM257.598 229.588C257.598 230.506 257.871 231.404 258.381 232.168C258.891 232.932 259.616 233.528 260.464 233.879C261.312 234.231 262.246 234.323 263.146 234.143C264.047 233.964 264.874 233.522 265.523 232.872C266.172 232.223 266.614 231.395 266.793 230.494C266.972 229.593 266.881 228.659 266.529 227.81C266.178 226.961 265.583 226.236 264.819 225.725C264.056 225.215 263.159 224.943 262.24 224.943C261.01 224.944 259.83 225.434 258.96 226.305C258.089 227.175 257.6 228.356 257.598 229.588Z" fill="#3F3D56"/>
<path d="M256.979 244.452C256.979 243.411 257.288 242.393 257.866 241.527C258.444 240.661 259.266 239.987 260.227 239.588C261.189 239.19 262.246 239.086 263.267 239.289C264.287 239.492 265.225 239.993 265.961 240.729C266.696 241.466 267.197 242.404 267.4 243.425C267.603 244.446 267.499 245.505 267.101 246.466C266.703 247.428 266.028 248.251 265.163 248.829C264.298 249.408 263.281 249.716 262.24 249.716C260.846 249.715 259.508 249.16 258.522 248.173C257.536 247.186 256.981 245.848 256.979 244.452ZM257.598 244.452C257.598 245.371 257.871 246.269 258.381 247.033C258.891 247.796 259.616 248.392 260.464 248.743C261.312 249.095 262.246 249.187 263.146 249.008C264.047 248.828 264.874 248.386 265.523 247.736C266.172 247.087 266.614 246.259 266.793 245.358C266.972 244.457 266.881 243.523 266.529 242.674C266.178 241.826 265.583 241.1 264.819 240.59C264.056 240.079 263.159 239.807 262.24 239.807C261.01 239.808 259.83 240.298 258.96 241.169C258.089 242.04 257.6 243.22 257.598 244.452Z" fill="#3F3D56"/>
<path d="M256.979 257.767C256.979 256.726 257.288 255.708 257.866 254.843C258.444 253.977 259.266 253.302 260.227 252.904C261.189 252.505 262.246 252.401 263.267 252.604C264.287 252.807 265.225 253.309 265.961 254.045C266.696 254.781 267.197 255.719 267.4 256.74C267.603 257.761 267.499 258.82 267.101 259.782C266.703 260.744 266.028 261.566 265.163 262.145C264.298 262.723 263.281 263.032 262.24 263.032C260.846 263.03 259.508 262.475 258.522 261.488C257.536 260.501 256.981 259.163 256.979 257.767ZM257.598 257.767C257.598 258.686 257.871 259.584 258.381 260.348C258.891 261.112 259.616 261.707 260.464 262.059C261.312 262.41 262.246 262.502 263.146 262.323C264.047 262.144 264.874 261.702 265.523 261.052C266.172 260.402 266.614 259.575 266.793 258.674C266.972 257.772 266.881 256.839 266.529 255.99C266.178 255.141 265.583 254.416 264.819 253.905C264.056 253.395 263.159 253.122 262.24 253.122C261.01 253.124 259.83 253.614 258.96 254.484C258.089 255.355 257.6 256.536 257.598 257.767Z" fill="#3F3D56"/>
</g>
<defs>
<clipPath id="clip0">
<rect width="610" height="418" fill="white"/>
</clipPath>
</defs>
</svg>
