<svg width="610" height="474" viewBox="0 0 610 474" fill="none" xmlns="http://www.w3.org/2000/svg">
<g clip-path="url(#clip0)">
<path opacity="0.1" d="M598.202 126.117C592.163 112.111 584.002 99.1172 574.006 87.5923L238.312 84.2875L514.701 45.496C496.847 38.3907 477.838 34.6219 458.621 34.3772C432.181 13.2592 399.626 1.23398 365.798 0.0901306C331.969 -1.05372 298.675 8.74495 270.868 28.0286C248.645 16.6128 224.01 10.6803 199.023 10.7273C124.434 10.7273 62.2794 62.3464 48.3379 130.804L598.202 126.117Z" fill="#F2B23D"/>
<path opacity="0.1" d="M610.006 183.527C610.022 164.963 606.47 146.57 599.544 129.344L17.742 190.368C11.7424 201.211 7.15313 212.775 4.08546 224.781L184.25 251.622L-0.0292969 271.202C5.51643 348.696 71.9998 409.891 153.214 409.891C194.095 409.891 231.246 394.382 258.767 369.095C286.383 394.863 323.885 410.704 365.205 410.704C426.516 410.704 479.432 375.823 504.074 325.384C553.516 309.709 591.92 270.336 605.066 221.084L377.252 185.746H610.006C609.995 185.004 610.006 184.268 610.006 183.527Z" fill="#F2B23D"/>
<path d="M170.219 474C244.658 474 305.003 464.115 305.003 451.922C305.003 439.729 244.658 429.845 170.219 429.845C95.7803 429.845 35.4355 439.729 35.4355 451.922C35.4355 464.115 95.7803 474 170.219 474Z" fill="#F2B23D"/>
<path d="M309.617 309.703C303.554 311.222 297.332 308.267 297.332 308.267C297.332 308.267 292.023 302.126 287.547 301.296C283.07 300.465 281.336 307.733 278.676 309.602C276.835 310.913 263.559 309.976 255.519 309.276L254.136 309.151C253.999 309.05 253.863 308.943 253.714 308.849C253.714 308.849 245.995 306.475 244.386 304.375C242.777 302.275 232.024 298.388 228.687 298.614C225.35 298.839 215.488 299.373 215.488 299.373C215.488 299.373 211.622 294.977 209.877 295.433C208.131 295.89 202.063 295.398 202.063 295.398C202.063 295.398 200.394 291.114 198.726 284.973C197.948 282.107 195.359 280.096 192.824 278.773C195.104 271.06 191.043 249.059 178.431 244.758C175.682 243.82 174.275 240.705 171.935 238.997C169.84 237.472 166.408 233.876 168.088 227.379C170.463 218.284 176.353 203.961 176.353 203.961L180.741 195.203C180.332 195.824 179.867 196.406 179.352 196.942C179.945 196.182 180.539 195.435 181.05 194.806C185.428 197.016 190.204 198.331 195.098 198.674C200.05 200.674 204.996 202.436 206.92 202.371C211.32 202.216 222.542 207.829 222.542 207.829C222.542 207.829 249.54 215.543 255.151 216.166C260.762 216.788 263.493 209.497 263.493 209.497C263.493 209.497 266.409 195.12 261.231 191.311C256.054 187.502 253.043 204.958 253.043 204.958L217.72 192.237L215.541 191.092C217.233 189.303 218.576 187.214 219.502 184.933C220.048 183.574 220.547 182.02 221.847 181.343C222.197 181.17 222.575 181.059 222.963 181.017C223.286 180.996 223.609 180.996 223.931 181.017C230.059 181.391 235.325 186.209 241.465 186.232C241.69 186.232 241.916 186.232 242.142 186.232C243.312 186.229 244.455 185.878 245.425 185.224C245.973 184.778 246.423 184.225 246.748 183.598C247.073 182.971 247.265 182.285 247.313 181.581C247.224 181.771 247.125 181.958 247.016 182.138C247.177 181.266 247.177 180.371 247.016 179.498C246.636 177.416 245.55 175.547 244.576 173.666C244.301 173.227 244.145 172.724 244.125 172.206C244.153 171.936 244.235 171.674 244.366 171.437C244.498 171.199 244.676 170.991 244.891 170.824C244.9 170.88 244.912 170.935 244.926 170.99C245.389 170.555 245.904 170.178 246.458 169.868C247.959 168.885 249.242 167.604 250.226 166.105C251.211 164.605 251.877 162.92 252.182 161.153C252.034 161.592 251.856 162.025 251.666 162.452C252.579 159.44 252.357 156.198 251.042 153.338C250.702 152.525 250.158 151.812 249.463 151.268C247.248 149.713 244.273 151.369 241.572 151.547C239.197 151.701 236.893 150.639 234.749 149.565C231.092 147.732 227.452 145.75 224.406 143.038C220.944 139.935 218.373 135.978 215.25 132.543C212.127 129.107 208.119 126.046 203.47 125.701C195.021 125.049 187.053 133.415 179.019 130.685C175.1 129.362 172.523 125.743 169.798 122.634C167.073 119.525 163.326 116.541 159.241 117.211C156.403 117.686 153.945 119.887 151.071 119.804C149.569 119.756 148.173 119.086 146.748 118.617C143.298 117.46 138.572 118.024 137.343 121.453C137.102 122.152 137.016 122.895 137.093 123.63C137.17 124.365 137.407 125.074 137.788 125.707C137.607 125.962 137.444 126.23 137.301 126.508C137.006 127.052 136.904 127.679 137.01 128.288C134.569 130.479 132.759 133.283 131.771 136.41C130.783 139.537 130.651 142.871 131.391 146.065C132.131 149.26 133.715 152.198 135.977 154.573C138.239 156.948 141.098 158.673 144.254 159.568C144.367 160.002 144.48 160.435 144.587 160.874C145.739 165.721 146.338 171.18 144.634 174.858C144.527 175.084 144.415 175.303 144.29 175.517L144.142 175.582L144.207 175.647L144.142 175.582L143.928 175.363L142.633 174.01C142.562 172.598 141.767 168.812 136.233 161.787C128.947 152.537 127.582 137.23 127.582 137.23C127.582 137.23 125.765 129.35 127.582 127.078C129.398 124.806 132.439 99.7851 132.439 99.7851L137.462 85.6996C137.462 85.6996 161.883 60.8394 151.712 57.8134C144.807 55.7546 136.571 66.3632 131.999 73.3763C129.753 76.8199 128.301 80.719 127.748 84.7918L113.943 122.533C113.943 122.533 112.577 127.084 113.943 134.963C115.309 142.843 118.343 156.792 118.343 156.792L126.062 176.342C126.062 176.342 128.906 184.785 128.656 188.451C128.318 188.671 127.13 191.02 126.103 193.156L125.349 194.343L125.296 194.824C124.791 195.898 124.441 196.669 124.441 196.669C124.441 196.669 120.142 209.348 123.734 217.127C127.326 224.905 127.469 228.513 127.469 228.513L130.147 240.035L131.263 250.121L140.894 273.92L149.764 286.575C149.764 286.575 148.933 295.896 147.11 297.184C145.287 298.471 146.125 305.14 146.125 305.14L144.985 322.643C144.985 322.643 141.422 327.876 141.196 336.361C140.971 344.845 139.676 347.278 139.676 347.278C139.676 347.278 139.083 354.398 140.739 357.661C142.396 360.924 138.085 364.33 138.085 364.33L141.784 377.021L140.341 393.089C140.341 393.089 141.012 393.272 142.123 393.551L141.897 394.702L135.865 425.14C135.865 425.14 132.605 433.482 132.456 435.446L121.911 454.474C121.911 454.474 113.112 463.19 117.286 464.02C121.46 464.851 133.596 457.351 133.596 457.351C133.596 457.351 143.607 446.589 147.55 445.61C151.492 444.631 155.862 441.812 154.604 437.724C153.345 433.636 150.447 427.418 153.238 420.82C155.019 416.667 158.807 405.394 161.408 397.527C161.551 397.093 161.687 396.678 161.824 396.275C162.512 396.213 163.192 396.084 163.854 395.889C170.225 393.919 173.562 395.296 173.562 395.296L184.939 349.295L187.439 326.215L203.369 339.494C206.521 342.121 210.434 343.666 214.532 343.902C220.808 344.27 230.599 345.178 237.688 347.367L240.657 335.014C240.657 335.014 249.148 335.323 250.971 332.439C251.713 331.252 252.443 330.244 253.043 329.472L254.421 329.259L292 323.45C298.976 323.45 308.536 318.745 308.536 318.745L314.379 317.612C314.379 317.612 323.095 315.868 323.879 314.426C324.663 312.984 315.691 308.196 309.617 309.703Z" fill="url(#paint0_linear)"/>
<path d="M139.095 124.426C140.282 121.079 144.926 120.516 148.304 121.649C149.693 122.112 151.065 122.77 152.532 122.836C155.346 122.919 157.751 120.759 160.53 120.302C164.526 119.638 168.189 122.557 170.855 125.601C173.521 128.644 176.05 132.186 179.886 133.486C187.742 136.132 195.544 127.968 203.809 128.603C208.345 128.953 212.264 131.937 215.322 135.301C218.38 138.666 220.897 142.534 224.282 145.572C227.25 148.242 230.813 150.182 234.405 151.98C236.501 153.03 238.74 154.068 241.079 153.914C243.727 153.742 246.637 152.134 248.798 153.641C249.478 154.174 250.01 154.873 250.342 155.67C253.002 161.2 250.858 168.563 245.651 171.814C244.743 172.378 243.638 173.001 243.585 174.087C243.602 174.594 243.753 175.088 244.024 175.517C244.974 177.356 246.043 179.189 246.399 181.225C246.756 183.26 246.275 185.603 244.618 186.837C243.536 187.556 242.252 187.908 240.954 187.84C234.946 187.81 229.792 183.094 223.795 182.732C223.027 182.644 222.25 182.763 221.544 183.076C220.274 183.734 219.763 185.259 219.247 186.588C216.468 193.524 209.568 198.348 202.206 199.671C194.843 200.994 187.154 199.131 180.563 195.595C180.081 195.365 179.638 195.06 179.251 194.693C178.701 194.025 178.312 193.239 178.117 192.397C176.098 186.019 173.367 179.344 167.773 175.659C164.146 173.286 159.223 171.951 157.579 167.946C156.545 165.413 157.193 162.535 156.931 159.806C156.674 157.466 155.762 155.246 154.299 153.4C152.835 151.555 150.881 150.16 148.66 149.375C147.687 149.049 146.618 148.817 145.905 148.076C145.327 147.347 144.957 146.476 144.836 145.554C143.952 141.537 143.364 137.295 142.129 133.373C141.185 130.3 137.83 127.944 139.095 124.426Z" fill="#663D5B"/>
<g opacity="0.1">
<path opacity="0.1" d="M245.312 184.992C244.227 185.701 242.943 186.044 241.648 185.971C235.645 185.971 230.491 181.225 224.495 180.869C223.728 180.779 222.951 180.895 222.244 181.207C220.968 181.865 220.463 183.39 219.946 184.719C217.168 191.661 210.262 196.485 202.899 197.808C195.537 199.131 187.848 197.268 181.263 193.732C180.781 193.501 180.339 193.197 179.951 192.83C179.401 192.162 179.013 191.376 178.817 190.534C176.798 184.15 174.066 177.481 168.473 173.79C164.839 171.387 159.917 170.088 158.278 166.077C157.239 163.538 157.886 160.66 157.631 157.937C157.375 155.595 156.462 153.374 154.998 151.529C153.533 149.684 151.577 148.289 149.354 147.506C148.38 147.18 147.312 146.942 146.599 146.207C146.02 145.477 145.652 144.603 145.536 143.679C144.646 139.668 144.064 135.42 142.829 131.504C141.997 128.882 139.379 126.758 139.51 123.957C139.433 124.105 139.365 124.257 139.308 124.414C138.037 127.932 141.398 130.288 142.354 133.314C143.589 137.23 144.171 141.478 145.061 145.489C145.177 146.413 145.545 147.287 146.124 148.016C146.837 148.752 147.905 148.989 148.879 149.316C151.103 150.099 153.06 151.494 154.524 153.341C155.988 155.188 156.901 157.41 157.156 159.752C157.411 162.476 156.764 165.353 157.803 167.893C159.442 171.921 164.364 173.233 167.998 175.606C173.58 179.302 176.311 185.965 178.341 192.349C178.538 193.191 178.926 193.977 179.476 194.646C179.864 195.012 180.306 195.316 180.788 195.547C187.373 199.107 195.038 200.941 202.424 199.624C209.811 198.306 216.675 193.477 219.471 186.535C220.006 185.206 220.499 183.681 221.769 183.022C222.476 182.711 223.253 182.594 224.019 182.684C230.016 183.046 235.17 187.763 241.173 187.787C242.47 187.855 243.754 187.505 244.837 186.79C245.373 186.355 245.815 185.815 246.134 185.202C246.452 184.59 246.641 183.919 246.689 183.23C246.389 183.926 245.915 184.533 245.312 184.992Z" fill="black"/>
<path opacity="0.1" d="M246.345 169.951C245.437 170.545 244.326 171.138 244.273 172.224C244.268 172.442 244.302 172.659 244.374 172.865C244.825 172.438 245.328 172.069 245.87 171.767C247.339 170.806 248.594 169.553 249.557 168.086C250.521 166.619 251.171 164.97 251.469 163.241C250.592 166.004 248.78 168.376 246.345 169.951Z" fill="black"/>
</g>
<path d="M154.633 417.367C151.884 423.823 154.71 429.898 155.969 433.909C157.227 437.92 152.929 440.655 149.069 441.622C145.21 442.589 135.413 453.115 135.413 453.115C135.413 453.115 123.537 460.454 119.452 459.642C115.367 458.829 123.977 450.297 123.977 450.297L134.296 431.678C134.445 429.756 137.633 421.592 137.633 421.592L143.535 391.807L144.319 387.849L165.243 386.586C165.243 386.586 164.145 389.98 162.631 394.566C160.083 402.279 156.355 413.339 154.633 417.367Z" fill="#CC818C"/>
<path d="M321.628 313.257C320.886 314.669 312.354 316.372 312.354 316.372L306.636 317.481C306.636 317.481 297.284 322.086 290.456 322.086L253.678 327.775L248.744 328.541V307.692C248.744 307.692 251.226 307.953 254.741 308.285C262.597 308.973 275.594 309.887 277.393 308.605C279.994 306.754 281.698 299.634 286.074 300.453C290.45 301.272 295.651 307.276 295.651 307.276C295.651 307.276 301.737 310.166 307.675 308.682C313.613 307.199 322.37 311.845 321.628 313.257Z" fill="#CC818C"/>
<path opacity="0.1" d="M254.979 326.162C254.979 326.162 254.45 326.755 253.678 327.769L248.744 328.535V307.691C248.744 307.691 251.226 307.952 254.741 308.285C260.643 312.942 254.979 326.162 254.979 326.162Z" fill="black"/>
<path d="M183.953 321.344L203.708 337.814C206.793 340.384 210.623 341.897 214.633 342.128C220.772 342.49 230.356 343.374 237.314 345.522L240.212 333.43C240.212 333.43 248.525 333.726 250.306 330.908C251.352 329.244 252.517 327.658 253.791 326.162C253.791 326.162 259.806 312.147 252.978 307.846C252.978 307.846 245.407 305.544 243.846 303.467C242.284 301.39 231.751 297.611 228.485 297.83C225.22 298.05 215.571 298.572 215.571 298.572C215.571 298.572 211.783 294.27 210.079 294.715C208.375 295.16 202.431 294.715 202.431 294.715C202.431 294.715 200.798 290.521 199.165 284.51C197.532 278.5 187.813 276.352 187.813 276.352L183.953 321.344Z" fill="#565987"/>
<path opacity="0.1" d="M183.953 321.344L203.708 337.814C206.793 340.384 210.623 341.897 214.633 342.128C220.772 342.49 230.356 343.374 237.314 345.522L240.212 333.43C240.212 333.43 248.525 333.726 250.306 330.908C251.352 329.244 252.517 327.658 253.791 326.162C253.791 326.162 259.806 312.147 252.978 307.846C252.978 307.846 245.407 305.544 243.846 303.467C242.284 301.39 231.751 297.611 228.485 297.83C225.22 298.05 215.571 298.572 215.571 298.572C215.571 298.572 211.783 294.27 210.079 294.715C208.375 295.16 202.431 294.715 202.431 294.715C202.431 294.715 200.798 290.521 199.165 284.51C197.532 278.5 187.813 276.352 187.813 276.352L183.953 321.344Z" fill="black"/>
<path d="M175.118 173.678L172.933 174.087H172.796L172.476 174.146L168.735 174.841L167.583 176.205L167.536 176.253L163.837 180.631L160.719 183.687L160.69 183.723L158.053 186.286L153.594 190.718L152.846 192.563L151.219 196.651L150.798 197.689L146.344 202.436L143.5 208.518L136.85 212.374L129.695 208.666L126.43 203.919L127.172 197.12L127.32 195.761L129.499 192.266L131.477 189.086L135.336 183.598L142.758 178.555L144.088 178.205L145.578 177.813C145.692 177.651 145.797 177.482 145.893 177.309C146.019 177.1 146.132 176.884 146.232 176.662C147.9 173.066 147.312 167.721 146.184 162.98C145.319 159.434 144.174 155.962 142.758 152.597L162.352 149.779C162.352 149.779 162.162 153.576 162.162 159.497C162.162 160.981 162.162 162.588 162.204 164.309C162.299 169.649 167.263 171.963 171.009 172.948C171.974 173.205 172.954 173.403 173.942 173.541C174.667 173.654 175.118 173.678 175.118 173.678Z" fill="#CC818C"/>
<path d="M144.243 176.478C144.243 176.478 145.133 172.918 138.008 163.87C130.883 154.822 129.547 139.84 129.547 139.84C129.547 139.84 127.766 132.127 129.547 129.902C131.328 127.677 134.297 103.203 134.297 103.203L139.196 89.4078C139.196 89.4078 163.095 65.0816 153.149 62.1149C146.392 60.0976 138.305 70.4867 133.858 77.3456C131.661 80.7159 130.241 84.532 129.701 88.5178L116.188 125.452C116.188 125.452 114.852 129.902 116.188 137.615C117.523 145.329 120.492 158.975 120.492 158.975L128.063 178.127C128.063 178.127 132.047 190.053 129.981 191.507L134.594 184.69L144.243 176.478Z" fill="#CC818C"/>
<path d="M262.55 210.612C262.55 210.612 259.878 217.732 254.385 217.138C248.893 216.545 222.471 208.98 222.471 208.98C222.471 208.98 211.486 203.492 207.181 203.64C202.877 203.789 183.134 194.592 183.134 194.592C183.134 194.592 181.745 196.42 180.195 198.342C178.509 200.448 176.632 202.673 176.157 202.75C175.267 202.899 161.462 204.827 161.462 204.827L152.11 200.525L151.219 196.651L150.798 194.871L152.87 192.563L155.595 189.531L160.708 183.705L160.737 183.669L167.56 176.258L167.607 176.211L171.977 174.431L172.82 174.087H172.957C173.479 173.998 175.486 173.814 178.176 175.333C180.049 176.393 182.129 177.036 184.274 177.22C188.543 177.524 192.586 179.254 195.751 182.132L217.721 193.684L252.307 206.144C252.307 206.144 255.276 189.086 260.323 192.794C265.37 196.503 262.55 210.612 262.55 210.612Z" fill="#CC818C"/>
<path opacity="0.1" d="M180.195 198.342C178.508 200.448 176.632 202.673 176.157 202.751C175.267 202.899 161.462 204.827 161.462 204.827L152.11 200.526L151.219 196.651L150.798 197.69L146.344 202.436L143.5 208.518L136.85 212.374L129.695 208.666L126.43 203.919L127.172 197.12C127.546 196.313 128.567 194.118 129.499 192.267C129.94 191.247 130.494 190.279 131.15 189.383C131.744 188.991 132.367 184.785 132.367 184.785C135.063 177.018 144.094 175.826 144.094 175.826L145.537 177.178L146.166 177.831C145.911 177.789 146.214 177.238 145.887 177.327C145.365 177.475 145.133 178.264 144.462 178.697C140.811 181.07 135.105 186.606 132.848 189.235C132.302 189.869 131.738 190.492 131.162 191.098C127.902 194.545 128.502 199.113 128.502 199.113C127.688 202.673 134.885 205.343 134.885 205.343C136.892 202.009 150.471 192.812 150.471 192.812L159.615 182.578C162.418 177.7 167.928 174.479 171.003 172.972C172.363 172.307 173.254 171.975 173.254 171.975L176.674 173.434C175.771 173.193 174.815 173.234 173.936 173.553C173.432 173.709 172.941 173.908 172.47 174.146C172.292 174.235 172.114 174.33 171.947 174.431C171.012 174.974 170.133 175.608 169.323 176.324L161.64 184.708C155.767 191.11 160.191 201.463 168.878 201.611H168.955C174.263 202.834 178.069 200.377 180.195 198.342Z" fill="black"/>
<path opacity="0.1" d="M165.244 386.604C165.244 386.604 164.146 389.997 162.632 394.584C156.825 395.017 147.235 392.774 143.536 391.825L144.32 387.867L165.244 386.604Z" fill="black"/>
<path d="M146.172 177.831L144.272 175.885C144.272 175.885 137.414 176.822 133.157 184.144C133.157 184.144 131.168 189.632 130.556 190.024C129.945 190.415 126.429 198.087 126.429 198.087C126.429 198.087 122.226 210.493 125.735 218.112C129.244 225.73 129.398 229.236 129.398 229.236L132.023 240.51L133.109 250.394L142.538 273.682L151.219 286.041C151.219 286.041 150.406 295.16 148.624 296.424C146.843 297.688 147.656 304.209 147.656 304.209L146.546 321.344C146.546 321.344 143.055 326.458 142.835 334.765C142.615 343.071 141.351 345.445 141.351 345.445C141.351 345.445 140.757 352.416 142.39 355.608C144.023 358.8 139.789 362.135 139.789 362.135L143.429 374.518L142.016 390.241C142.016 390.241 158.789 394.916 165.024 392.988C171.258 391.059 174.524 392.394 174.524 392.394L185.657 347.355L189.517 311.981C189.517 311.981 189.742 286.913 193.079 279.271C195.941 272.745 192.188 249.492 179.298 245.102C176.608 244.188 175.243 241.138 172.945 239.465C170.89 237.976 167.536 234.458 169.18 228.097C171.484 219.197 177.273 205.183 177.273 205.183L181.56 196.651C181.56 196.651 176.899 204.186 168.367 202.258H168.29C159.603 202.104 155.179 191.75 161.052 185.354L168.735 176.965C168.735 176.965 172.968 173.066 176.086 174.051L172.672 172.592C172.672 172.592 163.059 176.152 159.015 183.194L149.871 193.429C149.871 193.429 136.304 202.584 134.297 205.942C134.297 205.942 127.1 203.273 127.914 199.713C127.914 199.713 127.32 195.138 130.574 191.691C131.168 191.098 131.714 190.469 132.26 189.834C135.187 186.416 143.28 177.35 146.172 177.831Z" fill="#565987"/>
<path opacity="0.1" d="M147.288 238.943C147.288 238.943 145.133 254.595 146.766 257.781L147.288 238.943Z" fill="black"/>
<path opacity="0.1" d="M148.695 245.025L150.999 254.002C150.999 254.002 151.813 248.513 148.695 245.025Z" fill="black"/>
<path opacity="0.1" d="M135.039 242.93C135.039 242.93 139.641 265.773 144.688 272.673L135.039 242.93Z" fill="black"/>
<path opacity="0.1" d="M167.476 270.467C167.476 270.467 159.608 277.883 156.562 277.343C156.562 277.343 168.663 277.865 172.446 271.487C172.446 271.505 169.999 269.725 167.476 270.467Z" fill="black"/>
<path opacity="0.1" d="M178.384 269.873C178.384 269.873 168.29 277.212 166.289 277.883C166.289 277.883 177.196 274.768 178.384 269.873Z" fill="black"/>
<path opacity="0.1" d="M144.242 215.359C144.242 215.359 139.195 221.814 136.672 221.072C136.672 221.072 142.835 221.292 144.242 215.359Z" fill="black"/>
<path opacity="0.1" d="M149.96 223.665C149.96 223.665 160.944 208.761 166.14 209.354C166.14 209.354 153.671 220.182 149.96 223.665Z" fill="black"/>
<path opacity="0.1" d="M165.173 218.242C165.173 218.242 158.196 221.737 158.938 222.757C159.68 223.778 165.173 218.242 165.173 218.242Z" fill="black"/>
<path opacity="0.1" d="M170.219 332.688C170.219 332.688 146.914 346.263 144.765 346.928C144.765 346.928 148.773 349.972 152.555 348.488C156.337 347.005 170.219 332.688 170.219 332.688Z" fill="black"/>
<path opacity="0.1" d="M150.702 360.948C150.702 360.948 141.35 359.981 141.719 363.025C142.087 366.069 150.702 360.948 150.702 360.948Z" fill="black"/>
<path opacity="0.1" d="M162.352 149.779C162.352 149.779 162.162 153.576 162.162 159.497C159.963 161.298 157.369 162.551 154.591 163.156C151.814 163.76 148.933 163.698 146.184 162.974C145.319 159.428 144.174 155.956 142.758 152.591L162.352 149.779Z" fill="black"/>
<path d="M150.774 162.41C160.693 162.41 168.735 154.375 168.735 144.462C168.735 134.55 160.693 126.514 150.774 126.514C140.854 126.514 132.812 134.55 132.812 144.462C132.812 154.375 140.854 162.41 150.774 162.41Z" fill="#CC818C"/>
<path opacity="0.1" d="M155.482 155.415C155.987 162.755 157.531 171.15 163.908 174.841C168.515 177.505 174.322 176.804 179.423 175.286C184.523 173.767 189.516 171.5 194.825 171.245C198.904 171.049 202.935 172.052 207.003 172.307C211.07 172.562 215.523 171.927 218.427 169.068C222.583 164.997 221.823 157.599 217.886 153.321C213.95 149.043 207.792 147.488 201.962 147.649C194.837 147.844 186.88 150.022 181.245 145.702C177.463 142.795 176.032 137.752 172.85 134.198C167.535 128.265 144.034 119.697 139.059 129.368C136.725 133.895 147.33 137.129 149.788 140.404C153.671 145.572 155.019 148.639 155.482 155.415Z" fill="black"/>
<path d="M156.034 154.78C156.544 162.126 158.082 170.521 164.459 174.206C169.067 176.87 174.874 176.17 179.974 174.657C185.075 173.144 190.068 170.871 195.382 170.616C199.456 170.42 203.487 171.417 207.56 171.678C211.634 171.939 216.075 171.298 218.978 168.439C223.135 164.362 222.375 156.97 218.438 152.692C214.501 148.414 208.344 146.859 202.519 147.02C195.394 147.21 187.432 149.393 181.797 145.068C178.015 142.16 176.584 137.123 173.401 133.563C168.087 127.63 144.586 119.068 139.61 128.739C137.277 133.26 147.882 136.494 150.346 139.775C154.223 144.937 155.571 147.999 156.034 154.78Z" fill="#663D5B"/>
<path opacity="0.1" d="M134.434 205.337C134.709 202.996 135.481 200.74 136.699 198.72C137.916 196.7 139.551 194.963 141.493 193.625" fill="black"/>
<path opacity="0.1" d="M201.778 298.275C201.723 298.857 201.581 299.427 201.356 299.966C200.578 302.296 199.642 304.57 198.554 306.772C200.139 306.635 201.445 305.389 202.116 303.954C202.703 302.476 203.026 300.908 203.072 299.32C203.131 298.824 203.144 298.323 203.114 297.825C203.072 297.362 202.775 295.594 202.009 295.908C201.392 296.169 201.79 297.807 201.778 298.275Z" fill="black"/>
<path opacity="0.1" d="M220.047 166.581C217.138 169.441 212.696 170.082 208.623 169.821C204.55 169.56 200.501 168.563 196.445 168.765C191.101 169.02 186.149 171.286 181.043 172.805C175.937 174.324 170.136 175.024 165.522 172.36C159.151 168.67 157.607 160.274 157.103 152.935C156.64 146.159 155.286 143.092 151.408 137.924C149.063 134.797 139.325 131.712 140.442 127.511C140.119 127.89 139.84 128.304 139.61 128.745C137.277 133.266 147.882 136.5 150.346 139.781C154.223 144.943 155.571 148.016 156.034 154.786C156.545 162.131 158.082 170.527 164.459 174.211C169.067 176.875 174.874 176.175 179.974 174.662C185.075 173.149 190.068 170.877 195.382 170.622C199.456 170.426 203.487 171.423 207.56 171.684C211.634 171.945 216.075 171.304 218.978 168.444C219.803 167.627 220.459 166.655 220.908 165.585C220.647 165.938 220.359 166.272 220.047 166.581Z" fill="black"/>
<path d="M133.145 220.532L130.966 225.279L137.895 223.896L133.145 220.532Z" fill="#CC818C"/>
<path opacity="0.1" d="M133.145 220.532L131.352 225.279H130.966L133.145 220.532Z" fill="black"/>
<path opacity="0.1" d="M304.611 435.974C318.056 435.974 328.955 434.478 328.955 432.633C328.955 430.789 318.056 429.293 304.611 429.293C291.166 429.293 280.267 430.789 280.267 432.633C280.267 434.478 291.166 435.974 304.611 435.974Z" fill="#F2B23D"/>
<path opacity="0.1" d="M397.861 445.42C411.306 445.42 422.205 443.924 422.205 442.079C422.205 440.234 411.306 438.739 397.861 438.739C384.416 438.739 373.517 440.234 373.517 442.079C373.517 443.924 384.416 445.42 397.861 445.42Z" fill="#F2B23D"/>
<path opacity="0.1" d="M507.701 432.633C521.146 432.633 532.045 431.138 532.045 429.293C532.045 427.448 521.146 425.953 507.701 425.953C494.256 425.953 483.356 427.448 483.356 429.293C483.356 431.138 494.256 432.633 507.701 432.633Z" fill="#F2B23D"/>
<path opacity="0.1" d="M360.538 471.354C370.093 471.354 377.84 470.291 377.84 468.98C377.84 467.67 370.093 466.607 360.538 466.607C350.982 466.607 343.235 467.67 343.235 468.98C343.235 470.291 350.982 471.354 360.538 471.354Z" fill="#F2B23D"/>
<path opacity="0.1" d="M457.321 468.98C466.877 468.98 474.623 467.918 474.623 466.607C474.623 465.296 466.877 464.234 457.321 464.234C447.765 464.234 440.019 465.296 440.019 466.607C440.019 467.918 447.765 468.98 457.321 468.98Z" fill="#F2B23D"/>
<path d="M398.39 441.332C398.39 441.332 364.249 329.49 403.734 284.694C433.267 251.183 466.797 255.194 481.813 259.336C485.699 260.37 489.313 262.236 492.405 264.804C495.497 267.372 497.994 270.582 499.721 274.21C504.97 285.531 504.026 303.876 466.969 325.337C404.921 361.233 401.062 410.479 401.062 410.479L398.39 441.332Z" fill="#F2B23D"/>
<path d="M476.469 275.201C476.469 275.201 375.827 306.647 398.39 441.332" stroke="#565987" stroke-miterlimit="10"/>
<path d="M417.687 286.474C417.687 286.474 431.539 295.807 427.139 309.828" stroke="#565987" stroke-miterlimit="10"/>
<path d="M466.375 294.781C466.375 294.781 457.902 286.166 447.589 290.918" stroke="#565987" stroke-miterlimit="10"/>
<path d="M426.593 338.093C426.593 338.093 411.714 330.546 407.866 339.998" stroke="#565987" stroke-miterlimit="10"/>
<path d="M389.78 353.816C389.78 353.816 400.949 352.926 401.151 358.266" stroke="#565987" stroke-miterlimit="10"/>
<path d="M397.036 442.222C397.036 442.222 437.02 360.936 448.005 362.716C453.224 363.559 455.628 368.691 456.715 373.841C458.057 380.508 457.285 387.427 454.506 393.634C448.836 406.634 433.594 431.334 397.036 442.222Z" fill="#F2B23D"/>
<path d="M447.677 378.143C447.677 378.143 405.71 438.958 397.6 441.628" stroke="#565987" stroke-miterlimit="10"/>
<path d="M451.537 387.636H441.74" stroke="#565987" stroke-miterlimit="10"/>
<path d="M439.805 409.885L424.45 410.544" stroke="#565987" stroke-miterlimit="10"/>
<path d="M430.459 392.086L432.127 400.078" stroke="#565987" stroke-miterlimit="10"/>
<path d="M414.13 416.412L414.427 423.674" stroke="#565987" stroke-miterlimit="10"/>
<path d="M398.223 442.222C398.223 442.222 358.24 360.936 347.255 362.716C342.036 363.559 339.631 368.691 338.545 373.841C337.184 380.502 337.936 387.42 340.694 393.634C346.364 406.634 361.606 431.334 398.223 442.222Z" fill="#F2B23D"/>
<path d="M347.522 378.143C347.522 378.143 389.49 438.958 397.6 441.628" stroke="#565987" stroke-miterlimit="10"/>
<path d="M343.657 387.636H353.454" stroke="#565987" stroke-miterlimit="10"/>
<path d="M355.396 409.885L370.75 410.544" stroke="#565987" stroke-miterlimit="10"/>
<path d="M364.736 392.086L363.073 400.078" stroke="#565987" stroke-miterlimit="10"/>
<path d="M381.064 416.412L380.767 423.674" stroke="#565987" stroke-miterlimit="10"/>
<path d="M466.85 461.202C467.942 460.317 468.737 459.121 469.13 457.773C469.421 456.408 468.839 454.776 467.539 454.278C466.078 453.72 464.517 454.729 463.335 455.749C462.153 456.77 460.794 457.939 459.244 457.719C460.04 456.998 460.635 456.082 460.971 455.062C461.307 454.042 461.373 452.952 461.162 451.899C461.098 451.461 460.913 451.05 460.627 450.712C459.82 449.846 458.347 450.22 457.374 450.902C454.286 453.074 453.425 457.262 453.413 461.036C453.099 459.671 453.36 458.253 453.354 456.883C453.348 455.512 452.962 453.916 451.786 453.192C451.06 452.79 450.241 452.586 449.411 452.599C448.022 452.551 446.478 452.688 445.528 453.702C444.341 454.96 444.655 457.078 445.683 458.449C446.71 459.82 448.265 460.704 449.696 461.665C450.85 462.346 451.833 463.282 452.57 464.4C452.658 464.555 452.729 464.718 452.784 464.887H461.482C463.43 463.906 465.235 462.666 466.85 461.202Z" fill="#F2B23D"/>
<path d="M314.503 428.468C315.593 427.581 316.386 426.383 316.777 425.033C317.074 423.668 316.492 422.066 315.186 421.538C313.725 420.981 312.17 421.989 310.982 423.016C309.794 424.042 308.441 425.199 306.897 424.986C307.692 424.26 308.286 423.341 308.62 422.317C308.954 421.294 309.017 420.202 308.803 419.147C308.737 418.71 308.552 418.3 308.269 417.961C307.455 417.094 305.989 417.462 305.015 418.145C301.927 420.316 301.066 424.505 301.048 428.279C300.74 426.92 301.001 425.502 300.995 424.125C300.989 422.749 300.603 421.159 299.422 420.429C298.693 420.037 297.874 419.845 297.047 419.871C295.663 419.818 294.113 419.954 293.169 420.969C291.982 422.233 292.296 424.345 293.318 425.715C294.339 427.086 295.901 427.97 297.337 428.931C298.487 429.616 299.467 430.551 300.205 431.666C300.294 431.822 300.366 431.987 300.419 432.159H309.124C311.074 431.175 312.883 429.934 314.503 428.468Z" fill="#F2B23D"/>
<path d="M365.264 461.202C366.356 460.317 367.151 459.121 367.544 457.773C367.835 456.408 367.253 454.776 365.953 454.278C364.492 453.72 362.931 454.729 361.749 455.749C360.567 456.77 359.208 457.939 357.658 457.719C358.455 456.998 359.051 456.083 359.388 455.063C359.726 454.042 359.792 452.952 359.582 451.899C359.518 451.461 359.333 451.05 359.047 450.712C358.24 449.846 356.767 450.22 355.794 450.902C352.706 453.074 351.845 457.262 351.833 461.036C351.519 459.671 351.78 458.253 351.774 456.883C351.768 455.512 351.382 453.916 350.206 453.192C349.48 452.79 348.661 452.586 347.831 452.599C346.442 452.551 344.898 452.688 343.948 453.702C342.761 454.96 343.075 457.078 344.102 458.449C345.13 459.82 346.685 460.704 348.116 461.665C349.27 462.346 350.253 463.282 350.99 464.4C351.078 464.555 351.149 464.718 351.204 464.887H359.902C361.847 463.905 363.651 462.666 365.264 461.202Z" fill="#F2B23D"/>
<path d="M509.257 395.029C509.257 395.029 512.523 399.289 507.755 405.708C502.987 412.128 499.056 417.575 500.63 421.586C500.63 421.586 507.826 409.636 513.692 409.47C519.559 409.304 515.723 402.214 509.257 395.029Z" fill="#F2B23D"/>
<path opacity="0.1" d="M509.256 395.029C509.542 395.439 509.766 395.889 509.921 396.364C515.639 403.068 518.679 409.328 513.187 409.488C508.075 409.63 501.941 418.773 500.469 421.081C500.517 421.258 500.575 421.433 500.641 421.604C500.641 421.604 507.837 409.654 513.704 409.488C519.57 409.322 515.723 402.214 509.256 395.029Z" fill="black"/>
<path d="M515.343 400.458C515.343 401.959 515.177 403.175 514.969 403.175C514.761 403.175 514.601 401.941 514.601 400.458C514.601 398.974 514.808 399.669 515.016 399.669C515.224 399.669 515.343 398.974 515.343 400.458Z" fill="#FFD037"/>
<path d="M517.427 402.249C516.109 402.967 514.957 403.399 514.862 403.222C514.767 403.044 515.747 402.308 517.065 401.591C518.383 400.873 517.866 401.395 517.961 401.591C518.056 401.786 518.757 401.531 517.427 402.249Z" fill="#FFD037"/>
<path d="M492.038 395.029C492.038 395.029 488.772 399.289 493.54 405.708C498.308 412.128 502.239 417.575 500.665 421.586C500.665 421.586 493.475 409.636 487.603 409.47C481.73 409.304 485.613 402.214 492.038 395.029Z" fill="#F2B23D"/>
<path opacity="0.1" d="M492.037 395.029C491.751 395.439 491.525 395.889 491.366 396.364C485.654 403.068 482.614 409.328 488.101 409.488C493.219 409.63 499.382 418.773 500.825 421.081C500.777 421.259 500.718 421.434 500.647 421.604C500.647 421.604 493.456 409.654 487.584 409.488C481.712 409.322 485.613 402.214 492.037 395.029Z" fill="black"/>
<path d="M485.987 400.458C485.987 401.959 486.159 403.175 486.367 403.175C486.575 403.175 486.741 401.959 486.741 400.458C486.741 398.957 486.534 399.668 486.326 399.668C486.118 399.668 485.987 398.974 485.987 400.458Z" fill="#FFD037"/>
<path d="M483.909 402.249C485.227 402.967 486.373 403.399 486.474 403.222C486.575 403.044 485.589 402.308 484.271 401.591C482.953 400.873 483.47 401.395 483.369 401.591C483.268 401.786 482.591 401.531 483.909 402.249Z" fill="#FFD037"/>
<path d="M487.026 421.046C487.026 421.046 496.147 420.767 498.902 418.809C501.657 416.851 512.932 414.519 513.615 417.658C514.298 420.797 527.319 433.256 517.023 433.34C506.727 433.423 493.101 431.738 490.357 430.064C487.614 428.391 487.026 421.046 487.026 421.046Z" fill="#A8A8A8"/>
<path opacity="0.2" d="M517.201 432.248C506.905 432.331 493.273 430.646 490.53 428.973C488.445 427.703 487.608 423.14 487.335 421.034H487.026C487.026 421.034 487.62 428.385 490.351 430.052C493.083 431.72 506.721 433.411 517.017 433.328C519.986 433.328 521.013 432.248 520.96 430.681C520.538 431.637 519.41 432.23 517.201 432.248Z" fill="black"/>
</g>
<defs>
<linearGradient id="paint0_linear" x1="218.635" y1="464.068" x2="218.635" y2="57.5346" gradientUnits="userSpaceOnUse">
<stop stop-color="#808080" stop-opacity="0.25"/>
<stop offset="0.54" stop-color="#808080" stop-opacity="0.12"/>
<stop offset="1" stop-color="#808080" stop-opacity="0.1"/>
</linearGradient>
<clipPath id="clip0">
<rect width="610" height="474" fill="white"/>
</clipPath>
</defs>
</svg>
