<svg width="610" height="382" viewBox="0 0 610 382" fill="none" xmlns="http://www.w3.org/2000/svg">
<g clip-path="url(#clip0)">
<path d="M601.297 154.315C578.914 66.2202 501.574 2.62824 410.793 0.0776282C362.8 -1.27081 312.297 14.6607 275.528 70.4111C209.799 170.071 279.567 238.939 328.208 271.663C351.707 287.505 372.881 306.554 391.117 328.257C423.972 367.28 487.178 415.772 562.454 339.793C617.013 284.723 616.206 212.994 601.297 154.315Z" fill="#F2F2F2"/>
<path d="M84.0113 221.103C83.4082 220.209 82.8153 219.292 82.249 218.376L83.1637 217.809C83.7225 218.714 84.3074 219.619 84.9024 220.501L84.0113 221.103Z" fill="#3F3D56"/>
<path d="M79.0062 212.607C78.0088 210.647 77.0817 208.623 76.251 206.591L77.2461 206.183C78.066 208.188 78.9805 210.185 79.9645 212.118L79.0062 212.607ZM74.0036 200.367C73.3438 198.271 72.7638 196.122 72.2794 193.978L73.3285 193.741C73.8061 195.856 74.3782 197.976 75.0291 200.043L74.0036 200.367ZM71.0903 187.469C70.7854 185.296 70.567 183.081 70.4404 180.885L71.5143 180.822C71.6387 182.99 71.8545 185.176 72.1552 187.319L71.0903 187.469ZM71.4035 174.294L70.3286 174.268C70.3803 172.068 70.5232 169.847 70.7529 167.667L71.8225 167.78C71.5957 169.931 71.4547 172.123 71.4035 174.294ZM72.7732 161.323L71.7167 161.122C72.1263 158.964 72.6312 156.796 73.2174 154.679L74.254 154.967C73.6753 157.055 73.1773 159.194 72.7732 161.323ZM76.2562 148.755L75.2475 148.382C76.0078 146.32 76.8646 144.264 77.7937 142.271L78.7683 142.726C77.8515 144.693 77.0064 146.721 76.2562 148.755ZM223.536 145.428C222.696 143.432 221.76 141.446 220.756 139.523L221.709 139.025C222.727 140.973 223.675 142.987 224.527 145.009L223.536 145.428ZM81.7696 136.927L80.8359 136.393C81.925 134.486 83.1078 132.6 84.3515 130.787L85.2379 131.396C84.011 133.185 82.8439 135.046 81.7696 136.927ZM217.498 133.868C216.339 132.038 215.09 130.232 213.785 128.501L214.644 127.853C215.967 129.607 217.232 131.437 218.406 133.293L217.498 133.868ZM89.1486 126.17L88.3147 125.49C89.7021 123.786 91.1766 122.119 92.6981 120.536L93.4731 121.281C91.9721 122.844 90.517 124.489 89.1486 126.17ZM209.646 123.456C208.203 121.838 206.676 120.26 205.107 118.766L205.848 117.986C207.439 119.5 208.986 121.099 210.448 122.739L209.646 123.456ZM98.1825 116.764L97.471 115.957C99.1164 114.503 100.843 113.1 102.602 111.786L103.245 112.648C101.509 113.945 99.8061 115.33 98.1825 116.764ZM200.2 114.464C198.513 113.104 196.749 111.796 194.957 110.579L195.561 109.688C197.378 110.922 199.165 112.247 200.875 113.626L200.2 114.464ZM108.626 108.963L108.056 108.05C109.918 106.884 111.85 105.783 113.798 104.777L114.291 105.733C112.369 106.726 110.463 107.813 108.626 108.963ZM189.413 107.138C187.524 106.071 185.57 105.071 183.604 104.166L184.054 103.188C186.046 104.105 188.027 105.119 189.942 106.2L189.413 107.138ZM120.202 102.983L119.79 101.989C121.816 101.147 123.902 100.379 125.99 99.7079L126.319 100.733C124.259 101.395 122.202 102.152 120.202 102.983ZM177.57 101.685C175.534 100.945 173.442 100.282 171.35 99.7134L171.632 98.6749C173.752 99.2509 175.873 99.9231 177.937 100.673L177.57 101.685ZM132.605 98.9965L132.362 97.948C134.498 97.4524 136.683 97.0401 138.857 96.7221L139.013 97.7872C136.868 98.101 134.712 98.5078 132.605 98.9966V98.9965ZM164.989 98.2655C162.864 97.8734 160.691 97.5649 158.532 97.3489L158.639 96.2777C160.827 96.4969 163.029 96.8093 165.184 97.2069L164.989 98.2655ZM145.499 97.1105L145.431 96.0362C147.618 95.898 149.848 95.8489 152.04 95.8885L152.02 96.9649C149.856 96.9253 147.657 96.9744 145.499 97.1105Z" fill="#3F3D56"/>
<path d="M226.776 154.689C226.488 153.665 226.175 152.633 225.845 151.621L226.868 151.287C227.202 152.313 227.519 153.359 227.811 154.398L226.776 154.689Z" fill="#3F3D56"/>
<path d="M220.218 94.4114H219.143C219.143 93.3342 219.161 92.2413 219.199 91.1633L220.274 91.2006C220.237 92.2665 220.218 93.3466 220.218 94.4114Z" fill="#3F3D56"/>
<path d="M220.73 84.7281L219.66 84.614C219.891 82.4463 220.202 80.2609 220.587 78.1187L221.645 78.3089C221.265 80.426 220.957 82.5858 220.73 84.7281ZM223.019 71.9723L221.977 71.7064C222.516 69.5938 223.138 67.4757 223.826 65.4107L224.847 65.7513C224.166 67.7921 223.551 69.885 223.019 71.9723ZM394.528 60.6161C393.724 58.6187 392.837 56.6257 391.892 54.6931L392.858 54.2201C393.814 56.1758 394.712 58.1924 395.525 60.2141L394.528 60.6161ZM227.12 59.6727L226.127 59.2591C226.963 57.2477 227.884 55.2397 228.864 53.2909L229.824 53.775C228.856 55.7009 227.946 57.685 227.12 59.6727ZM388.837 48.9743C387.756 47.1143 386.593 45.2687 385.38 43.4891L386.269 42.8826C387.496 44.6835 388.672 46.5509 389.766 48.433L388.837 48.9743ZM232.946 48.0879L232.022 47.5361C233.137 45.6671 234.336 43.8124 235.584 42.0236L236.466 42.6401C235.232 44.4078 234.047 46.2408 232.946 48.0879H232.946ZM381.541 38.2649C380.203 36.5754 378.79 34.9143 377.339 33.3276L378.132 32.6007C379.6 34.2064 381.031 35.8869 382.384 37.5963L381.541 38.2649ZM240.366 37.4586L239.53 36.7806C240.902 35.0872 242.351 33.4227 243.839 31.8334L244.624 32.5692C243.154 34.1401 241.721 35.7852 240.366 37.4586ZM372.796 28.7023C371.233 27.2206 369.598 25.7774 367.936 24.4122L368.617 23.5802C370.3 24.9612 371.954 26.4218 373.536 27.9207L372.796 28.7023ZM249.219 27.9964L248.488 27.2065C250.085 25.7267 251.755 24.2853 253.454 22.9227L254.126 23.7626C252.448 25.1094 250.797 26.5337 249.219 27.9964V27.9964ZM362.782 20.4798C361.025 19.2358 359.201 18.0401 357.36 16.9259L357.917 16.0051C359.779 17.1324 361.625 18.3423 363.402 19.6011L362.782 20.4798ZM259.322 19.8902L258.711 19.0045C260.501 17.7673 262.359 16.5793 264.234 15.4729L264.78 16.4001C262.927 17.4935 261.091 18.6677 259.322 19.8901V19.8902ZM351.699 13.7701C349.782 12.7899 347.806 11.868 345.825 11.0294L346.244 10.0382C348.248 10.8865 350.248 11.8196 352.188 12.8114L351.699 13.7701ZM270.473 13.311L269.995 12.3471C271.943 11.379 273.951 10.4694 275.963 9.64403L276.371 10.64C274.382 11.4557 272.398 12.3544 270.473 13.311V13.311ZM339.769 8.71979C337.735 8.02655 335.646 7.39849 333.562 6.85319L333.834 5.81202C335.943 6.36362 338.057 6.99931 340.115 7.70069L339.769 8.71979ZM282.444 8.40129L282.109 7.37851C284.176 6.70052 286.295 6.08901 288.409 5.56104L288.669 6.60536C286.581 7.127 284.486 7.73115 282.444 8.40126L282.444 8.40129ZM327.238 5.4407C325.124 5.04782 322.968 4.72696 320.83 4.48677L320.95 3.41722C323.113 3.6603 325.295 3.98484 327.435 4.3822L327.238 5.4407ZM295.007 5.26358L294.823 4.20296C296.965 3.82953 299.15 3.52914 301.317 3.30974L301.425 4.38086C299.284 4.59739 297.124 4.89434 295.007 5.26356L295.007 5.26358ZM314.37 3.99325C312.216 3.90574 310.027 3.89418 307.89 3.95804L307.857 2.88219C310.02 2.81755 312.234 2.82885 314.414 2.91793L314.37 3.99325Z" fill="#3F3D56"/>
<path d="M397.674 69.8525C397.386 68.8282 397.075 67.7941 396.75 66.7784L397.774 66.4504C398.103 67.4779 398.418 68.5244 398.709 69.5608L397.674 69.8525Z" fill="#3F3D56"/>
<path d="M83.3821 234.463C93.2748 234.463 101.294 233.861 101.294 233.118C101.294 232.375 93.2748 231.773 83.3821 231.773C73.4894 231.773 65.4697 232.375 65.4697 233.118C65.4697 233.861 73.4894 234.463 83.3821 234.463Z" fill="#F2B23D"/>
<path d="M226.233 169.472C236.126 169.472 244.145 168.87 244.145 168.127C244.145 167.385 236.126 166.783 226.233 166.783C216.34 166.783 208.321 167.385 208.321 168.127C208.321 168.87 216.34 169.472 226.233 169.472Z" fill="#F2B23D"/>
<path d="M402.67 101.792C412.562 101.792 420.582 101.19 420.582 100.447C420.582 99.7046 412.562 99.1025 402.67 99.1025C392.777 99.1025 384.757 99.7046 384.757 100.447C384.757 101.19 392.777 101.792 402.67 101.792Z" fill="#F2B23D"/>
<path d="M395.572 96.0328L341.71 149.944L342.47 150.705L396.333 96.7939L395.572 96.0328Z" fill="#3F3D56"/>
<path d="M326.095 156.832H235.637V157.908H326.095V156.832Z" fill="#3F3D56"/>
<path d="M219.127 164.17L168.534 214.809L169.294 215.57L219.887 164.931L219.127 164.17Z" fill="#3F3D56"/>
<path d="M153.24 221.823H92.7861V222.899H153.24V221.823Z" fill="#3F3D56"/>
<path d="M76.3527 228.636L16.2788 288.764L17.0392 289.525L77.1131 229.397L76.3527 228.636Z" fill="#3F3D56"/>
<path d="M83.3825 232.312C81.4162 232.312 79.494 231.728 77.8591 230.635C76.2241 229.541 74.9498 227.987 74.1973 226.169C73.4448 224.351 73.2479 222.35 73.6314 220.42C74.015 218.49 74.9619 216.716 76.3522 215.325C77.7426 213.933 79.5141 212.985 81.4426 212.601C83.3711 212.217 85.3701 212.414 87.1867 213.168C89.0034 213.921 90.5561 215.196 91.6485 216.833C92.741 218.469 93.324 220.393 93.3241 222.361C93.3211 224.999 92.2727 227.528 90.409 229.394C88.5452 231.259 86.0183 232.309 83.3825 232.312ZM83.3825 213.487C81.6289 213.486 79.9146 214.007 78.4565 214.982C76.9984 215.957 75.862 217.343 75.1908 218.965C74.5197 220.586 74.3441 222.371 74.6862 224.092C75.0283 225.814 75.8727 227.395 77.1127 228.636C78.3526 229.877 79.9325 230.722 81.6524 231.065C83.3723 231.407 85.1551 231.231 86.7752 230.56C88.3953 229.888 89.7801 228.751 90.7544 227.291C91.7286 225.832 92.2486 224.116 92.2486 222.361C92.2459 220.008 91.311 217.753 89.6489 216.089C87.9867 214.425 85.7331 213.489 83.3825 213.487Z" fill="#3F3D56"/>
<path d="M162.644 232.312C160.678 232.312 158.756 231.728 157.121 230.635C155.486 229.541 154.212 227.987 153.459 226.169C152.707 224.351 152.51 222.35 152.894 220.42C153.277 218.489 154.224 216.716 155.615 215.325C157.005 213.933 158.776 212.985 160.705 212.601C162.633 212.217 164.632 212.414 166.449 213.168C168.266 213.921 169.818 215.196 170.911 216.833C172.003 218.469 172.586 220.393 172.586 222.361C172.583 224.999 171.535 227.528 169.671 229.394C167.807 231.259 165.28 232.309 162.644 232.312ZM162.644 213.487C160.891 213.487 159.177 214.007 157.719 214.982C156.26 215.957 155.124 217.343 154.453 218.965C153.782 220.586 153.606 222.371 153.948 224.092C154.291 225.814 155.135 227.395 156.375 228.636C157.615 229.877 159.195 230.722 160.915 231.065C162.635 231.407 164.417 231.232 166.037 230.56C167.658 229.888 169.042 228.751 170.017 227.291C170.991 225.832 171.511 224.116 171.511 222.361C171.508 220.008 170.573 217.752 168.911 216.089C167.249 214.425 164.995 213.489 162.644 213.487Z" fill="#3F3D56"/>
<path d="M226.233 167.321C224.267 167.321 222.345 166.737 220.71 165.644C219.075 164.55 217.801 162.996 217.048 161.178C216.296 159.36 216.099 157.359 216.483 155.429C216.866 153.499 217.813 151.726 219.203 150.334C220.594 148.943 222.365 147.995 224.294 147.611C226.222 147.227 228.221 147.424 230.038 148.177C231.854 148.93 233.407 150.206 234.499 151.842C235.592 153.478 236.175 155.402 236.175 157.37C236.172 160.008 235.123 162.538 233.26 164.403C231.396 166.269 228.869 167.318 226.233 167.321ZM226.233 148.496C224.479 148.496 222.765 149.017 221.307 149.992C219.849 150.967 218.713 152.353 218.042 153.974C217.371 155.596 217.195 157.38 217.537 159.102C217.879 160.823 218.724 162.404 219.964 163.645C221.204 164.887 222.784 165.732 224.504 166.074C226.223 166.416 228.006 166.241 229.626 165.569C231.246 164.897 232.631 163.76 233.605 162.3C234.579 160.841 235.099 159.125 235.099 157.37C235.097 155.017 234.162 152.762 232.5 151.098C230.837 149.434 228.584 148.499 226.233 148.496V148.496Z" fill="#3F3D56"/>
<path d="M335.498 167.321C333.532 167.321 331.61 166.737 329.975 165.644C328.34 164.55 327.066 162.996 326.313 161.178C325.561 159.36 325.364 157.359 325.748 155.429C326.131 153.499 327.078 151.726 328.469 150.334C329.859 148.943 331.63 147.995 333.559 147.611C335.487 147.227 337.486 147.424 339.303 148.177C341.119 148.93 342.672 150.206 343.764 151.842C344.857 153.478 345.44 155.402 345.44 157.37C345.437 160.008 344.389 162.538 342.525 164.403C340.661 166.269 338.134 167.318 335.498 167.321ZM335.498 148.496C333.745 148.496 332.03 149.017 330.572 149.992C329.114 150.967 327.978 152.353 327.307 153.974C326.636 155.596 326.46 157.38 326.802 159.102C327.145 160.823 327.989 162.404 329.229 163.645C330.469 164.887 332.049 165.732 333.769 166.074C335.489 166.416 337.271 166.241 338.891 165.569C340.511 164.897 341.896 163.76 342.87 162.3C343.845 160.841 344.365 159.125 344.365 157.37C344.362 155.017 343.427 152.762 341.765 151.098C340.103 149.434 337.849 148.499 335.498 148.496V148.496Z" fill="#3F3D56"/>
<path d="M402.67 99.6408C400.703 99.6408 398.781 99.0571 397.146 97.9637C395.511 96.8703 394.237 95.3163 393.485 93.498C392.732 91.6798 392.535 89.6791 392.919 87.7488C393.303 85.8186 394.25 84.0456 395.64 82.654C397.03 81.2624 398.802 80.3147 400.73 79.9307C402.659 79.5468 404.658 79.7438 406.474 80.4969C408.291 81.25 409.843 82.5254 410.936 84.1618C412.028 85.7981 412.611 87.722 412.611 89.69C412.608 92.3282 411.56 94.8575 409.696 96.723C407.832 98.5885 405.305 99.6378 402.67 99.6408ZM402.67 80.8159C400.916 80.8159 399.202 81.3364 397.744 82.3116C396.286 83.2867 395.149 84.6727 394.478 86.2942C393.807 87.9158 393.632 89.7001 393.974 91.4216C394.316 93.143 395.16 94.7242 396.4 95.9653C397.64 97.2064 399.22 98.0515 400.94 98.3939C402.66 98.7363 404.443 98.5605 406.063 97.8888C407.683 97.2171 409.068 96.0797 410.042 94.6203C411.016 93.1609 411.536 91.4452 411.536 89.69C411.533 87.3372 410.598 85.0816 408.936 83.418C407.274 81.7543 405.02 80.8185 402.67 80.8159V80.8159Z" fill="#3F3D56"/>
<path d="M9.94158 305.819C7.97527 305.819 6.0531 305.235 4.41814 304.142C2.78319 303.048 1.50888 301.494 0.756366 299.676C0.00385473 297.858 -0.193064 295.857 0.190513 293.927C0.574091 291.996 1.52093 290.223 2.91131 288.832C4.30169 287.44 6.07315 286.492 8.00168 286.108C9.93021 285.724 11.9292 285.921 13.7458 286.674C15.5625 287.428 17.1152 288.703 18.2076 290.339C19.3 291.976 19.8831 293.9 19.8831 295.868C19.8802 298.506 18.8318 301.035 16.968 302.901C15.1043 304.766 12.5774 305.816 9.94158 305.819ZM9.94158 286.993C8.18797 286.993 6.47371 287.514 5.01561 288.489C3.5575 289.464 2.42104 290.85 1.74992 292.472C1.0788 294.093 0.903181 295.877 1.24526 297.599C1.58735 299.32 2.43177 300.902 3.67174 302.143C4.91172 303.384 6.49156 304.229 8.21148 304.572C9.93139 304.914 11.7141 304.738 13.3343 304.067C14.9544 303.395 16.3392 302.258 17.3134 300.798C18.2877 299.339 18.8077 297.623 18.8077 295.868C18.805 293.515 17.8701 291.259 16.2079 289.596C14.5458 287.932 12.2922 286.996 9.94158 286.993Z" fill="#3F3D56"/>
<path d="M83.3821 163.645C81.0298 163.645 78.7005 164.109 76.5273 165.01C74.3541 165.911 72.3794 167.232 70.7161 168.896C69.0528 170.561 67.7334 172.538 66.8332 174.713C65.933 176.888 65.4697 179.219 65.4697 181.574C65.4697 191.475 83.3821 224.154 83.3821 224.154C83.3821 224.154 101.294 191.475 101.294 181.574C101.294 179.219 100.831 176.888 99.9309 174.713C99.0307 172.538 97.7113 170.561 96.048 168.896C94.3847 167.232 92.41 165.911 90.2368 165.01C88.0636 164.109 85.7343 163.645 83.3821 163.645ZM83.3821 190.986C81.5221 190.986 79.704 190.434 78.1575 189.4C76.611 188.366 75.4057 186.896 74.6939 185.176C73.9822 183.456 73.7959 181.563 74.1588 179.737C74.5216 177.912 75.4173 176.235 76.7325 174.918C78.0476 173.602 79.7232 172.705 81.5474 172.342C83.3716 171.979 85.2624 172.165 86.9808 172.878C88.6991 173.59 90.1678 174.797 91.2012 176.344C92.2345 177.892 92.786 179.712 92.786 181.574C92.786 184.07 91.7952 186.464 90.0317 188.229C88.2681 189.995 85.8761 190.986 83.3821 190.986Z" fill="#F2B23D"/>
<path d="M226.233 96.4133C221.482 96.4133 216.926 98.3022 213.567 101.664C210.208 105.027 208.321 109.587 208.321 114.342C208.321 124.243 226.233 156.922 226.233 156.922C226.233 156.922 244.145 124.243 244.145 114.342C244.145 111.987 243.682 109.656 242.782 107.481C241.882 105.306 240.562 103.329 238.899 101.664C237.236 99.9996 235.261 98.679 233.088 97.778C230.915 96.8771 228.585 96.4133 226.233 96.4133ZM226.233 123.754C224.373 123.754 222.555 123.202 221.009 122.168C219.462 121.134 218.257 119.664 217.545 117.944C216.833 116.224 216.647 114.331 217.01 112.506C217.373 110.68 218.268 109.003 219.584 107.686C220.899 106.37 222.574 105.473 224.398 105.11C226.223 104.747 228.114 104.933 229.832 105.646C231.55 106.358 233.019 107.565 234.052 109.113C235.086 110.66 235.637 112.48 235.637 114.342C235.637 116.838 234.646 119.232 232.883 120.997C231.119 122.763 228.727 123.754 226.233 123.754Z" fill="#F2B23D"/>
<path d="M577.88 380.685H334.011V382H577.88V380.685Z" fill="#2F2E41"/>
<path d="M535.251 38.9823C531.46 50.2174 525.647 60.4543 513.799 60.4543C501.951 60.4543 493.013 50.8221 492.346 38.9823C491.493 23.8533 501.677 17.4476 513.799 17.5102C528.118 17.5842 539.751 25.6489 535.251 38.9823Z" fill="#2F2E41"/>
<path d="M534.686 37.2871H492.346V90.9672H534.686V37.2871Z" fill="#2F2E41"/>
<path d="M535.93 77.2791H539.532C539.532 77.2791 548.335 88.4934 544.333 103.713C540.332 118.932 543.533 121.736 543.533 121.736C543.533 121.736 548.742 138.217 543.14 163.049C537.538 187.88 548.335 194.629 548.335 194.629L538.331 174.603L532.729 121.736L535.93 77.2791Z" fill="#575A89"/>
<path opacity="0.1" d="M535.93 78.5964H539.532C539.532 78.5964 548.335 89.8107 544.333 105.03C540.332 120.25 543.533 123.053 543.533 123.053C543.533 123.053 548.742 139.534 543.14 164.366C537.538 189.198 548.335 195.946 548.335 195.946L538.331 175.921L532.729 123.053L535.93 78.5964Z" fill="black"/>
<path d="M523.325 57.8542C523.325 57.8542 520.124 70.6706 521.725 70.6706C523.325 70.6706 528.927 77.4792 528.927 77.4792L532.529 90.6961L529.728 100.308L520.124 98.3058L508.119 85.0889L504.518 81.4843L501.317 69.8695C501.317 69.8695 505.318 65.0634 502.517 61.0583C499.716 57.0532 523.325 57.8542 523.325 57.8542Z" fill="#FBBEBE"/>
<path opacity="0.1" d="M523.325 57.8542C523.325 57.8542 520.124 70.6706 521.725 70.6706C523.325 70.6706 528.927 77.4792 528.927 77.4792L532.529 90.6961L529.728 100.308L520.124 98.3058L508.119 85.0889L504.518 81.4843L501.317 69.8695C501.317 69.8695 505.318 65.0634 502.517 61.0583C499.716 57.0532 523.325 57.8542 523.325 57.8542Z" fill="black"/>
<path d="M426.489 93.4996L417.686 79.0812C417.686 79.0812 408.183 58.0366 401.381 65.6463C394.578 73.2561 411.684 88.6935 411.684 88.6935L420.487 100.308L426.489 93.4996Z" fill="#FBBEBE"/>
<path d="M543.332 218.86L536.93 265.719C536.93 265.719 537.73 269.324 529.727 282.541C521.724 295.758 500.116 324.595 500.116 324.595L493.714 312.579C493.714 312.579 501.317 274.531 514.522 266.521L512.921 208.847L543.332 218.86Z" fill="#FBBEBE"/>
<path opacity="0.1" d="M543.332 218.86L536.93 265.719C536.93 265.719 537.73 269.324 529.727 282.541C521.724 295.758 500.116 324.595 500.116 324.595L493.714 312.579C493.714 312.579 501.317 274.531 514.522 266.521L512.921 208.847L543.332 218.86Z" fill="black"/>
<path d="M493.714 307.773L502.517 324.594C502.517 324.594 495.314 345.02 498.115 347.023C500.916 349.026 504.518 367.049 496.915 365.046C489.312 363.043 483.31 355.033 483.31 353.832C483.31 352.63 487.712 335.809 485.311 331.804C482.91 327.798 481.309 326.597 481.309 326.597L475.307 336.61L473.306 335.408L483.31 318.587C483.31 318.587 484.51 315.383 489.312 313.38L493.714 307.773Z" fill="#2F2E41"/>
<path opacity="0.1" d="M493.714 307.773L502.517 324.594C502.517 324.594 495.314 345.02 498.115 347.023C500.916 349.026 504.518 367.049 496.915 365.046C489.312 363.043 483.31 355.033 483.31 353.832C483.31 352.63 487.712 335.809 485.311 331.804C482.91 327.798 481.309 326.597 481.309 326.597L475.307 336.61L473.306 335.408L483.31 318.587C483.31 318.587 484.51 315.383 489.312 313.38L493.714 307.773Z" fill="black"/>
<path d="M513.015 212.211C513.015 212.211 516.123 256.508 509.32 268.123V325.796L500.117 326.998C500.117 326.998 481.531 296.464 488.333 266.426C495.136 236.387 481.31 208.847 481.31 208.847L513.015 212.211Z" fill="#FBBEBE"/>
<path d="M510.72 67.6666C520.002 67.6666 527.527 60.1354 527.527 50.8451C527.527 41.5549 520.002 34.0237 510.72 34.0237C501.438 34.0237 493.914 41.5549 493.914 50.8451C493.914 60.1354 501.438 67.6666 510.72 67.6666Z" fill="#FBBEBE"/>
<path d="M527.727 95.1016L510.921 73.8745L501.317 67.4663L497.316 72.673L486.111 75.877C486.111 75.877 478.909 77.4791 471.306 86.2903C463.703 95.1016 450.098 100.308 450.098 100.308L438.894 98.3057C438.894 98.3057 425.689 92.298 425.689 90.6959C425.689 89.0939 414.084 101.51 416.885 106.316C419.687 111.122 425.689 117.13 428.89 120.334C432.091 123.538 433.292 132.75 452.899 129.946C472.506 127.142 479.709 117.53 479.709 117.53C479.709 117.53 483.31 135.954 493.714 139.558C504.118 143.163 538.131 145.566 538.131 145.566L545.334 121.535C545.334 121.535 553.337 111.122 542.533 95.9026C542.533 95.9026 542.325 87.3908 541.164 81.7268C540.712 79.5238 540.116 77.7515 539.331 77.0786C536.53 74.6755 521.725 70.6704 521.725 70.6704C521.725 70.6704 524.126 78.6806 525.326 79.0811C526.527 79.4817 529.328 93.099 527.727 95.1016Z" fill="#575A89"/>
<path d="M473.907 214.654C494.058 213.252 505.79 216.557 511.024 219.076C511.997 219.517 512.914 220.073 513.753 220.734C514.138 221.058 514.322 221.311 514.322 221.463C514.322 222.664 541.932 225.067 551.936 222.664C561.939 220.261 545.133 168.595 540.732 164.19C536.33 159.784 538.703 143.66 538.703 143.66C538.703 143.66 529.928 141.761 527.527 142.562C525.126 143.363 512.721 141.361 508.319 138.958C503.918 136.555 498.316 138.157 494.714 137.356C493.106 136.999 492.293 137.6 491.889 138.377C491.26 139.542 490.31 140.503 489.152 141.144C480.657 146.043 473.839 179.91 468.705 198.634C463.103 219.06 473.907 214.654 473.907 214.654Z" fill="#2F2E41"/>
<path d="M510.921 322.191L512.521 331.003C512.521 331.003 520.924 343.018 518.523 353.031C518.523 353.031 520.524 366.248 527.727 369.852C534.93 373.457 528.927 381.868 522.125 381.467C515.322 381.067 508.92 381.868 508.119 379.865C507.319 377.862 502.517 358.237 502.517 358.237L501.204 381.203L497.202 381.603L498.516 355.033C498.516 355.033 495.315 349.026 499.716 339.013L498.605 323.643C498.605 323.643 509.72 326.197 510.921 322.191Z" fill="#2F2E41"/>
<path opacity="0.1" d="M511.024 219.076C511.997 219.517 512.914 220.073 513.754 220.734C513.966 216.949 515.19 194.06 513.721 194.428L511.024 219.076Z" fill="black"/>
<path d="M503.763 27.6811C503.763 27.6811 503.577 26.6441 496.298 29.3763C489.018 32.1085 484.655 52.2709 488.295 64.1104C489.761 68.8817 488.568 72.3218 486.621 74.7288C479.313 83.7612 482.189 97.3276 492.834 101.972C493.135 102.104 493.441 102.233 493.754 102.361L498.304 105.093C498.304 105.093 492.504 97.4553 495.406 87.6848C497.927 79.3599 498.238 70.5216 496.309 62.0398C495.976 60.609 495.598 59.1341 495.168 57.6289C491.529 44.8787 493.299 46.3512 506.038 33.6009C506.038 33.6009 513.317 39.0653 519.686 41.7975C526.056 44.5297 531.515 47.2619 526.966 56.3692C522.416 65.4765 511.497 73.6732 518.777 85.5127C526.056 97.3522 526.966 92.7985 526.056 97.3522L525.146 101.906L530.605 96.4414L526.966 103.727C526.966 103.727 538.795 103.727 542.434 94.62L544.254 96.4414C544.254 96.4414 551.533 83.6912 537.885 71.8516C537.885 71.8516 533.335 69.1194 539.705 60.0121C546.074 50.9048 541.182 31.324 532.993 27.6811C524.804 24.0382 503.763 27.6811 503.763 27.6811Z" fill="#2F2E41"/>
<path d="M513.799 22.0307C518.476 22.0307 522.267 18.236 522.267 13.5549C522.267 8.87385 518.476 5.0791 513.799 5.0791C509.122 5.0791 505.331 8.87385 505.331 13.5549C505.331 18.236 509.122 22.0307 513.799 22.0307Z" fill="#2F2E41"/>
<path d="M503.637 9.03439C503.637 6.93329 504.417 4.90713 505.825 3.34893C507.233 1.79074 509.17 0.811585 511.258 0.601396C510.98 0.5737 510.697 0.558594 510.412 0.558594C508.166 0.558594 506.012 1.45158 504.424 3.0411C502.836 4.63062 501.943 6.78647 501.943 9.0344C501.943 11.2823 502.836 13.4382 504.424 15.0277C506.012 16.6172 508.166 17.5102 510.412 17.5102C510.697 17.5102 510.98 17.4951 511.258 17.4674C509.17 17.2572 507.233 16.278 505.825 14.7198C504.417 13.1617 503.637 11.1355 503.637 9.03439Z" fill="#2F2E41"/>
<path d="M402.67 31.8708C400.317 31.8708 397.988 32.3346 395.815 33.2356C393.642 34.1366 391.667 35.4572 390.004 37.122C388.34 38.7868 387.021 40.7632 386.121 42.9384C385.221 45.1136 384.757 47.4449 384.757 49.7993C384.757 59.701 402.67 92.3795 402.67 92.3795C402.67 92.3795 420.582 59.7009 420.582 49.7993C420.582 47.4449 420.119 45.1136 419.219 42.9384C418.318 40.7632 416.999 38.7868 415.336 37.122C413.672 35.4572 411.698 34.1366 409.524 33.2356C407.351 32.3346 405.022 31.8708 402.67 31.8708ZM402.67 59.2118C400.81 59.2118 398.992 58.6598 397.445 57.6255C395.899 56.5913 394.693 55.1212 393.982 53.4013C393.27 51.6814 393.084 49.7889 393.446 47.9631C393.809 46.1372 394.705 44.4601 396.02 43.1438C397.335 41.8274 399.011 40.931 400.835 40.5678C402.659 40.2046 404.55 40.391 406.268 41.1034C407.987 41.8158 409.455 43.0222 410.489 44.5701C411.522 46.118 412.074 47.9377 412.074 49.7994C412.074 52.2957 411.083 54.6898 409.319 56.455C407.556 58.2201 405.164 59.2118 402.67 59.2118Z" fill="#F2B23D"/>
<path d="M258.271 365.459C263.624 365.459 267.964 361.115 267.964 355.757C267.964 350.4 263.624 346.056 258.271 346.056C252.918 346.056 248.579 350.4 248.579 355.757C248.579 361.115 252.918 365.459 258.271 365.459Z" fill="#F1F1F1"/>
<path d="M318.574 324.424C323.927 324.424 328.266 320.081 328.266 314.723C328.266 309.365 323.927 305.022 318.574 305.022C313.221 305.022 308.881 309.365 308.881 314.723C308.881 320.081 313.221 324.424 318.574 324.424Z" fill="#F1F1F1"/>
<path d="M244 286.216C249.353 286.216 253.692 281.872 253.692 276.515C253.692 271.157 249.353 266.813 244 266.813C238.647 266.813 234.308 271.157 234.308 276.515C234.308 281.872 238.647 286.216 244 286.216Z" fill="#F1F1F1"/>
</g>
<defs>
<clipPath id="clip0">
<rect width="610" height="382" fill="white"/>
</clipPath>
</defs>
</svg>
