<svg width="610" height="546" viewBox="0 0 610 546" fill="none" xmlns="http://www.w3.org/2000/svg">
<g clip-path="url(#clip0)">
<path d="M204.671 526.778L0 546V64.3157L204.671 45.094V526.778Z" fill="url(#paint0_linear)"/>
<path d="M204.672 526.778L409.344 546V64.3157L204.672 45.094V526.778Z" fill="url(#paint1_linear)"/>
<path d="M610.001 526.778L409.344 546V64.3157L610.001 45.094V526.778Z" fill="url(#paint2_linear)"/>
<path d="M205.396 513.407L6.52051 531.877V69.0563L205.396 50.587V513.407Z" fill="#F5F5F5"/>
<path d="M205.396 513.407L404.272 531.877V69.0563L205.396 50.587V513.407Z" fill="white"/>
<path d="M603.146 513.407L404.271 531.877V69.0563L603.146 50.587V513.407Z" fill="#F5F5F5"/>
<path opacity="0.3" d="M205.396 93.0914L54.3379 98.39V119.032V147.279V167.922H182.574V142.781L205.396 141.981L240.172 152.712V103.823L205.396 93.0914Z" fill="#F2B23D"/>
<path opacity="0.3" d="M205.395 481.9L35.8623 498.197V436.271L205.395 419.974V481.9Z" fill="#F2B23D"/>
<path opacity="0.3" d="M186.84 290.213L17.3066 306.51V244.583L186.84 228.286V290.213Z" fill="#F2B23D"/>
<path opacity="0.3" d="M379.276 434.098H305.377V490.592H379.276V434.098Z" fill="#F2B23D"/>
<path opacity="0.3" d="M355.221 301.496H281.322V357.991H355.221V301.496Z" fill="#F2B23D"/>
<path opacity="0.3" d="M385.462 124.924H311.562V181.419H385.462V124.924Z" fill="#F2B23D"/>
<path opacity="0.3" d="M574.891 464.517L459.695 474.296V399.332L574.891 389.554V464.517Z" fill="#F2B23D"/>
<path opacity="0.3" d="M561.147 200.689L445.951 210.467V135.504L561.147 125.726V200.689Z" fill="#F2B23D"/>
<path d="M551.229 61.4141C551.229 88.291 504.234 164.403 504.234 164.403C504.234 164.403 457.238 88.2909 457.238 61.4141C457.238 34.5372 478.279 12.7491 504.234 12.7491C530.189 12.7491 551.229 34.5371 551.229 61.4141Z" fill="url(#paint3_linear)"/>
<path d="M504.235 72.7315C512.082 72.7315 518.443 66.1444 518.443 58.0188C518.443 49.8932 512.082 43.3062 504.235 43.3062C496.388 43.3062 490.027 49.8932 490.027 58.0188C490.027 66.1444 496.388 72.7315 504.235 72.7315Z" fill="url(#paint4_linear)"/>
<path d="M547.723 61.5013C547.723 85.5117 504.236 153.506 504.236 153.506C504.236 153.506 460.748 85.5117 460.748 61.5013C460.748 49.9711 465.33 38.9132 473.485 30.7601C481.641 22.607 492.702 18.0266 504.236 18.0266C515.769 18.0266 526.83 22.607 534.986 30.7601C543.141 38.9132 547.723 49.9711 547.723 61.5013Z" fill="#F2B23D"/>
<path d="M504.235 71.6117C511.496 71.6117 517.383 65.7271 517.383 58.4682C517.383 51.2092 511.496 45.3246 504.235 45.3246C496.974 45.3246 491.088 51.2092 491.088 58.4682C491.088 65.7271 496.974 71.6117 504.235 71.6117Z" fill="white"/>
<path d="M154.875 365.973C154.875 393.04 106.484 469.69 106.484 469.69C106.484 469.69 58.0938 393.04 58.0938 365.973C58.0938 338.906 79.7589 316.964 106.484 316.964C133.21 316.964 154.875 338.906 154.875 365.973Z" fill="url(#paint5_linear)"/>
<path d="M106.484 377.371C114.564 377.371 121.114 370.737 121.114 362.554C121.114 354.371 114.564 347.737 106.484 347.737C98.4044 347.737 91.8545 354.371 91.8545 362.554C91.8545 370.737 98.4044 377.371 106.484 377.371Z" fill="url(#paint6_linear)"/>
<path d="M149.972 365.702C149.972 389.713 106.485 457.707 106.485 457.707C106.485 457.707 62.9971 389.713 62.9971 365.702C62.9948 359.992 64.118 354.336 66.3024 349.06C68.4868 343.783 71.6897 338.989 75.7281 334.95C79.7666 330.911 84.5613 327.707 89.8386 325.521C95.1159 323.335 100.772 322.21 106.485 322.21C112.197 322.21 117.853 323.335 123.13 325.521C128.408 327.707 133.203 330.911 137.241 334.95C141.279 338.989 144.482 343.783 146.667 349.06C148.851 354.336 149.974 359.992 149.972 365.702H149.972Z" fill="#F2B23D"/>
<path d="M106.484 375.813C113.745 375.813 119.632 369.928 119.632 362.669C119.632 355.41 113.745 349.526 106.484 349.526C99.2232 349.526 93.3369 355.41 93.3369 362.669C93.3369 369.928 99.2232 375.813 106.484 375.813Z" fill="white"/>
<path d="M385.7 369.137C385.7 393.148 342.212 461.142 342.212 461.142C342.212 461.142 298.725 393.148 298.725 369.137C298.722 363.427 299.845 357.772 302.03 352.495C304.214 347.219 307.417 342.424 311.456 338.385C315.494 334.346 320.289 331.142 325.566 328.956C330.843 326.771 336.5 325.646 342.212 325.646C347.924 325.646 353.581 326.771 358.858 328.956C364.135 331.142 368.93 334.346 372.968 338.385C377.007 342.424 380.21 347.219 382.394 352.495C384.579 357.772 385.702 363.427 385.7 369.137Z" fill="#F2B23D"/>
<path d="M342.212 379.248C349.473 379.248 355.359 373.363 355.359 366.104C355.359 358.845 349.473 352.961 342.212 352.961C334.951 352.961 329.064 358.845 329.064 366.104C329.064 373.363 334.951 379.248 342.212 379.248Z" fill="white"/>
<path d="M556.139 341.655C556.139 365.666 512.652 433.66 512.652 433.66C512.652 433.66 469.164 365.666 469.164 341.655C469.164 330.125 473.746 319.067 481.901 310.914C490.057 302.761 501.118 298.181 512.652 298.181C524.185 298.181 535.246 302.761 543.402 310.914C551.557 319.067 556.139 330.125 556.139 341.655Z" fill="#F2B23D"/>
<path d="M512.651 351.766C519.912 351.766 525.799 345.881 525.799 338.622C525.799 331.363 519.912 325.479 512.651 325.479C505.39 325.479 499.504 331.363 499.504 338.622C499.504 345.881 505.39 351.766 512.651 351.766Z" fill="white"/>
<path d="M171.964 43.4747C171.964 67.4851 128.477 135.479 128.477 135.479C128.477 135.479 84.9893 67.4851 84.9893 43.4747C84.987 37.7641 86.1102 32.109 88.2946 26.8324C90.479 21.5558 93.6819 16.7611 97.7203 12.7223C101.759 8.68346 106.554 5.47959 111.831 3.2937C117.108 1.10781 122.764 -0.0172729 128.477 -0.0172729C134.189 -0.0172729 139.845 1.10781 145.123 3.2937C150.4 5.47959 155.195 8.68346 159.233 12.7223C163.272 16.7611 166.474 21.5558 168.659 26.8324C170.843 32.109 171.967 37.7641 171.964 43.4747H171.964Z" fill="#F2B23D"/>
<path d="M128.476 53.5851C135.738 53.5851 141.624 47.7006 141.624 40.4416C141.624 33.1827 135.738 27.2981 128.476 27.2981C121.215 27.2981 115.329 33.1827 115.329 40.4416C115.329 47.7006 121.215 53.5851 128.476 53.5851Z" fill="white"/>
</g>
<defs>
<linearGradient id="paint0_linear" x1="102.336" y1="546" x2="102.336" y2="45.0938" gradientUnits="userSpaceOnUse">
<stop stop-color="#808080" stop-opacity="0.25"/>
<stop offset="0.53514" stop-color="#808080" stop-opacity="0.12"/>
<stop offset="1" stop-color="#808080" stop-opacity="0.1"/>
</linearGradient>
<linearGradient id="paint1_linear" x1="91634.8" y1="398115" x2="91634.8" y2="32921.4" gradientUnits="userSpaceOnUse">
<stop stop-color="#808080" stop-opacity="0.25"/>
<stop offset="0.53514" stop-color="#808080" stop-opacity="0.12"/>
<stop offset="1" stop-color="#808080" stop-opacity="0.1"/>
</linearGradient>
<linearGradient id="paint2_linear" x1="149218" y1="398115" x2="149218" y2="32921.4" gradientUnits="userSpaceOnUse">
<stop stop-color="#808080" stop-opacity="0.25"/>
<stop offset="0.53514" stop-color="#808080" stop-opacity="0.12"/>
<stop offset="1" stop-color="#808080" stop-opacity="0.1"/>
</linearGradient>
<linearGradient id="paint3_linear" x1="504.234" y1="164.403" x2="504.234" y2="12.7491" gradientUnits="userSpaceOnUse">
<stop stop-color="#B3B3B3" stop-opacity="0.25"/>
<stop offset="0.53514" stop-color="#B3B3B3" stop-opacity="0.1"/>
<stop offset="1" stop-color="#B3B3B3" stop-opacity="0.05"/>
</linearGradient>
<linearGradient id="paint4_linear" x1="504.235" y1="72.7315" x2="504.235" y2="43.3062" gradientUnits="userSpaceOnUse">
<stop stop-opacity="0.12"/>
<stop offset="0.55135" stop-opacity="0.09"/>
<stop offset="1" stop-opacity="0.02"/>
</linearGradient>
<linearGradient id="paint5_linear" x1="30171.2" y1="112766" x2="30171.2" y2="78816.4" gradientUnits="userSpaceOnUse">
<stop stop-color="#B3B3B3" stop-opacity="0.25"/>
<stop offset="0.53514" stop-color="#B3B3B3" stop-opacity="0.1"/>
<stop offset="1" stop-color="#B3B3B3" stop-opacity="0.05"/>
</linearGradient>
<linearGradient id="paint6_linear" x1="106.484" y1="377.371" x2="106.484" y2="347.737" gradientUnits="userSpaceOnUse">
<stop offset="0.00541" stop-opacity="0.12"/>
<stop offset="0.55135" stop-opacity="0.09"/>
<stop offset="1" stop-opacity="0.05"/>
</linearGradient>
<clipPath id="clip0">
<rect width="610" height="546" fill="white"/>
</clipPath>
</defs>
</svg>
