<svg width="610" height="440" viewBox="0 0 610 440" fill="none" xmlns="http://www.w3.org/2000/svg">
<g clip-path="url(#clip0)">
<path opacity="0.1" d="M6.58887 239.208C16.2412 280.488 36.6746 316.171 68.9622 333.49C136.078 369.434 287.43 350.892 400.384 329.595C457.462 318.87 509.271 289.236 547.471 245.466L6.58887 239.208Z" fill="#F2B23D"/>
<path opacity="0.1" d="M598.935 44.9018H536.957C535.537 44.9018 534.175 44.3373 533.171 43.3326C532.167 42.3279 531.602 40.9652 531.602 39.5443C531.602 38.1234 532.167 36.7607 533.171 35.756C534.175 34.7512 535.537 34.1868 536.957 34.1868H547.671C546.28 34.1419 544.961 33.5575 543.993 32.5572C543.025 31.5568 542.484 30.219 542.484 28.8265C542.484 27.434 543.025 26.0961 543.993 25.0958C544.961 24.0954 546.28 23.511 547.671 23.4662H540.02C538.629 23.4214 537.31 22.837 536.342 21.8366C535.374 20.8363 534.833 19.4984 534.833 18.1059C534.833 16.7134 535.374 15.3756 536.342 14.3752C537.31 13.3749 538.629 12.7905 540.02 12.7456H572.369C565.191 9.40761 556.801 7.03205 547.132 5.78586C458.926 -5.54669 427.434 1.95271 416.325 9.68021C402.619 19.1935 387.329 26.1922 370.987 29.5636C316.565 40.796 214.787 54.315 122.539 25.2353C76.6907 10.7706 42.6183 35.2049 22.1904 76.0176H609.694C608.927 64.1566 606.631 53.2079 602.416 43.6167C601.448 44.4494 600.212 44.9056 598.935 44.9018Z" fill="#F2B23D"/>
<path opacity="0.1" d="M1.32926 153.048C-1.0512 177.055 -0.243518 201.271 3.73123 225.065L547.888 244.982C563.037 227.546 575.756 208.137 585.697 187.285L1.32926 153.048ZM216.55 204.42H205.836C207.256 204.42 208.618 204.984 209.622 205.989C210.626 206.994 211.19 208.356 211.19 209.777C211.19 211.198 210.626 212.561 209.622 213.566C208.618 214.57 207.256 215.135 205.836 215.135H143.857C142.437 215.135 141.075 214.57 140.071 213.566C139.067 212.561 138.503 211.198 138.503 209.777C138.503 208.356 139.067 206.994 140.071 205.989C141.075 204.984 142.437 204.42 143.857 204.42H154.572C153.181 204.375 151.862 203.791 150.894 202.79C149.925 201.79 149.384 200.452 149.384 199.06C149.384 197.667 149.925 196.329 150.894 195.329C151.862 194.329 153.181 193.744 154.572 193.699H146.921C145.53 193.654 144.211 193.07 143.243 192.07C142.275 191.069 141.733 189.731 141.733 188.339C141.733 186.947 142.275 185.609 143.243 184.608C144.211 183.608 145.53 183.024 146.921 182.979H208.899C210.29 183.024 211.609 183.608 212.577 184.608C213.545 185.609 214.087 186.947 214.087 188.339C214.087 189.731 213.545 191.069 212.577 192.07C211.609 193.07 210.29 193.654 208.899 193.699H216.55C217.941 193.744 219.26 194.329 220.228 195.329C221.196 196.329 221.737 197.667 221.737 199.06C221.737 200.452 221.196 201.79 220.228 202.79C219.26 203.791 217.941 204.375 216.55 204.42Z" fill="#F2B23D"/>
<path opacity="0.1" d="M609.722 76.3737L15.6352 90.8384C8.40703 109.426 3.64201 130.427 1.41797 152.219H599.314C603.216 139.424 606.103 126.341 607.948 113.092C609.728 100.291 610.439 87.9065 609.722 76.3737ZM122.028 123.751H111.314C112.017 123.751 112.713 123.89 113.363 124.159C114.012 124.428 114.603 124.823 115.1 125.32C115.597 125.818 115.991 126.409 116.26 127.059C116.53 127.709 116.668 128.405 116.668 129.109C116.668 129.812 116.53 130.509 116.26 131.159C115.991 131.809 115.597 132.4 115.1 132.897C114.603 133.395 114.012 133.789 113.363 134.058C112.713 134.328 112.017 134.466 111.314 134.466H49.335C47.9149 134.466 46.553 133.902 45.5489 132.897C44.5448 131.892 43.9806 130.53 43.9806 129.109C43.9806 127.688 44.5448 126.325 45.5489 125.32C46.553 124.316 47.9149 123.751 49.335 123.751H60.0494C58.6584 123.706 57.3395 123.122 56.3714 122.122C55.4033 121.121 54.862 119.783 54.862 118.391C54.862 116.998 55.4033 115.661 56.3714 114.66C57.3395 113.66 58.6584 113.076 60.0494 113.031H52.3986C51.0077 112.986 49.6887 112.401 48.7207 111.401C47.7526 110.401 47.2113 109.063 47.2113 107.67C47.2113 106.278 47.7526 104.94 48.7207 103.94C49.6887 102.939 51.0077 102.355 52.3986 102.31H114.377C115.768 102.355 117.087 102.939 118.055 103.94C119.023 104.94 119.565 106.278 119.565 107.67C119.565 109.063 119.023 110.401 118.055 111.401C117.087 112.401 115.768 112.986 114.377 113.031H122.028C123.419 113.076 124.738 113.66 125.706 114.66C126.674 115.661 127.215 116.998 127.215 118.391C127.215 119.783 126.674 121.121 125.706 122.122C124.738 123.122 123.419 123.706 122.028 123.751Z" fill="#F2B23D"/>
<path opacity="0.1" d="M313.379 440C420.497 440 507.333 435.297 507.333 429.496C507.333 423.695 420.497 418.993 313.379 418.993C206.262 418.993 119.426 423.695 119.426 429.496C119.426 435.297 206.262 440 313.379 440Z" fill="#F2B23D"/>
<path d="M474.395 352.26C474.395 352.26 477.447 356.26 472.983 362.274C468.518 368.288 464.837 373.401 466.31 377.168C466.31 377.168 473.044 365.957 478.543 365.802C484.042 365.646 480.422 359.003 474.395 352.26Z" fill="#F2B23D"/>
<path opacity="0.1" d="M474.394 352.26C474.657 352.647 474.867 353.069 475.017 353.512C480.366 359.804 483.212 365.674 478.075 365.818C473.282 365.957 467.538 374.525 466.165 376.689C466.209 376.857 466.263 377.023 466.326 377.184C466.326 377.184 473.06 365.974 478.559 365.818C484.057 365.662 480.421 359.003 474.394 352.26Z" fill="black"/>
<path d="M480.071 357.356C480.071 358.764 479.916 359.904 479.721 359.904C479.526 359.904 479.365 358.764 479.365 357.356C479.365 355.949 479.565 356.611 479.76 356.611C479.955 356.611 480.071 355.949 480.071 357.356Z" fill="#FFD037"/>
<path d="M482.017 359.036C480.783 359.71 479.71 360.116 479.615 359.943C479.52 359.771 480.449 359.087 481.683 358.413C482.918 357.74 482.428 358.23 482.523 358.413C482.617 358.597 483.251 358.363 482.017 359.036Z" fill="#FFD037"/>
<path d="M458.259 352.26C458.259 352.26 455.207 356.26 459.671 362.274C464.136 368.288 467.811 373.401 466.343 377.168C466.343 377.168 459.605 365.957 454.111 365.802C448.618 365.646 452.226 359.003 458.259 352.26Z" fill="#F2B23D"/>
<path opacity="0.1" d="M458.258 352.26C457.992 352.646 457.783 353.067 457.636 353.512C452.287 359.804 449.435 365.674 454.578 365.818C459.365 365.957 465.142 374.525 466.487 376.689C466.443 376.856 466.387 377.017 466.326 377.184C466.326 377.184 459.587 365.974 454.094 365.818C448.601 365.662 452.226 359.003 458.258 352.26Z" fill="black"/>
<path d="M452.582 357.356C452.582 358.764 452.738 359.904 452.932 359.904C453.127 359.904 453.288 358.764 453.288 357.356C453.288 355.949 453.088 356.611 452.893 356.611C452.699 356.611 452.582 355.949 452.582 357.356Z" fill="#FFD037"/>
<path d="M450.631 359.036C451.865 359.71 452.944 360.116 453.038 359.943C453.133 359.771 452.204 359.087 450.97 358.413C449.736 357.74 450.225 358.23 450.13 358.413C450.036 358.597 449.396 358.363 450.631 359.036Z" fill="#FFD037"/>
<path d="M453.555 376.661C453.555 376.661 462.095 376.394 464.675 374.564C467.255 372.734 477.813 370.536 478.453 373.451C479.092 376.366 491.286 388.077 481.644 388.155C472.003 388.233 459.243 386.653 456.674 385.09C454.105 383.526 453.555 376.661 453.555 376.661Z" fill="#A8A8A8"/>
<path opacity="0.2" d="M481.811 387.159C472.17 387.237 459.41 385.657 456.841 384.094C454.884 382.898 454.105 378.62 453.844 376.65H453.561C453.561 376.65 454.117 383.538 456.669 385.106C459.221 386.675 471.998 388.25 481.639 388.172C484.419 388.172 485.387 387.159 485.331 385.691C484.942 386.592 483.88 387.143 481.811 387.159Z" fill="black"/>
<path d="M149.694 379.788C150.715 378.954 151.459 377.831 151.829 376.567C152.102 375.293 151.557 373.785 150.339 373.29C148.972 372.767 147.509 373.718 146.397 374.675C145.285 375.632 144.023 376.728 142.572 376.522C143.318 375.846 143.876 374.988 144.192 374.031C144.508 373.075 144.57 372.052 144.373 371.064C144.31 370.655 144.137 370.271 143.873 369.952C143.111 369.14 141.738 369.484 140.826 370.124C137.935 372.16 137.129 376.094 137.112 379.626C136.823 378.352 137.067 377.023 137.062 375.732C137.056 374.441 136.695 372.95 135.594 372.266C134.911 371.901 134.144 371.721 133.37 371.743C132.069 371.693 130.623 371.827 129.734 372.772C128.622 373.957 128.916 375.938 129.878 377.223C130.84 378.508 132.297 379.343 133.637 380.238C134.715 380.88 135.635 381.757 136.328 382.803C136.407 382.952 136.474 383.106 136.528 383.265H144.674C146.496 382.338 148.185 381.168 149.694 379.788Z" fill="#F2B23D"/>
<path d="M84.9585 388.567C84.9585 388.567 77.1409 362.024 86.4208 342.491C90.3711 334.321 91.5652 325.089 89.8236 316.182C88.9643 311.963 87.7192 307.833 86.1038 303.843" stroke="#535461" stroke-width="2" stroke-miterlimit="10"/>
<path d="M91.8587 291.492C91.8587 294.746 85.976 304.182 85.976 304.182C85.976 304.182 80.0879 294.724 80.0879 291.492C80.1349 289.961 80.7756 288.509 81.8742 287.443C82.9728 286.377 84.443 285.781 85.9733 285.781C87.5036 285.781 88.9738 286.377 90.0724 287.443C91.171 288.509 91.8116 289.961 91.8587 291.492Z" fill="#F2B23D"/>
<path d="M101.589 309.512C99.8262 312.243 89.7568 316.961 89.7568 316.961C89.7568 316.961 89.9403 305.834 91.7084 303.108C92.5772 301.844 93.9048 300.968 95.4088 300.668C96.9128 300.368 98.4744 300.667 99.7616 301.501C101.049 302.335 101.96 303.639 102.301 305.135C102.642 306.631 102.387 308.201 101.589 309.512Z" fill="#F2B23D"/>
<path d="M101.166 340.305C98.2635 341.768 87.1934 340.755 87.1934 340.755C87.1934 340.755 92.9648 331.248 95.8671 329.784C96.5593 329.418 97.3177 329.193 98.0978 329.123C98.878 329.053 99.6642 329.14 100.411 329.377C101.157 329.615 101.848 330 102.444 330.509C103.04 331.017 103.529 331.64 103.881 332.339C104.234 333.039 104.443 333.803 104.497 334.584C104.551 335.366 104.449 336.151 104.196 336.893C103.943 337.635 103.545 338.318 103.024 338.904C102.504 339.49 101.872 339.966 101.166 340.305Z" fill="#F2B23D"/>
<path d="M95.6008 363.532C92.9876 365.468 81.9062 366.313 81.9062 366.313C81.9062 366.313 85.9874 355.971 88.5784 354.035C89.1952 353.529 89.9084 353.154 90.6746 352.932C91.4408 352.71 92.244 352.647 93.0356 352.745C93.8272 352.843 94.5905 353.101 95.2794 353.503C95.9682 353.906 96.5682 354.444 97.0429 355.085C97.5176 355.727 97.8571 356.458 98.0409 357.234C98.2246 358.011 98.2488 358.817 98.1118 359.603C97.9749 360.389 97.6797 361.139 97.2443 361.808C96.8088 362.477 96.2421 363.05 95.5786 363.493L95.6008 363.532Z" fill="#F2B23D"/>
<path d="M77.4029 317.59C79.7326 319.854 90.597 322.207 90.597 322.207C90.597 322.207 87.9337 311.409 85.5929 309.139C85.0433 308.577 84.3868 308.13 83.662 307.826C82.9373 307.522 82.159 307.366 81.3731 307.368C80.5872 307.369 79.8095 307.528 79.0859 307.835C78.3623 308.142 77.7075 308.591 77.16 309.155C76.6125 309.719 76.1834 310.387 75.898 311.12C75.6126 311.853 75.4767 312.635 75.4983 313.421C75.5199 314.207 75.6986 314.981 76.0238 315.697C76.349 316.413 76.8141 317.056 77.3918 317.59H77.4029Z" fill="#F2B23D"/>
<path d="M71.236 344.833C74.1383 346.296 85.2085 345.284 85.2085 345.284C85.2085 345.284 79.4371 335.782 76.5348 334.313C75.1449 333.647 73.5495 333.553 72.0909 334.051C70.6324 334.548 69.427 335.598 68.7335 336.975C68.04 338.352 67.9136 339.946 68.3815 341.415C68.8493 342.885 69.8741 344.112 71.236 344.833Z" fill="#F2B23D"/>
<path d="M68.879 372.138C71.4923 374.069 82.568 374.92 82.568 374.92C82.568 374.92 78.4924 364.578 75.8959 362.642C74.6384 361.802 73.1066 361.479 71.6175 361.739C70.1284 361.998 68.7962 362.821 67.8966 364.036C66.997 365.252 66.599 366.767 66.785 368.268C66.971 369.769 67.7267 371.14 68.8957 372.099L68.879 372.138Z" fill="#F2B23D"/>
<path d="M91.8587 291.492C91.8587 294.746 85.976 304.182 85.976 304.182C85.976 304.182 80.0879 294.724 80.0879 291.492C80.1349 289.961 80.7756 288.509 81.8742 287.443C82.9728 286.377 84.443 285.781 85.9733 285.781C87.5036 285.781 88.9738 286.377 90.0724 287.443C91.171 288.509 91.8116 289.961 91.8587 291.492Z" fill="#F2B23D"/>
<path d="M101.589 309.512C99.8262 312.243 89.7568 316.961 89.7568 316.961C89.7568 316.961 89.9403 305.834 91.7084 303.108C92.5772 301.844 93.9048 300.968 95.4088 300.668C96.9128 300.368 98.4744 300.667 99.7616 301.501C101.049 302.335 101.96 303.639 102.301 305.135C102.642 306.631 102.387 308.201 101.589 309.512Z" fill="#F2B23D"/>
<path d="M101.166 340.305C98.2635 341.768 87.1934 340.755 87.1934 340.755C87.1934 340.755 92.9648 331.248 95.8671 329.784C96.5593 329.418 97.3177 329.193 98.0978 329.123C98.878 329.053 99.6642 329.14 100.411 329.377C101.157 329.615 101.848 330 102.444 330.509C103.04 331.017 103.529 331.64 103.881 332.339C104.234 333.039 104.443 333.803 104.497 334.584C104.551 335.366 104.449 336.151 104.196 336.893C103.943 337.635 103.545 338.318 103.024 338.904C102.504 339.49 101.872 339.966 101.166 340.305Z" fill="#F2B23D"/>
<path d="M95.6008 363.532C92.9876 365.468 81.9062 366.313 81.9062 366.313C81.9062 366.313 85.9874 355.971 88.5784 354.035C89.1952 353.529 89.9084 353.154 90.6746 352.932C91.4408 352.71 92.244 352.647 93.0356 352.745C93.8272 352.843 94.5905 353.101 95.2794 353.503C95.9682 353.906 96.5682 354.444 97.0429 355.085C97.5176 355.727 97.8571 356.458 98.0409 357.234C98.2246 358.011 98.2488 358.817 98.1118 359.603C97.9749 360.389 97.6797 361.139 97.2443 361.808C96.8088 362.477 96.2421 363.05 95.5786 363.493L95.6008 363.532Z" fill="#F2B23D"/>
<path d="M77.4029 317.59C79.7326 319.854 90.597 322.207 90.597 322.207C90.597 322.207 87.9337 311.409 85.5929 309.139C85.0433 308.577 84.3868 308.13 83.662 307.826C82.9373 307.522 82.159 307.366 81.3731 307.368C80.5872 307.369 79.8095 307.528 79.0859 307.835C78.3623 308.142 77.7075 308.591 77.16 309.155C76.6125 309.719 76.1834 310.387 75.898 311.12C75.6126 311.853 75.4767 312.635 75.4983 313.421C75.5199 314.207 75.6986 314.981 76.0238 315.697C76.349 316.413 76.8141 317.056 77.3918 317.59H77.4029Z" fill="#F2B23D"/>
<path d="M71.236 344.833C74.1383 346.296 85.2085 345.284 85.2085 345.284C85.2085 345.284 79.4371 335.782 76.5348 334.313C75.1449 333.647 73.5495 333.553 72.0909 334.051C70.6324 334.548 69.427 335.598 68.7335 336.975C68.04 338.352 67.9136 339.946 68.3815 341.415C68.8493 342.885 69.8741 344.112 71.236 344.833Z" fill="#F2B23D"/>
<path d="M68.879 372.138C71.4923 374.069 82.568 374.92 82.568 374.92C82.568 374.92 78.4924 364.578 75.8959 362.642C74.6384 361.802 73.1066 361.479 71.6175 361.739C70.1284 361.998 68.7962 362.821 67.8966 364.036C66.997 365.252 66.599 366.767 66.785 368.268C66.971 369.769 67.7267 371.14 68.8957 372.099L68.879 372.138Z" fill="#F2B23D"/>
<path d="M66.4717 386.898C66.4717 386.898 75.9906 385.006 78.526 382.486C81.0614 379.966 92.4819 375.554 93.7496 378.703C95.0173 381.852 110.875 392.567 100.088 394.458C89.3015 396.35 74.7173 396.978 71.5481 395.716C68.3788 394.453 66.4717 386.898 66.4717 386.898Z" fill="#A8A8A8"/>
<path opacity="0.2" d="M100.105 393.279C89.3238 395.17 74.734 395.799 71.5647 394.542C69.1517 393.579 67.4725 388.978 66.8108 386.825L66.4717 386.898C66.4717 386.898 68.3788 394.458 71.5481 395.716C74.7173 396.973 89.3071 396.344 100.088 394.458C103.202 393.902 104.091 392.628 103.758 391.009C103.508 392.061 102.423 392.873 100.105 393.279Z" fill="black"/>
<path d="M402.702 145.749C405.688 142.411 404.52 137.209 404.52 137.209C404.52 137.209 390.431 101.281 388.869 100.886C387.306 100.491 383.386 91.4281 383.386 91.4281C383.386 91.4281 345.817 55.6947 344.465 55.6947C343.114 55.6947 329.398 45.8253 327.641 45.6306C325.884 45.4359 323.137 44.4456 320.201 42.8489C317.265 41.2523 287.519 43.0492 286.346 44.4289C285.172 45.8086 279.673 46.7989 279.673 46.7989C279.673 46.7989 268.52 47.3886 266.952 49.3636C265.384 51.3386 253.847 52.3845 253.847 52.3845C253.847 52.3845 248.17 54.4986 255.876 60.112C253.408 60.5015 250.522 60.8019 247.592 61.0133C246.858 61.0633 246.113 61.1134 245.368 61.1524H244.928C244.436 59.6637 243.477 58.3739 242.193 57.475C241.353 57.0189 240.486 56.6157 239.596 56.2677C238.218 55.5346 236.928 54.6481 235.749 53.6251C230.044 49.0862 223.957 45.0506 217.556 41.5638C216.568 40.9448 215.465 40.5305 214.314 40.3454C211.929 40.1173 209.8 41.7919 207.464 42.3538C203.361 43.3385 199.224 40.835 195.004 40.7961C189.733 40.746 184.935 44.8517 183.328 49.9144C182.733 51.7892 182.466 53.8755 181.182 55.3609C179.514 57.3025 176.695 57.5863 174.409 58.7379C172.754 59.602 171.366 60.9037 170.398 62.5014C169.429 64.0992 168.917 65.9319 168.916 67.8006V67.8451C168.916 68.1399 168.916 68.4348 168.966 68.7297C169.227 71.1108 170.328 73.3083 171.134 75.567C171.963 77.8814 172.486 80.2939 172.691 82.7437C172.694 82.7696 172.694 82.7957 172.691 82.8216C172.725 83.2277 172.752 83.6339 172.769 84.0456C172.769 84.129 172.769 84.218 172.769 84.307C172.769 84.6965 172.769 85.0915 172.769 85.4865C172.769 87.6117 172.697 89.7536 172.702 91.8788V91.99V92.9525C172.702 93.0304 172.702 93.1083 172.702 93.1861C172.702 93.4699 172.702 93.7425 172.736 94.0429V94.3433C172.736 94.6048 172.775 94.8718 172.803 95.1333C172.803 95.2446 172.803 95.3614 172.83 95.4727C172.83 95.7286 172.891 95.9789 172.925 96.2293L172.975 96.5854C173.014 96.8357 173.058 97.0861 173.103 97.3364L173.169 97.6813C173.225 97.9484 173.292 98.2377 173.359 98.4825C173.386 98.577 173.403 98.666 173.425 98.7606C173.525 99.1315 173.637 99.4876 173.759 99.8288C174.591 102.165 175.966 104.27 177.77 105.971C179.573 107.672 181.754 108.921 184.134 109.615C185.03 109.862 185.957 109.978 186.886 109.96C188.554 109.921 190.15 109.403 191.14 108.263C191.384 108.541 191.624 108.819 191.879 109.097C195.506 113.044 200.03 116.057 205.068 117.881C210.105 119.705 215.509 120.287 220.819 119.578C226.13 118.868 231.191 116.887 235.574 113.804C239.957 110.721 243.532 106.625 245.996 101.865C246.58 101.737 247.158 101.62 247.742 101.509C248.754 101.32 249.771 101.142 250.794 100.953L251.778 100.797L252.168 100.73C257.172 99.9401 262.031 99.4115 265.512 99.061L251.756 100.769C251.756 100.769 248.42 116.797 247.458 118.572C246.496 120.346 250.794 123.306 250.794 123.306C250.794 123.306 254.514 127.846 254.514 129.231C254.514 130.616 258.817 134.561 259.991 136.73C260.14 137.006 260.327 137.259 260.547 137.482C259.678 137.818 258.876 138.306 258.178 138.922C255.459 141.498 256.365 146.016 255.12 149.554C254.342 151.779 252.713 153.582 251.145 155.334C250.581 155.906 250.109 156.561 249.743 157.276C249.54 157.75 249.414 158.253 249.371 158.767C249.343 159.052 249.332 159.338 249.338 159.624V159.724C249.338 159.946 249.338 160.163 249.382 160.38C249.382 160.475 249.382 160.569 249.382 160.664C249.654 162.99 250.444 165.237 250.683 167.563C250.922 169.888 250.633 172.23 251.111 174.495C251.277 175.284 251.534 176.051 251.878 176.781L243.916 185.682C243.916 185.682 243.866 186.122 243.85 186.845C237.211 192.358 226.947 202.762 230.611 211.936C231.011 212.941 231.382 213.903 231.723 214.823C229.026 216.542 228.137 218.584 232.179 220.62C232.818 220.943 233.436 221.221 234.042 221.471C236.116 227.563 236.927 229.26 240.402 224.771C240.775 224.281 241.209 223.658 241.681 222.985C246.574 222.885 249.404 220.62 249.404 220.62C249.404 220.62 263.099 219.83 266.641 222.006C268.414 223.118 272.584 223.341 276.276 223.313C276.227 227.293 276.412 231.272 276.832 235.23C276.832 235.23 276.243 252.009 277.811 255.564C279.379 259.119 280.246 265.238 280.246 265.238C280.246 265.238 277.616 271.158 279.179 274.318C280.741 277.478 277.811 282.017 277.811 282.017V293.662L278.923 293.584C278.839 294.368 278.734 295.191 278.595 295.976C278.272 297.795 277.789 299.425 277.044 299.954C275.086 301.361 274.892 308.855 274.892 308.855C274.892 308.855 271.761 317.94 272.345 319.52C272.929 321.1 268.631 324.254 269.61 326.624C270.588 328.994 272.59 343.993 274.33 348.321C276.071 352.65 270.783 351.481 270.783 351.481L272.345 362.731C272.345 362.731 273.913 374.18 272.74 374.97C271.567 375.76 264.817 381.485 269.46 384.839C269.821 385.101 270.188 385.34 270.572 385.568C270.592 386.088 270.579 386.608 270.533 387.126C270.444 388.01 270.221 388.717 269.726 388.795C268.348 388.995 265.606 390.375 265.028 389.785C264.45 389.195 261.136 391.276 257.8 391.955L257.339 392.027L253.007 390.914C246.74 388.526 239.861 388.272 233.436 390.191C233.436 390.191 230.294 390.681 228.771 393.029C227.998 394.23 227.659 395.922 228.348 398.28C230.439 405.257 244.689 407.66 244.689 407.66C244.689 407.66 249.627 408.678 255.559 410.025C255.365 410.025 255.165 410.025 254.964 410.025C253.327 410.013 251.745 410.617 250.53 411.715C249.316 412.814 248.557 414.329 248.404 415.96C248.25 417.591 248.714 419.22 249.703 420.526C250.691 421.832 252.133 422.72 253.744 423.014C255.355 423.308 257.018 422.988 258.404 422.115C259.79 421.243 260.798 419.882 261.231 418.302C261.663 416.722 261.488 415.037 260.74 413.58C259.991 412.122 258.724 410.999 257.188 410.431C263.861 411.966 271.25 413.836 274.252 415.154C276.488 415.996 278.778 416.684 281.108 417.212C281.223 418.593 281.775 419.901 282.684 420.946C283.593 421.991 284.812 422.719 286.163 423.023C287.514 423.327 288.927 423.192 290.195 422.637C291.464 422.082 292.523 421.137 293.218 419.939C302.298 421.836 311.044 423.443 311.044 423.443L325.65 423.683H325.75C324.029 423.694 322.382 424.388 321.171 425.613C319.96 426.837 319.283 428.491 319.289 430.214C319.295 431.936 319.983 433.586 321.203 434.802C322.422 436.018 324.073 436.701 325.795 436.701C327.516 436.701 329.167 436.018 330.387 434.802C331.606 433.586 332.294 431.936 332.3 430.214C332.306 428.491 331.629 426.837 330.418 425.613C329.207 424.388 327.561 423.694 325.839 423.683L347.952 424.044C347.686 424.945 347.618 425.892 347.751 426.821C347.885 427.75 348.217 428.64 348.725 429.429C349.233 430.218 349.905 430.888 350.695 431.394C351.486 431.9 352.376 432.229 353.305 432.36C354.234 432.491 355.18 432.419 356.079 432.151C356.978 431.882 357.809 431.423 358.514 430.804C359.22 430.186 359.784 429.422 360.168 428.566C360.552 427.709 360.747 426.78 360.74 425.841C360.739 425.305 360.672 424.77 360.54 424.25L380.045 424.567L383.937 420.283C384.154 419.867 384.285 419.411 384.32 418.943C384.437 417.535 383.709 415.399 378.727 414.492C378.36 414.425 368.196 414.587 359.216 414.737V411.21C359.216 411.21 358.966 409.268 358.811 406.981C358.766 406.308 358.727 405.607 358.71 404.917C359.219 405.266 359.783 405.524 360.379 405.68C364.098 406.275 369.186 395.415 369.186 395.415C369.186 395.415 369.186 389.296 370.359 384.361C371.532 379.426 373.695 362.842 373.695 362.842L378.399 342.908C378.399 342.908 380.345 302.24 379.366 300.66C378.388 299.08 380.545 296.315 380.545 296.315C380.545 296.315 382.107 287.631 379.761 284.671C377.415 281.711 381.129 278.746 381.129 278.746C381.129 278.746 382.107 268.482 379.366 264.537C376.625 260.593 380.651 257.828 380.651 257.828L381.629 241.839C385.738 237.694 389.452 213.021 389.653 207.691C389.704 204.691 390.37 201.733 391.61 199.001C391.61 199.001 394.345 194.856 394.74 192.091C395.135 189.326 398.076 183.607 398.076 183.607L403.164 164.653C405.215 157.009 404.693 151.357 403.33 147.329C403.13 146.761 402.919 146.244 402.702 145.749ZM310.788 146.861C313.918 148.836 312.94 149.426 313.918 150.611C314.897 151.796 314.113 151.596 313.329 153.571C312.545 155.546 313.134 154.956 313.523 157.126C313.913 159.295 313.724 159.295 313.724 159.295L314.702 159.435L313.34 168.597C311.116 170.049 310.098 172.831 309.637 175.702C308.325 173.988 307.001 172.208 305.817 170.55C306.223 169.643 306.145 168.564 306.156 167.546C306.201 164.208 307.446 161.02 308.019 157.732C308.604 154.387 308.496 150.958 307.702 147.657C307.417 146.415 306.978 145.213 306.395 144.08C307.663 144.925 309.27 145.927 310.788 146.884V146.861ZM314.307 340.316C314.307 340.316 316.782 338.647 319.184 337.128C319.99 342.986 320.752 349.078 321.291 354.586C320.429 352.672 319.829 351.37 319.829 351.37C318.946 350.309 318.417 348.998 318.316 347.621C318.222 345.473 314.307 340.338 314.307 340.338V340.316ZM299.634 137.409C300.19 137.487 300.98 138.194 301.725 139.039C301.035 138.483 300.34 137.927 299.629 137.404L299.634 137.409ZM263.822 210.445C261.564 211.157 253.913 211.051 249.365 210.784C251.067 207.875 252.757 204.915 254.258 202.261C255.144 202.491 256.045 202.652 256.955 202.745L271.85 189.655C277.454 191.621 283.565 191.582 289.142 189.543L289.548 190.178C289.721 190.456 289.904 190.734 290.104 191.046L289.732 190.439C289.732 190.439 283.983 193.866 284.566 195.446C285.15 197.026 283.788 200.971 281.636 205.199C281.08 206.256 280.596 207.302 280.129 208.353C275.259 208.809 266.079 209.733 263.822 210.445ZM292.084 392.834L292 391.271C292.945 391.065 293.568 390.876 293.568 390.876C293.373 388.556 293.046 386.249 292.59 383.966C292 381.596 292.306 382.386 294.597 380.628C296.888 378.87 294.597 358.931 294.597 358.931C294.597 358.931 295.709 357.546 297.471 361.1C299.234 364.655 301.002 366.825 301.591 367.02C302.181 367.215 299.24 371.17 301.591 374.92C303.052 377.345 304.046 380.023 304.522 382.814C304.522 382.814 302.959 389.084 305.306 391.871C305.623 392.196 306 392.455 306.418 392.634C306.418 393.151 306.418 393.702 306.418 394.219C306.418 395.259 306.418 396.15 306.368 396.339C306.345 396.472 306.288 396.597 306.203 396.702C306.117 396.807 306.006 396.888 305.88 396.937C305.754 396.987 305.618 397.002 305.484 396.983C305.35 396.964 305.224 396.911 305.117 396.828C304.511 396.433 300.668 397.318 300.93 399.794C300.021 400.868 298.991 401.833 297.861 402.67L292.528 401.29L292.084 392.834Z" fill="url(#paint0_linear)"/>
<path d="M244.061 188.32C244.061 188.32 242.198 203.591 256.971 205.154L259.196 194.584L254.542 188.32L247.875 186.061L244.061 188.32Z" fill="#F2B23D"/>
<path opacity="0.1" d="M247.875 186.061L244.061 188.314C244.061 188.314 242.198 203.585 256.971 205.149" fill="black"/>
<path d="M270.867 101.971C270.867 101.971 260.898 102.583 250.9 104.241C249.877 104.415 248.86 104.6 247.848 104.797C247.259 104.908 246.68 105.025 246.102 105.153C240.864 106.232 236.094 107.634 233.314 109.426C229.978 111.567 228.866 105.798 228.76 97.7815C228.716 94.9609 228.81 91.8677 228.96 88.741C229.155 85.1249 229.438 81.4642 229.739 78.1707C230.4 70.8716 231.162 65.1969 231.162 65.1969C231.162 65.1969 234.654 65.1969 239.319 65.0356L240.82 64.98C242.282 64.9243 243.834 64.8464 245.396 64.7519C246.135 64.7129 246.88 64.6684 247.62 64.6128C250.578 64.4014 253.497 64.101 255.96 63.7115C258.585 63.2887 260.714 62.7546 261.871 62.0425C267.153 58.8937 270.867 101.971 270.867 101.971Z" fill="#F8BDC5"/>
<path d="M315.286 158.361L313.34 171.284C313.34 171.284 309.098 176.57 309.654 179.507C310.21 182.445 315.103 312.26 315.103 312.26C315.103 312.26 324.694 367.081 321.363 374.13C318.033 381.179 321.169 397.629 321.169 397.629L341.13 394.497L347.802 154.834L315.286 158.361Z" fill="#474463"/>
<path opacity="0.1" d="M315.286 158.361L313.34 171.284C313.34 171.284 309.098 176.57 309.654 179.507C310.21 182.445 315.103 312.26 315.103 312.26C315.103 312.26 324.694 367.081 321.363 374.13C318.033 381.179 321.169 397.629 321.169 397.629L341.13 394.497L347.802 154.834L315.286 158.361Z" fill="black"/>
<path d="M359.317 400.956C358.683 402.008 358.733 405.101 358.911 407.732C359.067 409.997 359.317 411.922 359.317 411.922V425.235C359.317 425.235 337.988 417.797 326.245 409.963C321.402 406.731 320.023 403.727 320.29 401.324C320.68 397.902 324.405 395.671 326.245 395.671C328.002 395.671 333.551 392.606 338.099 389.896C341.675 387.777 344.644 385.88 344.644 385.88C344.644 385.88 360.49 398.998 359.317 400.956Z" fill="#575988"/>
<path opacity="0.1" d="M359.317 400.956C358.683 402.008 358.733 405.101 358.911 407.732C354.168 405.507 339.484 391.254 338.1 389.896C341.675 387.777 344.644 385.88 344.644 385.88C344.644 385.88 360.49 398.998 359.317 400.956Z" fill="black"/>
<path d="M403.153 167.368L398.065 186.166C398.065 186.166 395.129 191.841 394.729 194.584C394.329 197.327 391.599 201.438 391.599 201.438C390.363 204.144 389.697 207.075 389.641 210.05C389.447 215.341 385.749 239.814 381.618 243.925L380.64 259.786C380.64 259.786 376.748 262.524 379.466 266.462C382.185 270.401 381.229 280.56 381.229 280.56C381.229 280.56 377.509 283.497 379.861 286.435C382.213 289.372 380.64 297.99 380.64 297.99C380.64 297.99 378.488 300.727 379.466 302.296C380.445 303.865 378.499 344.199 378.499 344.199L373.795 363.971C373.795 363.971 371.638 380.422 370.459 385.318C369.28 390.214 369.286 396.278 369.286 396.278C369.286 396.278 364.198 407.048 360.479 406.464C356.759 405.88 338.761 388.25 338.761 388.25L341.302 328.722C341.302 328.722 343.454 303.464 342.086 298.568C340.718 293.673 339.739 269.2 339.739 269.2L336.998 230.629L309.631 187.552C309.631 187.552 307.647 175.018 313.318 171.301L314.346 164.531L315.275 158.378L347.763 154.85L397.465 141.932C397.465 141.932 401.295 144.297 403.303 150.199C404.676 154.177 405.204 159.785 403.153 167.368Z" fill="#474463"/>
<path d="M316.676 187.173C316.676 187.173 293.585 215.547 294.563 207.619C295.175 202.64 292.017 196.559 289.559 192.715C288.108 190.428 286.907 188.931 286.907 188.931C286.907 188.931 300.997 163.09 301.781 166.611C302.031 167.724 303.66 170.278 305.756 173.193C310.176 179.301 316.676 187.173 316.676 187.173Z" fill="#FFC1C8"/>
<path opacity="0.3" d="M359.317 422.464V425.246C359.317 425.246 337.988 417.808 326.245 409.975C321.402 406.742 320.023 403.738 320.29 401.335C326.773 404.617 338.833 410.876 342.486 413.696C345.589 416.089 353.607 419.877 359.317 422.464Z" fill="white"/>
<path d="M354.295 433.029C357.898 433.029 360.818 430.107 360.818 426.503C360.818 422.899 357.898 419.978 354.295 419.978C350.693 419.978 347.773 422.899 347.773 426.503C347.773 430.107 350.693 433.029 354.295 433.029Z" fill="#474463"/>
<path d="M287.674 423.866C291.276 423.866 294.196 420.945 294.196 417.341C294.196 413.736 291.276 410.815 287.674 410.815C284.072 410.815 281.152 413.736 281.152 417.341C281.152 420.945 284.072 423.866 287.674 423.866Z" fill="#474463"/>
<path d="M384.421 419.66C384.384 420.125 384.253 420.577 384.037 420.99L380.145 425.235L325.745 424.361L311.116 424.122C311.116 424.122 280.324 418.514 274.325 415.9C268.325 413.285 244.739 408.5 244.739 408.5C244.739 408.5 230.494 406.108 228.404 399.193C227.698 396.851 228.054 395.176 228.826 393.986C230.344 391.654 233.491 391.165 233.491 391.165C239.92 389.265 246.792 389.519 253.063 391.888L344.249 415.36L345.661 415.722C345.661 415.722 378.165 415.115 378.822 415.232C383.809 416.144 384.537 418.264 384.421 419.66Z" fill="#F2B23D"/>
<path opacity="0.3" d="M384.421 419.66C378.949 418.948 369.408 417.897 366.951 418.909C366.951 418.909 349.598 416.762 325.722 424.362L311.116 424.122C311.116 424.122 280.324 418.514 274.325 415.9C268.325 413.285 244.739 408.5 244.739 408.5C244.739 408.5 230.494 406.108 228.404 399.193C227.698 396.851 228.054 395.176 228.826 393.986C229.799 396.823 231.673 400.934 234.665 402.086C239.363 403.894 258.673 407.577 258.673 407.577L296.893 416.94C296.893 416.94 318.961 421.73 327.552 418.609C331.071 417.341 337.677 416.211 344.232 415.327L345.644 415.688C345.644 415.688 378.149 415.082 378.805 415.199C383.809 416.144 384.537 418.264 384.421 419.66Z" fill="white"/>
<path d="M331.638 412.612C331.592 413.432 331.49 414.248 331.333 415.054C331.333 415.054 309.715 415.827 298.461 414.158C295.353 413.697 293.596 412.701 292.723 411.51C292.333 410.948 292.092 410.296 292.021 409.615C291.95 408.934 292.052 408.247 292.317 407.616C292.442 407.253 292.6 406.903 292.79 406.57C293.629 405.101 294.919 404.061 295.626 404.2C297.583 404.595 300.941 400.578 300.941 400.578C300.674 398.125 304.527 397.24 305.128 397.641C305.235 397.723 305.362 397.777 305.495 397.796C305.629 397.815 305.766 397.799 305.892 397.75C306.017 397.7 306.128 397.619 306.214 397.514C306.299 397.41 306.356 397.284 306.379 397.151C306.418 396.967 306.429 396.083 306.429 395.048C306.429 393.324 306.379 391.154 306.379 391.154L328.108 393.796L328.97 397.952C329.759 401.657 330.86 406.748 331.333 408.489C331.661 409.837 331.764 411.23 331.638 412.612Z" fill="#474463"/>
<path opacity="0.1" d="M331.639 412.612C331.592 413.432 331.49 414.248 331.333 415.054C331.333 415.054 309.715 415.827 298.462 414.158C295.354 413.696 293.597 412.701 292.724 411.51C295.609 411.338 299.362 411.243 301.687 411.81C305 412.634 324.822 412.634 331.639 412.612Z" fill="black"/>
<path d="M292.768 406.559C292.791 406.759 292.76 406.963 292.677 407.147C292.593 407.332 292.461 407.49 292.295 407.604C289.56 409.719 276.432 407.421 276.432 407.421C276.432 407.421 249.61 405.752 245.601 403.015C245.239 402.777 244.937 402.459 244.717 402.086C243.049 399.07 249.087 394.008 249.61 394.008C250.133 394.008 257.344 393.023 257.828 392.928C261.164 392.255 264.5 390.186 265.056 390.775C265.612 391.365 268.392 389.991 269.749 389.796C270.244 389.724 270.472 389.023 270.555 388.127C270.633 386.915 270.592 385.698 270.433 384.494L291.856 390.264L292.045 393.679L292.662 405.051L292.74 406.447C292.753 406.483 292.763 406.521 292.768 406.559Z" fill="#474463"/>
<path opacity="0.1" d="M276.454 407.421C276.454 407.421 249.632 405.752 245.623 403.015C245.261 402.777 244.959 402.459 244.739 402.086C250.171 402.531 259.229 403.282 260.864 403.699C263.216 404.255 276.432 405.068 276.432 405.068H292.684L292.762 406.464C293.468 410.403 276.454 407.421 276.454 407.421Z" fill="black"/>
<path d="M255.014 423.866C258.616 423.866 261.536 420.945 261.536 417.341C261.536 413.736 258.616 410.815 255.014 410.815C251.412 410.815 248.492 413.736 248.492 417.341C248.492 420.945 251.412 423.866 255.014 423.866Z" fill="#474463"/>
<path d="M325.85 437.413C329.452 437.413 332.372 434.491 332.372 430.887C332.372 427.283 329.452 424.361 325.85 424.361C322.248 424.361 319.328 427.283 319.328 430.887C319.328 434.491 322.248 437.413 325.85 437.413Z" fill="#474463"/>
<path d="M259.518 195.368C259.518 195.368 258.284 197.594 256.427 200.898C251.979 208.754 243.978 222.679 240.536 227.085C235.643 233.349 236.038 227.48 230.75 214.361C226.825 204.603 238.907 193.438 245.368 188.364C247.592 186.6 249.149 185.582 249.149 185.582L259.518 195.368Z" fill="#F8BDC5"/>
<path d="M283.194 210.445C283.194 210.445 266.953 211.814 263.822 212.793C260.692 213.772 247.192 213.182 246.03 212.793C244.868 212.403 221.76 217.688 232.33 222.974C242.9 228.259 249.566 222.974 249.566 222.974C249.566 222.974 263.266 222.189 266.803 224.348C270.339 226.506 283.238 225.327 283.238 225.327L283.194 210.445Z" fill="#FFC1C8"/>
<path opacity="0.1" d="M249.454 90.6159C251.456 95.7398 250.205 100.202 247.847 104.78C241.943 105.893 236.388 107.423 233.297 109.409C224.489 115.089 231.145 65.158 231.145 65.158C231.145 65.158 235.404 65.158 240.803 64.941C239.168 72.4071 245.362 80.1568 249.454 90.6159Z" fill="black"/>
<path d="M249.955 89.5032C249.944 97.704 246.917 105.614 241.451 111.724C235.984 117.834 228.461 121.717 220.316 122.632C212.171 123.547 203.975 121.43 197.29 116.685C190.606 111.94 185.901 104.898 184.073 96.904C182.246 88.9097 183.423 80.522 187.381 73.3408C191.339 66.1597 197.801 60.6877 205.533 57.9687C213.266 55.2497 221.728 55.4739 229.306 58.5986C236.883 61.7234 243.046 67.5299 246.619 74.9106C248.821 79.4594 249.961 84.449 249.955 89.5032Z" fill="#F8BDC5"/>
<path opacity="0.1" d="M403.314 150.183C402.257 151.721 400.675 152.819 398.866 153.27C391.231 155.423 337.415 168.347 333.896 167.563C330.787 166.873 317.449 164.953 314.374 164.514L315.303 158.361L347.79 154.834L397.492 141.916C397.492 141.916 401.306 144.28 403.314 150.183Z" fill="black"/>
<path opacity="0.1" d="M270.867 101.971C264.506 102.352 258.168 103.058 251.879 104.085C251.968 103.798 251.957 103.49 251.846 103.211L264.856 101.603C264.856 101.603 262.955 71.005 255.96 63.6725C258.585 63.2497 260.714 62.7156 261.871 62.0035C267.153 58.8936 270.867 101.971 270.867 101.971Z" fill="black"/>
<path d="M253.847 56.0174C253.847 56.0174 265.395 54.977 266.958 53.0187C268.52 51.0604 279.679 50.4763 279.679 50.4763C279.679 50.4763 285.156 49.4971 286.352 48.123C287.547 46.7488 317.266 44.9908 320.202 46.5597C323.137 48.1286 325.878 49.1021 327.641 49.3024C329.403 49.5027 343.098 59.2831 344.466 59.2831C345.834 59.2831 383.387 94.7272 383.387 94.7272C383.387 94.7272 387.279 103.734 388.869 104.124C390.459 104.513 404.526 140.152 404.526 140.152C404.526 140.152 406.483 148.764 398.855 150.923C391.226 153.081 337.405 165.999 333.885 165.215C330.365 164.43 313.73 162.083 313.73 162.083C313.73 162.083 313.924 162.083 313.535 159.93C313.146 157.777 312.556 158.361 313.335 156.403C314.113 154.444 314.903 154.639 313.924 153.465C312.946 152.291 313.924 151.701 310.794 149.743C307.663 147.785 304.122 145.632 303.944 145.048C303.766 144.464 301.008 140.541 299.64 140.347C298.272 140.152 259.913 129.381 259.913 129.381L250.911 126.444C250.911 126.444 246.608 123.506 247.575 121.748C248.543 119.99 251.873 104.085 251.873 104.085L265.635 102.388C265.635 102.388 263.583 69.2304 255.877 63.667C248.17 58.1037 253.847 56.0174 253.847 56.0174Z" fill="#F2B23D"/>
<path opacity="0.1" d="M259.519 195.368C259.519 195.368 258.284 197.594 256.427 200.898C256.138 190.684 248.999 188.703 245.368 188.364C247.592 186.6 249.149 185.582 249.149 185.582L259.519 195.368Z" fill="black"/>
<path d="M249.955 121.159L250.9 126.444C250.9 126.444 254.62 130.95 254.62 132.319C254.62 133.687 258.923 137.604 260.102 139.757C261.281 141.91 265.384 142.305 263.816 146.027C262.248 149.749 253.252 178.139 253.252 178.139L244.056 188.319C244.056 188.319 259.318 186.945 256.966 205.154L276.732 187.908L292.212 159.729C292.212 159.729 277.144 131.145 276.56 128.797C275.976 126.449 249.955 121.159 249.955 121.159Z" fill="#F2B23D"/>
<path opacity="0.1" d="M295.72 130.95C295.72 130.95 308.241 122.138 308.241 121.159C308.241 120.18 295.72 130.95 295.72 130.95Z" fill="black"/>
<path opacity="0.1" d="M316.677 141.916C316.677 141.916 323.349 140.347 323.905 136.825C324.461 133.303 316.677 141.916 316.677 141.916Z" fill="black"/>
<path opacity="0.1" d="M322.137 150.923C322.137 150.923 331.533 146.266 331.139 145.459C330.744 144.653 322.137 150.923 322.137 150.923Z" fill="black"/>
<path opacity="0.1" d="M372.428 121.097C372.428 121.097 368.536 123.64 369.692 126.021C370.849 128.402 372.428 121.097 372.428 121.097Z" fill="black"/>
<path opacity="0.1" d="M383.953 122.138C383.953 122.138 372.866 132.708 375.374 132.908C377.882 133.109 383.953 122.138 383.953 122.138Z" fill="black"/>
<path opacity="0.1" d="M358.732 286.023C358.732 286.023 373.016 288.766 373.406 289.745C373.795 290.724 358.732 286.023 358.732 286.023Z" fill="black"/>
<path opacity="0.1" d="M363.82 295.42C363.82 295.42 371.449 300.121 371.643 301.489C371.838 302.858 363.82 295.42 363.82 295.42Z" fill="black"/>
<path opacity="0.1" d="M362.058 305.996C362.058 305.996 363.231 311.281 365.188 312.065C367.145 312.85 362.058 305.996 362.058 305.996Z" fill="black"/>
<path opacity="0.1" d="M246.652 74.7381C246.652 74.7938 246.652 74.855 246.624 74.9106C246.358 76.6519 245.646 78.5379 244.011 79.1165C243.024 79.3945 241.968 79.2974 241.048 78.8439C238.268 77.6255 235.793 74.6992 232.824 75.4057C231.412 75.7395 230.422 76.8133 229.722 78.1318C229.236 79.0809 228.863 80.0835 228.61 81.1193C228.054 83.3001 227.609 85.6701 228.46 87.7452C228.599 88.0847 228.767 88.4122 228.96 88.7244C229.749 89.9873 230.861 91.061 231.64 92.335C232.607 93.9261 232.858 96.3128 231.351 97.4032C230.973 97.6519 230.544 97.8133 230.096 97.8758C229.648 97.9384 229.191 97.9005 228.76 97.7648C227.656 97.4178 226.595 96.9475 225.596 96.3629C223.628 95.3337 221.148 94.6939 219.28 95.8844C218.635 96.285 218.118 96.8636 217.501 97.2864C216.218 98.0813 214.696 98.3985 213.203 98.1821C209.666 97.8205 208.343 95.5784 205.641 93.8427C203.661 92.5631 199.525 92.0179 198.346 94.6327C197.59 96.3017 198.713 98.4046 197.973 100.107C197.234 101.809 194.882 102.332 193.792 103.912C192.358 105.993 193.692 109.003 192.641 111.312C192.48 111.669 192.265 112 192.002 112.291C186.11 105.938 182.909 97.5469 183.073 88.8818C183.237 80.2166 186.753 71.9527 192.882 65.828C199.01 59.7033 207.273 56.1951 215.934 56.0411C224.594 55.8871 232.976 59.0993 239.318 65.0023L240.82 64.9466C242.282 64.891 243.833 64.8131 245.396 64.7185C245.765 65.5012 246.054 66.3196 246.257 67.1608C246.862 69.6395 246.996 72.2099 246.652 74.7381Z" fill="black"/>
<path d="M197.551 93.8537C196.789 95.5227 197.912 97.6257 197.178 99.3225C196.444 101.019 194.076 101.548 192.997 103.128C191.557 105.214 192.892 108.224 191.846 110.527C190.645 113.159 187.02 113.57 184.24 112.803C181.865 112.124 179.685 110.89 177.881 109.201C176.077 107.513 174.701 105.42 173.865 103.094C171.98 97.7258 173.198 91.8175 172.708 86.1485C172.5 83.7191 171.977 81.3272 171.151 79.033C170.345 76.8076 169.244 74.6157 168.983 72.2512C168.796 70.245 169.214 68.2288 170.183 66.4627C171.153 64.6966 172.629 63.2616 174.421 62.3429C176.712 61.2302 179.531 60.9131 181.199 59.0049C182.477 57.525 182.75 55.461 183.345 53.5973C184.952 48.5903 189.75 44.5068 195.021 44.5569C199.236 44.5902 203.361 47.0771 207.481 46.0979C209.811 45.5416 211.929 43.8726 214.331 44.1118C215.482 44.2928 216.584 44.7034 217.573 45.319C223.968 48.7752 230.053 52.7771 235.76 57.2803C236.941 58.2976 238.233 59.1767 239.613 59.9006C240.502 60.2471 241.369 60.6465 242.21 61.0967C244.006 62.2094 244.945 64.329 245.457 66.3875C246.071 68.8646 246.21 71.4356 245.868 73.9647C245.624 75.7506 244.923 77.7534 243.227 78.3487C242.237 78.6252 241.179 78.5241 240.258 78.0649C237.478 76.8577 235.009 73.9314 232.04 74.6323C229.616 75.1887 228.448 77.937 227.815 80.3459C227.259 82.5267 226.803 84.8967 227.664 86.9774C228.376 88.7021 229.889 89.9649 230.839 91.5616C231.79 93.1583 232.063 95.545 230.55 96.6298C228.882 97.8371 226.619 96.552 224.79 95.5951C222.833 94.5658 220.342 93.9261 218.479 95.111C217.84 95.5116 217.323 96.0902 216.7 96.5186C215.416 97.3059 213.898 97.6206 212.408 97.4087C208.866 97.0471 207.542 94.8051 204.846 93.0693C202.861 91.7786 198.735 91.2334 197.551 93.8537Z" fill="#474463"/>
<path opacity="0.1" d="M305.762 173.165C305.612 173.999 304.466 174.094 304.233 174.906C302.009 182.756 297.116 189.816 289.565 192.709C288.114 190.422 286.913 188.926 286.913 188.926C286.913 188.926 301.002 163.084 301.786 166.606C302.037 167.702 303.666 170.25 305.762 173.165Z" fill="black"/>
<path d="M306.178 167.757C306.179 172.87 304.665 177.868 301.827 182.119C298.99 186.37 294.956 189.684 290.235 191.641C285.515 193.598 280.321 194.111 275.31 193.114C270.298 192.118 265.695 189.656 262.082 186.042C258.468 182.427 256.008 177.822 255.01 172.808C254.013 167.793 254.524 162.596 256.48 157.873C258.435 153.15 261.746 149.112 265.994 146.272C270.242 143.432 275.237 141.916 280.346 141.916C283.741 141.903 287.106 142.563 290.245 143.857C293.384 145.151 296.237 147.054 298.638 149.456C301.039 151.858 302.942 154.712 304.236 157.853C305.53 160.994 306.19 164.36 306.178 167.757Z" fill="#FFC1C8"/>
<path opacity="0.1" d="M291.901 390.28L292.09 393.696C289.827 394.197 285.523 394.853 283.016 393.318C279.774 391.332 274.987 390.848 270.6 388.144C270.678 386.932 270.637 385.715 270.478 384.511L291.901 390.28Z" fill="black"/>
<path opacity="0.1" d="M328.969 397.963C328.819 398.725 328.68 399.193 328.68 399.193C328.68 399.193 311.416 397.424 306.44 395.037C306.44 393.312 306.39 391.143 306.39 391.143L328.119 393.785L328.969 397.963Z" fill="black"/>
<path d="M325.071 320.288C323.898 323.42 323.309 324.01 324.488 325.573C325.666 327.136 325.071 335.365 323.203 336.143C321.335 336.922 314.307 341.623 314.307 341.623C314.307 341.623 318.199 346.714 318.316 348.856C318.418 350.224 318.947 351.526 319.828 352.578C319.828 352.578 325.855 365.501 327.056 369.613C328.257 373.724 329.358 380.183 329.358 380.183C329.358 380.183 327.251 386.058 328.708 389.39C330.165 392.723 328.708 397.613 328.708 397.613C328.708 397.613 307.685 395.46 305.355 392.695C303.026 389.93 304.577 383.71 304.577 383.71C304.096 380.938 303.101 378.281 301.641 375.877C299.289 372.155 302.197 368.244 301.641 368.044C301.085 367.843 299.289 365.696 297.521 362.174C295.753 358.653 294.652 360.016 294.652 360.016C294.652 360.016 296.943 379.793 294.652 381.557C292.361 383.321 292.05 382.536 292.639 384.895C293.096 387.159 293.423 389.448 293.618 391.749C293.618 391.749 286.573 393.902 283.054 391.749C279.534 389.596 274.235 389.201 269.582 385.874C264.928 382.547 271.689 376.867 272.862 376.083C274.035 375.298 272.473 363.943 272.473 363.943L270.905 352.783C270.905 352.783 276.187 353.957 274.452 349.651C272.717 345.345 270.71 330.463 269.732 328.115C268.753 325.768 273.068 322.63 272.473 321.067C271.878 319.503 275.014 310.496 275.014 310.496C275.014 310.496 275.214 303.058 277.166 301.662C277.911 301.139 278.394 299.514 278.717 297.717C279.059 295.597 279.261 293.456 279.323 291.308C279.323 291.308 324.132 288.176 331.371 292.482C334.629 294.418 334.401 297.984 333.039 301.595C331.371 306.001 327.946 310.496 327.084 312.126C325.466 315.131 326.245 317.156 325.071 320.288Z" fill="#575988"/>
<path opacity="0.1" d="M332.984 301.595C327.424 303.158 320.018 305.456 318.812 306.774C316.855 308.933 310.199 294.635 310.199 294.635C310.199 294.635 310.594 305.384 301.787 300.888C294.164 296.994 281.859 297.506 278.679 297.717C279.021 295.597 279.223 293.456 279.285 291.308C279.285 291.308 324.094 288.176 331.333 292.482C334.591 294.418 334.363 297.984 332.984 301.595Z" fill="black"/>
<path d="M310.199 183.229C310.199 183.229 314.091 178.528 314.897 180.292C315.703 182.055 320.296 185.577 320.296 185.577C320.296 185.577 321.614 189.688 323.932 190.278C326.251 190.868 343.665 214.362 343.665 214.362L337.399 227.085L332.311 258.023C332.311 258.023 332.534 262.918 331.149 264.699C329.765 266.479 324.477 266.067 326.929 268.22C329.381 270.373 332.901 272.332 334.858 282.129C336.815 291.926 339.161 297.595 339.161 297.595C339.161 297.595 320.769 302.296 318.811 304.449C316.854 306.602 310.199 292.31 310.199 292.31C310.199 292.31 310.594 303.052 301.786 298.563C292.979 294.073 277.911 295.442 277.911 295.442V283.87C277.911 283.87 280.847 279.364 279.285 276.232C277.722 273.099 280.352 267.225 280.352 267.225C280.352 267.225 279.479 261.155 277.911 257.633C276.343 254.112 276.933 237.466 276.933 237.466C276.933 237.466 275.743 226.695 276.827 221.21C277.747 216.455 279.372 211.865 281.648 207.591C283.799 203.396 285.162 199.48 284.578 197.911C283.994 196.342 289.743 192.948 289.743 192.948L292.929 198.105L293.741 201.188C293.741 201.188 310.594 189.104 310.199 183.229Z" fill="#DCE6F2"/>
<path d="M338.361 210.445C338.361 210.445 349.32 221.21 350.493 222.974C351.666 224.737 355.597 233.906 350.51 236.687C345.422 239.469 325.489 243.758 323.51 242.278C321.531 240.799 309.61 243.947 309.61 243.947C309.61 243.947 289.671 248.843 293.975 240.815C298.278 232.787 308.459 234.139 308.459 234.139C308.459 234.139 324.906 234.111 326.663 232.47C328.42 230.829 341.675 227.307 338.672 220.053C335.67 212.798 338.361 210.445 338.361 210.445Z" fill="#FFC1C8"/>
<path opacity="0.1" d="M306.179 258.612C306.179 258.612 280.653 280.738 283.193 280.738C285.734 280.738 306.179 258.612 306.179 258.612Z" fill="black"/>
<path opacity="0.1" d="M323.203 267.619C323.203 267.619 315.091 269.572 316.659 270.752C318.227 271.931 323.203 267.619 323.203 267.619Z" fill="black"/>
<path opacity="0.1" d="M294.597 213.967C294.597 213.967 304.722 214.873 302.937 218.044C301.152 221.216 294.597 213.967 294.597 213.967Z" fill="black"/>
<path opacity="0.1" d="M288.286 309.061C288.286 309.061 286.913 313.044 288.286 315.181C289.66 317.317 288.286 322.413 288.286 322.413V340.216C288.286 340.216 288.097 353.139 292.784 357.64L288.286 309.061Z" fill="black"/>
<path opacity="0.1" d="M274.881 364.539C274.881 364.539 277.616 368.55 278.011 370.019C278.406 371.487 274.881 364.539 274.881 364.539Z" fill="black"/>
<path opacity="0.1" d="M275.564 356.51C275.564 356.51 281.925 355.337 282.904 356.021C283.882 356.705 275.564 356.51 275.564 356.51Z" fill="black"/>
<path opacity="0.1" d="M273.708 380.494C273.708 380.494 271.845 380.689 275.565 382.72C279.284 384.75 286.524 387.321 286.618 386.442C286.713 385.563 273.708 380.494 273.708 380.494Z" fill="black"/>
<path opacity="0.1" d="M300.936 361.011C301.592 361.011 309.782 360.522 309.309 361.795C308.836 363.069 300.936 361.011 300.936 361.011Z" fill="black"/>
<path opacity="0.1" d="M312.062 349.556C312.062 349.556 313.919 346.33 314.602 347.698C315.286 349.067 312.062 349.556 312.062 349.556Z" fill="black"/>
<path opacity="0.1" d="M306.179 167.757C306.181 170.16 305.848 172.551 305.189 174.862C304.11 175.841 302.248 175.852 300.919 175.123C299.362 174.266 298.344 172.709 297.332 171.229C296.32 169.749 295.17 168.269 293.513 167.635C291.416 166.845 289.026 167.635 287.202 168.948C285.378 170.261 283.921 171.997 282.198 173.399C280.474 174.801 278.278 175.935 276.082 175.591C274.664 175.374 273.407 174.572 272.19 173.799C270.522 172.748 268.731 171.112 266.902 170.406C265.073 169.699 263.566 170.962 261.826 170.962C260.441 171.463 258.934 172.603 259.212 174.044C259.361 174.579 259.602 175.083 259.924 175.535C260.483 176.636 260.703 177.879 260.558 179.105C260.412 180.332 259.907 181.488 259.107 182.428C256.802 179.094 255.313 175.265 254.761 171.249C254.208 167.233 254.608 163.144 255.926 159.311C257.245 155.478 259.446 152.009 262.352 149.184C265.258 146.36 268.787 144.259 272.654 143.051C276.522 141.843 280.619 141.562 284.614 142.231C288.61 142.9 292.393 144.5 295.656 146.902C298.92 149.303 301.574 152.439 303.402 156.056C305.231 159.674 306.184 163.67 306.184 167.724L306.179 167.757Z" fill="black"/>
<path d="M261.82 170.211C260.436 170.712 258.929 171.852 259.201 173.298C259.356 173.83 259.598 174.332 259.918 174.784C261.542 177.682 260.169 181.844 257.138 183.19C256.663 183.438 256.121 183.524 255.593 183.435C255.174 183.305 254.793 183.076 254.481 182.767C252.851 181.31 251.727 179.371 251.273 177.232C250.794 175.006 251.089 172.648 250.844 170.361C250.6 168.074 249.816 165.821 249.543 163.518C249.35 162.38 249.472 161.21 249.894 160.136C250.26 159.426 250.733 158.777 251.295 158.211C252.857 156.469 254.486 154.689 255.27 152.48C256.51 148.964 255.609 144.486 258.323 141.91C259.579 140.731 261.336 140.291 262.893 139.546C264.359 138.767 265.762 137.876 267.091 136.881C272.123 133.42 278.239 130.761 284.222 131.985C286.612 132.564 288.901 133.502 291.011 134.767C294.929 136.928 298.65 139.43 302.131 142.244C303.636 143.358 304.95 144.709 306.023 146.244C306.822 147.558 307.397 148.997 307.724 150.5C308.523 153.78 308.633 157.189 308.047 160.514C307.491 163.774 306.229 166.94 306.179 170.25C306.179 171.362 306.268 172.564 305.695 173.521C304.777 175.045 302.503 175.19 300.947 174.344C299.39 173.499 298.372 171.93 297.366 170.45C296.359 168.97 295.203 167.49 293.546 166.862C291.45 166.066 289.059 166.862 287.235 168.169C285.412 169.476 283.96 171.218 282.231 172.62C280.502 174.022 278.339 175.157 276.115 174.812C274.697 174.595 273.441 173.799 272.223 173.026C270.555 171.969 268.765 170.333 266.941 169.632C265.117 168.931 263.555 170.211 261.82 170.211Z" fill="#794F6A"/>
<path d="M321.157 210.445C321.157 210.445 292.395 237.071 298.261 250.384C304.127 263.697 329.953 240.203 329.953 240.203L339.161 218.885L321.157 210.445Z" fill="#F8BDC5"/>
<g opacity="0.1">
<path opacity="0.1" d="M257.127 181.61C256.654 181.858 256.113 181.944 255.587 181.855C255.166 181.726 254.784 181.495 254.475 181.182C252.845 179.726 251.72 177.789 251.261 175.652C250.789 173.399 251.083 171.062 250.839 168.775C250.594 166.489 249.805 164.241 249.538 161.932C249.538 161.821 249.538 161.704 249.51 161.588C249.45 162.225 249.459 162.866 249.538 163.501C249.805 165.805 250.594 168.03 250.839 170.344C251.083 172.659 250.789 174.967 251.261 177.215C251.718 179.355 252.844 181.293 254.475 182.751C254.786 183.06 255.168 183.289 255.587 183.418C256.113 183.507 256.654 183.421 257.127 183.173C259.518 182.111 260.869 179.312 260.552 176.753C260.436 177.786 260.062 178.772 259.463 179.622C258.864 180.471 258.061 181.155 257.127 181.61Z" fill="black"/>
<path opacity="0.1" d="M308.008 158.939C307.452 162.2 306.19 165.365 306.145 168.675C306.145 169.788 306.234 170.99 305.656 171.947C304.744 173.471 302.47 173.616 300.913 172.77C299.356 171.924 298.339 170.361 297.327 168.876C296.315 167.39 295.17 165.916 293.507 165.287C291.416 164.497 289.026 165.287 287.202 166.6C285.378 167.913 283.921 169.643 282.198 171.051C280.474 172.458 278.278 173.588 276.082 173.248C274.664 173.026 273.407 172.23 272.19 171.457C270.522 170.4 268.731 168.77 266.908 168.063C265.084 167.357 263.571 168.62 261.831 168.62C260.447 169.126 258.94 170.261 259.207 171.713C259.241 171.87 259.291 172.023 259.357 172.169C259.902 171.22 260.786 170.512 261.831 170.189C263.566 170.189 265.1 168.942 266.908 169.632C268.715 170.322 270.538 171.969 272.19 173.026C273.396 173.799 274.653 174.595 276.082 174.812C278.306 175.157 280.485 174.038 282.198 172.62C283.91 171.201 285.384 169.449 287.202 168.169C289.02 166.889 291.416 166.066 293.507 166.862C295.175 167.49 296.321 168.987 297.327 170.45C298.333 171.913 299.356 173.465 300.913 174.344C302.47 175.223 304.744 175.045 305.656 173.521C306.212 172.564 306.129 171.368 306.145 170.25C306.19 166.94 307.435 163.774 308.008 160.514C308.301 158.839 308.42 157.139 308.364 155.44C308.328 156.613 308.209 157.783 308.008 158.939Z" fill="black"/>
</g>
<path opacity="0.1" d="M286.718 74.9495C286.718 74.9495 276.154 94.1375 290.611 103.929C305.067 113.721 306.462 112.741 306.462 112.741C306.462 112.741 306.262 115.089 306.462 115.679C306.663 116.269 310.354 117.632 310.354 117.632C310.354 117.632 314.853 124.864 321.308 128.013C327.763 131.162 328.942 138.583 328.942 138.583C328.942 138.583 328.942 141.131 332.278 143.479C335.614 145.827 338.183 152.681 338.183 152.681V158.951C338.183 159.93 339.356 162.845 336.815 163.156C334.274 163.468 336.42 169.326 336.42 169.326C336.42 169.326 333.685 172.664 334.269 174.222C334.852 175.78 333.095 178.917 333.095 178.917C333.095 178.917 330.944 182.05 331.138 182.639C331.333 183.229 328.792 185.382 329.376 186.751C329.959 188.119 326.445 189.883 327.029 191.452C327.613 193.021 324.527 193.799 324.527 193.799L316.07 213.382C316.07 213.382 333.863 217.277 338.455 227.085L360.885 185.966C360.885 185.966 373.406 155.229 373.801 153.27C374.196 151.312 371.06 144.263 371.06 144.263L355.797 116.447L332.901 84.1402C332.901 84.1402 314.702 45.3858 286.718 74.9495Z" fill="black"/>
<path opacity="0.1" d="M309.309 83.0442C309.309 83.0442 281.82 92.6966 296.299 102.488C310.777 112.28 312.15 111.295 312.15 111.295C312.15 111.295 311.956 113.648 312.15 114.232C312.345 114.816 316.042 116.191 316.042 116.191C316.042 116.191 320.546 123.423 327.001 126.572C333.457 129.721 334.635 137.142 334.635 137.142C334.635 137.142 334.635 139.69 337.972 142.038C341.308 144.386 343.843 151.24 343.843 151.24V157.504C343.843 158.483 345.016 161.398 342.47 161.716C339.923 162.033 342.08 167.885 342.08 167.885C342.08 167.885 339.339 171.223 339.929 172.775C340.518 174.328 338.756 177.477 338.756 177.477C338.756 177.477 336.604 180.609 336.798 181.198C336.993 181.788 334.446 183.941 335.036 185.31C335.625 186.678 332.1 188.442 332.689 190.011C333.279 191.58 330.182 192.358 330.182 192.358L321.73 211.936C321.73 211.936 336.387 212.693 341.013 222.506L366.539 184.548C366.539 184.548 379.066 153.81 379.456 151.852C379.845 149.893 376.726 142.822 376.726 142.822L361.463 115.006L326.646 94.9108C326.646 94.9108 337.293 53.475 309.309 83.0442Z" fill="black"/>
<path d="M288.286 74.9494C288.286 74.9494 277.722 94.1374 292.178 103.929C306.634 113.72 308.03 112.741 308.03 112.741C308.03 112.741 307.835 115.089 308.03 115.679C308.224 116.268 311.922 117.631 311.922 117.631C311.922 117.631 316.426 124.864 322.881 128.013C329.336 131.162 330.515 138.583 330.515 138.583C330.515 138.583 330.515 141.131 333.851 143.479C337.187 145.827 339.75 152.681 339.75 152.681V158.95C339.75 159.93 340.923 162.845 338.377 163.156C335.83 163.468 337.988 169.326 337.988 169.326C337.988 169.326 335.247 172.664 335.836 174.222C336.425 175.78 334.663 178.917 334.663 178.917C334.663 178.917 332.511 182.05 332.706 182.639C332.9 183.229 330.354 185.382 330.943 186.751C331.532 188.119 328.007 189.883 328.597 191.452C329.186 193.02 326.089 193.799 326.089 193.799L317.638 213.382C317.638 213.382 335.397 217.277 340.017 227.085L362.447 185.966C362.447 185.966 374.974 155.229 375.363 153.27C375.752 151.312 372.622 144.263 372.622 144.263L357.359 116.446L334.468 84.1512C334.468 84.1512 316.264 45.3858 288.286 74.9494Z" fill="#F2B23D"/>
<g opacity="0.1">
<path opacity="0.1" d="M172.709 84.5852C172.503 82.1536 171.979 79.7595 171.152 77.4641C170.345 75.2387 169.245 73.0468 168.983 70.6824C168.983 70.61 168.983 70.5433 168.983 70.4709C168.925 71.0629 168.925 71.6592 168.983 72.2512C169.245 74.6156 170.345 76.7909 171.152 79.0329C171.979 81.3264 172.503 83.7187 172.709 86.1485C172.786 87.0609 172.82 87.9844 172.831 88.9302C172.848 87.4559 172.831 86.015 172.709 84.5852Z" fill="black"/>
<path opacity="0.1" d="M191.846 108.964C190.651 111.59 187.02 112.007 184.24 111.234C181.867 110.553 179.689 109.319 177.885 107.632C176.082 105.945 174.704 103.854 173.865 101.531C173.092 99.1403 172.716 96.6389 172.753 94.1263C172.719 97.1918 172.836 100.218 173.865 103.094C174.703 105.419 176.081 107.51 177.885 109.198C179.688 110.886 181.866 112.121 184.24 112.803C187.02 113.57 190.651 113.159 191.846 110.527C192.352 109.414 192.302 108.124 192.28 106.855C192.27 107.579 192.123 108.295 191.846 108.964Z" fill="black"/>
<path opacity="0.1" d="M245.868 72.3903C245.629 74.1705 244.923 76.1734 243.227 76.7686C242.239 77.0449 241.183 76.9458 240.264 76.4905C237.484 75.2777 235.009 72.3513 232.04 73.0579C229.616 73.6142 228.454 76.3569 227.815 78.7714C227.351 80.2971 227.15 81.8905 227.22 83.4836C227.326 82.4186 227.525 81.365 227.815 80.3348C228.454 77.9258 229.616 75.1998 232.04 74.6212C235.009 73.9202 237.461 76.8465 240.264 78.0538C241.182 78.5131 242.238 78.6142 243.227 78.3375C244.923 77.7422 245.629 75.7394 245.868 73.9536C246.021 72.8162 246.077 71.6679 246.035 70.521C246.007 71.1441 245.952 71.7727 245.868 72.3903Z" fill="black"/>
<path opacity="0.1" d="M230.55 95.0555C228.882 96.2627 226.619 94.9776 224.79 94.0151C222.833 92.9859 220.342 92.3461 218.479 93.5311C217.84 93.9317 217.323 94.5102 216.7 94.9386C215.418 95.7317 213.898 96.0469 212.408 95.8288C208.866 95.4671 207.542 93.2251 204.846 91.4893C202.866 90.2153 198.73 89.6701 197.551 92.2849C197.268 93.0547 197.19 93.8846 197.323 94.6938C197.359 94.4046 197.436 94.1218 197.551 93.8538C198.735 91.2334 202.866 91.7786 204.846 93.0582C207.542 94.794 208.866 97.036 212.408 97.3976C213.899 97.6112 215.418 97.2942 216.7 96.5019C217.323 96.0791 217.84 95.5005 218.479 95.1C220.358 93.9317 222.833 94.5436 224.79 95.584C226.619 96.5409 228.871 97.8093 230.55 96.6188C231.529 95.9178 231.762 94.6716 231.545 93.4421C231.431 94.0871 231.075 94.6642 230.55 95.0555Z" fill="black"/>
<path opacity="0.1" d="M197.179 97.7592C196.417 99.5061 194.076 99.9845 192.997 101.559C192.191 102.727 192.258 104.185 192.286 105.648C192.276 104.757 192.523 103.882 192.997 103.128C194.076 101.553 196.417 101.069 197.179 99.3225C197.445 98.5624 197.518 97.7478 197.39 96.9525C197.356 97.2296 197.285 97.5009 197.179 97.7592Z" fill="black"/>
</g>
</g>
<defs>
<linearGradient id="paint0_linear" x1="286.835" y1="436.907" x2="286.835" y2="40.351" gradientUnits="userSpaceOnUse">
<stop stop-color="#808080" stop-opacity="0.25"/>
<stop offset="0.54" stop-color="#808080" stop-opacity="0.12"/>
<stop offset="1" stop-color="#808080" stop-opacity="0.1"/>
</linearGradient>
<clipPath id="clip0">
<rect width="610" height="440" fill="white"/>
</clipPath>
</defs>
</svg>
