<svg width="610" height="463" viewBox="0 0 610 463" fill="none" xmlns="http://www.w3.org/2000/svg">
<g clip-path="url(#clip0)">
<path opacity="0.1" d="M602.239 133.555C602.133 134.053 602.033 134.55 601.915 135.042C598.25 151.945 592.261 168.234 583.355 183.193C583.059 183.69 582.762 184.187 582.461 184.685C576.588 194.309 569.561 203.179 561.537 211.098C557.1 215.479 552.262 219.642 546.507 222.643C538.445 226.856 529.019 228.566 519.755 229.963C510.134 231.421 500.379 232.64 490.652 233.953C487.195 234.411 483.759 234.897 480.343 235.411C470.946 236.803 461.615 238.412 452.508 240.546C441.25 243.178 430.338 246.626 420.029 251.476C419.206 251.849 418.392 252.244 417.588 252.661C416.783 253.063 415.973 253.471 415.18 253.885C414.386 254.298 413.604 254.712 412.828 255.136C412.425 255.354 412.023 255.572 411.626 255.801C411.23 256.03 410.839 256.232 410.453 256.455C409.291 257.103 408.151 257.768 407.011 258.439L406.967 258.467C406.212 258.908 405.469 259.361 404.732 259.813C400.519 262.373 396.396 265.044 392.272 267.732L389.68 269.408L385.663 272.006C384.88 272.515 384.081 273.023 383.294 273.526C382.735 273.895 382.176 274.264 381.567 274.644C378.639 276.488 375.673 278.298 372.628 280.025C371.907 280.438 371.181 280.852 370.449 281.254C364.297 284.687 357.863 287.588 351.217 289.926L351.128 289.96C347.785 291.126 344.374 292.089 340.915 292.843C338.92 293.279 336.92 293.637 334.897 293.911C329.491 294.677 324.009 294.754 318.583 294.14C307.928 292.905 297.943 288.815 287.294 287.434C265.37 284.64 244.077 293.642 223.46 300.694C218.391 302.427 213.284 304.049 208.14 305.561C204.721 306.573 201.29 307.528 197.832 308.45C176.643 314.049 155.017 317.842 133.188 319.788C124.063 320.682 114.883 320.886 105.727 320.397C102.246 320.185 98.8042 319.838 95.424 319.28C83.8585 317.491 73.0752 313.742 64.3703 306.875C57.241 301.236 52.1399 293.888 48.2568 286.199C44.2818 278.354 41.4753 269.969 39.9263 261.311C39.7139 260.132 39.524 258.947 39.3675 257.763C39.0882 255.736 38.8796 253.698 38.7418 251.65C37.99 240.729 39.2939 229.764 42.5858 219.324C46.2733 207.634 52.4193 196.413 55.1235 184.634C55.2352 184.135 55.3414 183.638 55.4419 183.142C55.8113 181.353 56.0854 179.546 56.2632 177.728C57.6433 163.255 52.3522 149.146 48.2009 134.992C48.0556 134.5 47.9104 134.002 47.7707 133.505C47.3237 131.933 46.8954 130.363 46.4856 128.795C42.6416 113.83 41.5745 97.8098 44.9994 82.8734C45.1056 82.3761 45.2341 81.8788 45.357 81.3871C47.6499 71.9456 51.9616 63.1133 57.9953 55.4985C64.4094 47.4519 72.8293 40.7521 81.8247 34.868C86.2088 31.9996 90.7419 29.3193 95.424 26.8271C98.7763 25.039 102.211 23.3458 105.727 21.7477C133.914 8.89559 166.069 2.62041 197.865 4.0062C199.542 4.07884 201.218 4.16825 202.894 4.29118C204.57 4.41411 206.403 4.5594 208.157 4.72145C228.64 6.71073 248.569 11.5107 268.359 16.7577C274.991 18.5179 281.612 20.3228 288.227 22.0941C291.172 22.8764 294.111 23.6588 297.055 24.4187C311.476 28.1458 326.109 31.5209 340.926 34.041C344.356 34.6333 347.791 35.1735 351.229 35.6615C363.165 37.416 375.199 38.4368 387.26 38.7181C391.95 38.8112 396.641 38.7702 401.335 38.5951C403.704 38.5095 406.074 38.3809 408.447 38.2096C432.947 36.4829 456.626 30.7051 480.343 25.3072C483.774 24.5249 487.21 23.7537 490.652 22.9938C495.166 21.9992 499.681 21.038 504.217 20.1496C532.45 14.6008 557.614 17.7915 583.863 29.241C589.83 31.8394 595.792 34.9798 599.446 39.858C603.1 44.7362 604.016 50.7264 604.698 56.5099C605.664 64.7464 606.296 73.0891 606.536 81.4765C606.536 81.9682 606.536 82.4655 606.57 82.9628C606.949 99.9053 605.687 117.01 602.239 133.555Z" fill="#F2B23D"/>
<path opacity="0.1" d="M414.968 183.192H413.124V183.852V184.684H415.213L414.968 183.192ZM394.055 183.192C394.052 183.205 394.052 183.219 394.055 183.232C394.004 183.639 393.948 184.047 393.893 184.461V184.573V184.684H409.872V184.595L410.989 183.192H394.055ZM351.229 183.192V135.042H369.611C369.415 134.913 369.214 134.779 369.007 134.656L368.739 134.483L368.393 134.271C368.191 134.153 367.99 134.036 367.778 133.924C367.566 133.812 367.437 133.734 367.258 133.639L367.135 133.572H367.108H351.229V130.918L350.798 131.086L350.346 131.298H350.312L350.217 131.348L349.932 131.499L349.647 131.65C349.368 131.801 349.089 131.968 348.809 132.142L348.541 132.32L347.983 132.678C347.262 133.159 346.552 133.662 345.82 134.131C345.636 134.248 345.452 134.366 345.262 134.472C344.865 134.706 344.457 134.93 344.038 135.131C343.859 135.221 343.686 135.299 343.479 135.371L343.178 135.489L342.898 135.584C342.243 135.812 341.57 135.988 340.887 136.109V183.181H313.325C313.325 183.237 313.364 183.282 313.381 183.338C313.532 183.785 313.683 184.226 313.828 184.673H340.926V236.283C341.067 236.283 341.207 236.283 341.345 236.283L341.831 236.311L342.708 236.361L344.111 236.529L344.753 236.59L345.452 236.663H345.558L346.792 236.814L347.055 236.847L347.653 236.931L348.508 237.054L350.558 236.965L350.838 237.015C350.949 237.015 351.067 237.048 351.184 237.071V184.684H393.837V184.573V184.461C393.893 184.047 393.948 183.639 393.999 183.232C393.996 183.219 393.996 183.205 393.999 183.192H351.229ZM414.968 183.192H413.124V183.852V184.684H415.213L414.968 183.192ZM392.904 183.192C392.837 183.69 392.775 184.187 392.708 184.684H410.526L411.738 183.192H392.904ZM351.229 183.192V135.042H369.611C369.415 134.913 369.214 134.779 369.007 134.656L368.739 134.483L368.393 134.271C368.191 134.153 367.99 134.036 367.778 133.924C367.566 133.812 367.437 133.734 367.258 133.639L367.135 133.572H367.096H351.229V130.918L350.798 131.086L350.346 131.298H350.312L350.217 131.348L349.932 131.499L349.647 131.65C349.368 131.801 349.089 131.968 348.809 132.142L348.541 132.32L347.983 132.678C347.262 133.159 346.552 133.662 345.82 134.131C345.636 134.248 345.452 134.366 345.262 134.472C344.865 134.706 344.457 134.93 344.038 135.131C343.859 135.221 343.686 135.299 343.479 135.371L343.178 135.489L342.898 135.584C342.243 135.812 341.57 135.988 340.887 136.109V183.181H313.325C313.325 183.237 313.364 183.282 313.381 183.338C313.532 183.779 313.688 184.226 313.834 184.673H340.926V236.277H341.345L341.831 236.305L342.708 236.355L344.111 236.529L344.753 236.59L345.452 236.663H345.558L346.792 236.814L347.055 236.847L347.653 236.931L348.508 237.054L350.558 236.965L350.838 237.015C350.949 237.015 351.067 237.048 351.184 237.071V184.684H392.719C392.786 184.187 392.848 183.69 392.915 183.192H351.229ZM490.652 82.9237H606.57C606.57 82.4263 606.57 81.929 606.536 81.4373H490.652V22.9769C487.21 23.722 483.774 24.4931 480.343 25.2903V81.4373H354.274L353.955 81.1523L354.436 80.7276L401.329 38.5839C396.636 38.7627 391.944 38.8037 387.255 38.7068L351.223 71.0829V35.6614C347.781 35.1734 344.347 34.6332 340.92 34.0409V69.4513L288.239 22.0941C281.623 20.3227 275.002 18.5178 268.37 16.7576L340.015 81.1523L339.697 81.4373H208.174V4.77164C206.419 4.60773 204.665 4.46431 202.911 4.34138C201.235 4.21844 199.558 4.12904 197.882 4.0564V81.4373H105.727V21.7979C102.248 23.3923 98.8136 25.0854 95.424 26.8773V81.4373H45.3571C45.2342 81.929 45.1057 82.4263 44.9995 82.9237H95.424V133.555H47.7708C47.9104 134.053 48.0557 134.55 48.201 135.042H95.424V183.192H55.442C55.3414 183.688 55.2353 184.185 55.1235 184.684H95.424V319.313C98.7764 319.833 102.246 320.196 105.727 320.431V184.684H197.865V308.473C201.324 307.551 204.755 306.595 208.174 305.584V184.684H340.926V292.838C344.385 292.084 347.796 291.121 351.139 289.954L351.229 289.921V184.684H480.343V235.411C483.77 234.908 487.206 234.426 490.652 233.964V184.684H582.461C582.762 184.187 583.059 183.69 583.355 183.192H490.652V135.042H601.915C602.033 134.55 602.133 134.053 602.24 133.555H490.652V82.9237ZM105.727 82.9237H197.865V133.555H105.727V82.9237ZM105.727 183.192V135.042H197.865V183.192H105.727ZM208.174 82.9237H340.926V133.555H208.174V82.9237ZM208.174 183.192V135.042H340.926V183.192H208.174ZM480.343 183.192H351.229V135.042H480.343V183.192ZM480.343 133.555H351.229V84.2815L353.039 82.9237H480.343V133.555ZM394.055 183.192C394.052 183.205 394.052 183.219 394.055 183.232C394.004 183.639 393.948 184.047 393.893 184.461V184.573V184.684H409.872V184.595L410.989 183.192H394.055ZM414.968 183.192H413.124V183.852V184.684H415.213L414.968 183.192ZM351.229 183.192V135.042H369.611C369.415 134.913 369.214 134.779 369.007 134.656L368.739 134.483L368.393 134.271C368.191 134.153 367.99 134.036 367.778 133.924C367.566 133.812 367.437 133.734 367.258 133.639L367.135 133.572H367.108H351.229V130.918L350.798 131.086L350.346 131.298H350.312L350.217 131.348L349.932 131.499L349.647 131.65C349.368 131.801 349.089 131.968 348.809 132.142L348.541 132.32L347.983 132.678C347.262 133.159 346.552 133.662 345.82 134.131C345.636 134.248 345.452 134.366 345.262 134.472C344.865 134.706 344.457 134.93 344.038 135.131C343.859 135.221 343.686 135.299 343.479 135.371L343.178 135.489L342.898 135.584C342.243 135.812 341.57 135.988 340.887 136.109V183.181H313.325C313.325 183.237 313.364 183.282 313.381 183.338C313.532 183.785 313.683 184.226 313.828 184.673H340.926V236.283C341.067 236.283 341.207 236.283 341.345 236.283L341.831 236.311L342.708 236.361L344.111 236.529L344.753 236.59L345.452 236.663H345.558L346.792 236.814L347.055 236.847L347.653 236.931L348.508 237.054L350.558 236.965L350.838 237.015C350.949 237.015 351.067 237.048 351.184 237.071V184.684H393.837V184.573V184.461C393.893 184.047 393.948 183.639 393.999 183.232C393.996 183.219 393.996 183.205 393.999 183.192H351.229Z" fill="#F2B23D"/>
<path opacity="0.1" d="M150.028 48.0668H150.827C150.563 47.9553 150.334 47.7762 150.163 47.5475C149.991 47.3188 149.883 47.0488 149.849 46.7648C149.849 45.7366 151.386 44.8984 153.263 44.8984H177.154C179.031 44.8984 180.562 45.7366 180.562 46.7648C180.562 47.7874 179.031 48.6311 177.154 48.6311H176.355C176.618 48.7406 176.848 48.9185 177.02 49.1464C177.192 49.3743 177.3 49.644 177.333 49.9275C177.333 50.8048 176.215 51.5424 174.723 51.738H181.601C183.473 51.738 185.009 52.5762 185.009 53.6043C185.009 54.6325 183.473 55.4707 181.601 55.4707H157.705C155.833 55.4707 154.296 54.6269 154.296 53.6043C154.296 52.7271 155.414 51.995 156.906 51.7939H150.028C148.151 51.7939 146.62 50.9557 146.62 49.9275C146.62 48.8994 148.151 48.0668 150.028 48.0668Z" fill="#F2B23D"/>
<path opacity="0.1" d="M408.961 65.8194H409.76C409.498 65.7072 409.27 65.5278 409.099 65.2991C408.928 65.0705 408.821 64.8009 408.788 64.5175C408.788 63.4893 410.319 62.6511 412.196 62.6511H436.087C437.964 62.6511 439.501 63.4893 439.501 64.5175C439.501 65.5401 437.964 66.3782 436.087 66.3782H435.293C435.556 66.4904 435.784 66.6699 435.955 66.8985C436.125 67.1272 436.233 67.3968 436.266 67.6802C436.266 68.5575 435.148 69.2951 433.656 69.4907H440.534C442.412 69.4907 443.942 70.3289 443.942 71.357C443.942 72.3852 442.412 73.2234 440.534 73.2234H416.643C414.766 73.2234 413.23 72.3796 413.23 71.357C413.23 70.4797 414.347 69.7421 415.839 69.5466H408.961C407.089 69.5466 405.553 68.7084 405.553 67.6802C405.553 66.652 407.089 65.8194 408.961 65.8194Z" fill="#F2B23D"/>
<path opacity="0.1" d="M113.359 141.792H114.152C113.889 141.681 113.661 141.501 113.49 141.273C113.319 141.044 113.212 140.774 113.18 140.49C113.18 139.468 114.716 138.624 116.588 138.624H140.484C142.356 138.624 143.893 139.468 143.893 140.49C143.893 141.519 142.356 142.357 140.484 142.357H139.686C139.948 142.467 140.177 142.645 140.348 142.873C140.519 143.1 140.626 143.37 140.658 143.653C140.658 144.53 139.54 145.268 138.048 145.464H144.926C146.804 145.464 148.34 146.307 148.34 147.33C148.34 148.352 146.804 149.196 144.926 149.196H121.058C119.18 149.196 117.65 148.358 117.65 147.33C117.65 146.458 118.767 145.721 120.259 145.519H113.359C111.481 145.519 109.945 144.681 109.945 143.653C109.945 142.625 111.504 141.792 113.359 141.792Z" fill="#F2B23D"/>
<path opacity="0.1" d="M563.213 340.918C567.227 321.277 518.089 294.646 453.461 281.437C388.833 268.228 333.189 273.443 329.175 293.084C325.162 312.725 374.299 339.356 438.927 352.565C503.555 365.774 559.2 360.56 563.213 340.918Z" fill="#F2B23D"/>
<path d="M432.701 215.066C432.701 215.066 439.054 183.88 463.308 186.769C463.308 186.769 480.07 187.92 483.517 198.895V223.152L432.701 215.066Z" fill="#3A3768"/>
<path d="M565.526 226.622L349.541 208.713L321.823 214.491L323.555 253.187L325.444 253.416L327.595 311.524L539.534 349.639L562.062 330.579V267.586L564.945 265.893L565.526 226.622Z" fill="#D48A9B"/>
<path opacity="0.05" d="M565.816 226.622L565.235 265.893L541.847 276.868L541.557 235.859L565.816 226.622Z" fill="black"/>
<path opacity="0.05" d="M562.062 267.626L562.347 329.428L539.825 348.488L541.272 276.868L562.062 267.626Z" fill="black"/>
<path opacity="0.05" d="M325.734 255.729L541.445 282.054L541.557 277.058L325.572 253.762L325.734 255.729Z" fill="black"/>
<path opacity="0.05" d="M562.062 269.894V267.626L540.69 277.058V282.065L562.062 269.894Z" fill="black"/>
<path d="M321.533 214.491L349.251 208.713L565.235 226.622L540.981 235.859L321.533 214.491Z" fill="#EFC6CD"/>
<path opacity="0.1" d="M542.227 227.734L552.826 228.426L535.26 233.684L526.315 233.041L542.227 227.734Z" fill="black"/>
<path d="M542.227 227.27L552.826 227.963L535.26 233.226L526.315 232.578L542.227 227.27Z" fill="white"/>
<path d="M540.959 228.46C541.378 228.281 541.819 228.622 542.266 228.706C542.523 228.756 542.786 228.706 543.043 228.756C543.563 228.823 544.077 229.17 544.574 228.996" fill="#D3DAE1"/>
<path d="M540.411 228.779C540.825 228.6 541.272 228.935 541.719 229.025C541.976 229.069 542.238 229.025 542.495 229.069C543.015 229.142 543.529 229.488 544.026 229.315" fill="#D3DAE1"/>
<path d="M539.148 229.416C539.567 229.237 540.014 229.572 540.461 229.656C540.713 229.706 540.981 229.656 541.232 229.706C541.758 229.779 542.272 230.125 542.763 229.947" fill="#D3DAE1"/>
<path opacity="0.1" d="M496.412 222.515L507.011 223.213L489.445 228.471L480.5 227.822L496.412 222.515Z" fill="black"/>
<path d="M496.412 222.056L507.011 222.749L489.445 228.007L480.5 227.364L496.412 222.056Z" fill="white"/>
<path d="M495.144 223.247C495.563 223.068 496.004 223.403 496.451 223.493C496.708 223.537 496.971 223.493 497.228 223.537C497.748 223.61 498.262 223.956 498.759 223.783" fill="#D3DAE1"/>
<path d="M494.596 223.565C495.01 223.386 495.457 223.722 495.904 223.805C496.161 223.856 496.423 223.805 496.68 223.856C497.2 223.928 497.714 224.275 498.211 224.096" fill="#D3DAE1"/>
<path d="M493.333 224.197C493.753 224.018 494.199 224.359 494.646 224.442C494.898 224.493 495.166 224.442 495.418 224.493C495.943 224.56 496.457 224.912 496.948 224.733" fill="#D3DAE1"/>
<path opacity="0.1" d="M518.386 225.124L528.991 225.817L511.425 231.08L502.474 230.432L518.386 225.124Z" fill="black"/>
<path d="M518.386 224.666L528.991 225.359L511.425 230.616L502.474 229.968L518.386 224.666Z" fill="white"/>
<path d="M517.118 225.856C517.537 225.677 517.984 226.013 518.431 226.096C518.683 226.147 518.945 226.096 519.202 226.147C519.722 226.214 520.241 226.566 520.733 226.387" fill="#D3DAE1"/>
<path d="M516.571 226.169C516.99 225.99 517.437 226.331 517.884 226.415C518.135 226.465 518.398 226.415 518.655 226.465C519.174 226.532 519.694 226.884 520.186 226.705" fill="#D3DAE1"/>
<path d="M515.313 226.806C515.727 226.628 516.174 226.963 516.621 227.052C516.878 227.097 517.141 227.052 517.398 227.097C517.917 227.17 518.431 227.516 518.928 227.343" fill="#D3DAE1"/>
<path opacity="0.1" d="M278.422 442.213C340.902 442.213 391.552 431.786 391.552 418.923C391.552 406.06 340.902 395.633 278.422 395.633C215.942 395.633 165.292 406.06 165.292 418.923C165.292 431.786 215.942 442.213 278.422 442.213Z" fill="#F2B23D"/>
<path d="M402.307 228.198C401.1 217.592 396.323 207.472 396.323 207.472L396.686 203.896C396.686 203.896 396.764 202.108 396.647 199.426C396.66 197.751 396.879 196.084 397.3 194.464C398.278 191.362 396.077 187.551 395.831 187.199C395.585 186.847 395.954 180.047 393.753 176.711C391.551 173.375 376.89 167.173 376.89 167.173C376.89 167.173 376.103 165.524 374.991 163.596L375.091 163.401C374.182 161.75 373.054 160.23 371.739 158.88C370.839 157.919 369.973 157.371 369.275 157.64C368.991 156.712 368.774 155.765 368.627 154.807C368.772 154.846 368.923 154.885 369.068 154.913C369.673 155.053 370.301 155.068 370.912 154.957C372.275 154.65 373.181 153.426 373.94 152.275C377.729 146.52 380.991 140.205 381.656 133.394C381.835 132.004 381.769 130.593 381.461 129.225C381.146 128.162 380.708 127.14 380.153 126.18C379.174 124.21 377.934 122.381 376.466 120.743C373.857 117.994 370.258 116.312 366.56 115.317C362.393 114.196 358.052 113.872 353.765 114.362C352.648 114.49 351.53 114.674 350.413 114.747C348.995 114.81 347.575 114.785 346.161 114.674L338.847 114.25L338.814 114.138L337.596 114.065C337.115 115.021 337.596 116.155 338.193 117.049C338.791 117.943 339.478 118.877 339.428 119.933C339.378 120.989 338.612 121.838 338.015 122.727C337.417 123.615 336.964 124.777 337.562 125.649C337.646 125.77 337.746 125.879 337.858 125.973C338.49 126.627 339.59 126.7 340.546 126.688H340.713C338.307 129.858 337.006 133.728 337.009 137.708C337.025 141.108 337.977 144.439 339.759 147.334C341.542 150.23 344.087 152.579 347.116 154.125C347.222 154.488 347.329 154.862 347.429 155.242C348.537 159.167 348.934 163.259 348.602 167.323L348.474 167.603L348.396 167.307C348.396 167.307 339.78 173.152 337.221 174.699C334.662 176.247 332.092 181.494 331.969 182.925C331.846 184.355 327.812 205.93 327.812 205.93C326.993 208.103 326.317 210.328 325.79 212.591L320.644 217.111C320.644 217.111 310.028 218.067 306.955 217.352L307.045 217.944C304.335 217.325 301.575 216.951 298.798 216.826C297.281 216.631 295.74 216.838 294.328 217.424L294.222 217.475L294.138 217.514C292.521 217.735 290.941 218.179 289.445 218.832C289.266 218.905 289.104 218.978 288.948 219.05L288.981 218.318L277.494 217.726L271.627 216.536C271.627 216.536 269.549 214.859 268.325 215.105C267.102 215.351 264.537 213.675 264.537 213.675C263.952 213.216 263.319 212.823 262.649 212.501C262.453 211.149 262.33 210.328 262.33 210.328C262.33 210.328 257.766 192.212 254.346 181.561C252.055 174.448 248.759 170.944 246.815 169.419C245.949 167.91 245.379 166.938 245.379 166.938C245.004 165.63 242.948 162.685 242.423 162.613C242.339 162.479 242.278 162.412 242.244 162.412C242.132 162.4 242.018 162.417 241.915 162.462C240.954 157.679 240.395 151.683 241.864 146.458C243.876 144.805 245.497 142.727 246.612 140.374C247.726 138.021 248.307 135.45 248.312 132.846C248.312 132.768 248.312 132.69 248.312 132.612C248.312 132.533 248.312 132.449 248.312 132.371C248.311 128.219 246.84 124.2 244.161 121.028L243.971 120.816C244.022 120.78 244.07 120.74 244.116 120.698C244.536 120.358 244.856 119.91 245.042 119.402C245.228 118.895 245.273 118.346 245.172 117.815C244.921 116.742 244.083 115.898 243.652 114.881C243.394 114.098 243.187 113.299 243.032 112.49C242.703 111.339 242.099 110.287 241.272 109.422L241.356 109.645C239.166 107.181 235.4 105.957 232.009 106.505C229.489 106.907 227.142 108.081 224.611 108.444C222.795 108.701 220.946 108.533 219.119 108.718C217.424 108.892 215.774 109.369 214.247 110.126C213.848 110.296 213.494 110.556 213.213 110.886C212.953 111.328 212.779 111.815 212.699 112.322C212.079 114.585 210.112 116.2 208.688 118.089C207.06 120.246 206.118 122.843 205.983 125.543C205.928 126.229 205.994 126.919 206.179 127.582C206.302 127.979 206.492 128.354 206.581 128.756C206.861 129.985 206.218 131.209 205.905 132.427C205.511 133.981 205.651 135.622 206.302 137.087C208.509 142.027 215.755 143.675 217.264 148.861C218.418 149.392 219.637 149.767 220.89 149.979C220.991 150.493 221.08 151.012 221.153 151.538C221.119 151.552 221.087 151.571 221.058 151.594C219.102 153.499 218.616 157.181 218.616 157.181L218.381 157.371C217.582 158.031 214.85 160.244 212.381 161.948C209.447 163.976 204.559 170.771 201.139 172.8C197.72 174.828 194.904 187.328 195.641 191.871C196.379 196.414 199.43 209.154 198.206 213.803C196.982 218.452 200.039 239.67 200.039 239.67C202.089 240.06 204.096 240.656 206.028 241.447L205.967 242.374L205.782 245.168C205.782 245.168 200.245 265.195 202.363 280.612C204.48 296.029 201.385 297.616 201.385 297.616C201.385 297.616 202.033 304.45 200.407 306.836C198.781 309.222 198.452 314.463 198.452 314.463C198.452 314.463 198.29 326.226 198.614 329.551C198.938 332.875 199.1 338.933 197.96 340.363C196.82 341.794 194.703 351.164 194.865 354.025C195.027 356.886 190.792 363.407 193.071 371.828C195.351 380.249 186.367 380.411 186.367 380.411C186.367 380.411 187.512 393.263 189.954 396.94L190.311 397.466C190.25 397.678 190.188 397.901 190.121 398.142C189.199 401.494 187.937 406.786 188.814 408.066C190.116 409.977 190.769 409.653 190.769 409.653L191.256 418.236C191.256 418.236 201.033 426.5 208.531 426.187C216.029 425.874 214.56 418.236 214.56 418.236L208.174 401.673L207.956 401.114L215.051 387.703C215.051 387.703 217.007 381.825 217.493 379.758C217.979 377.69 220.633 370.364 220.633 370.364C220.633 370.364 227.338 354.472 227.477 352.561C227.617 350.65 228.131 340.33 229.433 338.256C230.735 336.183 234.322 324.287 234.322 324.287L234.411 324.365C235.02 324.963 235.454 325.715 235.669 326.54C235.883 327.366 235.87 328.235 235.629 329.053C234.808 332.071 235.299 338.268 235.299 338.268C235.299 338.268 234.975 343.515 234.322 346.219C233.668 348.924 233.512 371.013 234.651 376.254C235.562 380.45 235.534 388.307 235.489 391.28C234.724 394.437 234.053 398.36 235.299 398.823C237.423 399.622 248.178 399.46 248.178 399.46C248.178 399.46 252.737 397.868 258.933 403.433C265.13 408.999 284.187 401.846 284.187 401.846C284.187 401.846 290.054 400.254 278.483 395.649C270.409 392.436 265.197 390.296 261.788 388.005C261.867 387.854 261.95 387.704 262.023 387.541C262.023 387.541 257.296 383.071 261.207 375.148C265.118 367.224 264.956 360.524 264.956 360.524L265.61 333.82L263.655 298.37L262.14 261.166L262.409 261.077C262.666 267.916 264.001 284.199 270.991 281.042C279.79 277.069 272.292 266.737 272.292 266.737L268.342 259.037L269.521 258.635L265.102 244.352C264.677 241.565 264.621 238.734 264.934 235.931C265.021 234.292 264.988 232.648 264.833 231.014C270.622 230.003 276.164 228.93 277.159 229.176C278.332 229.461 284.897 229.516 287.478 229.528C286.635 230.187 285.959 230.841 285.959 230.841L296.468 237.915C296.468 237.915 300.033 235.965 300.776 233.897C301.507 233.712 302.182 233.352 302.743 232.847C302.854 235.289 303.502 237.932 305.76 237.993C306.324 238.005 306.885 237.894 307.402 237.669L324.589 234.266L323.114 243.481L324.142 245.308C323.622 253.08 323.024 261.334 322.499 268.592L322.259 270.179L322.382 270.207C321.566 281.383 320.912 289.849 320.912 289.849C321.875 288.014 323.368 286.513 325.198 285.54L325.309 302.125C325.309 302.125 326.17 328.349 326.17 331.925C326.17 335.502 326.287 343.487 326.287 343.487C326.287 343.487 328.125 353.26 329.22 356.478C330.315 359.697 331.176 374.36 331.176 374.36C331.176 374.36 333.746 378.411 332.645 379.948C331.545 381.484 336.925 384.831 336.925 384.831C336.925 384.831 333.5 389.48 333.254 392.582C333.226 392.939 333.578 393.319 334.215 393.699C334.014 393.861 333.807 394.023 333.578 394.18C331.992 395.242 329.667 395.979 326.17 395.677C316.632 394.839 309.911 403.662 315.778 405.451C321.644 407.239 339.244 407.596 339.244 407.596C339.244 407.596 344.574 404.272 348.742 405.769C348.681 409.267 348.854 412.475 348.882 412.899L348.831 412.938C346.34 415.173 341.568 419.018 336.908 420.588C330.204 422.851 328.718 432.032 337.394 433.222C346.071 434.413 358.782 431.792 358.782 431.792C358.782 431.792 365.381 426.908 370.392 425.835C375.404 424.762 379.684 422.376 378.829 419.515C378.27 417.688 376.835 412.899 375.862 409.681C375.807 409.487 375.751 409.301 375.695 409.122C375.846 408.787 375.996 408.44 376.136 408.082C376.136 408.082 373.572 394.733 375.65 391.397C377.729 388.061 376.628 354.679 376.628 354.679C376.628 354.679 373.08 346.219 374.918 341.095C376.756 335.971 371.985 328.696 371.985 328.696C371.985 328.696 372.504 314.117 373.901 305.992C373.965 305.646 374.026 305.31 374.086 304.986C376.424 304.292 378.704 303.412 380.902 302.354C380.902 302.354 382.126 283.993 382.858 279.824C382.93 279.433 383.031 278.801 383.154 277.98L383.712 275.035L384.372 271.682L386.607 260.255L390.641 255.036L401.033 244.419C401.033 244.419 403.53 238.809 402.307 228.198ZM242.043 162.635L241.965 162.691C241.953 162.651 241.944 162.61 241.937 162.568C241.969 162.595 242.005 162.617 242.043 162.635ZM344.719 175.649L344.317 176.527L345.786 175.063L343.792 177.298L344.462 175.89L344.719 175.649ZM334.796 196.157C334.411 197.179 333.997 198.286 333.567 199.437L334.355 197.084L334.796 196.157Z" fill="url(#paint0_linear)"/>
<path d="M302.732 229.589C302.732 229.589 301.363 238.703 305.469 238.82C309.576 238.937 312.319 231.791 312.319 231.791L310.643 226.074L302.732 229.589Z" fill="#585B8A"/>
<path opacity="0.2" d="M302.732 229.589C302.732 229.589 301.363 238.703 305.469 238.82C309.576 238.937 312.319 231.791 312.319 231.791L310.643 226.074L302.732 229.589Z" fill="black"/>
<path d="M210.749 426.863C203.441 427.182 193.91 418.923 193.91 418.923L193.435 410.346C193.435 410.346 192.803 410.664 191.529 408.759C190.675 407.479 191.904 402.176 192.803 398.84C193.239 397.208 193.597 396.046 193.597 396.046L209.632 400.338L210.397 402.366L216.622 418.917C216.622 418.917 218.052 426.545 210.749 426.863Z" fill="#636992"/>
<path d="M284.428 402.567C284.428 402.567 265.851 409.714 259.844 404.154C253.838 398.594 249.363 400.181 249.363 400.181C249.363 400.181 238.881 400.343 236.814 399.544C235.596 399.08 236.255 395.107 237.015 391.945C237.529 389.76 238.088 387.955 238.088 387.955C238.088 387.955 256.347 381.758 259.207 385.569C260.067 386.688 261.094 387.669 262.252 388.474C265.56 390.866 270.728 393.034 278.902 396.37C290.144 400.975 284.428 402.567 284.428 402.567Z" fill="#636992"/>
<path d="M267.755 257.4L272.834 267.564C272.834 267.564 280.142 277.89 271.566 281.858C262.99 285.825 263.152 258.992 263.152 258.992L267.755 257.4Z" fill="#FFD6D6"/>
<path d="M246.474 169.257C246.474 169.257 252.033 171.799 255.369 182.439C258.705 193.078 263.152 211.188 263.152 211.188C263.152 211.188 266.169 231.673 265.689 236.758C265.383 239.559 265.437 242.387 265.851 245.174L270.136 259.467L261.56 262.485L248.379 211.982L246.474 169.257Z" fill="#DCE6F2"/>
<path opacity="0.05" d="M246.474 169.257C246.474 169.257 252.033 171.799 255.369 182.439C258.705 193.078 263.152 211.188 263.152 211.188C263.152 211.188 266.169 231.673 265.689 236.758C265.383 239.559 265.437 242.387 265.851 245.174L270.136 259.467L261.56 262.485L248.379 211.982L246.474 169.257Z" fill="black"/>
<path opacity="0.1" d="M209.632 400.343L210.397 402.372L209.459 404.165C205.805 405.752 196.754 404.484 196.754 404.484C196.754 404.484 195.077 402.355 192.787 398.851C193.222 397.22 193.58 396.057 193.58 396.057L209.632 400.343Z" fill="black"/>
<path opacity="0.1" d="M262.833 389.223C258.201 399.717 242.457 395.823 238.082 394.509C237.361 394.291 236.964 394.146 236.964 394.146C236.964 394.146 236.992 393.291 237.003 391.945C237.517 389.76 238.076 387.955 238.076 387.955C238.076 387.955 256.335 381.758 259.196 385.569C260.055 386.688 261.082 387.669 262.241 388.474C262.416 388.741 262.614 388.992 262.833 389.223Z" fill="black"/>
<path d="M262.034 375.885C258.224 383.82 262.833 388.273 262.833 388.273C258.201 398.762 242.457 394.873 238.082 393.554C237.361 393.342 236.964 393.196 236.964 393.196C236.964 393.196 237.283 382.233 236.171 376.992C235.059 371.75 235.216 349.678 235.853 346.979C236.489 344.28 236.802 339.033 236.802 339.033C236.802 339.033 236.327 332.842 237.121 329.824C237.36 329.009 237.376 328.145 237.167 327.321C236.959 326.498 236.534 325.745 235.936 325.142L235.853 325.058C235.853 325.058 232.361 336.971 231.087 339.028C229.813 341.084 229.343 351.416 229.181 353.321C229.019 355.227 222.51 371.113 222.51 371.113C222.51 371.113 219.974 378.416 219.499 380.478C219.024 382.54 217.113 388.424 217.113 388.424L209.459 403.199C205.805 404.786 196.753 403.517 196.753 403.517C196.753 403.517 195.01 401.282 192.624 397.639C190.239 393.995 189.132 381.127 189.132 381.127C189.132 381.127 197.865 380.964 195.641 372.549C193.418 364.134 197.547 357.618 197.39 354.757C197.234 351.896 199.295 342.531 200.407 341.101C201.519 339.67 201.357 333.635 201.039 330.299C200.72 326.963 200.882 315.212 200.882 315.212C200.882 315.212 201.201 309.971 202.787 307.59C204.374 305.21 203.743 298.376 203.743 298.376C203.743 298.376 206.754 296.789 204.693 281.383C202.631 265.977 208.045 245.967 208.045 245.967L208.229 243.173L208.52 238.647C208.52 238.647 253.938 235.786 257.592 239.278C258.547 240.248 259.331 241.372 259.911 242.603C261.161 245.291 262.044 248.135 262.537 251.058L264.442 299.18L266.348 334.596L265.711 361.278C265.711 361.278 265.85 367.939 262.034 375.885Z" fill="#565988"/>
<path opacity="0.1" d="M248.569 280.908L243.803 384.138L238.082 393.548C237.361 393.336 236.964 393.191 236.964 393.191C236.964 393.191 237.283 382.227 236.171 376.986C235.059 371.744 235.216 349.672 235.852 346.973C236.489 344.274 236.802 339.027 236.802 339.027C236.802 339.027 236.327 332.836 237.121 329.819C237.36 329.003 237.376 328.139 237.167 327.316C236.959 326.492 236.534 325.74 235.936 325.136L236.015 324.577L248.569 280.908Z" fill="black"/>
<path opacity="0.1" d="M197.245 391.765C197.245 391.765 209.632 386.843 211.537 388.413C213.442 389.983 196.932 392.38 196.932 392.38L197.245 391.765Z" fill="black"/>
<path opacity="0.1" d="M258.386 378.74C257.911 378.903 245.843 383.211 246.955 387.793C248.067 392.375 258.386 378.74 258.386 378.74Z" fill="black"/>
<path d="M220.672 143.77C220.672 143.77 224.718 153.538 222.578 158.545C220.438 163.552 245.681 172.123 245.681 172.123C245.681 172.123 238.3 153.063 245.446 142.34C252.592 131.617 220.672 143.77 220.672 143.77Z" fill="#FFD6D6"/>
<path d="M368.476 426.545C363.593 427.618 357.162 432.502 357.162 432.502C357.162 432.502 344.775 435.122 336.316 433.932C327.857 432.742 329.293 423.566 335.841 421.303C340.384 419.739 345.038 415.878 347.468 413.665C348.541 412.676 349.178 411.988 349.178 411.988L372.885 407.222C372.885 407.222 373.27 408.546 373.806 410.373C374.756 413.598 376.159 418.381 376.695 420.203C377.527 423.092 373.359 425.472 368.476 426.545Z" fill="#505484"/>
<path d="M362.403 408.2C362.403 408.2 352.396 409.273 348.228 406.892C344.06 404.512 338.104 408.323 338.104 408.323C338.104 408.323 320.951 407.965 315.236 406.177C309.52 404.389 316.068 395.56 325.36 396.409C328.746 396.717 331.036 395.973 332.584 394.912C334.201 393.803 335.327 392.114 335.73 390.196L355.843 391.386L358.637 398.516L362.403 408.2Z" fill="#505484"/>
<path opacity="0.1" d="M358.944 401.768C358.944 401.768 335.568 397.946 332.584 394.912C334.201 393.803 335.327 392.114 335.73 390.196L355.844 391.386L358.637 398.516L358.944 401.768Z" fill="black"/>
<path d="M324.287 268.006L324.527 302.902C324.527 302.902 325.36 329.109 325.36 332.685C325.36 336.261 325.477 344.235 325.477 344.235C325.477 344.235 327.265 354.003 328.338 357.222C329.411 360.44 330.243 375.103 330.243 375.103C330.243 375.103 332.746 379.154 331.673 380.691C330.601 382.227 335.841 385.574 335.841 385.574C335.841 385.574 332.489 390.224 332.271 393.319C332.053 396.415 358.945 400.813 358.945 400.813L348.469 293.375L340.127 266.458L324.287 268.006Z" fill="#575988"/>
<path opacity="0.1" d="M324.287 268.006L324.527 302.902C324.527 302.902 325.36 329.109 325.36 332.685C325.36 336.261 325.477 344.235 325.477 344.235C325.477 344.235 327.265 354.003 328.338 357.222C329.411 360.44 330.243 375.103 330.243 375.103C330.243 375.103 332.746 379.154 331.673 380.691C330.601 382.227 335.841 385.574 335.841 385.574C335.841 385.574 332.489 390.224 332.271 393.319C332.053 396.415 358.945 400.813 358.945 400.813L348.469 293.375L340.127 266.458L324.287 268.006Z" fill="black"/>
<path opacity="0.1" d="M373.806 410.401C366.023 428.959 347.513 414.637 347.513 414.637C347.513 414.637 347.513 414.279 347.468 413.665C348.541 412.676 349.178 411.988 349.178 411.988L372.884 407.222C372.884 407.222 373.27 408.574 373.806 410.401Z" fill="black"/>
<path d="M374.075 408.797C366.448 428.355 347.513 413.681 347.513 413.681C347.513 413.681 346.915 403.556 348.111 398.913C349.307 394.269 346.798 380.327 346.798 380.327C346.798 380.327 345.368 367.939 344.06 365.084C342.753 362.228 342.87 356.506 342.87 356.031C342.87 355.556 343.345 351.74 342.272 349.119C341.2 346.498 340.596 340.067 340.596 340.067C340.596 340.067 340.596 331.014 339.523 325.656L335.83 307.216L329.159 269.453L331.243 269.095L368.583 262.546C368.583 262.546 375.611 298.309 373.225 301.974C372.711 302.779 372.259 304.539 371.885 306.808C370.521 314.921 370.013 329.489 370.013 329.489C370.013 329.489 374.656 336.753 372.873 341.877C371.091 347.001 374.55 355.456 374.55 355.456C374.55 355.456 375.622 388.81 373.594 392.146C371.566 395.482 374.075 408.797 374.075 408.797Z" fill="#575988"/>
<path d="M370.499 164.971C370.499 164.971 336.674 188.792 344.295 176.879C348.401 170.464 347.647 162.294 346.038 156.125C345.224 152.988 344.101 149.938 342.686 147.023C342.686 147.023 371.426 134.796 367.616 145.754C366.723 148.307 366.343 151.011 366.498 153.711C366.727 157.77 368.115 161.678 370.499 164.971Z" fill="#D28690"/>
<path d="M309.598 219.525C309.598 219.525 295.306 215.396 292.926 219.447C290.546 223.498 293.641 232.388 297.954 233.819C302.268 235.249 312.168 228.974 312.168 228.974L309.598 219.525Z" fill="#D28690"/>
<path d="M325.957 212.501L320.002 217.983C320.002 217.983 309.637 218.933 306.659 218.218C306.659 218.218 309.403 236.563 305.469 238.826L329.528 233.942L325.957 212.501Z" fill="#585B8A"/>
<path opacity="0.1" d="M325.957 212.501L320.002 217.983C320.002 217.983 309.637 218.933 306.659 218.218C306.659 218.218 309.403 236.563 305.469 238.826L329.528 233.942L325.957 212.501Z" fill="black"/>
<path opacity="0.1" d="M249.491 133.762C249.491 138.505 247.607 143.053 244.254 146.406C240.901 149.76 236.354 151.644 231.612 151.644C222.438 147.235 213.733 143.647 213.733 133.762C213.638 131.357 214.029 128.956 214.884 126.706C215.739 124.455 217.04 122.4 218.708 120.664C220.376 118.928 222.378 117.547 224.593 116.604C226.808 115.661 229.19 115.175 231.598 115.175C234.005 115.175 236.388 115.661 238.603 116.604C240.818 117.547 242.819 118.928 244.488 120.664C246.156 122.4 247.457 124.455 248.311 126.706C249.166 128.956 249.558 131.357 249.463 133.762H249.491Z" fill="black"/>
<path d="M249.491 133.282C249.494 137.487 248.011 141.558 245.306 144.777C242.6 147.996 238.845 150.157 234.702 150.877C230.56 151.597 226.296 150.832 222.663 148.715C219.029 146.598 216.26 143.266 214.843 139.307C213.427 135.348 213.453 131.015 214.918 127.074C216.384 123.132 219.194 119.834 222.853 117.762C226.512 115.69 230.785 114.977 234.918 115.748C239.051 116.519 242.78 118.726 245.446 121.978C248.056 125.167 249.485 129.16 249.491 133.282Z" fill="#FFD6D6"/>
<path opacity="0.1" d="M259.911 242.62C258.142 243.718 256.291 244.679 254.374 245.492C254.374 245.492 245.323 244.179 244.016 245.727C242.708 247.274 231.165 247.872 231.165 247.872C231.165 247.872 213.537 247.04 210.917 244.777C210.107 244.12 209.205 243.586 208.241 243.19L208.531 238.664C208.531 238.664 253.95 235.803 257.604 239.295C258.555 240.265 259.335 241.389 259.911 242.62Z" fill="black"/>
<path d="M262.118 239.418C261.761 241.441 254.374 244.537 254.374 244.537C254.374 244.537 245.323 243.229 244.016 244.777C242.708 246.325 231.165 246.923 231.165 246.923C231.165 246.923 213.537 246.084 210.917 243.821C208.297 241.558 202.458 240.469 202.458 240.469C202.458 240.469 199.48 219.268 200.676 214.625C201.871 209.981 198.888 197.23 198.173 192.703C197.457 188.177 200.195 175.672 203.531 173.649C206.866 171.626 211.632 164.831 214.487 162.808C216.895 161.104 219.555 158.897 220.331 158.232L220.561 158.042C220.561 158.042 221.041 154.348 222.946 152.454C224.852 150.56 242.356 164.485 242.356 164.485C242.356 164.485 242.479 165.558 243.669 163.535C243.937 163.082 246.245 166.412 246.647 167.821C246.647 167.821 256.173 184.5 256.771 187.937C257.369 191.374 259.867 202.588 260.341 205.326C260.464 206.031 260.666 208.5 260.9 211.808C260.945 212.457 260.984 213.144 261.034 213.859C261.386 219.346 261.766 226.354 261.995 231.651C261.995 232.254 262.046 232.836 262.062 233.394C262.183 235.4 262.202 237.41 262.118 239.418Z" fill="#DCE6F2"/>
<path opacity="0.1" d="M201.637 196.414C201.637 196.414 208.185 204.392 210.33 204.392C212.476 204.392 201.637 196.414 201.637 196.414Z" fill="black"/>
<path opacity="0.1" d="M215.432 213.569C215.432 213.569 204.71 225.242 206.14 227.387C207.57 229.533 215.432 213.569 215.432 213.569Z" fill="black"/>
<path opacity="0.1" d="M207.57 236.797C207.57 236.797 219.862 223.336 220.421 218.693L207.57 236.797Z" fill="black"/>
<path opacity="0.1" d="M223.052 237.747C223.052 237.747 237.227 230.243 238.417 224.286C239.607 218.329 223.052 237.747 223.052 237.747Z" fill="black"/>
<path opacity="0.1" d="M241.037 165.328L239.071 170.089L242.345 171.637L245.563 180.634C245.563 180.634 254.436 198.381 254.078 207.612C253.72 216.843 255.687 230.718 255.687 230.718L260.805 229.768L258.391 202.616C258.016 198.412 256.963 194.297 255.274 190.429C251.184 181.064 243.574 163.775 243.094 163.775C242.44 163.775 242.898 164.015 242.898 164.015L241.037 165.328Z" fill="black"/>
<path d="M241.513 164.848L239.546 169.614L242.826 171.162L246.038 180.159C246.038 180.159 254.911 197.906 254.553 207.137C254.196 216.368 256.162 230.243 256.162 230.243L261.286 229.293L258.866 202.141C258.495 197.937 257.444 193.821 255.754 189.954C251.665 180.583 244.055 163.3 243.58 163.3C242.921 163.3 243.379 163.54 243.379 163.54L241.513 164.848Z" fill="#575989"/>
<path d="M299.514 234.853C297.022 234.663 291.043 231.64 288.669 230.382L287.663 229.824L287.786 220.598C288.373 220.253 288.982 219.945 289.607 219.676C292.781 218.29 299.29 216.407 302.553 222.47C306.956 230.6 302.67 235.065 299.514 234.853Z" fill="#FFD6D6"/>
<path opacity="0.1" d="M245.446 121.978C245.19 122.138 244.909 122.253 244.614 122.319C242.541 122.771 240.183 120.989 238.406 122.134C237.322 122.838 237.071 124.297 236.926 125.582C236.672 127.817 236.419 130.037 236.166 132.243C236.113 133.028 235.947 133.801 235.674 134.539C234.797 136.545 232.389 137.49 230.193 137.456C229.333 137.517 228.484 137.236 227.83 136.674C227.444 136.283 227.238 135.735 226.813 135.378C224.019 133.036 223.17 138.775 223.908 140.407C225.092 143.072 229.299 145.642 227.534 149.029C227.237 149.579 226.786 150.031 226.237 150.331C223.577 149.497 221.148 148.053 219.145 146.114C217.142 144.174 215.62 141.793 214.701 139.161C213.782 136.528 213.491 133.717 213.852 130.952C214.213 128.187 215.215 125.545 216.779 123.237C218.343 120.928 220.425 119.018 222.859 117.657C225.293 116.297 228.011 115.525 230.797 115.403C233.582 115.28 236.357 115.811 238.901 116.953C241.445 118.095 243.686 119.815 245.446 121.978Z" fill="black"/>
<path d="M226.338 135.355C226.757 135.707 226.969 136.255 227.354 136.646C228.008 137.208 228.858 137.489 229.718 137.428C231.914 137.462 234.322 136.523 235.193 134.506C235.471 133.771 235.639 132.999 235.69 132.215L236.45 125.554C236.596 124.269 236.841 122.81 237.931 122.106C239.708 120.989 242.065 122.743 244.138 122.291C244.886 122.101 245.532 121.633 245.948 120.984C246.363 120.334 246.515 119.551 246.373 118.793C246.133 117.725 245.317 116.882 244.898 115.865C244.644 115.083 244.441 114.286 244.289 113.479C243.133 109.142 238.043 106.706 233.618 107.433C231.159 107.84 228.874 109.014 226.41 109.372C224.645 109.629 222.84 109.461 221.058 109.651C219.402 109.822 217.792 110.297 216.308 111.053C215.919 111.226 215.575 111.486 215.303 111.813C215.05 112.256 214.879 112.741 214.8 113.244C214.202 115.479 212.28 117.127 210.889 119.011C209.298 121.177 208.377 123.763 208.241 126.448C208.186 127.134 208.25 127.824 208.431 128.488C208.548 128.879 208.732 129.259 208.822 129.661C209.095 130.885 208.47 132.109 208.162 133.327C207.781 134.881 207.918 136.518 208.553 137.987C210.699 142.921 217.767 144.57 219.236 149.749C220.541 150.375 221.95 150.754 223.393 150.867C224.835 150.895 226.388 150.275 227.058 148.995C228.818 145.642 224.617 143.038 223.432 140.379C222.689 138.741 223.522 133.008 226.338 135.355Z" fill="#353045"/>
<path opacity="0.1" d="M367.644 145.754C366.751 148.307 366.371 151.011 366.526 153.711C365.666 154.443 364.727 152.253 363.733 152.817C361.006 154.393 357.855 158.142 354.48 158.142C351.554 158.144 348.668 157.453 346.06 156.125C345.247 152.988 344.124 149.938 342.708 147.023C342.708 147.023 371.454 134.796 367.644 145.754Z" fill="black"/>
<path d="M373.041 138.607C373.041 142.283 371.951 145.876 369.909 148.933C367.867 151.989 364.965 154.371 361.569 155.778C358.174 157.184 354.437 157.553 350.833 156.835C347.228 156.118 343.917 154.348 341.318 151.749C338.719 149.15 336.949 145.838 336.232 142.233C335.515 138.628 335.883 134.891 337.29 131.495C338.696 128.099 341.078 125.196 344.134 123.154C347.19 121.112 350.783 120.022 354.458 120.022C356.899 120.021 359.315 120.501 361.57 121.435C363.825 122.369 365.874 123.738 367.6 125.464C369.326 127.19 370.694 129.239 371.628 131.494C372.562 133.749 373.042 136.166 373.041 138.607Z" fill="#D28690"/>
<path d="M372.247 169.1C372.247 169.1 368.75 172.911 368.275 173.224C367.8 173.537 357.659 216.251 357.48 216.748C357.302 217.245 345.407 255.813 345.407 255.813L326.349 265.184L327.941 218.011L341.909 179.108C341.909 179.108 346.518 173.867 347.943 171.961C349.368 170.056 367.158 158.617 367.158 158.617L370.197 164.881L372.247 169.1Z" fill="#F0F3F7"/>
<path opacity="0.1" d="M369.728 165.837L347.815 181.528L347.463 172.911C348.893 171.006 366.677 159.573 366.677 159.573L369.728 165.837Z" fill="black"/>
<path d="M370.203 164.881L348.29 180.572L347.949 171.961C349.38 170.05 367.164 158.617 367.164 158.617L370.203 164.881Z" fill="#F0F3F7"/>
<path d="M347.217 168.128L347.949 171.961L343.049 176.94L346.96 168.184C346.96 168.184 338.579 174.023 336.065 175.571C333.551 177.119 331.036 182.36 330.941 183.791C330.846 185.221 326.891 206.779 326.891 206.779C326.891 206.779 323.913 214.759 324.751 217.022C325.589 219.285 320.225 290.637 320.225 290.637C320.942 289.251 321.956 288.04 323.194 287.091C324.432 286.141 325.864 285.477 327.388 285.144L325.477 242.978C325.477 242.978 327.801 214.926 327.919 214.569C328.036 214.211 333.338 197.95 333.338 197.95L347.217 168.128Z" fill="#585B8A"/>
<path opacity="0.1" d="M348.429 172.436L348.049 180.259C348.049 180.259 342.747 196.995 340.965 199.733C339.182 202.471 333.757 218.793 333.757 218.793L330.701 247.146L325.46 249.532L322.879 244.777L327.17 217.396C327.17 217.396 335.266 194.29 336.461 191.904L342.434 179.32L348.429 172.436Z" fill="black"/>
<path d="M347.949 171.961L347.575 179.784C347.575 179.784 342.272 196.52 340.484 199.258C338.696 201.996 333.282 218.318 333.282 218.318L330.243 246.665L325.002 249.046L322.382 244.285L326.673 216.904C326.673 216.904 334.769 193.793 335.959 191.413L341.976 178.845L347.949 171.961Z" fill="#663D5C"/>
<path d="M286.177 231.673L296.418 238.764C296.418 238.764 303.642 234.713 299.435 232.092C295.228 229.472 291.496 229.075 290.144 229.075C288.792 229.075 286.177 231.673 286.177 231.673Z" fill="#D28690"/>
<path d="M293.826 218.564C293.597 218.706 293.409 218.905 293.279 219.141C293.149 219.376 293.081 219.642 293.083 219.911C293.083 222.085 293.328 227.84 295.15 225.242C297.385 222.062 296.977 219.207 300.391 221.269C302.512 222.59 304.369 224.296 305.866 226.298L304.916 219.469C304.916 219.469 297.899 216.005 293.826 218.564Z" fill="#D28690"/>
<path opacity="0.1" d="M373.236 301.952C372.722 302.757 372.27 304.517 371.895 306.785C351.01 313.049 335.729 299.806 335.729 299.806C333.881 293.54 332.37 287.18 331.204 280.752C330.83 278.55 330.913 274.281 331.26 269.073L368.599 262.524C368.599 262.524 375.622 298.258 373.236 301.952Z" fill="black"/>
<path d="M394.675 195.341C393.725 198.442 394.083 204.751 394.083 204.751L385.506 245.252C385.506 245.252 381.338 276.46 380.623 280.628C379.908 284.797 378.718 303.142 378.718 303.142C354.419 315.055 335.696 298.856 335.696 298.856C333.848 292.588 332.337 286.226 331.171 279.796C329.975 272.722 333.495 244.38 335.16 231.79C335.657 228.063 335.992 225.716 335.992 225.716L342.244 202.488C342.244 202.488 349.927 182.891 352.788 177.175C355.648 171.458 367.136 158.617 367.136 158.617C368.56 157.712 370.84 160.908 372.533 163.82C373.812 166.021 374.768 168.066 374.768 168.066C374.768 168.066 389.06 174.258 391.2 177.566C393.34 180.874 392.987 187.691 393.228 188.049C393.468 188.406 395.63 192.245 394.675 195.341Z" fill="#585B8A"/>
<path opacity="0.1" d="M360.973 180.93C360.973 180.93 362.046 187.244 359.297 189.15C356.643 190.994 336.886 229.846 335.657 232.271C336.154 228.538 336.49 226.192 336.49 226.192L342.742 202.968C342.742 202.968 350.43 183.372 353.285 177.65C356.14 171.928 367.638 159.092 367.638 159.092C369.063 158.187 371.337 161.383 373.03 164.295C370.477 169.598 365.152 179.622 360.973 180.93Z" fill="black"/>
<path d="M360.498 180.455C360.498 180.455 361.565 186.769 358.822 188.674C356.078 190.58 336.417 229.365 335.171 231.79C335.668 228.063 336.003 225.716 336.003 225.716L342.255 202.488C342.255 202.488 349.938 182.891 352.799 177.175C355.659 171.458 367.146 158.617 367.146 158.617C368.571 157.712 370.851 160.908 372.544 163.82C370.002 169.117 364.671 179.147 360.498 180.455Z" fill="#585B8A"/>
<path d="M388.842 237.513L382.12 272.487V272.493L381.478 275.84V275.845L380.031 283.372L373.857 282.065L370.979 281.456L331.159 273.018L328.232 272.398L321.549 270.984L322.857 262.3L323.399 258.691L328.22 226.672L388.842 237.513Z" fill="#F2B23D"/>
<path d="M351.681 266.1C351.681 266.1 335.841 271.816 339.294 278.606C342.747 285.395 364.9 273.364 364.9 273.364L351.681 266.1Z" fill="#D28690"/>
<path opacity="0.1" d="M362.995 314.815C362.995 315.29 363.593 321.37 365.973 323.51C368.353 325.65 362.995 314.815 362.995 314.815Z" fill="black"/>
<path opacity="0.1" d="M347.038 336.373C347.038 336.373 349.893 344.235 361.207 347.454C372.521 350.673 347.038 336.373 347.038 336.373Z" fill="black"/>
<path opacity="0.1" d="M373.041 138.607C373.042 141.874 372.181 145.084 370.546 147.912C368.911 150.741 366.559 153.088 363.727 154.717C362.66 154.12 361.713 153.33 360.933 152.387C360.123 151.403 359.492 150.062 359.978 148.889C360.369 147.945 361.403 147.347 361.654 146.369C361.773 145.771 361.742 145.153 361.565 144.57C361.358 143.648 361.163 142.726 360.961 141.809C360.788 141.027 360.481 140.105 359.704 139.915C358.928 139.725 358.28 140.373 357.671 140.854C356.179 142.033 353.318 142.832 351.525 141.865C349.731 140.898 350.234 137.663 349.943 135.914C349.94 135.762 349.903 135.613 349.835 135.477C349.768 135.34 349.671 135.221 349.552 135.126C349.291 135.039 349.013 135.02 348.742 135.07C347.776 135.07 346.999 134.204 346.72 133.276C346.522 132.329 346.413 131.366 346.396 130.399C346.289 129.432 345.937 128.409 345.11 127.912C344.45 127.604 343.717 127.485 342.993 127.566L339.49 127.605C341.814 124.462 345.069 122.133 348.793 120.947C352.517 119.762 356.52 119.78 360.232 121.001C363.945 122.221 367.178 124.581 369.473 127.745C371.767 130.909 373.006 134.716 373.013 138.624L373.041 138.607Z" fill="black"/>
<path d="M358.168 140.854C358.777 140.373 359.447 139.736 360.202 139.92C360.956 140.105 361.28 141.038 361.453 141.809L362.057 144.564C362.235 145.149 362.268 145.768 362.152 146.369C361.867 147.352 360.839 147.945 360.442 148.889C359.956 150.062 360.593 151.403 361.397 152.381C362.865 154.15 364.894 155.363 367.147 155.818C367.735 155.959 368.346 155.973 368.94 155.857C370.27 155.55 371.175 154.326 371.89 153.18C375.583 147.425 378.762 141.116 379.411 134.31C379.588 132.922 379.524 131.513 379.221 130.147C378.918 129.085 378.49 128.063 377.947 127.102C376.996 125.138 375.788 123.31 374.354 121.665C371.812 118.927 368.303 117.245 364.699 116.25C360.646 115.125 356.414 114.793 352.234 115.272C351.117 115.401 350.044 115.585 348.944 115.658C347.562 115.722 346.177 115.7 344.798 115.591L336.573 115.099C336.104 116.055 336.573 117.189 337.132 118.083C337.691 118.977 338.384 119.905 338.339 120.966C338.294 122.028 337.54 122.866 336.959 123.76C336.378 124.654 335.937 125.811 336.518 126.683C337.099 127.554 338.283 127.61 339.311 127.599L343.457 127.554C344.179 127.48 344.908 127.606 345.563 127.918C346.39 128.415 346.742 129.443 346.848 130.404C346.872 131.371 346.98 132.334 347.172 133.282C347.457 134.21 348.228 135.087 349.195 135.076C349.466 135.022 349.746 135.043 350.005 135.137C350.124 135.231 350.22 135.349 350.288 135.485C350.356 135.62 350.393 135.768 350.396 135.919C350.687 137.668 350.15 140.898 351.977 141.871C353.804 142.843 356.676 142.033 358.168 140.854Z" fill="#663D5C"/>
<path opacity="0.1" d="M381.785 177.56C379.731 177.342 377.663 177.829 375.922 178.941C374.181 180.052 372.87 181.723 372.203 183.679C369.968 190.044 366.242 201.527 367.175 206.064C368.488 212.496 370.035 223.219 370.035 223.219C370.035 223.219 376.824 227.13 373.388 231.075C369.951 235.02 368.979 240.608 368.979 240.608C368.979 240.608 364.571 242.514 363.621 246.565C362.671 250.616 356.235 256.21 356.235 256.21L346.591 265.86C346.591 265.86 362.548 282.065 365.767 282.892L375.65 271.336L387.322 255.852L397.446 245.235C397.446 245.235 399.826 239.647 398.636 229.03C397.446 218.413 392.798 208.305 392.798 208.305L393.155 204.728C393.155 204.728 394.25 179.108 381.785 177.56Z" fill="black"/>
<path d="M382.735 177.56C380.682 177.345 378.617 177.833 376.878 178.944C375.14 180.056 373.83 181.725 373.164 183.679C370.929 190.044 367.202 201.527 368.135 206.064C369.443 212.496 370.99 223.219 370.99 223.219C370.99 223.219 377.779 227.13 374.343 231.075C370.906 235.02 369.94 240.608 369.94 240.608C369.94 240.608 365.532 242.514 364.576 246.565C363.621 250.616 357.195 256.21 357.195 256.21L347.546 265.86C347.546 265.86 363.503 282.065 366.722 282.892L376.605 271.336L388.249 255.852L398.373 245.235C398.373 245.235 400.759 239.647 399.563 229.03C398.368 218.413 393.73 208.305 393.73 208.305L394.088 204.729C394.088 204.729 395.2 179.108 382.735 177.56Z" fill="#585B8A"/>
<path opacity="0.1" d="M372.762 213.809C372.762 213.809 382.886 226.192 387.177 223.454C391.468 220.715 372.762 213.809 372.762 213.809Z" fill="black"/>
<path opacity="0.1" d="M376.572 204.276C377.645 204.634 386.461 216.904 390.987 215.452C395.513 213.999 376.572 204.276 376.572 204.276Z" fill="black"/>
<path opacity="0.1" d="M379.075 225.353C379.075 225.353 379.673 232.382 386.936 231.427C394.2 230.471 379.075 225.353 379.075 225.353Z" fill="black"/>
<path opacity="0.1" d="M346.977 168.659L343.049 177.415L347.954 172.436L346.977 168.659Z" fill="black"/>
<path d="M346.977 168.184L343.049 176.94L347.954 171.961L346.977 168.184Z" fill="#F0F3F7"/>
<path opacity="0.3" d="M331.159 273.018L328.231 272.398L322.856 262.3L323.398 258.691L331.159 273.018Z" fill="black"/>
<path opacity="0.3" d="M382.12 272.493L381.478 275.84V275.845L373.857 282.065L370.979 281.456L382.12 272.493Z" fill="black"/>
<path opacity="0.1" d="M262.045 233.417C260.57 233.662 259.14 233.886 257.833 234.054C250.569 235.009 233.294 226.432 233.294 226.432C233.294 226.432 212.213 208.802 206.14 192.128C200.067 175.454 213.403 172.95 213.403 172.95C218.432 170.089 229.366 178.069 230.913 179.382C232.461 180.695 233.774 184.025 233.651 186.171C233.528 188.317 237.227 191.055 237.227 191.055C237.227 191.055 243.541 202.013 245.088 203.203C246.636 204.393 246.993 205.466 247.468 207.494C247.943 209.523 252.111 211.188 253.899 211.065C255.687 210.942 257.81 211.663 257.81 212.613C257.81 213.379 259.559 213.758 260.995 213.881C261.42 219.989 261.839 227.991 262.045 233.417Z" fill="black"/>
<path opacity="0.1" d="M261.979 231.673C260.861 231.852 259.788 232.014 258.783 232.148C251.519 233.104 234.249 224.526 234.249 224.526C234.249 224.526 213.169 206.896 207.095 190.222C201.022 173.548 214.359 171.045 214.359 171.045C219.387 168.184 230.316 176.163 231.863 177.476C233.411 178.79 234.724 182.12 234.607 184.266C234.489 186.411 238.177 189.149 238.177 189.149C238.177 189.149 244.491 200.107 246.038 201.297C247.586 202.488 247.943 203.561 248.424 205.589C248.904 207.617 253.067 209.277 254.855 209.16C256.643 209.042 258.766 209.757 258.766 210.707C258.766 211.266 259.76 211.641 260.867 211.825C260.911 212.473 260.95 213.16 261.001 213.876C261.37 219.369 261.749 226.376 261.979 231.673Z" fill="black"/>
<path opacity="0.1" d="M289.607 219.676L289.155 230.382H288.669L287.663 229.824L287.786 220.598C288.373 220.253 288.982 219.945 289.607 219.676Z" fill="black"/>
<path d="M213.403 171.995C213.403 171.995 200.067 174.498 206.14 191.172C212.213 207.847 233.294 225.482 233.294 225.482C233.294 225.482 250.564 234.054 257.833 233.104C265.102 232.154 276.17 229.65 277.6 230.008C279.031 230.366 288.68 230.366 288.68 230.366L289.155 219.19L277.98 218.592L272.264 217.402C272.264 217.402 270.236 215.726 269.046 215.971C267.856 216.217 265.359 214.541 265.359 214.541C265.359 214.541 263.448 212.993 262.006 212.993C260.565 212.993 257.838 212.635 257.838 211.685C257.838 210.736 255.693 210.009 253.927 210.138C252.162 210.266 247.943 208.59 247.452 206.539C246.96 204.488 246.619 203.443 245.071 202.253C243.524 201.063 237.21 190.1 237.21 190.1C237.21 190.1 233.517 187.361 233.634 185.221C233.752 183.081 232.444 179.74 230.897 178.426C229.349 177.113 218.398 169.139 213.403 171.995Z" fill="#DCE6F2"/>
<path opacity="0.1" d="M247.709 210.35C247.709 210.35 242.585 215.473 243.893 216.423L247.709 210.35Z" fill="black"/>
<path opacity="0.1" d="M253.184 214.401C253.184 214.401 246.513 219.525 248.301 219.882C250.089 220.24 253.184 214.401 253.184 214.401Z" fill="black"/>
<path opacity="0.1" d="M241.864 222C242.82 222.481 256.989 230.941 262.353 230.818L241.864 222Z" fill="black"/>
<path opacity="0.1" d="M242.826 165.446C242.826 165.446 240.322 173.666 239.367 173.666C238.618 173.666 226.047 163.484 220.801 159.204L221.03 159.014C221.03 159.014 221.505 155.321 223.41 153.426C225.315 151.532 242.826 165.446 242.826 165.446Z" fill="black"/>
<path d="M242.345 164.49C242.345 164.49 239.848 172.71 238.892 172.71C238.138 172.71 225.567 162.529 220.32 158.249L220.549 158.059C220.549 158.059 221.03 154.365 222.935 152.471C224.84 150.576 242.345 164.49 242.345 164.49Z" fill="#DCE6F2"/>
<g opacity="0.15">
<path opacity="0.15" d="M208.615 137.926C210.291 141.753 214.906 143.608 217.583 146.659C215.99 142.91 211.336 141.072 208.615 137.926Z" fill="black"/>
<path opacity="0.15" d="M225.696 146.743C225.031 148.022 223.461 148.642 222.03 148.615C220.759 148.523 219.514 148.205 218.354 147.676C218.775 148.296 219.095 148.979 219.304 149.698C220.608 150.325 222.018 150.704 223.461 150.816C224.908 150.849 226.461 150.229 227.126 148.944C228.193 146.905 227.081 145.162 225.779 143.513C226.022 144.02 226.141 144.577 226.126 145.138C226.112 145.7 225.964 146.25 225.696 146.743Z" fill="black"/>
<path opacity="0.15" d="M246.429 118.737C246.189 117.664 245.373 116.82 244.954 115.809C244.698 115.026 244.494 114.227 244.345 113.417C244.028 112.272 243.439 111.22 242.63 110.349C242.742 110.624 242.838 110.906 242.915 111.193C243.071 112.007 243.28 112.809 243.541 113.596C243.96 114.607 244.775 115.451 245.016 116.524C245.157 117.282 245.005 118.065 244.59 118.715C244.175 119.365 243.528 119.832 242.781 120.022C240.713 120.475 238.356 118.686 236.579 119.838C235.489 120.536 235.238 121.994 235.093 123.28C234.843 125.515 234.59 127.737 234.333 129.946C234.282 130.73 234.117 131.502 233.841 132.237C232.964 134.249 230.556 135.193 228.36 135.16C227.502 135.217 226.656 134.936 226.002 134.377C225.685 133.927 225.343 133.495 224.98 133.081C222.186 130.734 221.337 136.473 222.075 138.11C222.444 138.846 222.902 139.535 223.438 140.161C222.823 138.317 223.684 133.008 226.41 135.282C226.774 135.695 227.113 136.128 227.427 136.579C228.083 137.137 228.931 137.418 229.79 137.361C231.986 137.395 234.394 136.45 235.272 134.439C235.548 133.702 235.713 132.928 235.763 132.142C236.016 129.907 236.27 127.687 236.523 125.481C236.668 124.196 236.92 122.738 238.004 122.039C239.786 120.888 242.144 122.676 244.211 122.218C244.952 122.026 245.593 121.56 246.005 120.914C246.417 120.268 246.568 119.49 246.429 118.737Z" fill="black"/>
</g>
<path opacity="0.1" d="M370.13 154.432C369.536 154.543 368.925 154.528 368.337 154.387C366.087 153.933 364.06 152.722 362.593 150.956C361.783 149.973 361.146 148.632 361.638 147.458C362.029 146.514 363.057 145.922 363.314 144.938C363.43 144.338 363.397 143.718 363.219 143.133L362.615 140.379C362.442 139.596 362.14 138.674 361.364 138.49C360.587 138.305 359.939 138.942 359.33 139.423C357.838 140.602 354.972 141.407 353.184 140.434C351.396 139.462 351.893 136.232 351.603 134.483C351.598 134.332 351.561 134.184 351.493 134.049C351.426 133.914 351.33 133.795 351.212 133.701C350.95 133.61 350.669 133.589 350.396 133.64C349.429 133.64 348.658 132.773 348.373 131.846C348.18 130.898 348.073 129.935 348.055 128.968C347.943 128.007 347.597 126.979 346.764 126.482C346.108 126.172 345.38 126.047 344.658 126.118L340.512 126.163C339.49 126.163 338.277 126.096 337.719 125.247C337.16 124.397 337.573 123.19 338.16 122.324C338.747 121.458 339.49 120.597 339.54 119.53C339.59 118.463 338.898 117.541 338.333 116.647C338.01 116.158 337.772 115.618 337.629 115.049L336.439 114.976C335.975 115.926 336.439 117.06 336.998 117.96C337.557 118.86 338.255 119.782 338.205 120.838C338.154 121.894 337.411 122.743 336.825 123.632C336.238 124.52 335.808 125.682 336.389 126.554C336.97 127.426 338.149 127.487 339.183 127.476L343.328 127.426C344.051 127.356 344.779 127.483 345.435 127.795C346.267 128.292 346.619 129.32 346.725 130.281C346.743 131.249 346.851 132.212 347.049 133.159C347.329 134.081 348.105 134.964 349.072 134.947C349.343 134.899 349.621 134.92 349.882 135.009C350 135.104 350.096 135.224 350.164 135.36C350.232 135.496 350.269 135.645 350.273 135.797C350.564 137.54 350.027 140.775 351.854 141.748C353.681 142.72 356.531 141.915 358 140.736C358.609 140.256 359.285 139.619 360.04 139.797C360.794 139.976 361.118 140.915 361.286 141.686L361.895 144.447C362.071 145.032 362.102 145.652 361.984 146.251C361.705 147.229 360.671 147.827 360.28 148.766C359.794 149.939 360.425 151.286 361.235 152.264C362.712 154.037 364.754 155.249 367.018 155.695C367.606 155.835 368.217 155.85 368.812 155.74C369.772 155.447 370.596 154.821 371.136 153.974C370.831 154.185 370.49 154.341 370.13 154.432Z" fill="black"/>
<path opacity="0.1" d="M113.806 401.215C121.264 401.215 127.31 400.286 127.31 399.142C127.31 397.997 121.264 397.069 113.806 397.069C106.348 397.069 100.302 397.997 100.302 399.142C100.302 400.286 106.348 401.215 113.806 401.215Z" fill="#F2B23D"/>
<path opacity="0.1" d="M585.321 347.314C592.779 347.314 598.826 346.386 598.826 345.241C598.826 344.096 592.779 343.168 585.321 343.168C577.863 343.168 571.817 344.096 571.817 345.241C571.817 346.386 577.863 347.314 585.321 347.314Z" fill="#F2B23D"/>
<path opacity="0.1" d="M447.647 434.781C469.247 434.781 486.758 432.094 486.758 428.78C486.758 425.465 469.247 422.778 447.647 422.778C426.047 422.778 408.537 425.465 408.537 428.78C408.537 432.094 426.047 434.781 447.647 434.781Z" fill="#F2B23D"/>
<path opacity="0.1" d="M558.827 408.038C575.675 408.038 589.333 405.941 589.333 403.355C589.333 400.769 575.675 398.672 558.827 398.672C541.979 398.672 528.321 400.769 528.321 403.355C528.321 405.941 541.979 408.038 558.827 408.038Z" fill="#F2B23D"/>
<path opacity="0.1" d="M553.804 457.954C582.374 457.954 605.536 454.399 605.536 450.014C605.536 445.629 582.374 442.073 553.804 442.073C525.233 442.073 502.072 445.629 502.072 450.014C502.072 454.399 525.233 457.954 553.804 457.954Z" fill="#F2B23D"/>
<path opacity="0.1" d="M56.006 463C77.606 463 95.1164 460.313 95.1164 456.998C95.1164 453.684 77.606 450.997 56.006 450.997C34.4058 450.997 16.8955 453.684 16.8955 456.998C16.8955 460.313 34.4058 463 56.006 463Z" fill="#F2B23D"/>
<path d="M114.42 333.115C114.42 333.115 115.951 335.116 113.716 338.144C111.481 341.173 109.638 343.732 110.364 345.599C110.364 345.599 113.716 340.011 116.51 339.91C119.303 339.81 117.443 336.49 114.42 333.115Z" fill="#F2B23D"/>
<path opacity="0.1" d="M114.421 333.115C114.557 333.306 114.663 333.517 114.733 333.741C117.415 336.893 118.84 339.826 116.264 339.888C113.867 339.955 110.99 344.246 110.303 345.33C110.324 345.414 110.35 345.496 110.381 345.576C110.381 345.576 113.733 339.988 116.527 339.888C119.321 339.787 117.443 336.49 114.421 333.115Z" fill="black"/>
<path d="M117.27 335.664C117.27 336.368 117.186 336.937 117.091 336.937C116.996 336.937 116.912 336.379 116.912 335.664C116.912 334.948 117.013 335.295 117.108 335.295C117.203 335.295 117.27 334.96 117.27 335.664Z" fill="#FFD037"/>
<path d="M118.242 336.507C117.627 336.842 117.085 337.066 117.041 336.96C116.996 336.854 117.454 336.535 118.074 336.194C118.694 335.854 118.449 336.105 118.493 336.194C118.538 336.284 118.862 336.166 118.242 336.507Z" fill="#FFD037"/>
<path d="M106.341 333.115C106.341 333.115 104.81 335.116 107.045 338.144C109.28 341.173 111.129 343.732 110.397 345.599C110.397 345.599 107.045 340.011 104.279 339.91C101.514 339.81 103.302 336.49 106.341 333.115Z" fill="#F2B23D"/>
<path opacity="0.1" d="M106.341 333.115C106.208 333.308 106.103 333.519 106.029 333.741C103.347 336.893 101.922 339.826 104.498 339.888C106.895 339.955 109.772 344.246 110.465 345.33C110.442 345.414 110.414 345.496 110.381 345.576C110.381 345.576 107.029 339.988 104.263 339.888C101.497 339.787 103.302 336.49 106.341 333.115Z" fill="black"/>
<path d="M103.498 335.664C103.498 336.368 103.576 336.937 103.671 336.937C103.766 336.937 103.85 336.379 103.85 335.664C103.85 334.948 103.749 335.295 103.654 335.295C103.559 335.295 103.498 334.96 103.498 335.664Z" fill="#FFD037"/>
<path d="M102.52 336.507C103.14 336.842 103.676 337.066 103.727 336.96C103.777 336.854 103.308 336.535 102.687 336.194C102.067 335.854 102.313 336.105 102.268 336.194C102.224 336.284 101.9 336.166 102.52 336.507Z" fill="#FFD037"/>
<path opacity="0.1" d="M110.381 360.898C119.215 360.898 126.377 359.8 126.377 358.445C126.377 357.09 119.215 355.992 110.381 355.992C101.546 355.992 94.3848 357.09 94.3848 358.445C94.3848 359.8 101.546 360.898 110.381 360.898Z" fill="#F2B23D"/>
<path d="M118.617 342.894L118.538 343.52L118.432 344.403L118.387 344.772L118.281 345.655L118.231 346.024L118.125 346.906L116.901 356.965C116.795 357.859 115.331 358.557 113.549 358.557H107.213C105.447 358.557 103.984 357.859 103.861 356.965L102.637 346.906L102.531 346.024L102.486 345.655L102.375 344.772L102.33 344.403L102.224 343.52L102.145 342.894C102.084 342.386 102.877 341.961 103.877 341.961H116.89C117.885 341.961 118.678 342.386 118.617 342.894Z" fill="#65617D"/>
<path d="M118.538 343.52L118.432 344.403H102.33L102.224 343.52H118.538Z" fill="#9D9CB5"/>
<path d="M118.387 344.772L118.281 345.655H102.486L102.375 344.772H118.387Z" fill="#9D9CB5"/>
<path d="M118.236 346.023L118.125 346.906H102.637L102.531 346.023H118.236Z" fill="#9D9CB5"/>
<path d="M574.678 325.376C574.678 325.376 572.767 334.272 581.265 335.323L581.79 334.334C581.79 334.334 575.203 328.137 574.678 325.376Z" fill="#F2B23D"/>
<path d="M584.495 334.261L582.517 334.68L582.321 334.725C582.321 334.725 577.047 330.444 577.114 320.889C577.819 322.298 578.663 323.633 579.634 324.873C581.723 327.639 584.098 331.327 584.495 334.261Z" fill="#F2B23D"/>
<path d="M585.159 335.177C585.004 335.278 584.828 335.343 584.644 335.368C584.461 335.392 584.274 335.375 584.098 335.317C579.025 334.132 580.746 317.598 580.746 317.598C581.025 317.726 581.304 319.833 582.5 322.549C584.539 327.315 586.791 333.982 585.159 335.177Z" fill="#F2B23D"/>
<path d="M596.412 325.376C596.412 325.376 596.741 334.272 588.243 335.323L587.712 334.317C587.712 334.317 595.886 328.137 596.412 325.376Z" fill="#F2B23D"/>
<path d="M593.976 320.906C594.043 330.461 587.193 334.742 587.193 334.742L586.992 334.697L585.02 334.278C585.411 331.344 587.813 327.656 589.875 324.89C591.058 323.385 592.437 322.045 593.976 320.906Z" fill="#F2B23D"/>
<path d="M586.964 334.317C586.663 334.688 586.281 334.985 585.846 335.183C585.712 335.244 585.571 335.29 585.427 335.323C584.181 335.613 583.751 334.714 583.818 333.182C583.936 330.461 585.645 325.739 587.171 322.202C587.905 320.467 588.989 318.902 590.355 317.604C590.355 317.604 590.277 330.472 586.964 334.317Z" fill="#F2B23D"/>
<path d="M585.545 311.798C585.545 311.798 579.879 331.914 584.757 334.92C589.634 337.927 586.796 313.575 585.545 311.798Z" fill="#F2B23D"/>
<path opacity="0.1" d="M574.678 325.376C574.678 325.376 572.767 334.272 581.265 335.323L581.79 334.334C581.79 334.334 575.203 328.137 574.678 325.376Z" fill="black"/>
<path opacity="0.1" d="M584.495 334.261L582.517 334.68L582.321 334.725C582.321 334.725 577.047 330.444 577.114 320.889C577.819 322.298 578.663 323.633 579.634 324.873C581.723 327.639 584.098 331.327 584.495 334.261Z" fill="black"/>
<path opacity="0.1" d="M585.159 335.177C585.004 335.278 584.828 335.343 584.644 335.368C584.461 335.392 584.274 335.375 584.098 335.317C579.025 334.132 580.746 317.598 580.746 317.598C581.025 317.726 581.304 319.833 582.5 322.549C584.539 327.315 586.791 333.982 585.159 335.177Z" fill="black"/>
<path opacity="0.1" d="M596.412 325.376C596.412 325.376 596.741 334.272 588.243 335.323L587.712 334.317C587.712 334.317 595.886 328.137 596.412 325.376Z" fill="black"/>
<path opacity="0.1" d="M593.976 320.906C594.043 330.461 587.193 334.742 587.193 334.742L586.992 334.697L585.02 334.278C585.411 331.344 587.813 327.656 589.875 324.89C591.058 323.385 592.437 322.045 593.976 320.906Z" fill="black"/>
<path opacity="0.1" d="M586.964 334.317C586.663 334.688 586.281 334.985 585.846 335.183C585.712 335.244 585.571 335.29 585.427 335.323C584.181 335.613 583.751 334.714 583.818 333.182C583.936 330.461 585.645 325.739 587.171 322.202C587.905 320.467 588.989 318.902 590.355 317.604C590.355 317.604 590.277 330.472 586.964 334.317Z" fill="black"/>
<path opacity="0.1" d="M585.545 311.798C585.545 311.798 579.879 331.914 584.757 334.92C589.634 337.927 586.796 313.575 585.545 311.798Z" fill="black"/>
<path d="M574.678 325.376C574.678 325.376 573.56 334.272 582.053 335.323L582.578 334.334C582.578 334.334 575.203 328.137 574.678 325.376Z" fill="#F2B23D"/>
<path d="M585.282 334.261L583.304 334.68L583.109 334.725C583.109 334.725 577.047 330.445 577.097 320.906C577.097 320.906 578.65 322.582 580.405 324.89C582.511 327.639 584.886 331.327 585.282 334.261Z" fill="#F2B23D"/>
<path opacity="0.1" d="M585.282 334.261L583.304 334.68C581.433 333.037 580.69 328.746 580.421 324.873C582.511 327.639 584.886 331.327 585.282 334.261Z" fill="black"/>
<path d="M585.953 335.177C585.796 335.279 585.62 335.344 585.435 335.368C585.25 335.392 585.063 335.375 584.886 335.317C579.812 334.132 580.74 317.598 580.74 317.598C581.019 317.726 582.114 319.833 583.282 322.549C585.333 327.315 587.579 333.982 585.953 335.177Z" fill="#F2B23D"/>
<path d="M596.412 325.376C596.412 325.376 597.529 334.272 589.037 335.323L588.512 334.334C588.512 334.334 595.887 328.137 596.412 325.376Z" fill="#F2B23D"/>
<path d="M593.976 320.906C594.043 330.461 587.981 334.742 587.981 334.742L587.786 334.697L585.808 334.278C586.199 331.344 588.601 327.656 590.669 324.89C592.423 322.582 593.976 320.906 593.976 320.906Z" fill="#F2B23D"/>
<path opacity="0.1" d="M590.669 324.873C590.412 328.483 589.752 332.456 588.149 334.311C588.039 334.445 587.918 334.568 587.786 334.68L585.808 334.261C586.199 331.327 588.579 327.639 590.669 324.873Z" fill="black"/>
<path d="M587.752 334.317C587.453 334.69 587.07 334.987 586.634 335.183C586.502 335.243 586.363 335.29 586.221 335.323C584.97 335.613 584.545 334.714 584.606 333.182C584.729 330.461 586.439 325.739 587.959 322.202C589.076 319.66 590.087 317.732 590.356 317.604C590.356 317.598 591.065 330.472 587.752 334.317Z" fill="#F2B23D"/>
<path opacity="0.1" d="M585.952 335.177C585.664 335.181 585.381 335.091 585.148 334.92C582.762 333.434 582.712 327.857 583.282 322.549C585.332 327.315 587.578 333.982 585.952 335.177Z" fill="black"/>
<path opacity="0.1" d="M587.752 334.317C587.478 334.915 587.109 335.228 586.634 335.183C586.391 335.154 586.159 335.065 585.958 334.926C585.336 334.5 584.864 333.891 584.606 333.183C584.729 330.461 586.439 325.74 587.958 322.202C588.506 327.103 588.69 332.3 587.752 334.317Z" fill="black"/>
<path d="M585.545 311.798C585.545 311.798 580.673 331.914 585.545 334.92C590.417 337.927 586.796 313.575 585.545 311.798Z" fill="#F2B23D"/>
<path d="M594.898 333.937H574.61V337.295H577.706L577.784 337.692L579.024 344.213H590.819L592.059 337.692L592.132 337.295H594.898V333.937Z" fill="#4B4770"/>
<path opacity="0.1" d="M594.898 333.937H574.61V337.295H577.706L577.784 337.692L579.024 344.213H590.819L592.059 337.692L592.132 337.295H594.898V333.937Z" fill="black"/>
<path d="M593.188 335.909L592.848 337.692L591.607 344.213H579.813L578.572 337.692L578.231 335.909H593.188Z" fill="#4B4770"/>
<path opacity="0.1" d="M593.188 335.909L592.848 337.692H578.572L578.231 335.909H593.188Z" fill="black"/>
<path d="M595.686 333.937H575.398V337.295H595.686V333.937Z" fill="#4B4770"/>
<path d="M77.8799 391.403C77.3451 392.14 76.9162 392.949 76.606 393.806C76.5278 394.012 76.4496 394.253 76.3713 394.482C76.2296 394.415 76.0818 394.363 75.9299 394.325C75.2787 394.161 74.6049 394.104 73.9353 394.158C73.9353 393.895 73.9688 393.599 73.9744 393.336C74.0582 390.391 73.7118 386.29 70.9015 388.028C68.2084 389.704 70.1304 392.498 71.8681 394.286C72.0189 394.443 72.1698 394.588 72.315 394.728C70.7283 395.845 70.4266 398.488 70.164 401.232C69.9014 403.975 67.5715 406.976 66.0238 408.68C65.8674 408.854 65.7277 409.01 65.588 409.155C64.9624 408.656 64.2382 408.295 63.463 408.096C62.6878 407.896 61.8792 407.863 61.0903 407.999C61.0289 407.758 60.9562 407.507 60.8836 407.244C59.6321 402.724 57.034 394.895 53.7208 393.18L54.1566 392.621C55.5646 390.783 57.1514 388.044 54.8103 387.346C52.4693 386.648 52.257 389.715 52.3855 392.017C52.4078 392.308 52.4302 392.582 52.4525 392.839C51.9845 392.86 51.5259 392.977 51.1049 393.183C50.684 393.389 50.3098 393.679 50.0053 394.035L49.6421 393.604C47.7425 391.369 44.2617 387.81 43.2057 390.498C42.2223 393.001 45.2897 396.253 47.4464 398.136L47.5805 398.253C46.1334 404.126 52.4525 408.915 55.8551 411.011L56.2965 411.279C51.6032 416.811 48.7035 427.182 48.7035 427.182L61.8446 429.529C61.8446 429.529 70.5606 422.007 69.4432 414.944H69.5326C78.2431 413.201 80.2209 403.914 78.8632 398.399L79.0197 398.337C80.6067 397.688 81.997 396.637 83.0536 395.286C85.4897 391.906 80.3941 388.084 77.8799 391.403Z" fill="#F2B23D"/>
<path opacity="0.1" d="M77.8799 391.403C77.3451 392.14 76.9162 392.949 76.606 393.806C76.5278 394.012 76.4496 394.253 76.3713 394.482C76.2296 394.415 76.0818 394.363 75.9299 394.325C75.2787 394.161 74.6049 394.104 73.9353 394.158C73.9353 393.895 73.9688 393.599 73.9744 393.336C74.0582 390.391 73.7118 386.29 70.9015 388.028C68.2084 389.704 70.1304 392.498 71.8681 394.286C72.0189 394.443 72.1698 394.588 72.315 394.728C70.7283 395.845 70.4266 398.488 70.164 401.232C69.9014 403.975 67.5715 406.976 66.0238 408.68C65.8674 408.854 65.7277 409.01 65.588 409.155C64.9624 408.656 64.2382 408.295 63.463 408.096C62.6878 407.896 61.8792 407.863 61.0903 407.999C61.0289 407.758 60.9562 407.507 60.8836 407.244C59.6321 402.724 57.034 394.895 53.7208 393.18L54.1566 392.621C55.5646 390.783 57.1514 388.044 54.8103 387.346C52.4693 386.648 52.257 389.715 52.3855 392.017C52.4078 392.308 52.4302 392.582 52.4525 392.839C51.9845 392.86 51.5259 392.977 51.1049 393.183C50.684 393.389 50.3098 393.679 50.0053 394.035L49.6421 393.604C47.7425 391.369 44.2617 387.81 43.2057 390.498C42.2223 393.001 45.2897 396.253 47.4464 398.136L47.5805 398.253C46.1334 404.126 52.4525 408.915 55.8551 411.011L56.2965 411.279C51.6032 416.811 48.7035 427.182 48.7035 427.182L61.8446 429.529C61.8446 429.529 70.5606 422.007 69.4432 414.944H69.5326C78.2431 413.201 80.2209 403.914 78.8632 398.399L79.0197 398.337C80.6067 397.688 81.997 396.637 83.0536 395.286C85.4897 391.906 80.3941 388.084 77.8799 391.403Z" fill="black"/>
<path d="M51.7207 395.224L50.1842 399.695C50.1842 399.695 49.3294 399.091 48.2511 398.141C46.0944 396.258 43.027 393.006 44.0104 390.503C45.0663 387.815 48.5472 391.363 50.4468 393.61C51.2123 394.504 51.7207 395.224 51.7207 395.224Z" fill="#F2B23D"/>
<path d="M54.9612 392.626C54.4945 393.241 53.9946 393.83 53.4638 394.391C53.3327 393.607 53.2413 392.816 53.19 392.022C53.0615 389.72 53.3074 386.664 55.6149 387.351C57.9224 388.039 56.3692 390.788 54.9612 392.626Z" fill="#F2B23D"/>
<path d="M74.807 393.336C74.7623 394.817 74.6171 396.001 74.6171 396.001C73.9412 395.472 73.301 394.899 72.7007 394.286C70.963 392.481 69.0411 389.698 71.7341 388.027C74.5165 386.284 74.8629 390.391 74.807 393.336Z" fill="#F2B23D"/>
<path d="M83.8584 395.275C82.8018 396.625 81.4114 397.677 79.8245 398.326C79.3839 398.516 78.9324 398.681 78.4724 398.818L76.6621 396.275C76.8522 395.435 77.1024 394.61 77.4108 393.805C77.721 392.949 78.1498 392.14 78.6847 391.402C81.1877 388.083 86.2944 391.905 83.8584 395.275Z" fill="#F2B23D"/>
<path opacity="0.1" d="M50.4467 393.61C51.2122 394.504 51.7206 395.197 51.7206 395.197L50.1841 399.666C50.1841 399.666 49.3293 399.063 48.251 398.113C48.4906 396.673 49.0859 395.315 49.983 394.163C50.1339 393.979 50.2959 393.789 50.4467 393.61Z" fill="black"/>
<path opacity="0.1" d="M54.9616 392.626C54.4948 393.241 53.995 393.831 53.4642 394.392C53.333 393.607 53.2417 392.816 53.1904 392.023C53.829 392.036 54.4477 392.247 54.9616 392.626Z" fill="black"/>
<path d="M62.5153 410.485L58.6937 412.162C58.6937 412.162 57.8612 411.759 56.6599 411.01C52.6427 408.541 44.5692 402.321 49.9553 394.99C55.3414 387.659 59.8837 400.807 61.6884 407.239C62.2304 409.194 62.5153 410.485 62.5153 410.485Z" fill="#F2B23D"/>
<path opacity="0.1" d="M72.6729 394.286C73.2287 393.713 73.9819 393.373 74.7792 393.336C74.7345 394.817 74.5893 396.001 74.5893 396.001C73.9134 395.472 73.2732 394.899 72.6729 394.286Z" fill="black"/>
<path opacity="0.1" d="M79.8357 398.325C79.3952 398.516 78.9437 398.68 78.4836 398.817L76.6733 396.275C76.8634 395.435 77.1136 394.61 77.422 393.805C78.5786 394.487 79.439 396.186 79.8357 398.325Z" fill="black"/>
<path d="M70.3374 414.933C70.1307 414.978 69.9128 415.017 69.6949 415.05C56.8834 416.995 65.471 410.083 65.471 410.083C65.471 410.083 66.0297 409.524 66.8287 408.68C68.3763 406.976 70.7006 403.992 70.9688 401.232C71.3711 397.08 71.8348 393.185 76.7348 394.325C81.5454 395.454 82.4673 412.502 70.3374 414.933Z" fill="#F2B23D"/>
<path d="M70.0972 446.834H45.6196V453.271H70.0972V446.834Z" fill="#D4DFEC"/>
<path d="M73.7121 425.913H41.731V448.377H73.7121V425.913Z" fill="#D4DFEC"/>
<path opacity="0.1" d="M70.0972 446.834H45.6196V453.271H70.0972V446.834Z" fill="black"/>
<path opacity="0.1" d="M73.7121 425.913H41.731V448.377H73.7121V425.913Z" fill="black"/>
<path d="M71.7061 446.834H47.2285V453.271H71.7061V446.834Z" fill="#D4DFEC"/>
<path opacity="0.1" d="M61.6882 407.244C62.2469 409.166 62.5151 410.485 62.5151 410.485L58.6934 412.161C58.6934 412.161 57.8609 411.759 56.6597 411.01C58.157 409.116 59.8444 407.686 61.6882 407.244Z" fill="black"/>
<path opacity="0.1" d="M70.3374 414.932C70.1307 414.977 69.9128 415.016 69.6949 415.05C56.8834 416.994 65.471 410.083 65.471 410.083C65.471 410.083 66.0297 409.524 66.8287 408.68C69.22 410.597 70.2089 412.753 70.3374 414.932Z" fill="black"/>
<path d="M49.5083 427.187C49.5083 427.187 56.6823 401.483 66.7448 409.412C76.8074 417.342 62.6494 429.529 62.6494 429.529L49.5083 427.187Z" fill="#F2B23D"/>
<path opacity="0.1" d="M53.1288 399.823C53.5731 399.823 53.9333 399.463 53.9333 399.019C53.9333 398.574 53.5731 398.214 53.1288 398.214C52.6844 398.214 52.3242 398.574 52.3242 399.019C52.3242 399.463 52.6844 399.823 53.1288 399.823Z" fill="black"/>
<path opacity="0.1" d="M53.0619 403.578C53.5062 403.578 53.8664 403.218 53.8664 402.774C53.8664 402.329 53.5062 401.969 53.0619 401.969C52.6175 401.969 52.2573 402.329 52.2573 402.774C52.2573 403.218 52.6175 403.578 53.0619 403.578Z" fill="black"/>
<path opacity="0.1" d="M76.3993 400.561C76.8436 400.561 77.2038 400.201 77.2038 399.756C77.2038 399.312 76.8436 398.952 76.3993 398.952C75.9549 398.952 75.5947 399.312 75.5947 399.756C75.5947 400.201 75.9549 400.561 76.3993 400.561Z" fill="black"/>
<path opacity="0.1" d="M57.6263 419.811C58.0707 419.811 58.4309 419.451 58.4309 419.006C58.4309 418.562 58.0707 418.202 57.6263 418.202C57.182 418.202 56.8218 418.562 56.8218 419.006C56.8218 419.451 57.182 419.811 57.6263 419.811Z" fill="black"/>
<path opacity="0.1" d="M74.7235 406.797C75.1678 406.797 75.5281 406.437 75.5281 405.992C75.5281 405.548 75.1678 405.188 74.7235 405.188C74.2792 405.188 73.9189 405.548 73.9189 405.992C73.9189 406.437 74.2792 406.797 74.7235 406.797Z" fill="black"/>
<path opacity="0.1" d="M66.4095 415.117C66.8539 415.117 67.2141 414.757 67.2141 414.313C67.2141 413.869 66.8539 413.508 66.4095 413.508C65.9652 413.508 65.605 413.869 65.605 414.313C65.605 414.757 65.9652 415.117 66.4095 415.117Z" fill="black"/>
<path opacity="0.1" d="M55.8778 401.433C56.3221 401.433 56.6824 401.072 56.6824 400.628C56.6824 400.184 56.3221 399.823 55.8778 399.823C55.4335 399.823 55.0732 400.184 55.0732 400.628C55.0732 401.072 55.4335 401.433 55.8778 401.433Z" fill="black"/>
<path opacity="0.1" d="M74.1869 402.975C74.6312 402.975 74.9914 402.615 74.9914 402.17C74.9914 401.726 74.6312 401.366 74.1869 401.366C73.7425 401.366 73.3823 401.726 73.3823 402.17C73.3823 402.615 73.7425 402.975 74.1869 402.975Z" fill="black"/>
<path opacity="0.1" d="M71.4379 409.211C71.8822 409.211 72.2424 408.851 72.2424 408.406C72.2424 407.962 71.8822 407.602 71.4379 407.602C70.9935 407.602 70.6333 407.962 70.6333 408.406C70.6333 408.851 70.9935 409.211 71.4379 409.211Z" fill="black"/>
<path opacity="0.1" d="M62.9901 419.208C63.4344 419.208 63.7947 418.848 63.7947 418.403C63.7947 417.959 63.4344 417.599 62.9901 417.599C62.5458 417.599 62.1855 417.959 62.1855 418.403C62.1855 418.848 62.5458 419.208 62.9901 419.208Z" fill="black"/>
<path opacity="0.1" d="M61.2469 415.251C61.6913 415.251 62.0515 414.891 62.0515 414.447C62.0515 414.003 61.6913 413.642 61.2469 413.642C60.8026 413.642 60.4424 414.003 60.4424 414.447C60.4424 414.891 60.8026 415.251 61.2469 415.251Z" fill="black"/>
<path opacity="0.1" d="M57.0843 406.327C57.5287 406.327 57.8889 405.967 57.8889 405.523C57.8889 405.078 57.5287 404.718 57.0843 404.718C56.64 404.718 56.2798 405.078 56.2798 405.523C56.2798 405.967 56.64 406.327 57.0843 406.327Z" fill="black"/>
<path opacity="0.1" d="M71.7061 446.834H47.2285V449.187H71.7061V446.834Z" fill="black"/>
<path d="M75.321 425.913H43.3398V448.377H75.321V425.913Z" fill="#D4DFEC"/>
<path opacity="0.1" d="M64.0629 422.829C64.5072 422.829 64.8674 422.468 64.8674 422.024C64.8674 421.58 64.5072 421.219 64.0629 421.219C63.6185 421.219 63.2583 421.58 63.2583 422.024C63.2583 422.468 63.6185 422.829 64.0629 422.829Z" fill="black"/>
<path opacity="0.1" d="M59.2357 423.834C59.6801 423.834 60.0403 423.474 60.0403 423.03C60.0403 422.586 59.6801 422.225 59.2357 422.225C58.7914 422.225 58.4312 422.586 58.4312 423.03C58.4312 423.474 58.7914 423.834 59.2357 423.834Z" fill="black"/>
<path opacity="0.1" d="M27.936 34.9017C31.1637 34.9017 33.7802 32.2849 33.7802 29.0568C33.7802 25.8288 31.1637 23.2119 27.936 23.2119C24.7083 23.2119 22.0918 25.8288 22.0918 29.0568C22.0918 32.2849 24.7083 34.9017 27.936 34.9017Z" fill="#F2B23D"/>
<path opacity="0.1" d="M589.21 220.771C593.53 220.771 597.032 217.269 597.032 212.948C597.032 208.628 593.53 205.125 589.21 205.125C584.89 205.125 581.388 208.628 581.388 212.948C581.388 217.269 584.89 220.771 589.21 220.771Z" fill="#F2B23D"/>
<path opacity="0.1" d="M604.29 201.896C607.443 201.896 610 199.339 610 196.185C610 193.031 607.443 190.474 604.29 190.474C601.136 190.474 598.58 193.031 598.58 196.185C598.58 199.339 601.136 201.896 604.29 201.896Z" fill="#F2B23D"/>
<path opacity="0.1" d="M37.993 15.646C42.313 15.646 45.8151 12.1436 45.8151 7.82302C45.8151 3.50249 42.313 0 37.993 0C33.673 0 30.1709 3.50249 30.1709 7.82302C30.1709 12.1436 33.673 15.646 37.993 15.646Z" fill="#F2B23D"/>
<path opacity="0.1" d="M7.82209 51.4085C12.1421 51.4085 15.6442 47.906 15.6442 43.5855C15.6442 39.2649 12.1421 35.7625 7.82209 35.7625C3.50207 35.7625 0 39.2649 0 43.5855C0 47.906 3.50207 51.4085 7.82209 51.4085Z" fill="#F2B23D"/>
</g>
<defs>
<linearGradient id="paint0_linear" x1="294.518" y1="433.535" x2="294.518" y2="106.365" gradientUnits="userSpaceOnUse">
<stop stop-color="#808080" stop-opacity="0.25"/>
<stop offset="0.54" stop-color="#808080" stop-opacity="0.12"/>
<stop offset="1" stop-color="#808080" stop-opacity="0.1"/>
</linearGradient>
<clipPath id="clip0">
<rect width="610" height="463" fill="white"/>
</clipPath>
</defs>
</svg>
