<svg width="610" height="590" viewBox="0 0 610 590" fill="none" xmlns="http://www.w3.org/2000/svg">
<g clip-path="url(#clip0)">
<g opacity="0.5">
<path opacity="0.5" d="M91.114 185.617C141.077 185.617 181.58 145.148 181.58 95.2266C181.58 45.3052 141.077 4.83594 91.114 4.83594C41.151 4.83594 0.647949 45.3052 0.647949 95.2266C0.647949 145.148 41.151 185.617 91.114 185.617Z" fill="url(#paint0_linear)"/>
</g>
<path d="M91.1141 183.215C140.021 183.215 179.668 143.601 179.668 94.7351C179.668 45.8691 140.021 6.25537 91.1141 6.25537C42.2073 6.25537 2.56055 45.8691 2.56055 94.7351C2.56055 143.601 42.2073 183.215 91.1141 183.215Z" fill="#F5F5F5"/>
<path d="M91.3638 183.464C108.668 183.493 125.598 178.431 140.043 168.91C136.78 151.096 124.361 150.074 124.361 150.074H55.8924C55.8924 150.074 44.1831 151.033 40.5142 167.428C55.4006 177.891 73.1635 183.492 91.3638 183.464Z" fill="#F2B23D"/>
<path d="M90.4346 132.01C112.116 132.01 129.692 114.448 129.692 92.7852C129.692 71.122 112.116 53.5605 90.4346 53.5605C68.7534 53.5605 51.1772 71.122 51.1772 92.7852C51.1772 114.448 68.7534 132.01 90.4346 132.01Z" fill="#333333"/>
<path opacity="0.1" d="M76.6411 128.36H104.033V150.253C104.033 153.882 102.591 157.361 100.023 159.927C97.455 162.493 93.9724 163.934 90.341 163.934C86.7096 163.934 83.227 162.493 80.6592 159.927C78.0915 157.361 76.6489 153.882 76.6489 150.253V128.36H76.6411Z" fill="black"/>
<path d="M79.2562 127.346H101.418C102.112 127.346 102.777 127.621 103.267 128.111C103.758 128.601 104.033 129.266 104.033 129.959V149.239C104.033 152.868 102.591 156.348 100.023 158.913C97.455 161.479 93.9724 162.92 90.341 162.92C86.7096 162.92 83.227 161.479 80.6592 158.913C78.0915 156.348 76.6489 152.868 76.6489 149.239V129.959C76.6489 129.267 76.9234 128.604 77.4121 128.114C77.9008 127.624 78.564 127.348 79.2562 127.346Z" fill="#BE7C5E"/>
<path opacity="0.1" d="M76.6958 138.694C85.5236 141.991 95.2413 142.018 104.088 138.772V135.41H76.6958V138.694Z" fill="black"/>
<path d="M90.4346 140.527C112.116 140.527 129.692 122.965 129.692 101.302C129.692 79.6391 112.116 62.0776 90.4346 62.0776C68.7534 62.0776 51.1772 79.6391 51.1772 101.302C51.1772 122.965 68.7534 140.527 90.4346 140.527Z" fill="#BE7C5E"/>
<path d="M66.6491 85.1259C67.1097 83.4334 67.6874 81.5692 69.2096 80.6879C70.4117 79.9859 71.9027 80.0951 73.2922 80.1653C84.1428 80.7581 94.8998 78.2856 105.454 75.7039C111.488 74.2297 117.944 72.4358 121.847 67.5766C125.75 62.7174 120.66 47.4456 114.72 45.6438C110.817 44.4505 106.289 46.6734 102.589 44.9263C100.942 44.1463 99.7318 42.6878 98.3111 41.549C95.3994 39.2091 91.6602 38.2653 88.0381 37.3762C83.8072 36.331 79.2327 35.3092 75.2126 36.9862C72.0901 38.2809 69.8107 41.0186 66.8521 42.641C61.2238 45.7608 54.3622 44.3101 47.9143 44.2945C45.7363 44.2945 43.1369 44.7313 42.2704 46.728C41.6849 48.0851 42.1533 49.6295 42.2157 51.1036C42.4031 55.7834 38.539 59.4259 35.2994 62.8032C32.0599 66.1804 28.9998 71.0006 31.0451 75.1969C31.8257 76.7958 33.2542 78.0048 34.0661 79.5881C35.4634 82.3336 34.7608 85.6485 35.2682 88.6825C35.7763 90.9848 36.6373 93.1948 37.8209 95.2343C40.2252 99.9141 52.3014 125.107 57.8516 118.704C60.5369 115.584 60.974 106.567 62.0591 102.511C63.5579 96.6824 65.0879 90.8873 66.6491 85.1259Z" fill="#333333"/>
<path d="M62.5044 106.715C64.522 106.715 66.1577 103.653 66.1577 99.875C66.1577 96.0972 64.522 93.0347 62.5044 93.0347C60.4867 93.0347 58.8511 96.0972 58.8511 99.875C58.8511 103.653 60.4867 106.715 62.5044 106.715Z" fill="#BE7C5E"/>
<g opacity="0.5">
<path opacity="0.5" d="M300.601 382.349C350.564 382.349 391.067 341.879 391.067 291.958C391.067 242.037 350.564 201.567 300.601 201.567C250.638 201.567 210.135 242.037 210.135 291.958C210.135 341.879 250.638 382.349 300.601 382.349Z" fill="url(#paint1_linear)"/>
</g>
<path d="M300.773 379.861C349.68 379.861 389.326 340.247 389.326 291.381C389.326 242.515 349.68 202.901 300.773 202.901C251.866 202.901 212.219 242.515 212.219 291.381C212.219 340.247 251.866 379.861 300.773 379.861Z" fill="#F5F5F5"/>
<path d="M300.851 380.212C318.145 380.234 335.063 375.173 349.499 365.658C346.236 347.843 333.817 346.821 333.817 346.821H265.372C265.372 346.821 253.663 347.781 249.994 364.176C264.882 374.64 282.648 380.241 300.851 380.212Z" fill="#F2B23D"/>
<path d="M299.914 332.228C323.523 332.228 342.661 313.105 342.661 289.517C342.661 265.928 323.523 246.806 299.914 246.806C276.306 246.806 257.167 265.928 257.167 289.517C257.167 313.105 276.306 332.228 299.914 332.228Z" fill="#F55F44"/>
<path opacity="0.1" d="M286.121 325.091H313.513V346.985C313.513 350.613 312.07 354.093 309.502 356.659C306.934 359.224 303.452 360.666 299.82 360.666C296.189 360.666 292.706 359.224 290.139 356.659C287.571 354.093 286.128 350.613 286.128 346.985V325.091H286.121Z" fill="black"/>
<path d="M288.736 324.077H310.897C311.241 324.077 311.581 324.145 311.898 324.276C312.216 324.407 312.504 324.6 312.747 324.842C312.989 325.085 313.182 325.373 313.314 325.69C313.445 326.007 313.513 326.347 313.513 326.69V345.971C313.513 347.767 313.158 349.546 312.47 351.206C311.782 352.866 310.774 354.374 309.502 355.645C308.231 356.915 306.721 357.923 305.06 358.61C303.399 359.298 301.619 359.652 299.82 359.652C298.022 359.652 296.242 359.298 294.581 358.61C292.92 357.923 291.41 356.915 290.139 355.645C288.867 354.374 287.859 352.866 287.171 351.206C286.483 349.546 286.128 347.767 286.128 345.971V326.69C286.128 325.997 286.404 325.332 286.894 324.842C287.385 324.352 288.05 324.077 288.744 324.077H288.736Z" fill="#FDA57D"/>
<path opacity="0.1" d="M286.175 335.426C295.003 338.722 304.721 338.75 313.567 335.504V332.142H286.175V335.426Z" fill="black"/>
<path d="M299.914 337.259C321.595 337.259 339.171 319.697 339.171 298.034C339.171 276.371 321.595 258.81 299.914 258.81C278.233 258.81 260.657 276.371 260.657 298.034C260.657 319.697 278.233 337.259 299.914 337.259Z" fill="#FDA57D"/>
<path d="M299.86 261.859C308.586 261.859 315.66 254.791 315.66 246.072C315.66 237.354 308.586 230.286 299.86 230.286C291.134 230.286 284.06 237.354 284.06 246.072C284.06 254.791 291.134 261.859 299.86 261.859Z" fill="#F55F44"/>
<path d="M299.86 240.893C305.589 240.893 310.234 236.253 310.234 230.528C310.234 224.803 305.589 220.162 299.86 220.162C294.13 220.162 289.485 224.803 289.485 230.528C289.485 236.253 294.13 240.893 299.86 240.893Z" fill="#F55F44"/>
<path d="M293.006 254.73C289.299 253.069 286.375 250.045 284.841 246.286C283.308 242.527 283.282 238.322 284.77 234.545C284.661 234.763 284.551 234.989 284.45 235.215C283.601 237.107 283.133 239.148 283.073 241.22C283.012 243.293 283.362 245.357 284.1 247.295C284.838 249.233 285.951 251.006 287.375 252.514C288.8 254.022 290.507 255.235 292.401 256.084C294.294 256.932 296.336 257.4 298.411 257.46C300.485 257.52 302.551 257.171 304.49 256.433C306.429 255.696 308.204 254.584 309.714 253.161C311.223 251.738 312.437 250.031 313.286 248.14C313.388 247.913 313.481 247.687 313.575 247.453C311.741 251.076 308.58 253.854 304.75 255.209C300.919 256.565 296.713 256.393 293.006 254.73Z" fill="#F55F44"/>
<path opacity="0.1" d="M271.96 262.358C271.96 262.358 288.501 295.897 335.19 276.398L324.324 259.371L305.066 252.46L271.96 262.358Z" fill="black"/>
<path d="M271.96 261.859C271.96 261.859 288.501 295.398 335.19 275.899L324.324 258.872L305.066 251.961L271.96 261.859Z" fill="#F55F44"/>
<path d="M284.708 249.645C294.887 248.845 305.113 248.845 315.292 249.645C315.292 249.645 292.701 251.743 284.708 249.645Z" fill="#333333"/>
<path d="M302.232 219.53C301.448 219.501 300.662 219.562 299.891 219.71H300.492C303.047 219.791 305.481 220.813 307.328 222.579C309.175 224.345 310.303 226.731 310.497 229.278C310.691 231.825 309.936 234.353 308.377 236.378C306.819 238.402 304.566 239.78 302.053 240.246C304.802 240.271 307.449 239.204 309.411 237.279C311.372 235.354 312.488 232.729 312.513 229.982C312.538 227.235 311.47 224.59 309.543 222.63C307.617 220.67 304.99 219.555 302.24 219.53H302.232Z" fill="#F55F44"/>
<path d="M260.649 304.835C262.667 304.835 264.302 301.773 264.302 297.995C264.302 294.217 262.667 291.155 260.649 291.155C258.631 291.155 256.996 294.217 256.996 297.995C256.996 301.773 258.631 304.835 260.649 304.835Z" fill="#FDA57D"/>
<path d="M339.172 304.835C341.19 304.835 342.825 301.773 342.825 297.995C342.825 294.217 341.19 291.155 339.172 291.155C337.154 291.155 335.519 294.217 335.519 297.995C335.519 301.773 337.154 304.835 339.172 304.835Z" fill="#FDA57D"/>
<path d="M269.486 262.85L277.144 258.903L278.869 265.229L274.177 268.419L269.486 262.85Z" fill="#F55F44"/>
<g opacity="0.5">
<path opacity="0.5" d="M300.515 181.179C350.478 181.179 390.981 140.71 390.981 90.7888C390.981 40.8675 350.478 0.398193 300.515 0.398193C250.552 0.398193 210.049 40.8675 210.049 90.7888C210.049 140.71 250.552 181.179 300.515 181.179Z" fill="url(#paint2_linear)"/>
</g>
<path d="M300.515 178.777C349.422 178.777 389.069 139.163 389.069 90.2971C389.069 41.4311 349.422 1.81738 300.515 1.81738C251.609 1.81738 211.962 41.4311 211.962 90.2971C211.962 139.163 251.609 178.777 300.515 178.777Z" fill="#F5F5F5"/>
<path d="M265.973 91.0847C265.973 91.0847 255.934 140.504 250.454 137.766C250.454 137.766 303.302 183.379 349.968 137.766C349.968 137.766 341.748 102.94 329.882 91.0847H265.973Z" fill="#333333"/>
<path d="M300.765 179.042C318.07 179.07 335 174.009 349.445 164.488C346.182 146.673 333.762 145.651 333.762 145.651H265.286C265.286 145.651 253.577 146.611 249.908 163.006C264.796 173.47 282.562 179.072 300.765 179.042Z" fill="#F2B23D"/>
<path d="M299.829 127.572C321.51 127.572 339.086 110.01 339.086 88.3472C339.086 66.684 321.51 49.1226 299.829 49.1226C278.147 49.1226 260.571 66.684 260.571 88.3472C260.571 110.01 278.147 127.572 299.829 127.572Z" fill="#333333"/>
<path opacity="0.1" d="M286.035 123.922H313.427V145.815C313.427 149.44 311.987 152.916 309.425 155.481C306.862 158.046 303.385 159.49 299.758 159.496C296.127 159.496 292.644 158.055 290.076 155.489C287.508 152.923 286.066 149.444 286.066 145.815V123.922H286.035Z" fill="black"/>
<path d="M288.65 122.907H310.812C311.505 122.907 312.17 123.183 312.661 123.673C313.151 124.163 313.427 124.827 313.427 125.52V144.801C313.427 148.426 311.987 151.902 309.425 154.467C306.862 157.032 303.385 158.476 299.758 158.482C296.127 158.482 292.644 157.041 290.076 154.475C287.508 151.909 286.066 148.43 286.066 144.801V125.513C286.068 124.826 286.34 124.168 286.824 123.681C287.307 123.193 287.963 122.916 288.65 122.907Z" fill="#BE7C5E"/>
<path opacity="0.1" d="M286.089 134.256C294.917 137.553 304.635 137.58 313.481 134.334V130.972H286.089V134.256Z" fill="black"/>
<path d="M299.829 136.081C321.51 136.081 339.086 118.52 339.086 96.8565C339.086 75.1933 321.51 57.6318 299.829 57.6318C278.147 57.6318 260.571 75.1933 260.571 96.8565C260.571 118.52 278.147 136.081 299.829 136.081Z" fill="#BE7C5E"/>
<path d="M262.304 81.9592H337.166C337.166 81.9592 330.772 51.7588 302.475 53.6853C274.177 55.6119 262.304 81.9592 262.304 81.9592Z" fill="#333333"/>
<path d="M261.383 102.028C263.4 102.028 265.036 98.9653 265.036 95.1875C265.036 91.4097 263.4 88.3472 261.383 88.3472C259.365 88.3472 257.729 91.4097 257.729 95.1875C257.729 98.9653 259.365 102.028 261.383 102.028Z" fill="#BE7C5E"/>
<path d="M338.071 102.028C340.088 102.028 341.724 98.9653 341.724 95.1875C341.724 91.4097 340.088 88.3472 338.071 88.3472C336.053 88.3472 334.417 91.4097 334.417 95.1875C334.417 98.9653 336.053 102.028 338.071 102.028Z" fill="#BE7C5E"/>
<path opacity="0.1" d="M262.304 82.9731H337.166C337.166 82.9731 330.772 52.7727 302.475 54.6992C274.177 56.6258 262.304 82.9731 262.304 82.9731Z" fill="black"/>
<g opacity="0.5">
<path opacity="0.5" d="M516.17 180.781C566.133 180.781 606.636 140.312 606.636 90.3906C606.636 40.4693 566.133 0 516.17 0C466.207 0 425.704 40.4693 425.704 90.3906C425.704 140.312 466.207 180.781 516.17 180.781Z" fill="url(#paint3_linear)"/>
</g>
<path d="M516.341 178.285C565.248 178.285 604.895 138.672 604.895 89.8056C604.895 40.9397 565.248 1.32593 516.341 1.32593C467.434 1.32593 427.788 40.9397 427.788 89.8056C427.788 138.672 467.434 178.285 516.341 178.285Z" fill="#F5F5F5"/>
<path d="M516.419 178.644C533.724 178.673 550.654 173.611 565.098 164.09C561.828 146.268 549.416 145.246 549.416 145.246H480.948C480.948 145.246 469.238 146.205 465.569 162.6C480.455 173.065 498.218 178.67 516.419 178.644Z" fill="#F2B23D"/>
<path d="M515.49 130.653C539.099 130.653 558.237 111.53 558.237 87.9416C558.237 64.3529 539.099 45.2305 515.49 45.2305C491.882 45.2305 472.744 64.3529 472.744 87.9416C472.744 111.53 491.882 130.653 515.49 130.653Z" fill="#72351C"/>
<path opacity="0.1" d="M501.689 123.516H529.081V145.41C529.084 147.208 528.732 148.99 528.045 150.652C527.359 152.315 526.351 153.826 525.079 155.098C523.807 156.371 522.297 157.381 520.634 158.07C518.971 158.759 517.189 159.114 515.389 159.114C511.757 159.114 508.275 157.672 505.707 155.107C503.139 152.541 501.697 149.061 501.697 145.433V123.516H501.689Z" fill="black"/>
<path d="M504.281 122.502H526.442C527.136 122.502 527.801 122.777 528.292 123.267C528.782 123.757 529.057 124.422 529.057 125.115V144.396C529.057 148.024 527.615 151.504 525.047 154.069C522.479 156.635 518.997 158.076 515.365 158.076C511.734 158.076 508.251 156.635 505.684 154.069C503.116 151.504 501.673 148.024 501.673 144.396V125.115C501.673 124.422 501.949 123.757 502.439 123.267C502.93 122.777 503.595 122.502 504.288 122.502H504.281Z" fill="#FDA57D"/>
<path opacity="0.1" d="M501.72 133.851C510.548 137.147 520.266 137.175 529.112 133.929V130.567H501.72V133.851Z" fill="black"/>
<path d="M515.49 135.683C537.172 135.683 554.748 118.122 554.748 96.4588C554.748 74.7956 537.172 57.2341 515.49 57.2341C493.809 57.2341 476.233 74.7956 476.233 96.4588C476.233 118.122 493.809 135.683 515.49 135.683Z" fill="#FDA57D"/>
<path opacity="0.1" d="M487.528 60.7831C487.528 60.7831 504.07 94.3218 550.759 74.8225L539.892 57.7958L520.634 50.8853L487.528 60.7831Z" fill="black"/>
<path d="M487.528 60.2916C487.528 60.2916 504.07 93.8303 550.759 74.3311L539.892 57.3043L520.634 50.3938L487.528 60.2916Z" fill="#72351C"/>
<path d="M487.38 58.022C488.495 54.572 490.423 51.4399 493 48.8885C500.721 41.2604 513.382 39.6537 519.877 30.9492C520.23 31.5653 520.45 32.2484 520.522 32.9545C520.594 33.6606 520.518 34.374 520.297 35.0487C520.076 35.7234 519.717 36.3444 519.241 36.8716C518.765 37.3987 518.184 37.8204 517.535 38.1093C523.78 38.0703 530.97 37.5244 534.483 32.4078C535.352 34.4297 535.629 36.6565 535.283 38.8297C534.936 41.0028 533.979 43.033 532.523 44.6845C538.034 44.9341 543.92 48.6701 544.279 54.1767C544.514 57.8426 542.219 61.3134 539.198 63.4193C536.177 65.5253 532.539 66.469 528.948 67.249C518.472 69.5889 480.542 79.2683 487.38 58.022Z" fill="#72351C"/>
<path d="M554.748 96.802H553.709L533.46 114.827C513.945 105.701 499.628 114.827 499.628 114.827L478.395 97.5586L476.256 97.8238C476.546 108.119 480.877 117.887 488.313 125.02C495.749 132.152 505.695 136.075 516.002 135.943C526.309 135.811 536.15 131.634 543.401 124.313C550.652 116.993 554.73 107.117 554.756 96.8176L554.748 96.802ZM515.436 121.722C507.801 121.722 501.611 120.162 501.611 118.267C501.611 116.371 507.801 114.812 515.436 114.812C523.07 114.812 529.26 116.371 529.26 118.267C529.26 120.162 523.07 121.722 515.428 121.722H515.436Z" fill="#72351C"/>
<path d="M476.217 103.26C478.235 103.26 479.871 100.197 479.871 96.4197C479.871 92.6419 478.235 89.5793 476.217 89.5793C474.2 89.5793 472.564 92.6419 472.564 96.4197C472.564 100.197 474.2 103.26 476.217 103.26Z" fill="#FDA57D"/>
<path d="M554.74 103.26C556.758 103.26 558.393 100.197 558.393 96.4197C558.393 92.6419 556.758 89.5793 554.74 89.5793C552.723 89.5793 551.087 92.6419 551.087 96.4197C551.087 100.197 552.723 103.26 554.74 103.26Z" fill="#FDA57D"/>
<g opacity="0.5">
<path opacity="0.5" d="M90.4661 376.429C140.429 376.429 180.932 335.96 180.932 286.038C180.932 236.117 140.429 195.647 90.4661 195.647C40.503 195.647 0 236.117 0 286.038C0 335.96 40.503 376.429 90.4661 376.429Z" fill="url(#paint4_linear)"/>
</g>
<path d="M90.638 373.941C139.545 373.941 179.192 334.327 179.192 285.461C179.192 236.595 139.545 196.981 90.638 196.981C41.7313 196.981 2.08447 236.595 2.08447 285.461C2.08447 334.327 41.7313 373.941 90.638 373.941Z" fill="#F5F5F5"/>
<path d="M90.7158 374.292C108.018 374.319 124.945 369.257 139.387 359.737C136.124 341.923 123.705 340.901 123.705 340.901H55.2054C55.2054 340.901 43.4961 341.86 39.8271 358.255C54.7245 368.726 72.5021 374.328 90.7158 374.292Z" fill="#F2B23D"/>
<path d="M89.779 326.308C113.387 326.308 132.526 307.186 132.526 283.597C132.526 260.008 113.387 240.886 89.779 240.886C66.1706 240.886 47.0322 260.008 47.0322 283.597C47.0322 307.186 66.1706 326.308 89.779 326.308Z" fill="#333333"/>
<path opacity="0.1" d="M75.9854 319.171H103.377V341.065C103.377 344.693 101.935 348.173 99.367 350.739C96.7992 353.304 93.3166 354.746 89.6852 354.746C86.0539 354.746 82.5712 353.304 80.0035 350.739C77.4357 348.173 75.9932 344.693 75.9932 341.065V319.171H75.9854Z" fill="black"/>
<path d="M78.6004 318.157H100.762C101.456 318.157 102.121 318.433 102.611 318.923C103.102 319.413 103.377 320.077 103.377 320.77V340.067C103.377 343.695 101.935 347.175 99.367 349.74C96.7992 352.306 93.3166 353.747 89.6852 353.747C87.8865 353.748 86.1052 353.395 84.4431 352.708C82.781 352.021 81.2707 351.013 79.9984 349.743C78.7262 348.473 77.7169 346.964 77.0283 345.304C76.3398 343.643 75.9854 341.864 75.9854 340.067V320.762C75.9854 320.069 76.2609 319.405 76.7513 318.915C77.2417 318.425 77.9069 318.149 78.6004 318.149V318.157Z" fill="#FDB797"/>
<path opacity="0.1" d="M76.04 329.506C84.8678 332.802 94.5855 332.83 103.432 329.584V326.199H76.04V329.506Z" fill="black"/>
<path d="M89.7794 331.339C111.461 331.339 129.037 313.777 129.037 292.114C129.037 270.451 111.461 252.889 89.7794 252.889C68.0981 252.889 50.522 270.451 50.522 292.114C50.522 313.777 68.0981 331.339 89.7794 331.339Z" fill="#FDB797"/>
<path opacity="0.1" d="M61.8252 256.431C61.8252 256.431 78.3665 289.969 125.055 270.47L114.189 253.443L94.9313 246.533L61.8252 256.431Z" fill="black"/>
<path d="M61.8252 255.939C61.8252 255.939 78.3665 289.478 125.055 269.978L114.189 252.952L94.9313 246.041L61.8252 255.939Z" fill="#333333"/>
<path d="M61.677 253.662C62.7922 250.212 64.7197 247.08 67.2975 244.528C75.0178 236.9 87.6795 235.293 94.1742 226.589C94.5271 227.205 94.7468 227.888 94.8191 228.594C94.8915 229.3 94.8148 230.014 94.5942 230.688C94.3735 231.363 94.0137 231.984 93.538 232.511C93.0623 233.038 92.4813 233.46 91.8324 233.749C98.0773 233.71 105.267 233.164 108.78 228.047C109.649 230.069 109.926 232.296 109.58 234.469C109.233 236.642 108.276 238.673 106.82 240.324C112.331 240.574 118.217 244.31 118.576 249.816C118.811 253.482 116.516 256.953 113.495 259.059C110.474 261.165 106.828 262.124 103.237 262.92C92.7613 265.244 54.8388 274.924 61.677 253.662Z" fill="#333333"/>
<path d="M50.5063 298.915C52.524 298.915 54.1596 295.853 54.1596 292.075C54.1596 288.297 52.524 285.235 50.5063 285.235C48.4887 285.235 46.853 288.297 46.853 292.075C46.853 295.853 48.4887 298.915 50.5063 298.915Z" fill="#FDB797"/>
<path d="M129.029 298.915C131.046 298.915 132.682 295.853 132.682 292.075C132.682 288.297 131.046 285.235 129.029 285.235C127.011 285.235 125.375 288.297 125.375 292.075C125.375 295.853 127.011 298.915 129.029 298.915Z" fill="#FDB797"/>
<g opacity="0.5">
<path opacity="0.5" d="M519.542 386.451C569.505 386.451 610.008 345.982 610.008 296.061C610.008 246.139 569.505 205.67 519.542 205.67C469.579 205.67 429.076 246.139 429.076 296.061C429.076 345.982 469.579 386.451 519.542 386.451Z" fill="url(#paint5_linear)"/>
</g>
<path d="M519.542 384.049C568.449 384.049 608.095 344.436 608.095 295.57C608.095 246.704 568.449 207.09 519.542 207.09C470.635 207.09 430.988 246.704 430.988 295.57C430.988 344.436 470.635 384.049 519.542 384.049Z" fill="#F5F5F5"/>
<path d="M519.792 384.314C537.096 384.343 554.026 379.281 568.471 369.76C565.208 351.946 552.788 350.924 552.788 350.924H484.312C484.312 350.924 472.603 351.883 468.934 368.278C483.823 378.742 501.589 384.344 519.792 384.314Z" fill="#F2B23D"/>
<path opacity="0.1" d="M505.061 329.194H532.453V351.088C532.453 354.716 531.01 358.196 528.443 360.761C525.875 363.327 522.392 364.768 518.761 364.768C516.962 364.769 515.181 364.416 513.519 363.729C511.857 363.042 510.346 362.035 509.074 360.764C507.802 359.494 506.793 357.985 506.104 356.325C505.415 354.664 505.061 352.885 505.061 351.088V329.194Z" fill="black"/>
<path d="M507.676 328.18H529.838C530.531 328.18 531.197 328.455 531.687 328.945C532.178 329.435 532.453 330.1 532.453 330.793V350.074C532.453 353.702 531.01 357.182 528.443 359.747C525.875 362.313 522.392 363.754 518.761 363.754C516.962 363.755 515.181 363.402 513.519 362.715C511.857 362.028 510.346 361.021 509.074 359.75C507.802 358.48 506.793 356.971 506.104 355.311C505.415 353.65 505.061 351.871 505.061 350.074V330.793C505.061 330.1 505.337 329.435 505.827 328.945C506.317 328.455 506.983 328.18 507.676 328.18Z" fill="#FDB797"/>
<path opacity="0.1" d="M505.116 339.528C513.944 342.825 523.661 342.853 532.508 339.606V336.245H505.116V339.528Z" fill="black"/>
<path d="M518.855 341.361C540.536 341.361 558.112 323.8 558.112 302.137C558.112 280.474 540.536 262.912 518.855 262.912C497.174 262.912 479.598 280.474 479.598 302.137C479.598 323.8 497.174 341.361 518.855 341.361Z" fill="#FDB797"/>
<path d="M480.409 307.3C482.427 307.3 484.062 304.238 484.062 300.46C484.062 296.682 482.427 293.619 480.409 293.619C478.391 293.619 476.756 296.682 476.756 300.46C476.756 304.238 478.391 307.3 480.409 307.3Z" fill="#FDB797"/>
<path d="M557.097 307.3C559.115 307.3 560.75 304.238 560.75 300.46C560.75 296.682 559.115 293.619 557.097 293.619C555.079 293.619 553.444 296.682 553.444 300.46C553.444 304.238 555.079 307.3 557.097 307.3Z" fill="#FDB797"/>
<path d="M508.332 302.324H498.332C496.457 302.324 494.937 303.843 494.937 305.717V307.324C494.937 309.197 496.457 310.716 498.332 310.716H508.332C510.207 310.716 511.728 309.197 511.728 307.324V305.717C511.728 303.843 510.207 302.324 508.332 302.324Z" stroke="#333333" stroke-width="2" stroke-miterlimit="10"/>
<path d="M529.385 310.708H539.385C541.26 310.708 542.781 309.189 542.781 307.316V305.709C542.781 303.835 541.26 302.316 539.385 302.316H529.385C527.51 302.316 525.99 303.835 525.99 305.709V307.316C525.99 309.189 527.51 310.708 529.385 310.708Z" stroke="#333333" stroke-width="2" stroke-miterlimit="10"/>
<path d="M511.088 303.135C511.088 303.135 516.412 300.249 526.31 303.135" stroke="#333333" stroke-width="2" stroke-miterlimit="10"/>
<path d="M545.997 273.707L555.63 296.068C555.63 296.068 567.409 281.233 545.997 273.707Z" fill="#858585"/>
<path d="M542.781 306.52L557.16 293.69" stroke="#333333" stroke-width="2" stroke-linecap="round" stroke-linejoin="round"/>
<path d="M491.728 273.707L482.096 296.068C482.096 296.068 470.316 281.233 491.728 273.707Z" fill="#858585"/>
<path d="M494.936 306.52L480.362 293.69" stroke="#333333" stroke-width="2" stroke-linecap="round" stroke-linejoin="round"/>
<g opacity="0.5">
<path opacity="0.5" d="M91.114 579.634C141.077 579.634 181.58 539.165 181.58 489.243C181.58 439.322 141.077 398.853 91.114 398.853C41.151 398.853 0.647949 439.322 0.647949 489.243C0.647949 539.165 41.151 579.634 91.114 579.634Z" fill="url(#paint6_linear)"/>
</g>
<path d="M91.1141 577.232C140.021 577.232 179.668 537.618 179.668 488.752C179.668 439.886 140.021 400.272 91.1141 400.272C42.2073 400.272 2.56055 439.886 2.56055 488.752C2.56055 537.618 42.2073 577.232 91.1141 577.232Z" fill="#F5F5F5"/>
<path d="M140.098 496.708C140.098 529.295 118.818 565.571 92.5661 565.571C66.3139 565.571 45.0576 529.295 45.0576 496.708C45.0576 464.121 66.3373 447.57 92.5896 447.57C118.842 447.57 140.098 464.129 140.098 496.708Z" fill="#FDD835"/>
<path d="M91.3638 577.505C108.668 577.533 125.598 572.471 140.043 562.951C136.78 545.136 124.361 544.114 124.361 544.114H55.8924C55.8924 544.114 44.1831 545.074 40.5142 561.469C55.4006 571.931 73.1635 577.533 91.3638 577.505Z" fill="#F2B23D"/>
<path opacity="0.1" d="M76.6411 522.376H104.033V544.27C104.033 547.899 102.591 551.378 100.023 553.944C97.455 556.51 93.9724 557.951 90.341 557.951C86.7096 557.951 83.227 556.51 80.6592 553.944C78.0915 551.378 76.6489 547.899 76.6489 544.27V522.376H76.6411Z" fill="black"/>
<path d="M79.2562 521.363H101.418C102.112 521.363 102.777 521.638 103.267 522.128C103.758 522.618 104.033 523.283 104.033 523.976V543.257C104.033 546.885 102.591 550.365 100.023 552.93C97.455 555.496 93.9724 556.937 90.341 556.937C86.7096 556.937 83.227 555.496 80.6592 552.93C78.0915 550.365 76.6489 546.885 76.6489 543.257V523.976C76.6489 523.284 76.9234 522.621 77.4121 522.131C77.9008 521.641 78.564 521.365 79.2562 521.363Z" fill="#FDB797"/>
<path opacity="0.1" d="M76.6958 532.711C85.5236 536.008 95.2413 536.036 104.088 532.789V529.427H76.6958V532.711Z" fill="black"/>
<path d="M90.4346 534.544C112.116 534.544 129.692 516.983 129.692 495.32C129.692 473.656 112.116 456.095 90.4346 456.095C68.7534 456.095 51.1772 473.656 51.1772 495.32C51.1772 516.983 68.7534 534.544 90.4346 534.544Z" fill="#FDB797"/>
<path d="M51.9892 500.483C54.0069 500.483 55.6425 497.42 55.6425 493.643C55.6425 489.865 54.0069 486.802 51.9892 486.802C49.9716 486.802 48.3359 489.865 48.3359 493.643C48.3359 497.42 49.9716 500.483 51.9892 500.483Z" fill="#FDB797"/>
<path d="M128.677 500.483C130.695 500.483 132.331 497.42 132.331 493.643C132.331 489.865 130.695 486.802 128.677 486.802C126.66 486.802 125.024 489.865 125.024 493.643C125.024 497.42 126.66 500.483 128.677 500.483Z" fill="#FDB797"/>
<path opacity="0.1" d="M55.6504 474.042C55.6504 474.042 77.8434 504.391 128.74 494.025C128.74 494.025 134.423 487.114 120.59 465.899C106.758 444.684 68.2418 448.139 55.6504 474.042Z" fill="black"/>
<path d="M55.6504 473.551C55.6504 473.551 77.8434 503.899 128.74 493.533C128.74 493.533 134.423 486.623 120.59 465.408C106.758 444.192 68.2418 447.648 55.6504 473.551Z" fill="#FDD835"/>
<g opacity="0.5">
<path opacity="0.5" d="M306.027 590C355.99 590 396.493 549.531 396.493 499.609C396.493 449.688 355.99 409.219 306.027 409.219C256.064 409.219 215.561 449.688 215.561 499.609C215.561 549.531 256.064 590 306.027 590Z" fill="url(#paint7_linear)"/>
</g>
<path d="M306.206 587.512C355.113 587.512 394.759 547.898 394.759 499.032C394.759 450.166 355.113 410.552 306.206 410.552C257.299 410.552 217.652 450.166 217.652 499.032C217.652 547.898 257.299 587.512 306.206 587.512Z" fill="#F5F5F5"/>
<path d="M354.925 507.752C354.925 537.188 333.762 551.672 306.276 551.672C278.791 551.672 255.411 537.188 255.411 507.752C255.411 478.316 277.69 454.457 305.168 454.457C332.646 454.457 354.925 478.293 354.925 507.752Z" fill="#333333"/>
<path d="M306.276 587.863C323.584 587.893 340.517 582.831 354.964 573.308C351.701 555.494 339.281 554.472 339.281 554.472H270.805C270.805 554.472 259.096 555.432 255.427 571.826C270.313 582.289 288.076 587.891 306.276 587.863Z" fill="#F2B23D"/>
<path opacity="0.1" d="M291.554 532.719H318.946V554.613C318.949 556.414 318.596 558.198 317.907 559.863C317.219 561.527 316.208 563.039 314.933 564.313C313.658 565.586 312.143 566.595 310.477 567.282C308.811 567.969 307.025 568.321 305.222 568.317C301.591 568.317 298.108 566.875 295.541 564.31C292.973 561.744 291.53 558.264 291.53 554.636V532.719H291.554Z" fill="black"/>
<path d="M294.161 531.729H316.323C317.016 531.729 317.681 532.004 318.172 532.494C318.662 532.984 318.938 533.648 318.938 534.341V553.622C318.938 555.421 318.583 557.202 317.893 558.863C317.204 560.524 316.193 562.033 314.919 563.304C313.645 564.575 312.133 565.582 310.469 566.268C308.805 566.954 307.022 567.306 305.222 567.303C301.591 567.303 298.108 565.861 295.541 563.296C292.973 560.73 291.53 557.251 291.53 553.622V534.334C291.53 533.641 291.806 532.976 292.296 532.486C292.787 531.996 293.452 531.721 294.145 531.721L294.161 531.729Z" fill="#FDA57D"/>
<path opacity="0.1" d="M291.608 543.077C300.436 546.374 310.154 546.401 319 543.155V539.793H291.608V543.077Z" fill="black"/>
<path d="M305.347 544.902C327.029 544.902 344.605 527.341 344.605 505.678C344.605 484.014 327.029 466.453 305.347 466.453C283.666 466.453 266.09 484.014 266.09 505.678C266.09 527.341 283.666 544.902 305.347 544.902Z" fill="#FDA57D"/>
<path opacity="0.1" d="M260.103 508.244C260.103 508.244 284.552 505.28 303.037 481.6C303.037 481.6 327.486 508.493 344.519 505.529C344.519 505.529 354.394 495.163 344.519 484.805C334.644 474.448 326.986 461.367 313.903 463.091C300.82 464.815 284.762 465.556 277.854 471.725C270.945 477.895 260.103 508.244 260.103 508.244Z" fill="black"/>
<path d="M260.103 507.752C260.103 507.752 284.552 504.788 303.037 481.108C303.037 481.108 327.486 508.002 344.519 505.038C344.519 505.038 354.394 494.672 344.519 484.314C334.644 473.956 326.986 460.876 313.903 462.6C300.82 464.323 284.794 465.033 277.885 471.273C270.977 477.513 260.103 507.752 260.103 507.752Z" fill="#333333"/>
<path d="M266.074 512.486C268.092 512.486 269.727 509.424 269.727 505.646C269.727 501.868 268.092 498.806 266.074 498.806C264.057 498.806 262.421 501.868 262.421 505.646C262.421 509.424 264.057 512.486 266.074 512.486Z" fill="#FDA57D"/>
<path d="M344.597 512.486C346.615 512.486 348.25 509.424 348.25 505.646C348.25 501.868 346.615 498.806 344.597 498.806C342.579 498.806 340.944 501.868 340.944 505.646C340.944 509.424 342.579 512.486 344.597 512.486Z" fill="#FDA57D"/>
</g>
<defs>
<linearGradient id="paint0_linear" x1="91.114" y1="185.617" x2="91.114" y2="4.84374" gradientUnits="userSpaceOnUse">
<stop stop-color="#808080" stop-opacity="0.25"/>
<stop offset="0.54" stop-color="#808080" stop-opacity="0.12"/>
<stop offset="1" stop-color="#808080" stop-opacity="0.1"/>
</linearGradient>
<linearGradient id="paint1_linear" x1="69883.5" y1="88822.3" x2="69883.5" y2="46922.7" gradientUnits="userSpaceOnUse">
<stop stop-color="#808080" stop-opacity="0.25"/>
<stop offset="0.54" stop-color="#808080" stop-opacity="0.12"/>
<stop offset="1" stop-color="#808080" stop-opacity="0.1"/>
</linearGradient>
<linearGradient id="paint2_linear" x1="69863.5" y1="41994.1" x2="69863.5" y2="92.5968" gradientUnits="userSpaceOnUse">
<stop stop-color="#808080" stop-opacity="0.25"/>
<stop offset="0.54" stop-color="#808080" stop-opacity="0.12"/>
<stop offset="1" stop-color="#808080" stop-opacity="0.1"/>
</linearGradient>
<linearGradient id="paint3_linear" x1="120063" y1="41899.7" x2="120063" y2="0" gradientUnits="userSpaceOnUse">
<stop stop-color="#808080" stop-opacity="0.25"/>
<stop offset="0.54" stop-color="#808080" stop-opacity="0.12"/>
<stop offset="1" stop-color="#808080" stop-opacity="0.1"/>
</linearGradient>
<linearGradient id="paint4_linear" x1="20968.2" y1="87444.3" x2="20968.2" y2="45544.6" gradientUnits="userSpaceOnUse">
<stop stop-color="#808080" stop-opacity="0.25"/>
<stop offset="0.54" stop-color="#808080" stop-opacity="0.12"/>
<stop offset="1" stop-color="#808080" stop-opacity="0.1"/>
</linearGradient>
<linearGradient id="paint5_linear" x1="120848" y1="89777.4" x2="120848" y2="47877.7" gradientUnits="userSpaceOnUse">
<stop stop-color="#808080" stop-opacity="0.25"/>
<stop offset="0.54" stop-color="#808080" stop-opacity="0.12"/>
<stop offset="1" stop-color="#808080" stop-opacity="0.1"/>
</linearGradient>
<linearGradient id="paint6_linear" x1="21119" y1="134747" x2="21119" y2="92846.8" gradientUnits="userSpaceOnUse">
<stop stop-color="#808080" stop-opacity="0.25"/>
<stop offset="0.54" stop-color="#808080" stop-opacity="0.12"/>
<stop offset="1" stop-color="#808080" stop-opacity="0.1"/>
</linearGradient>
<linearGradient id="paint7_linear" x1="71146.4" y1="137159" x2="71146.4" y2="95259.7" gradientUnits="userSpaceOnUse">
<stop stop-color="#808080" stop-opacity="0.25"/>
<stop offset="0.54" stop-color="#808080" stop-opacity="0.12"/>
<stop offset="1" stop-color="#808080" stop-opacity="0.1"/>
</linearGradient>
<clipPath id="clip0">
<rect width="610" height="590" fill="white"/>
</clipPath>
</defs>
</svg>
