<svg width="610" height="482" viewBox="0 0 610 482" fill="none" xmlns="http://www.w3.org/2000/svg">
<g clip-path="url(#clip0)">
<path d="M258.788 408.165C401.712 408.165 517.576 322.288 517.576 216.354C517.576 110.419 401.712 24.5425 258.788 24.5425C115.863 24.5425 0 110.419 0 216.354C0 322.288 115.863 408.165 258.788 408.165Z" fill="#F2F2F2"/>
<path d="M279.867 383.946C422.792 383.946 538.655 298.069 538.655 192.135C538.655 86.2006 422.792 0.323853 279.867 0.323853C136.942 0.323853 21.0791 86.2006 21.0791 192.135C21.0791 298.069 136.942 383.946 279.867 383.946Z" stroke="#3F3D56" stroke-miterlimit="10"/>
<path d="M105.461 109.544C113.523 108.12 121.831 109.532 128.966 113.541C132.661 115.633 136.15 118.677 137.215 122.783C138.28 126.889 135.919 132.013 131.717 132.637C125.522 133.556 122.333 123.865 126.512 119.207C130.692 114.549 138.034 114.508 144.07 116.176C155.069 119.216 164.308 126.467 174.003 132.48C221.939 162.206 282.284 162.11 338.406 156.261C344.165 155.661 350.31 154.846 354.668 151.039C359.026 147.232 360.201 139.328 355.468 135.997C350.822 132.728 343.61 136.645 342.528 142.217C341.445 147.789 345.194 153.442 350.164 156.197C355.133 158.952 361.045 159.373 366.728 159.308C390.975 159.032 414.68 150.985 435.8 139.089C442.932 135.072 450.347 129.925 452.552 122.05C454.758 114.176 448.031 103.966 440.122 106.085C434.959 107.468 432.114 113.194 431.701 118.517C431.42 122.775 432.122 127.041 433.754 130.985C436.537 137.896 441.6 143.59 446.189 149.462C471.161 181.67 483.594 221.825 481.184 262.487C480.129 279.18 474.247 298.474 458.389 303.859C451.917 306.056 444.823 305.448 438.125 304.085C432.543 302.949 425.951 299.989 425.722 294.305C425.56 290.308 428.995 286.881 432.818 285.684C442.513 282.647 452.994 292.308 452.857 302.453C452.721 312.599 444.346 321.301 434.685 324.444C425.023 327.587 414.442 326.141 404.681 323.321C372.916 314.144 346.428 291.268 314.561 282.453C277.08 272.085 236.697 282.532 201.761 299.599" stroke="#2F2E41" stroke-miterlimit="10"/>
<path d="M309.253 105.822H265.199V143.938H309.253V105.822Z" fill="#FF6584"/>
<path opacity="0.1" d="M309.293 105.944H265.238V144.06H309.293V105.944Z" fill="black"/>
<path d="M242.197 230.136L236.201 279.016C236.201 279.016 227.944 302.573 244.065 306.598C260.185 310.622 245.342 274.501 245.342 274.501L251.535 229.645L242.197 230.136Z" fill="#FFC1C7"/>
<path d="M256.745 186.653C256.745 186.653 253.009 232.884 252.518 232.884C252.144 232.884 249.034 233.112 245.273 233.307C244.093 233.368 242.851 233.426 241.607 233.473C236.398 233.669 240.624 226.308 240.919 225.817C241.214 225.326 239.838 220.811 237.577 217.081C235.317 213.351 238.364 215.903 240.624 212.959C242.885 210.014 240.821 211.388 237.971 209.032C235.12 206.677 239.641 205.891 242.001 204.91C244.36 203.928 241.902 203.634 239.248 201.965C236.594 200.297 238.855 192.739 239.248 177.427C239.48 170.01 241.352 162.736 244.73 156.127C245.509 154.558 246.403 153.049 247.407 151.612L253.206 151.121C253.206 151.121 255.86 161.722 256.057 162.9C256.253 164.078 256.745 186.653 256.745 186.653Z" fill="#2F2E41"/>
<path d="M271.881 105.97C271.881 105.97 274.732 130.313 270.997 132.57C267.262 134.828 265.689 141.797 265.689 141.797L279.647 149.06L303.434 144.447L302.549 132.472C302.549 132.472 291.147 131.589 293.506 125.798C295.003 122.016 296.154 118.106 296.946 114.117L271.881 105.97Z" fill="#FFC1C7"/>
<path opacity="0.1" d="M271.881 105.97C271.881 105.97 274.732 130.313 270.997 132.57C267.262 134.828 265.689 141.797 265.689 141.797L279.647 149.06L303.434 144.447L302.549 132.472C302.549 132.472 291.147 131.589 293.506 125.798C295.003 122.016 296.154 118.106 296.946 114.117L271.881 105.97Z" fill="black"/>
<path d="M287.707 356.46C286.146 361.299 287.019 384.072 287.48 393.871C287.626 396.993 287.625 400.115 287.476 403.24L286.429 425.266L286.455 425.934L287.707 458.442L275.912 457.068L275.027 439.302C275.027 439.302 273.932 435.05 272.387 428.651C268.186 411.256 260.656 378 262.74 371.183C265.591 361.859 258.514 327.112 258.514 327.112L283.284 322.695C283.284 322.695 289.837 349.859 287.707 356.46Z" fill="#FFC1C7"/>
<path d="M346.094 462.429L339.213 466.355C339.213 466.355 326.73 461.546 326.042 461.349C325.354 461.153 324.567 450.847 324.567 450.847C324.567 450.847 322.944 440.272 320.906 429.449C319.471 421.824 317.831 414.078 316.409 409.818C312.969 399.512 313.362 365.158 312.969 362.9C312.575 360.643 300.485 318.829 300.485 318.829C300.485 318.829 326.73 313.921 330.072 316.866C333.414 319.811 336.559 355.343 336.363 362.9C336.166 370.458 337.247 416.1 337.247 416.1C337.247 416.1 337.382 422.737 337.592 429.814C337.742 434.816 337.928 440.037 338.132 443.289C338.435 447.982 340.425 452.409 343.735 455.754L346.094 462.429Z" fill="#FFC1C7"/>
<path d="M335.183 460.858C335.183 460.858 328.401 451.926 344.226 452.613C344.226 452.613 345.7 454.184 348.551 458.012C351.401 461.84 369.979 476.269 360.641 479.017C351.303 481.765 339.285 483.308 335.646 480.542C330.339 481.839 324.825 482.059 319.431 481.19C319.431 481.19 320.537 463.41 321.422 461.349C322.306 459.288 323.289 448.884 323.289 448.884L334.003 462.527L335.183 460.858Z" fill="#2F2E41"/>
<path d="M288.493 120.301C299.622 120.301 308.644 111.292 308.644 100.179C308.644 89.0665 299.622 80.0577 288.493 80.0577C277.365 80.0577 268.343 89.0665 268.343 100.179C268.343 111.292 277.365 120.301 288.493 120.301Z" fill="#FFC1C7"/>
<path opacity="0.1" d="M256.744 186.653C256.744 186.653 253.009 232.884 252.518 232.884C252.143 232.884 249.034 233.112 245.272 233.307C245.445 232.859 245.702 232.449 246.03 232.099C248.488 229.841 249.667 212.959 249.667 212.959L246.325 182.531L249.225 155.98C250.703 153.084 247.406 151.612 247.406 151.612L253.206 151.121C253.206 151.121 255.86 161.722 256.056 162.9C256.253 164.078 256.744 186.653 256.744 186.653Z" fill="black"/>
<path d="M320.635 137.282C320.635 137.282 301.959 129.626 300.583 130.313C299.207 131 295.472 133.748 295.472 133.748C295.472 133.748 286.724 142.876 274.929 140.226C274.929 140.226 270.899 138.263 270.997 132.57C270.997 132.57 258.71 139.147 254.877 143.465C251.043 147.784 247.406 151.612 247.406 151.612L249.274 182.531L252.616 212.959C252.616 212.959 251.436 229.841 248.979 232.099C246.522 234.356 243.376 253.889 247.013 285.691C250.65 317.493 243.18 327.995 247.505 330.842C251.83 333.688 284.856 331.823 303.925 332.707C322.994 333.59 334.888 328.29 333.905 326.916C332.922 325.542 328.597 276.268 331.841 262.33C335.084 248.392 332.627 219.142 332.627 219.142L320.635 137.282Z" fill="#2F2E41"/>
<path d="M315.229 225.424C315.229 225.424 310.118 265.275 306.579 268.907C303.041 272.538 301.763 301.396 307.955 301.396C314.148 301.396 319.751 269.495 319.751 269.495L329.187 226.308L315.229 225.424Z" fill="#FFC1C7"/>
<path d="M270.113 456.872C270.113 456.872 282.891 448.235 289.673 456.872C289.673 456.872 292.524 476.11 289.673 478.27C286.823 480.429 267.36 484.061 266.967 478.27C266.574 472.479 267.95 469.828 267.95 469.828L270.113 461.976L270.113 456.872Z" fill="#2F2E41"/>
<path opacity="0.1" d="M318.915 142.533L318.277 139.147C318.277 139.147 332.627 154.557 334.987 167.906C337.346 181.255 342.555 195.095 338.918 196.959C335.281 198.824 332.333 198.236 334.004 201.278C335.675 204.321 336.166 207.953 334.495 209.131C332.824 210.309 331.645 211.29 332.234 213.744C332.824 216.198 332.824 221.204 331.645 222.283C330.465 223.363 327.516 232.001 327.516 232.001C327.516 232.001 315.524 228.074 311.003 230.725C306.481 233.375 310.315 220.418 310.315 220.418C310.315 220.418 309.332 215.216 307.857 214.333C306.383 213.449 305.498 211.781 307.366 210.014C309.234 208.247 310.708 208.247 308.152 205.793C305.597 203.34 302.156 204.419 305.695 201.867C309.234 199.315 311.101 198.137 308.742 195.684C306.383 193.23 304.319 191.855 305.99 189.696C307.661 187.537 310.659 140.374 318.915 142.533Z" fill="black"/>
<path d="M317.293 137.871L320.635 137.282C320.635 137.282 334.986 152.692 337.345 166.041C339.704 179.39 344.914 193.23 341.277 195.095C337.64 196.959 334.691 196.371 336.362 199.413C338.033 202.456 338.525 206.088 336.854 207.266C335.183 208.444 334.003 209.425 334.593 211.879C335.183 214.333 335.183 219.339 334.003 220.418C332.824 221.498 329.875 230.136 329.875 230.136C329.875 230.136 317.883 226.209 313.362 228.86C308.84 231.51 312.674 218.553 312.674 218.553C312.674 218.553 311.691 213.351 310.216 212.468C308.742 211.584 307.857 209.916 309.725 208.149C311.592 206.382 313.067 206.382 310.511 203.928C307.956 201.475 304.515 202.554 308.054 200.002C311.592 197.45 313.46 196.272 311.101 193.819C308.742 191.365 306.678 189.991 308.349 187.831C310.02 185.672 309.037 135.711 317.293 137.871Z" fill="#2F2E41"/>
<path d="M271.528 77.0562C269.381 78.697 267.567 80.7308 266.182 83.0491C265.503 84.3737 264.936 85.7522 264.487 87.1705C262.891 91.7554 258.925 96.399 260.604 100.954C261.083 102.254 261.83 103.624 261.4 104.941C261.019 106.111 259.842 106.794 258.991 107.683C257.164 109.591 256.857 112.454 256.745 115.092C256.541 119.922 259.2 125.615 262.414 129.23C263.112 129.911 263.759 130.642 264.348 131.417C264.746 132.035 265.006 132.732 265.111 133.459C265.215 134.187 265.162 134.928 264.954 135.633L269.636 134.658C269.805 136.384 269.858 138.119 269.794 139.852C270.904 139.974 272.023 139.71 272.961 139.105C273.899 138.499 274.599 137.59 274.944 136.529C275.209 137.765 275.641 138.959 276.23 140.078C277.603 138.362 278.657 136.414 279.339 134.327C280.235 131.653 280.428 128.794 279.898 126.025C279.402 124.002 278.728 122.027 277.882 120.123C276.228 115.948 274.877 111.661 273.527 107.378C272.827 105.154 272.117 102.857 272.33 100.535L273.993 100.354C274.012 99.4368 274.189 98.5296 274.518 97.673C275.493 97.879 276.431 98.2315 277.301 98.7186L279.218 93.8592C280.484 95.1701 282.301 95.7634 284.04 96.3103L290.651 98.3889L290.691 97.0824C293.482 99.5492 296.66 101.54 300.099 102.975C299.905 102.741 299.763 102.468 299.683 102.175C299.603 101.882 299.586 101.575 299.634 101.274C301.263 104.189 300.612 107.82 299.606 111.003C298.601 114.186 297.267 117.427 297.672 120.74C297.975 123.218 299.246 125.588 299.01 128.073C298.894 129.297 298.415 130.461 298.266 131.681C297.91 134.592 299.443 137.363 300.922 139.896L303.798 135.951C304.766 134.445 305.995 133.123 307.426 132.046C308.956 131.033 310.853 130.578 312.186 129.318C314.566 127.069 314.264 123.237 313.49 120.057C313.078 118.367 312.581 116.653 312.732 114.92C312.988 111.982 315.033 109.551 316.184 106.836C317.005 104.855 317.36 102.714 317.224 100.576C317.087 98.437 316.462 96.358 315.396 94.4981C313.968 92.051 311.809 90.0802 310.463 87.587C309.122 85.1052 308.611 82.1521 306.775 80.0101C305.878 79.0354 304.835 78.2057 303.683 77.5506C298.464 74.4193 292.602 72.5095 286.538 71.9649C280.787 71.3645 275.935 73.4285 271.528 77.0562Z" fill="#FF6584"/>
<path d="M520.298 401.2C522.263 401.914 524.367 402.162 526.444 401.924C528.521 401.687 530.515 400.972 532.267 399.834C534.02 398.696 535.484 397.167 536.545 395.368C537.605 393.569 538.232 391.548 538.377 389.466C538.522 387.383 538.18 385.295 537.379 383.367C536.578 381.439 535.339 379.723 533.761 378.354C532.182 376.985 530.307 376.001 528.283 375.48C526.259 374.958 524.141 374.913 522.096 375.349L522.434 382.287L519.147 376.341C515.921 377.854 513.428 380.585 512.217 383.933C511.787 385.106 511.526 386.333 511.441 387.579C511.234 390.503 511.986 393.414 513.584 395.872C515.183 398.33 517.54 400.2 520.298 401.2Z" fill="#F2B23D"/>
<path d="M536.563 481.669C535.403 475.769 540.431 470.538 545.398 467.138C550.365 463.738 556.168 460.397 557.862 454.627C560.298 446.334 553.043 438.74 547.397 432.19C543.208 427.33 539.61 421.991 536.68 416.285C535.505 413.997 534.426 411.606 534.116 409.053C533.671 405.377 534.854 401.72 536.045 398.213C540.014 386.533 544.258 374.95 548.776 363.466" stroke="#3F3D56" stroke-miterlimit="10"/>
<path d="M520.854 399.414C522.819 400.128 524.923 400.375 527 400.138C529.077 399.901 531.07 399.185 532.823 398.048C534.576 396.91 536.04 395.381 537.1 393.582C538.161 391.783 538.788 389.762 538.933 387.68C539.077 385.597 538.736 383.509 537.935 381.581C537.134 379.653 535.895 377.937 534.317 376.568C532.738 375.199 530.863 374.215 528.839 373.694C526.814 373.172 524.696 373.127 522.652 373.562L522.99 380.5L519.702 374.554C516.476 376.068 513.984 378.799 512.773 382.147C512.343 383.32 512.082 384.547 511.997 385.793C511.789 388.716 512.542 391.628 514.14 394.086C515.738 396.544 518.095 398.414 520.854 399.414V399.414Z" stroke="#3F3D56" stroke-miterlimit="10"/>
<path d="M534.913 361.07C535.685 358.945 536.979 357.049 538.677 355.555C540.375 354.061 542.422 353.018 544.629 352.522L545.741 359.118L547.801 352.191C550.662 352.233 553.436 353.182 555.721 354.901C558.007 356.62 559.686 359.02 560.517 361.754C561.348 364.489 561.287 367.416 560.343 370.113C559.399 372.81 557.621 375.138 555.266 376.761C552.911 378.384 550.1 379.217 547.24 379.14C544.38 379.064 541.618 378.082 539.353 376.336C537.088 374.59 535.437 372.17 534.639 369.426C533.842 366.682 533.937 363.756 534.913 361.07Z" fill="#F2B23D"/>
<path d="M535.655 358.688C536.426 356.564 537.72 354.667 539.418 353.173C541.116 351.68 543.163 350.637 545.371 350.141L546.482 356.736L548.542 349.809C551.404 349.851 554.177 350.801 556.463 352.52C558.748 354.239 560.428 356.638 561.258 359.373C562.089 362.107 562.028 365.034 561.084 367.731C560.14 370.429 558.362 372.757 556.007 374.379C553.652 376.002 550.842 376.835 547.981 376.759C545.121 376.682 542.359 375.7 540.094 373.954C537.829 372.208 536.179 369.788 535.381 367.044C534.583 364.3 534.679 361.374 535.655 358.688H535.655Z" stroke="#3F3D56" stroke-miterlimit="10"/>
<path d="M545.027 432.324C548.143 433.453 551.566 433.397 554.643 432.168C557.721 430.938 560.238 428.621 561.714 425.657C563.19 422.694 563.523 419.292 562.649 416.099C561.775 412.906 559.754 410.147 556.973 408.346L555.39 413.669L554.267 406.995C554.256 406.99 554.245 406.986 554.233 406.982C552.566 406.378 550.797 406.107 549.025 406.185C547.254 406.263 545.515 406.689 543.909 407.439C542.302 408.189 540.859 409.247 539.662 410.554C538.466 411.86 537.538 413.389 536.934 415.054C536.329 416.719 536.059 418.486 536.138 420.255C536.218 422.024 536.645 423.76 537.397 425.364C538.149 426.967 539.209 428.408 540.519 429.602C541.828 430.796 543.36 431.721 545.027 432.324H545.027Z" fill="#F2B23D"/>
<path d="M545.67 429.912C548.785 431.04 552.208 430.985 555.286 429.755C558.363 428.526 560.88 426.208 562.356 423.245C563.833 420.282 564.165 416.879 563.291 413.687C562.417 410.494 560.397 407.734 557.616 405.933L556.033 411.257L554.91 404.583C554.899 404.578 554.887 404.574 554.876 404.57C553.209 403.965 551.439 403.694 549.668 403.773C547.896 403.851 546.158 404.277 544.551 405.027C542.945 405.776 541.502 406.835 540.305 408.141C539.108 409.448 538.181 410.977 537.576 412.642C536.971 414.306 536.701 416.074 536.781 417.843C536.86 419.612 537.288 421.348 538.04 422.951C538.791 424.555 539.852 425.995 541.161 427.19C542.47 428.384 544.002 429.309 545.67 429.912V429.912Z" stroke="#3F3D56" stroke-miterlimit="10"/>
<path d="M530.974 454.709C531.51 457.754 533.078 460.521 535.415 462.548C537.751 464.575 540.715 465.738 543.808 465.842C546.902 465.946 549.937 464.985 552.405 463.12C554.873 461.254 556.623 458.598 557.363 455.597C558.103 452.596 557.786 449.432 556.467 446.636C555.148 443.84 552.906 441.581 550.118 440.24C547.329 438.899 544.163 438.556 541.152 439.268C538.14 439.981 535.465 441.706 533.576 444.154L539.59 453.193L531.372 448.396C530.735 450.438 530.599 452.603 530.974 454.709Z" fill="#F2B23D"/>
<path d="M531.53 452.923C532.066 455.967 533.634 458.735 535.97 460.762C538.307 462.789 541.271 463.952 544.364 464.056C547.457 464.16 550.493 463.199 552.961 461.333C555.429 459.468 557.179 456.812 557.919 453.811C558.658 450.809 558.342 447.645 557.023 444.849C555.704 442.053 553.462 439.795 550.673 438.454C547.885 437.112 544.719 436.769 541.707 437.482C538.696 438.194 536.021 439.92 534.131 442.368L540.146 451.407L531.928 446.609C531.291 448.652 531.154 450.817 531.53 452.923V452.923Z" stroke="#3F3D56" stroke-miterlimit="10"/>
<path d="M89.8928 100.388C93.1751 100.388 95.8359 97.7313 95.8359 94.4537C95.8359 91.1761 93.1751 88.519 89.8928 88.519C86.6105 88.519 83.9497 91.1761 83.9497 94.4537C83.9497 97.7313 86.6105 100.388 89.8928 100.388Z" fill="#F2B23D"/>
<path d="M79.3274 99.2343C82.6096 99.2343 85.2704 96.5772 85.2704 93.2996C85.2704 90.022 82.6096 87.365 79.3274 87.365C76.0451 87.365 73.3843 90.022 73.3843 93.2996C73.3843 96.5772 76.0451 99.2343 79.3274 99.2343Z" fill="#F2B23D"/>
<path d="M70.4128 106.158C73.6951 106.158 76.3559 103.501 76.3559 100.223C76.3559 96.9459 73.6951 94.2888 70.4128 94.2888C67.1305 94.2888 64.4697 96.9459 64.4697 100.223C64.4697 103.501 67.1305 106.158 70.4128 106.158Z" fill="#F2B23D"/>
<path d="M71.403 116.709C74.6853 116.709 77.3461 114.052 77.3461 110.774C77.3461 107.496 74.6853 104.839 71.403 104.839C68.1208 104.839 65.46 107.496 65.46 110.774C65.46 114.052 68.1208 116.709 71.403 116.709Z" fill="#F2B23D"/>
<path d="M102.521 116.201C101.76 115.499 100.641 115.326 99.6836 115.165C98.7074 115.094 97.786 114.687 97.0771 114.013C96.6921 113.715 96.3804 113.332 96.166 112.895C95.9516 112.458 95.8402 111.978 95.8402 111.491C95.8402 111.004 95.9516 110.524 96.166 110.087C96.3804 109.65 96.6921 109.267 97.0771 108.969L100.572 105.871C101.828 104.818 102.839 103.504 103.532 102.019C104.226 100.535 104.585 98.9171 104.585 97.2792C104.585 95.6414 104.226 94.0234 103.532 92.539C102.839 91.0547 101.828 89.7401 100.572 88.6877C96.6273 85.2211 91.3336 83.5051 85.8323 83.5051C79.0901 83.5252 72.5836 85.9842 67.5176 90.4267C57.8874 98.9261 57.8874 112.85 67.5176 121.349C72.3038 125.576 78.7624 127.684 85.1518 127.73H85.3479C91.7372 127.73 98.0344 125.668 102.509 121.695C104.17 120.232 103.893 117.48 102.521 116.201L102.521 116.201ZM66.7564 101.011C66.7564 100.282 66.9728 99.5693 67.3784 98.9632C67.7839 98.3571 68.3603 97.8848 69.0347 97.6058C69.7091 97.3269 70.4511 97.2539 71.167 97.3961C71.8829 97.5383 72.5405 97.8893 73.0567 98.4047C73.5728 98.9201 73.9243 99.5768 74.0667 100.292C74.2091 101.007 74.136 101.748 73.8567 102.421C73.5774 103.094 73.1043 103.67 72.4974 104.075C71.8905 104.48 71.177 104.696 70.447 104.696C69.9622 104.697 69.4821 104.602 69.0341 104.417C68.5861 104.232 68.179 103.96 67.8362 103.618C67.4934 103.275 67.2216 102.869 67.0363 102.422C66.851 101.974 66.7559 101.495 66.7564 101.011ZM71.3697 115.522C70.6397 115.522 69.9262 115.306 69.3193 114.901C68.7124 114.496 68.2393 113.92 67.96 113.247C67.6807 112.573 67.6076 111.832 67.75 111.117C67.8924 110.403 68.2439 109.746 68.76 109.231C69.2762 108.715 69.9338 108.364 70.6497 108.222C71.3656 108.08 72.1076 108.153 72.782 108.432C73.4564 108.711 74.0328 109.183 74.4383 109.789C74.8438 110.395 75.0603 111.108 75.0603 111.836C75.0608 112.321 74.9657 112.8 74.7804 113.247C74.5951 113.695 74.3233 114.101 73.9805 114.444C73.6377 114.786 73.2306 115.057 72.7826 115.242C72.3346 115.427 71.8545 115.522 71.3697 115.522ZM78.7509 96.9798C78.021 96.9798 77.3074 96.7637 76.7005 96.3587C76.0936 95.9537 75.6205 95.3782 75.3412 94.7048C75.0619 94.0313 74.9888 93.2903 75.1312 92.5754C75.2736 91.8605 75.6251 91.2039 76.1412 90.6885C76.6574 90.173 77.315 89.822 78.0309 89.6798C78.7468 89.5376 79.4889 89.6106 80.1632 89.8896C80.8376 90.1685 81.414 90.6409 81.8195 91.2469C82.2251 91.853 82.4415 92.5655 82.4415 93.2944C82.4421 93.7785 82.3469 94.258 82.1617 94.7054C81.9764 95.1527 81.7045 95.5592 81.3617 95.9015C81.0189 96.2439 80.6119 96.5153 80.1639 96.7003C79.7159 96.8853 79.2357 96.9803 78.7509 96.9798ZM87.0548 122.202C85.9599 122.202 84.8896 121.877 83.9792 121.27C83.0688 120.663 82.3593 119.799 81.9403 118.789C81.5213 117.779 81.4117 116.667 81.6253 115.595C81.8389 114.523 82.3661 113.538 83.1403 112.765C83.9145 111.991 84.9009 111.465 85.9748 111.252C87.0487 111.038 88.1618 111.148 89.1733 111.566C90.1849 111.985 91.0495 112.693 91.6578 113.602C92.2661 114.511 92.5907 115.58 92.5907 116.674C92.5904 118.14 92.007 119.545 90.9689 120.582C89.9308 121.619 88.5229 122.201 87.0548 122.202L87.0548 122.202ZM89.8228 98.2466C89.0928 98.2466 88.3793 98.0305 87.7724 97.6255C87.1655 97.2206 86.6924 96.645 86.4131 95.9716C86.1338 95.2982 86.0607 94.5572 86.2031 93.8423C86.3455 93.1274 86.697 92.4707 87.2131 91.9553C87.7293 91.4399 88.3869 91.0889 89.1028 90.9467C89.8187 90.8045 90.5608 90.8775 91.2351 91.1564C91.9095 91.4354 92.4859 91.9077 92.8914 92.5138C93.297 93.1198 93.5134 93.8324 93.5134 94.5613C93.5139 95.0454 93.4188 95.5249 93.2335 95.9722C93.0482 96.4196 92.7764 96.8261 92.4336 97.1684C92.0908 97.5107 91.6837 97.7822 91.2357 97.9672C90.7877 98.1522 90.3076 98.2472 89.8228 98.2466H89.8228Z" fill="#2F2E41"/>
<path d="M224.413 481.514H610" stroke="#2F2E41" stroke-miterlimit="10"/>
<path d="M172.186 299.169C172.186 299.169 168.255 302.095 165.99 303.509C163.724 304.923 161.689 309.82 162.801 314.31L163.061 314.229C163.061 314.229 163.364 312.002 167.139 310.404C170.913 308.806 176.465 306.515 174.179 300.542L172.186 299.169Z" fill="#F2B23D"/>
<path d="M173.533 296.405C173.533 296.405 188.568 267.853 202.149 251.553L207.998 243.126L208.679 243.483L203.506 252.482C203.506 252.482 181.051 294.712 175.822 298.041L173.533 296.405Z" fill="#2F2E41"/>
<path d="M176.471 297.84L173.506 295.632L171.407 299.411C171.737 299.9 172.19 300.294 172.721 300.554C173.251 300.813 173.841 300.929 174.43 300.89L176.471 297.84Z" fill="#3F3D56"/>
<path d="M164.256 319.53C164.256 320.603 163.965 321.473 163.607 321.473C163.249 321.473 162.958 320.603 162.958 319.53C162.984 318.834 163.209 318.159 163.607 317.587C164.005 318.159 164.231 318.834 164.256 319.53Z" fill="#F2B23D"/>
<path d="M161.013 326.007C161.371 326.007 161.661 325.137 161.661 324.064C161.661 322.991 161.371 322.121 161.013 322.121C160.655 322.121 160.364 322.991 160.364 324.064C160.364 325.137 160.655 326.007 161.013 326.007Z" fill="#F2B23D"/>
<path d="M440.178 96.3378L465.439 91.7031C465.439 91.7031 468.103 91.1712 468.559 92.9947L439.493 101.353L438.885 97.3256L440.178 96.3378Z" fill="#F2B23D"/>
<path d="M441.267 96.1379C432.275 96.28 433.977 99.339 432.912 101.391C431.846 103.442 423.138 103.653 423.138 103.653L423.135 103.654C421.864 103.679 420.627 104.075 419.578 104.794C418.529 105.512 417.713 106.521 417.231 107.697C416.749 108.872 416.622 110.163 416.865 111.409C417.108 112.656 417.711 113.805 418.599 114.714C419.487 115.623 420.623 116.253 421.865 116.526C423.107 116.799 424.402 116.703 425.591 116.251C426.779 115.798 427.809 115.008 428.554 113.979C429.299 112.949 429.726 111.724 429.783 110.455C429.81 109.838 429.748 109.221 429.598 108.622C428.822 102.812 440.409 101.479 440.409 101.479L439.988 99.415C439.891 98.8046 439.958 98.1793 440.183 97.6035C440.408 97.0276 440.782 96.5218 441.267 96.1379ZM423.325 114.307C422.422 114.307 421.539 114.04 420.788 113.539C420.037 113.038 419.452 112.326 419.107 111.493C418.761 110.66 418.671 109.743 418.847 108.859C419.023 107.975 419.458 107.162 420.096 106.525C420.735 105.887 421.548 105.453 422.434 105.277C423.319 105.101 424.237 105.191 425.072 105.537C425.906 105.882 426.619 106.466 427.12 107.216C427.622 107.965 427.89 108.847 427.89 109.748C427.89 110.347 427.772 110.94 427.542 111.493C427.313 112.046 426.977 112.549 426.553 112.972C426.129 113.395 425.625 113.731 425.072 113.96C424.518 114.189 423.924 114.307 423.325 114.307Z" fill="#2F2E41"/>
<path d="M440.987 101.489L466.608 103.288C466.608 103.288 469.314 103.521 469.564 101.658L439.355 96.3733L439.591 100.651L440.987 101.489Z" fill="#F2B23D"/>
<path d="M440.455 98.4516L440.644 96.3534C440.644 96.3534 428.98 96.3163 429.104 90.4564C429.186 89.8444 429.179 89.2238 429.083 88.6139C428.906 87.3186 428.351 86.1041 427.486 85.1226C426.622 84.1411 425.486 83.4361 424.222 83.096C422.958 82.756 421.622 82.7959 420.38 83.2108C419.139 83.6256 418.047 84.3971 417.243 85.4285C416.439 86.4598 415.957 87.7053 415.858 89.0088C415.759 90.3124 416.048 91.616 416.687 92.7566C417.327 93.8972 418.29 94.8239 419.454 95.4207C420.619 96.0175 421.934 96.2579 423.235 96.1118L423.238 96.1122C423.238 96.1122 431.915 95.3542 433.203 97.2746C434.49 99.195 433.14 102.424 442.092 101.566C441.567 101.239 441.139 100.777 440.851 100.23C440.564 99.6829 440.427 99.0691 440.455 98.4516ZM427.281 89.5266C427.381 90.4227 427.213 91.3284 426.798 92.1291C426.383 92.9299 425.74 93.5898 424.949 94.0254C424.159 94.461 423.257 94.6527 422.357 94.5763C421.457 94.4998 420.601 94.1587 419.895 93.5961C419.189 93.0334 418.667 92.2745 418.393 91.4152C418.12 90.5559 418.107 89.635 418.358 88.7687C418.609 87.9025 419.111 87.1299 419.801 86.5487C420.491 85.9675 421.339 85.6037 422.236 85.5034C423.439 85.3689 424.647 85.7172 425.593 86.4717C426.539 87.2262 427.146 88.3251 427.281 89.5266Z" fill="#2F2E41"/>
</g>
<defs>
<clipPath id="clip0">
<rect width="610" height="482" fill="white"/>
</clipPath>
</defs>
</svg>
