<svg width="609" height="473" viewBox="0 0 609 473" fill="none" xmlns="http://www.w3.org/2000/svg">
<g clip-path="url(#clip0)">
<path opacity="0.1" d="M597.221 125.851C591.192 111.874 583.045 98.9081 573.065 87.4075L237.921 84.1097L513.858 45.4C496.032 38.3097 477.055 34.5489 457.869 34.3046C431.473 13.2313 398.971 1.23138 365.198 0.0899409C331.425 -1.0515 298.186 8.7265 270.424 27.9695C248.237 16.5778 223.643 10.6578 198.696 10.7047C124.23 10.7047 62.1774 62.2149 48.2588 130.528L597.221 125.851Z" fill="#F2B23D"/>
<path opacity="0.1" d="M609.006 183.14C609.022 164.615 605.476 146.26 598.561 129.072L17.7126 189.966C11.7229 200.787 7.14111 212.327 4.07848 224.306L183.948 251.092L-0.029541 270.63C5.50709 347.96 71.8815 409.027 152.963 409.027C193.776 409.027 230.867 393.55 258.343 368.316C285.913 394.03 323.354 409.838 364.606 409.838C425.817 409.838 478.646 375.03 503.247 324.698C552.608 309.055 590.95 269.766 604.074 220.618L376.633 185.354H609.006C608.994 184.614 609.006 183.88 609.006 183.14Z" fill="#F2B23D"/>
<path d="M169.94 473C244.257 473 304.503 463.136 304.503 450.969C304.503 438.802 244.257 428.938 169.94 428.938C95.6235 428.938 35.3777 438.802 35.3777 450.969C35.3777 463.136 95.6235 473 169.94 473Z" fill="#F2B23D"/>
<path d="M309.109 309.049C303.056 310.565 296.844 307.617 296.844 307.617C296.844 307.617 291.545 301.489 287.075 300.66C282.605 299.831 280.874 307.084 278.219 308.949C276.381 310.257 263.126 309.322 255.1 308.623L253.719 308.499C253.582 308.398 253.446 308.292 253.298 308.197C253.298 308.197 245.592 305.829 243.985 303.733C242.379 301.637 231.643 297.759 228.312 297.984C224.98 298.209 215.134 298.742 215.134 298.742C215.134 298.742 211.275 294.354 209.532 294.81C207.79 295.266 201.731 294.775 201.731 294.775C201.731 294.775 200.066 290.5 198.4 284.372C197.623 281.512 195.039 279.505 192.508 278.185C194.784 270.488 190.729 248.534 178.138 244.241C175.394 243.306 173.989 240.197 171.653 238.492C169.561 236.971 166.135 233.383 167.812 226.9C170.183 217.823 176.064 203.53 176.064 203.53L180.444 194.792C180.036 195.411 179.571 195.991 179.057 196.526C179.65 195.768 180.243 195.022 180.753 194.395C185.124 196.6 189.892 197.913 194.778 198.255C199.722 200.25 204.66 202.009 206.58 201.944C210.973 201.79 222.177 207.391 222.177 207.391C222.177 207.391 249.131 215.088 254.732 215.709C260.334 216.331 263.061 209.055 263.061 209.055C263.061 209.055 265.972 194.709 260.803 190.908C255.634 187.106 252.628 204.525 252.628 204.525L217.363 191.831L215.188 190.688C216.877 188.903 218.218 186.819 219.142 184.543C219.687 183.187 220.185 181.636 221.483 180.961C221.832 180.787 222.21 180.677 222.597 180.635C222.919 180.614 223.242 180.614 223.564 180.635C229.681 181.008 234.939 185.816 241.069 185.839C241.294 185.839 241.519 185.839 241.745 185.839C242.913 185.836 244.054 185.486 245.023 184.833C245.569 184.388 246.019 183.836 246.343 183.211C246.667 182.585 246.86 181.9 246.908 181.198C246.818 181.388 246.719 181.574 246.611 181.754C246.771 180.883 246.771 179.99 246.611 179.119C246.232 177.041 245.147 175.176 244.175 173.299C243.9 172.861 243.745 172.359 243.724 171.843C243.752 171.573 243.834 171.312 243.965 171.075C244.097 170.838 244.275 170.63 244.489 170.463C244.498 170.519 244.51 170.574 244.525 170.629C244.987 170.195 245.5 169.819 246.054 169.51C247.552 168.529 248.833 167.25 249.816 165.754C250.799 164.258 251.463 162.576 251.769 160.813C251.62 161.251 251.443 161.683 251.253 162.109C252.165 159.104 251.943 155.869 250.63 153.015C250.29 152.203 249.747 151.491 249.054 150.949C246.842 149.397 243.873 151.049 241.175 151.227C238.804 151.381 236.504 150.321 234.364 149.249C230.713 147.42 227.079 145.442 224.038 142.737C220.582 139.64 218.015 135.691 214.897 132.263C211.779 128.835 207.778 125.78 203.136 125.436C194.701 124.785 186.746 133.133 178.725 130.41C174.813 129.089 172.24 125.478 169.519 122.375C166.798 119.273 163.058 116.295 158.98 116.964C156.146 117.437 153.692 119.634 150.823 119.551C149.323 119.504 147.93 118.835 146.507 118.367C143.063 117.212 138.345 117.775 137.118 121.197C136.877 121.894 136.791 122.635 136.868 123.369C136.945 124.102 137.182 124.81 137.562 125.442C137.381 125.696 137.218 125.964 137.076 126.241C136.781 126.784 136.679 127.41 136.786 128.018C134.348 130.203 132.541 133.002 131.555 136.122C130.568 139.242 130.437 142.569 131.176 145.757C131.914 148.945 133.495 151.876 135.754 154.246C138.013 156.616 140.866 158.338 144.018 159.232C144.13 159.664 144.243 160.096 144.35 160.534C145.5 165.371 146.098 170.819 144.397 174.489C144.29 174.714 144.178 174.933 144.053 175.147L143.905 175.212L143.97 175.277L143.905 175.212L143.692 174.993L142.399 173.643C142.328 172.234 141.534 168.456 136.009 161.446C128.736 152.216 127.372 136.94 127.372 136.94C127.372 136.94 125.558 129.077 127.372 126.81C129.186 124.542 132.221 99.5746 132.221 99.5746L137.236 85.5188C137.236 85.5188 161.617 60.711 151.463 57.6914C144.569 55.6369 136.347 66.2232 131.783 73.2215C129.541 76.6578 128.091 80.5487 127.538 84.6129L113.756 122.275C113.756 122.275 112.392 126.816 113.756 134.678C115.119 142.541 118.148 156.461 118.148 156.461L125.855 175.97C125.855 175.97 128.694 184.395 128.445 188.054C128.107 188.273 126.922 190.617 125.896 192.749L125.143 193.933L125.09 194.413C124.586 195.484 124.236 196.254 124.236 196.254C124.236 196.254 119.945 208.907 123.531 216.669C127.117 224.431 127.26 228.03 127.26 228.03L129.933 239.528L131.047 249.594L140.662 273.342L149.519 285.971C149.519 285.971 148.689 295.272 146.869 296.557C145.049 297.842 145.885 304.496 145.885 304.496L144.747 321.963C144.747 321.963 141.19 327.185 140.965 335.651C140.74 344.118 139.447 346.545 139.447 346.545C139.447 346.545 138.854 353.65 140.508 356.907C142.162 360.163 137.859 363.561 137.859 363.561L141.552 376.226L140.111 392.259C140.111 392.259 140.781 392.443 141.89 392.721L141.664 393.87L135.642 424.243C135.642 424.243 132.387 432.567 132.239 434.527L121.711 453.515C121.711 453.515 112.926 462.212 117.093 463.041C121.261 463.87 133.377 456.386 133.377 456.386C133.377 456.386 143.372 445.646 147.308 444.669C151.244 443.692 155.607 440.88 154.35 436.801C153.093 432.721 150.2 426.516 152.987 419.933C154.765 415.788 158.547 404.539 161.143 396.688C161.286 396.256 161.422 395.841 161.558 395.439C162.245 395.377 162.924 395.248 163.586 395.054C169.946 393.088 173.278 394.462 173.278 394.462L184.635 348.558L187.131 325.527L203.036 338.777C206.182 341.399 210.089 342.941 214.18 343.176C220.446 343.544 230.221 344.449 237.299 346.634L240.263 334.307C240.263 334.307 248.739 334.615 250.559 331.738C251.3 330.554 252.029 329.547 252.628 328.777L254.003 328.564L291.521 322.768C298.486 322.768 308.03 318.073 308.03 318.073L313.863 316.942C313.863 316.942 322.565 315.201 323.348 313.762C324.13 312.324 315.173 307.546 309.109 309.049Z" fill="url(#paint0_linear)"/>
<path d="M138.866 124.163C140.052 120.824 144.687 120.262 148.06 121.392C149.448 121.854 150.817 122.511 152.281 122.577C155.091 122.659 157.492 120.504 160.266 120.048C164.255 119.385 167.913 122.298 170.575 125.336C173.236 128.373 175.761 131.908 179.591 133.204C187.433 135.845 195.223 127.698 203.474 128.331C208.003 128.681 211.916 131.659 214.968 135.016C218.021 138.373 220.535 142.233 223.914 145.265C226.877 147.929 230.434 149.865 234.021 151.659C236.113 152.707 238.348 153.743 240.683 153.589C243.327 153.418 246.232 151.813 248.39 153.317C249.069 153.849 249.6 154.546 249.931 155.342C252.587 160.86 250.447 168.208 245.248 171.452C244.341 172.015 243.238 172.636 243.185 173.72C243.202 174.226 243.353 174.718 243.624 175.147C244.572 176.982 245.639 178.812 245.995 180.842C246.351 182.873 245.87 185.212 244.216 186.443C243.137 187.161 241.854 187.512 240.559 187.444C234.56 187.414 229.415 182.707 223.427 182.346C222.661 182.259 221.886 182.377 221.181 182.69C219.912 183.347 219.402 184.868 218.887 186.195C216.112 193.116 209.224 197.929 201.874 199.25C194.523 200.57 186.847 198.711 180.267 195.182C179.786 194.952 179.343 194.649 178.957 194.282C178.407 193.616 178.02 192.832 177.824 191.991C175.809 185.626 173.082 178.965 167.498 175.289C163.876 172.92 158.962 171.588 157.32 167.592C156.288 165.064 156.934 162.192 156.674 159.469C156.417 157.133 155.506 154.918 154.045 153.077C152.584 151.236 150.633 149.843 148.416 149.06C147.444 148.734 146.377 148.503 145.666 147.763C145.088 147.037 144.719 146.167 144.599 145.247C143.715 141.239 143.128 137.005 141.895 133.092C140.953 130.025 137.604 127.674 138.866 124.163Z" fill="#663D5B"/>
<g opacity="0.1">
<path opacity="0.1" d="M244.91 184.602C243.827 185.309 242.545 185.652 241.252 185.579C235.259 185.579 230.114 180.842 224.127 180.487C223.361 180.397 222.586 180.514 221.88 180.825C220.606 181.482 220.102 183.003 219.586 184.33C216.812 191.257 209.918 196.07 202.567 197.391C195.217 198.711 187.54 196.852 180.966 193.323C180.485 193.093 180.043 192.789 179.656 192.423C179.108 191.756 178.72 190.972 178.524 190.132C176.508 183.761 173.781 177.106 168.197 173.424C164.57 171.026 159.655 169.729 158.019 165.727C156.982 163.193 157.628 160.321 157.373 157.603C157.117 155.267 156.206 153.051 154.744 151.209C153.282 149.368 151.329 147.976 149.11 147.195C148.137 146.869 147.07 146.632 146.359 145.898C145.781 145.17 145.414 144.298 145.298 143.376C144.409 139.374 143.828 135.134 142.595 131.227C141.765 128.61 139.151 126.49 139.281 123.696C139.204 123.843 139.137 123.995 139.08 124.151C137.811 127.662 141.166 130.013 142.121 133.033C143.354 136.94 143.935 141.179 144.824 145.182C144.94 146.104 145.307 146.976 145.885 147.704C146.596 148.438 147.663 148.675 148.635 149.001C150.855 149.782 152.809 151.175 154.271 153.018C155.733 154.86 156.644 157.078 156.899 159.415C157.154 162.133 156.508 165.004 157.545 167.538C159.181 171.559 164.095 172.867 167.723 175.235C173.295 178.924 176.022 185.573 178.049 191.944C178.246 192.784 178.633 193.568 179.182 194.235C179.569 194.601 180.011 194.904 180.492 195.135C187.066 198.687 194.719 200.517 202.093 199.202C209.467 197.888 216.32 193.069 219.112 186.141C219.645 184.815 220.137 183.293 221.406 182.636C222.111 182.326 222.887 182.209 223.653 182.299C229.64 182.66 234.785 187.367 240.778 187.391C242.073 187.458 243.354 187.11 244.436 186.396C244.972 185.962 245.412 185.423 245.73 184.812C246.049 184.201 246.237 183.531 246.285 182.843C245.986 183.538 245.512 184.144 244.91 184.602Z" fill="black"/>
<path opacity="0.1" d="M245.941 169.593C245.034 170.185 243.926 170.777 243.873 171.861C243.867 172.078 243.901 172.295 243.973 172.5C244.424 172.074 244.926 171.706 245.467 171.405C246.934 170.445 248.187 169.195 249.148 167.731C250.11 166.268 250.76 164.622 251.057 162.897C250.181 165.654 248.372 168.021 245.941 169.593Z" fill="black"/>
</g>
<path d="M154.38 416.487C151.635 422.928 154.457 428.991 155.713 432.994C156.97 436.996 152.678 439.725 148.825 440.691C144.972 441.656 135.191 452.159 135.191 452.159C135.191 452.159 123.335 459.483 119.257 458.672C115.179 457.861 123.774 449.347 123.774 449.347L134.077 430.767C134.225 428.849 137.408 420.702 137.408 420.702L143.3 390.98L144.083 387.031L164.973 385.77C164.973 385.77 163.876 389.157 162.364 393.733C159.821 401.43 156.099 412.467 154.38 416.487Z" fill="#CC818C"/>
<path d="M321.101 312.596C320.36 314.005 311.842 315.704 311.842 315.704L306.133 316.812C306.133 316.812 296.797 321.406 289.98 321.406L253.262 327.084L248.336 327.848V307.042C248.336 307.042 250.814 307.303 254.324 307.634C262.166 308.321 275.142 309.233 276.938 307.954C279.535 306.107 281.236 299.002 285.605 299.819C289.974 300.636 295.167 306.628 295.167 306.628C295.167 306.628 301.243 309.511 307.171 308.031C313.098 306.551 321.842 311.187 321.101 312.596Z" fill="#CC818C"/>
<path opacity="0.1" d="M254.561 325.474C254.561 325.474 254.033 326.066 253.262 327.078L248.336 327.842V307.042C248.336 307.042 250.814 307.303 254.324 307.634C260.216 312.282 254.561 325.474 254.561 325.474Z" fill="black"/>
<path d="M183.651 320.666L203.373 337.102C206.454 339.666 210.277 341.175 214.281 341.406C220.41 341.767 229.978 342.65 236.925 344.793L239.818 332.726C239.818 332.726 248.117 333.022 249.895 330.21C250.94 328.55 252.103 326.967 253.375 325.474C253.375 325.474 259.38 311.489 252.563 307.196C252.563 307.196 245.005 304.899 243.446 302.827C241.887 300.755 231.371 296.983 228.11 297.202C224.85 297.421 215.217 297.942 215.217 297.942C215.217 297.942 211.435 293.65 209.734 294.094C208.033 294.538 202.099 294.094 202.099 294.094C202.099 294.094 200.469 289.908 198.839 283.91C197.208 277.912 187.504 275.769 187.504 275.769L183.651 320.666Z" fill="#565987"/>
<path opacity="0.1" d="M183.651 320.666L203.373 337.102C206.454 339.666 210.277 341.175 214.281 341.406C220.41 341.767 229.978 342.65 236.925 344.793L239.818 332.726C239.818 332.726 248.117 333.022 249.895 330.21C250.94 328.55 252.103 326.967 253.375 325.474C253.375 325.474 259.38 311.489 252.563 307.196C252.563 307.196 245.005 304.899 243.446 302.827C241.887 300.755 231.371 296.983 228.11 297.202C224.85 297.421 215.217 297.942 215.217 297.942C215.217 297.942 211.435 293.65 209.734 294.094C208.033 294.538 202.099 294.094 202.099 294.094C202.099 294.094 200.469 289.908 198.839 283.91C197.208 277.912 187.504 275.769 187.504 275.769L183.651 320.666Z" fill="black"/>
<path d="M174.831 173.311L172.649 173.72H172.513L172.193 173.779L168.458 174.472L167.308 175.833L167.261 175.881L163.568 180.25L160.456 183.299L160.426 183.335L157.794 185.893L153.342 190.315L152.595 192.157L150.971 196.236L150.55 197.272L146.104 202.009L143.265 208.078L136.626 211.926L129.482 208.226L126.222 203.489L126.963 196.704L127.111 195.348L129.287 191.861L131.261 188.687L135.114 183.211L142.524 178.178L143.852 177.829L145.34 177.438C145.453 177.276 145.558 177.108 145.654 176.935C145.779 176.726 145.892 176.511 145.992 176.289C147.657 172.701 147.07 167.367 145.944 162.636C145.081 159.097 143.937 155.633 142.524 152.275L162.086 149.463C162.086 149.463 161.896 153.252 161.896 159.161C161.896 160.641 161.896 162.245 161.938 163.962C162.032 169.291 166.988 171.6 170.729 172.583C171.692 172.839 172.67 173.037 173.657 173.175C174.38 173.287 174.831 173.311 174.831 173.311Z" fill="#CC818C"/>
<path d="M144.006 176.106C144.006 176.106 144.895 172.553 137.782 163.524C130.668 154.495 129.334 139.545 129.334 139.545C129.334 139.545 127.556 131.848 129.334 129.628C131.113 127.408 134.077 102.985 134.077 102.985L138.967 89.2193C138.967 89.2193 162.827 64.9443 152.898 61.984C146.152 59.9709 138.078 70.3381 133.638 77.1825C131.445 80.5457 130.028 84.3538 129.488 88.3312L115.997 125.188C115.997 125.188 114.663 129.628 115.997 137.325C117.33 145.022 120.294 158.64 120.294 158.64L127.852 177.752C127.852 177.752 131.83 189.652 129.767 191.103L134.373 184.3L144.006 176.106Z" fill="#CC818C"/>
<path d="M262.119 210.168C262.119 210.168 259.451 217.273 253.968 216.68C248.485 216.088 222.106 208.539 222.106 208.539C222.106 208.539 211.139 203.063 206.841 203.211C202.544 203.359 182.833 194.182 182.833 194.182C182.833 194.182 181.446 196.005 179.899 197.924C178.216 200.025 176.342 202.246 175.868 202.323C174.979 202.471 161.197 204.395 161.197 204.395L151.86 200.102L150.971 196.236L150.55 194.46L152.619 192.157L155.34 189.131L160.444 183.317L160.474 183.282L167.285 175.887L167.332 175.839L171.695 174.063L172.537 173.72H172.673C173.195 173.631 175.198 173.447 177.884 174.963C179.754 176.021 181.83 176.663 183.972 176.846C188.234 177.15 192.27 178.876 195.43 181.748L217.363 193.276L251.893 205.709C251.893 205.709 254.857 188.687 259.896 192.388C264.935 196.088 262.119 210.168 262.119 210.168Z" fill="#CC818C"/>
<path opacity="0.1" d="M179.899 197.924C178.216 200.025 176.342 202.246 175.868 202.323C174.979 202.471 161.197 204.395 161.197 204.395L151.86 200.102L150.971 196.236L150.55 197.272L146.104 202.009L143.265 208.078L136.626 211.926L129.482 208.226L126.222 203.489L126.963 196.704C127.337 195.899 128.356 193.708 129.287 191.861C129.727 190.843 130.279 189.878 130.935 188.983C131.528 188.593 132.15 184.395 132.15 184.395C134.841 176.645 143.858 175.454 143.858 175.454L145.298 176.804L145.926 177.456C145.672 177.414 145.974 176.864 145.648 176.952C145.126 177.1 144.895 177.888 144.225 178.32C140.579 180.688 134.883 186.212 132.63 188.835C132.085 189.469 131.522 190.091 130.947 190.694C127.692 194.134 128.291 198.693 128.291 198.693C127.479 202.246 134.663 204.91 134.663 204.91C136.667 201.583 150.224 192.406 150.224 192.406L159.353 182.192C162.151 177.325 167.652 174.11 170.723 172.607C172.08 171.943 172.969 171.612 172.969 171.612L176.384 173.068C175.482 172.827 174.528 172.869 173.651 173.187C173.147 173.343 172.657 173.541 172.187 173.779C172.009 173.868 171.831 173.962 171.665 174.063C170.732 174.605 169.854 175.237 169.045 175.952L161.374 184.318C155.512 190.706 159.928 201.038 168.601 201.186H168.678C173.977 202.406 177.777 199.954 179.899 197.924Z" fill="black"/>
<path opacity="0.1" d="M164.973 385.788C164.973 385.788 163.876 389.174 162.364 393.751C156.567 394.183 146.993 391.945 143.3 390.998L144.083 387.049L164.973 385.788Z" fill="black"/>
<path d="M145.932 177.456L144.035 175.514C144.035 175.514 137.189 176.449 132.938 183.755C132.938 183.755 130.953 189.232 130.342 189.623C129.731 190.013 126.222 197.669 126.222 197.669C126.222 197.669 122.025 210.049 125.529 217.651C129.032 225.254 129.186 228.753 129.186 228.753L131.806 240.002L132.891 249.866L142.305 273.105L150.971 285.438C150.971 285.438 150.159 294.538 148.381 295.799C146.602 297.06 147.414 303.567 147.414 303.567L146.306 320.666C146.306 320.666 142.82 325.77 142.601 334.059C142.382 342.348 141.119 344.716 141.119 344.716C141.119 344.716 140.526 351.673 142.156 354.858C143.786 358.043 139.56 361.371 139.56 361.371L143.194 373.727L141.783 389.417C141.783 389.417 158.529 394.083 164.753 392.159C170.978 390.234 174.238 391.566 174.238 391.566L185.353 346.622L189.206 311.323C189.206 311.323 189.431 286.308 192.763 278.682C195.62 272.169 191.873 248.966 179.004 244.585C176.319 243.673 174.955 240.63 172.661 238.96C170.61 237.474 167.261 233.963 168.903 227.616C171.203 218.735 176.983 204.75 176.983 204.75L181.262 196.236C181.262 196.236 176.609 203.755 168.091 201.831H168.014C159.341 201.677 154.925 191.346 160.788 184.963L168.458 176.591C168.458 176.591 172.685 172.701 175.797 173.684L172.388 172.228C172.388 172.228 162.791 175.78 158.754 182.808L149.625 193.021C149.625 193.021 136.08 202.157 134.077 205.508C134.077 205.508 126.892 202.844 127.704 199.291C127.704 199.291 127.111 194.726 130.36 191.286C130.953 190.694 131.498 190.067 132.043 189.433C134.966 186.023 143.045 176.976 145.932 177.456Z" fill="#565987"/>
<path opacity="0.1" d="M147.047 238.439C147.047 238.439 144.895 254.058 146.525 257.237L147.047 238.439Z" fill="black"/>
<path opacity="0.1" d="M148.452 244.508L150.752 253.466C150.752 253.466 151.564 247.989 148.452 244.508Z" fill="black"/>
<path opacity="0.1" d="M134.818 242.418C134.818 242.418 139.412 265.212 144.45 272.098L134.818 242.418Z" fill="black"/>
<path opacity="0.1" d="M167.202 269.896C167.202 269.896 159.347 277.297 156.306 276.758C156.306 276.758 168.387 277.279 172.163 270.914C172.163 270.932 169.721 269.156 167.202 269.896Z" fill="black"/>
<path opacity="0.1" d="M178.091 269.304C178.091 269.304 168.014 276.628 166.016 277.297C166.016 277.297 176.905 274.188 178.091 269.304Z" fill="black"/>
<path opacity="0.1" d="M144.006 214.904C144.006 214.904 138.967 221.346 136.448 220.606C136.448 220.606 142.601 220.825 144.006 214.904Z" fill="black"/>
<path opacity="0.1" d="M149.714 223.193C149.714 223.193 160.681 208.32 165.868 208.912C165.868 208.912 153.419 219.718 149.714 223.193Z" fill="black"/>
<path opacity="0.1" d="M164.902 217.782C164.902 217.782 157.936 221.269 158.677 222.287C159.418 223.306 164.902 217.782 164.902 217.782Z" fill="black"/>
<path opacity="0.1" d="M169.94 331.986C169.94 331.986 146.673 345.533 144.527 346.196C144.527 346.196 148.529 349.233 152.305 347.753C156.081 346.273 169.94 331.986 169.94 331.986Z" fill="black"/>
<path opacity="0.1" d="M150.455 360.187C150.455 360.187 141.119 359.222 141.486 362.259C141.854 365.296 150.455 360.187 150.455 360.187Z" fill="black"/>
<path opacity="0.1" d="M162.086 149.463C162.086 149.463 161.896 153.252 161.896 159.161C159.701 160.957 157.111 162.208 154.338 162.812C151.565 163.415 148.689 163.353 145.944 162.63C145.081 159.091 143.937 155.627 142.524 152.269L162.086 149.463Z" fill="black"/>
<path d="M150.527 162.068C160.43 162.068 168.458 154.049 168.458 144.158C168.458 134.266 160.43 126.247 150.527 126.247C140.623 126.247 132.595 134.266 132.595 144.158C132.595 154.049 140.623 162.068 150.527 162.068Z" fill="#CC818C"/>
<path opacity="0.1" d="M155.227 155.087C155.731 162.411 157.272 170.789 163.639 174.472C168.239 177.13 174.036 176.431 179.129 174.916C184.221 173.4 189.206 171.138 194.505 170.884C198.578 170.688 202.603 171.689 206.663 171.943C210.724 172.198 215.17 171.565 218.069 168.711C222.218 164.649 221.459 157.266 217.529 152.997C213.599 148.728 207.452 147.177 201.631 147.337C194.517 147.532 186.574 149.705 180.948 145.395C177.172 142.494 175.744 137.461 172.566 133.915C167.261 127.994 143.798 119.444 138.831 129.095C136.501 133.613 147.088 136.84 149.543 140.108C153.419 145.265 154.765 148.326 155.227 155.087Z" fill="black"/>
<path d="M155.779 154.454C156.288 161.784 157.824 170.161 164.19 173.838C168.79 176.497 174.588 175.798 179.68 174.288C184.772 172.778 189.757 170.511 195.063 170.256C199.129 170.061 203.154 171.055 207.221 171.316C211.287 171.576 215.721 170.937 218.62 168.083C222.769 164.016 222.011 156.638 218.081 152.37C214.15 148.101 208.003 146.55 202.188 146.709C195.074 146.899 187.125 149.078 181.5 144.761C177.724 141.86 176.295 136.834 173.118 133.281C167.812 127.361 144.35 118.817 139.382 128.468C137.052 132.979 147.64 136.206 150.1 139.48C153.971 144.631 155.316 147.686 155.779 154.454Z" fill="#663D5B"/>
<path opacity="0.1" d="M134.213 204.904C134.488 202.567 135.259 200.316 136.474 198.301C137.69 196.285 139.322 194.552 141.261 193.217" fill="black"/>
<path opacity="0.1" d="M201.447 297.646C201.392 298.226 201.25 298.795 201.026 299.334C200.249 301.658 199.314 303.927 198.228 306.125C199.811 305.988 201.115 304.745 201.785 303.312C202.37 301.838 202.693 300.273 202.739 298.688C202.797 298.193 202.811 297.694 202.781 297.196C202.739 296.734 202.443 294.97 201.678 295.284C201.062 295.544 201.459 297.178 201.447 297.646Z" fill="black"/>
<path opacity="0.1" d="M219.687 166.23C216.782 169.084 212.348 169.723 208.282 169.463C204.215 169.202 200.172 168.208 196.124 168.409C190.789 168.663 185.845 170.925 180.747 172.441C175.649 173.957 169.857 174.655 165.251 171.997C158.891 168.314 157.35 159.936 156.846 152.612C156.383 145.851 155.032 142.79 151.161 137.633C148.819 134.513 139.098 131.434 140.212 127.242C139.89 127.62 139.611 128.033 139.382 128.474C137.052 132.985 147.64 136.212 150.1 139.486C153.971 144.637 155.316 147.704 155.779 154.46C156.288 161.789 157.824 170.167 164.19 173.844C168.79 176.502 174.588 175.804 179.68 174.294C184.772 172.784 189.757 170.517 195.063 170.262C199.129 170.067 203.154 171.061 207.221 171.322C211.287 171.582 215.721 170.943 218.62 168.089C219.443 167.273 220.098 166.304 220.547 165.235C220.286 165.588 219.999 165.921 219.687 166.23Z" fill="black"/>
<path d="M132.927 220.067L130.751 224.804L137.669 223.424L132.927 220.067Z" fill="#CC818C"/>
<path opacity="0.1" d="M132.927 220.067L131.136 224.804H130.751L132.927 220.067Z" fill="black"/>
<path opacity="0.1" d="M304.112 435.054C317.535 435.054 328.416 433.562 328.416 431.721C328.416 429.88 317.535 428.387 304.112 428.387C290.689 428.387 279.807 429.88 279.807 431.721C279.807 433.562 290.689 435.054 304.112 435.054Z" fill="#F2B23D"/>
<path opacity="0.1" d="M397.209 444.48C410.632 444.48 421.513 442.988 421.513 441.147C421.513 439.306 410.632 437.813 397.209 437.813C383.786 437.813 372.905 439.306 372.905 441.147C372.905 442.988 383.786 444.48 397.209 444.48Z" fill="#F2B23D"/>
<path opacity="0.1" d="M506.869 431.721C520.292 431.721 531.173 430.228 531.173 428.387C531.173 426.546 520.292 425.054 506.869 425.054C493.446 425.054 482.564 426.546 482.564 428.387C482.564 430.228 493.446 431.721 506.869 431.721Z" fill="#F2B23D"/>
<path opacity="0.1" d="M359.946 470.359C369.487 470.359 377.22 469.299 377.22 467.991C377.22 466.683 369.487 465.623 359.946 465.623C350.406 465.623 342.673 466.683 342.673 467.991C342.673 469.299 350.406 470.359 359.946 470.359Z" fill="#F2B23D"/>
<path opacity="0.1" d="M456.571 467.991C466.111 467.991 473.845 466.931 473.845 465.623C473.845 464.315 466.111 463.255 456.571 463.255C447.031 463.255 439.297 464.315 439.297 465.623C439.297 466.931 447.031 467.991 456.571 467.991Z" fill="#F2B23D"/>
<path d="M397.737 440.401C397.737 440.401 363.651 328.795 403.072 284.094C432.557 250.654 466.032 254.656 481.023 258.789C484.902 259.82 488.511 261.682 491.598 264.245C494.685 266.808 497.177 270.011 498.902 273.632C504.142 284.929 503.199 303.235 466.204 324.651C404.257 360.471 400.404 409.613 400.404 409.613L397.737 440.401Z" fill="#F2B23D"/>
<path d="M475.688 274.621C475.688 274.621 375.211 306 397.737 440.401" stroke="#565987" stroke-miterlimit="10"/>
<path d="M417.002 285.87C417.002 285.87 430.832 295.183 426.439 309.174" stroke="#565987" stroke-miterlimit="10"/>
<path d="M465.611 294.159C465.611 294.159 457.152 285.562 446.855 290.305" stroke="#565987" stroke-miterlimit="10"/>
<path d="M425.894 337.38C425.894 337.38 411.039 329.849 407.198 339.281" stroke="#565987" stroke-miterlimit="10"/>
<path d="M389.141 353.07C389.141 353.07 400.291 352.182 400.493 357.511" stroke="#565987" stroke-miterlimit="10"/>
<path d="M396.385 441.289C396.385 441.289 436.303 360.175 447.27 361.951C452.48 362.792 454.881 367.913 455.966 373.052C457.306 379.705 456.535 386.609 453.761 392.804C448.1 405.776 432.883 430.424 396.385 441.289Z" fill="#F2B23D"/>
<path d="M446.944 377.345C446.944 377.345 405.046 438.032 396.948 440.697" stroke="#565987" stroke-miterlimit="10"/>
<path d="M450.797 386.818H441.016" stroke="#565987" stroke-miterlimit="10"/>
<path d="M439.083 409.021L423.754 409.678" stroke="#565987" stroke-miterlimit="10"/>
<path d="M429.753 391.259L431.419 399.234" stroke="#565987" stroke-miterlimit="10"/>
<path d="M413.451 415.533L413.748 422.78" stroke="#565987" stroke-miterlimit="10"/>
<path d="M397.571 441.289C397.571 441.289 357.652 360.175 346.686 361.951C341.475 362.792 339.074 367.913 337.99 373.052C336.631 379.699 337.382 386.603 340.135 392.804C345.797 405.776 361.013 430.424 397.571 441.289Z" fill="#F2B23D"/>
<path d="M346.952 377.345C346.952 377.345 388.851 438.032 396.948 440.697" stroke="#565987" stroke-miterlimit="10"/>
<path d="M343.094 386.818H352.874" stroke="#565987" stroke-miterlimit="10"/>
<path d="M354.813 409.021L370.142 409.678" stroke="#565987" stroke-miterlimit="10"/>
<path d="M364.137 391.259L362.478 399.234" stroke="#565987" stroke-miterlimit="10"/>
<path d="M380.439 415.533L380.143 422.78" stroke="#565987" stroke-miterlimit="10"/>
<path d="M466.085 460.229C467.175 459.346 467.969 458.152 468.361 456.807C468.652 455.445 468.071 453.817 466.772 453.319C465.314 452.763 463.755 453.769 462.575 454.788C461.396 455.806 460.038 456.973 458.491 456.753C459.286 456.033 459.88 455.12 460.215 454.102C460.551 453.084 460.617 451.996 460.406 450.945C460.342 450.509 460.157 450.098 459.872 449.761C459.066 448.897 457.596 449.27 456.624 449.951C453.541 452.118 452.682 456.298 452.67 460.063C452.356 458.701 452.617 457.286 452.611 455.919C452.605 454.551 452.22 452.958 451.046 452.236C450.321 451.835 449.503 451.631 448.675 451.644C447.288 451.597 445.746 451.733 444.798 452.745C443.612 454 443.927 456.114 444.952 457.482C445.978 458.849 447.531 459.732 448.959 460.691C450.111 461.37 451.093 462.304 451.828 463.42C451.916 463.574 451.987 463.737 452.042 463.906H460.726C462.67 462.927 464.472 461.69 466.085 460.229Z" fill="#F2B23D"/>
<path d="M313.988 427.564C315.076 426.679 315.868 425.483 316.258 424.136C316.554 422.775 315.973 421.176 314.669 420.649C313.211 420.093 311.658 421.099 310.472 422.123C309.287 423.148 307.935 424.302 306.394 424.089C307.188 423.365 307.781 422.447 308.114 421.426C308.448 420.405 308.511 419.316 308.297 418.263C308.231 417.827 308.046 417.418 307.763 417.079C306.951 416.214 305.487 416.582 304.515 417.262C301.432 419.429 300.573 423.609 300.555 427.375C300.247 426.019 300.508 424.604 300.502 423.23C300.496 421.857 300.11 420.27 298.931 419.542C298.203 419.151 297.385 418.959 296.56 418.985C295.178 418.932 293.631 419.068 292.689 420.081C291.503 421.342 291.817 423.45 292.837 424.817C293.857 426.185 295.416 427.067 296.85 428.026C297.998 428.71 298.976 429.643 299.713 430.756C299.802 430.911 299.874 431.076 299.927 431.247H308.617C310.564 430.265 312.37 429.027 313.988 427.564Z" fill="#F2B23D"/>
<path d="M364.665 460.229C365.755 459.346 366.549 458.152 366.941 456.807C367.232 455.445 366.651 453.817 365.353 453.319C363.894 452.763 362.335 453.769 361.156 454.788C359.976 455.806 358.619 456.973 357.071 456.753C357.867 456.034 358.462 455.12 358.799 454.102C359.135 453.084 359.202 451.997 358.992 450.945C358.928 450.509 358.743 450.098 358.458 449.761C357.652 448.897 356.182 449.27 355.21 449.951C352.127 452.118 351.268 456.298 351.256 460.063C350.942 458.701 351.203 457.286 351.197 455.919C351.191 454.551 350.806 452.958 349.632 452.236C348.907 451.835 348.089 451.631 347.261 451.644C345.874 451.597 344.332 451.733 343.384 452.745C342.198 454 342.512 456.114 343.538 457.482C344.563 458.849 346.117 459.732 347.545 460.691C348.697 461.37 349.679 462.304 350.414 463.42C350.502 463.574 350.573 463.737 350.628 463.906H359.312C361.254 462.926 363.054 461.69 364.665 460.229Z" fill="#F2B23D"/>
<path d="M508.422 394.195C508.422 394.195 511.682 398.446 506.922 404.853C502.162 411.259 498.238 416.694 499.809 420.696C499.809 420.696 506.993 408.772 512.85 408.606C518.707 408.441 514.877 401.365 508.422 394.195Z" fill="#F2B23D"/>
<path opacity="0.1" d="M508.422 394.195C508.707 394.605 508.931 395.053 509.086 395.527C514.794 402.218 517.829 408.464 512.346 408.624C507.242 408.766 501.119 417.89 499.648 420.193C499.697 420.37 499.754 420.544 499.82 420.714C499.82 420.714 507.005 408.79 512.862 408.624C518.719 408.458 514.877 401.365 508.422 394.195Z" fill="black"/>
<path d="M514.498 399.613C514.498 401.111 514.332 402.324 514.124 402.324C513.917 402.324 513.757 401.093 513.757 399.613C513.757 398.133 513.964 398.825 514.172 398.825C514.379 398.825 514.498 398.133 514.498 399.613Z" fill="#FFD037"/>
<path d="M516.578 401.401C515.262 402.117 514.112 402.549 514.018 402.372C513.923 402.194 514.901 401.46 516.217 400.744C517.533 400.027 517.017 400.548 517.112 400.744C517.207 400.939 517.906 400.684 516.578 401.401Z" fill="#FFD037"/>
<path d="M491.231 394.195C491.231 394.195 487.971 398.446 492.731 404.853C497.491 411.259 501.415 416.694 499.844 420.696C499.844 420.696 492.666 408.772 486.803 408.606C480.94 408.441 484.817 401.365 491.231 394.195Z" fill="#F2B23D"/>
<path opacity="0.1" d="M491.231 394.195C490.945 394.605 490.719 395.054 490.561 395.527C484.858 402.218 481.823 408.464 487.301 408.624C492.411 408.766 498.564 417.89 500.004 420.193C499.957 420.371 499.897 420.545 499.826 420.714C499.826 420.714 492.648 408.79 486.785 408.624C480.922 408.458 484.817 401.365 491.231 394.195Z" fill="black"/>
<path d="M485.19 399.613C485.19 401.111 485.362 402.324 485.57 402.324C485.777 402.324 485.943 401.111 485.943 399.613C485.943 398.115 485.736 398.825 485.528 398.825C485.321 398.825 485.19 398.133 485.19 399.613Z" fill="#FFD037"/>
<path d="M483.116 401.401C484.432 402.117 485.576 402.549 485.676 402.372C485.777 402.194 484.793 401.46 483.477 400.744C482.161 400.027 482.677 400.548 482.576 400.744C482.475 400.939 481.8 400.684 483.116 401.401Z" fill="#FFD037"/>
<path d="M486.228 420.158C486.228 420.158 495.333 419.879 498.084 417.925C500.834 415.972 512.091 413.645 512.773 416.777C513.454 419.909 526.454 432.342 516.175 432.425C505.896 432.508 492.292 430.827 489.553 429.157C486.815 427.487 486.228 420.158 486.228 420.158Z" fill="#A8A8A8"/>
<path opacity="0.2" d="M516.353 431.336C506.074 431.419 492.464 429.737 489.725 428.068C487.645 426.801 486.809 422.248 486.536 420.146H486.228C486.228 420.146 486.821 427.482 489.547 429.145C492.274 430.809 505.891 432.496 516.169 432.413C519.133 432.413 520.159 431.336 520.106 429.773C519.685 430.726 518.558 431.318 516.353 431.336Z" fill="black"/>
</g>
<defs>
<linearGradient id="paint0_linear" x1="218.276" y1="463.089" x2="218.276" y2="57.4131" gradientUnits="userSpaceOnUse">
<stop stop-color="#808080" stop-opacity="0.25"/>
<stop offset="0.54" stop-color="#808080" stop-opacity="0.12"/>
<stop offset="1" stop-color="#808080" stop-opacity="0.1"/>
</linearGradient>
<clipPath id="clip0">
<rect width="609" height="473" fill="white"/>
</clipPath>
</defs>
</svg>
